/* XPM */
static char *gbrainy[] = {
/* columns rows colors chars-per-pixel */
"128 128 71 1 ",
"  c black",
". c #000506",
"X c #00090C",
"o c #000D11",
"O c #001115",
"+ c #00151B",
"@ c #00181F",
"# c #001B23",
"$ c #001E26",
"% c #002129",
"& c #00242E",
"* c #002630",
"= c #002833",
"- c #002D39",
"; c #002E3B",
": c #00303D",
"> c #00323F",
", c #003442",
"< c #003545",
"1 c #003644",
"2 c #003847",
"3 c #003949",
"4 c #003C4C",
"5 c #003D4D",
"6 c #003D4F",
"7 c #003F51",
"8 c #004152",
"9 c #004153",
"0 c #004355",
"q c #004557",
"w c #004558",
"e c #00475A",
"r c #00485C",
"t c #00495C",
"y c #00485D",
"u c #00495D",
"i c #004A5F",
"p c #004C61",
"a c #004D61",
"s c #004C62",
"d c #004D62",
"f c #004F64",
"g c #005066",
"h c #005166",
"j c #005268",
"k c #00546A",
"l c #00546B",
"z c #00566E",
"x c #005870",
"c c #005A73",
"v c #005C74",
"b c #005C75",
"n c #005E78",
"m c #006079",
"M c #00607A",
"N c #00627C",
"B c #00637E",
"V c #00637F",
"C c #00647E",
"Z c #00647F",
"A c #006681",
"S c #006783",
"D c #006784",
"F c #006883",
"G c #006884",
"H c #006986",
"J c #006B88",
"K c #006B89",
"L c #006C88",
"P c #006C89",
"I c None",
/* pixels */
"IIIIIIIIIIIIIIIIIIIIIIIIIIIIIIIIIIIIIIIIIIIIIIIIIIIIIIIIIIIIIIIIIIIIIIIIIIIIIIIIIIIIIIIIIIIIIIIIIIIIIIIIIIIIIIIIIIIIIIIIIIIIIIII",
"IIIIIIIIIIIIIIIIIIIIIIIIIIIIIIIIIIIIIIIIIIIIIIIIIIIIIIIIIIIIIIIIIIIIIIIIIIIIIIIIIIIIIIIIIIIIIIIIIIIIIIIIIIIIIIIIIIIIIIIIIIIIIIII",
"IIIIIIIIIIIIIIIIIIIIIIIIIIIIIIIIIIIIIIIIIIIIIIIIIIIIIIIIIIIIIIIIIIIIIIIIIIIIIIIIIIIIIIIIIIIIIIIIIIIIIIIIIIIIIIIIIIIIIIIIIIIIIIII",
"IIIIIIIIIIIIIIIIIIIIIIIIIIIIIIIIIIIIIIIIIIIIIIIIIIIIIIIIIIIIIIIIIIIIIIIIIIIIIIIIIIIIIIIIIIIIIIIIIIIIIIIIIIIIIIIIIIIIIIIIIIIIIIII",
"IIIIIIIIIIIIIIIIIIIIIIIIIIIIIIIIIIIIIIIIIIIIIIIIIIIIIIIIIIIIIIIIIIIIIIIIIIIIIIIIIIIIIIIIIIIIIIIIIIIIIIIIIIIIIIIIIIIIIIIIIIIIIIII",
"IIIIIIIIIIIIIIPPPPPPPPPPPPPPPPPPPPPPPPPPPPPPPPPPPPPPPPPPPPPPPPPPPPPPPPPPPPPPPPPPPPLLPLPPPPPPPPPPPPPPLLPLPPPPLKPJPPKIIIIIIIIIIIII",
"IIIIIIIIIIIHPPPPPPPPPPPPPPPPPPPPPPPPPPPPPPPPPPPPPPPPPPPPPPPPPPPPPPPPPPPPPPPPPPPPPPPPPPPPPPPPPPPPPPPPPPPLPPPPLPJKKPKPPIIIIIIIIIII",
"IIIIIIIIIIHPPHPHKJHPPPLHPPHLKPPPPHPPPPHLPPHPPPPHLPPPHPPPPPPHJJJKLHPPPKHPHJPPPHKPPPPHJLPPHPPPLHPPPPHLLPPHPHKPPHJJKKHPKHIIIIIIIIII",
"IIIIIIIIIGPPHJJPHKLPJJJHHPPLLHPHJHJHJJPLKKKKHJKHHHPLHJHJHHKJJJHHHJJJJHJHPHPHPPLHJHPPJHPHLPLPJLJJHHPKJHJKJPHPHJJJPHHJHJHIIIIIIIII",
"IIIIIIIIAHJHJJHKJJHHHHHJKHHPHLPHHJJHHHHKHHHHHHJJHKHHJJJHHJHHHHHJLHHHHJHJHKHLHHPHHJHHPHHLHHHHHHHHHLHHHJHHHHHHJHHHHJHJHHJHIIIIIIII",
"IIIIIIIIHPHHHHHHHHHJHHJHHHLHKHHHJHHHHJHHHHJHJHHJKHHKHHHHHHHHHJHJHHHHHHHHHKHHHKHHHHHHHHHHHHHHHHHHHHHHHHHHHHHHHHHHHHHHHHHHGIIIIIII",
"IIIIIIINHHHHJHHHHHHLHHHHHHHHHLHHHHHHHHHHHHHHHHHHHHHHHHHHHJHHHHHHHHHJHHHHHHHHHHHHHHHHHHHHHHHHHHHHHJHHHHHHHHHHHHHHHHHHHHHHHIIIIIII",
"IIIIIIIGHHHHHHHHHHHGHHHHGHHHHHHHHHHHHHHHHHHHHHHHHHHHHGHHHHHHGHHGHHHHHHHHHGGHHHHHHHHHHHHHHHHHHHHHHHFHHHHGHHGHHHFHHHHHHFHHGSIIIIII",
"IIIIIIxHHGHHHGHHHHHHGHHGHHHGGHHGHHSHHDHHHHHGGHHGHGHHDHHHHHHHDHHHHGHGGHHDHHHHHGHGGHHGHGHGHGGHHGGHHGHHHFHHGHHGHGHHHGHGHHHSHSIIIIII",
"IIIIIIjGGHHGFGHGGHGGGHHDSGFHGGGHFGDHSFSGFHGHHGGGGHGHHGGSGHGSGHSHFHGHGHHGGHHDHGGHHSFHSDFHGFHGGHGGGDGSSGHGGGHHGHGHGHGGHGGGGAIIIIII",
"IIIIIIjGGGSFDGDFHHGGDSSSHGSHGHGGHGSGGSHGGGGGGGGGGGGGSSGHGGSHFGSGSGGGGSSSSSGGDGGDGGDGDSSHGHGGGGGGGHGHSSSGGHGGDGSGGGGGGGGSSAIIIIII",
"IIIIIIfSFSGFGGSFSSSDGFFGDGFGDSSGFFSSSAFGGGDFDSSGSFDDSSSSGGDSSDSSSSSSASAGSSSDSSAGFSGGFSAGDDSGSSGDSGFGASSSFGGGGGASDSSSSAGGDVIIIIII",
"IIIIIIiSSSSSFASSSSSSFASSSSGGSSSSSASSFGGGSSSSSSSASSDAASSASASGAASSSSSAGFSGDSADASSFASAFSSASASSAFAASAASGFSASSASASASSSSSSSASASNIIIIII",
"IIIIIIiSAAGSSSSASSSSSSSSAAGGASSASSSASSAGSDASSASSASDSSASSAAAFFSSASASSFAAFAASASGASSDSSSDASSAAAAAADSADAAAAAAAAFAASAAAAAASAAANIIIIII",
"IIIIIIiAFAAAAAAAAAAAAAAAASAAAASAAAAAAAAAAAAAAAAAAAAASAAAGAAAZAAASAAAASAASAASAAADAAAAAAAAASAAASDADAAAASAAAAAASAAASSAAAAAAANIIIIII",
"IIIIIIiAAAAAAAAAAAAAAAAAAAAAAAAAAAAAAAAAAAAAAAAAAAAAAAAAAAb0;9jjjjjxCVZASAAAAAAAAAAAAAAAAAAAAAAAAAAAAAAAAAAAAAASAAAAAAAAANIIIIII",
"IIIIIIiAAAAAAAAAAAZAAACAAAZAAAAAAAAAAAAAAAAAAASVMciihnAAAAAne%X....X&&3ijMNAAAAAAAAAAAZABAAAAAAAAZAAAAAAAAAAAAANAAAAAAAAAMIIIIII",
"IIIIIIuAAAZAZAACZAAAAAZAAZAAAAAZAAZAZAACZZAZbj0>#@ ..=9zZAZANne&       .X@:0jnAANAAAAZAZAAAANABAAAAZAAZAZAZABAAAVZAVVANAAMIIIIII",
"IIIIIIeANAZAAZAAAZZANAAACAZAZZAZNAACACAAZx0,@O         @4zZZACAb0+IIII      o+2jMNNAZAZABAZNABAAVZAZNAZAZAZZAANAVAVAZAACAMIIIIII",
"IIIIIItAAANAANNANAANNAAAACZANAANANAZANMi,@    IIIIIII    @7jNAVANzIIIIIIII     o&7jnABANANANANANVVANAANAANAANAANBAVAANCCNMIIIIII",
"IIIIIIeNNAANNAAAACBAAVNNCCANANNAANNAnf>X  IIIIIIIIIIIIIII  X7cBANAxIIIIIIIIIII    X-ecNANANAZZNAVZBCNCCNNANVCNNACNZNNANAAnIIIIII",
"IIIIIIiNANANAVNNNZNZNVNANNAAVNNANAnh>X IIIIIIIIIIIIIIIIIIIIII=zNNANjIIIIIIIIIIIII   .&inNNBNANCCNANNAVCNANCCBBNNNZANANZNNnIIIIII",
"IIIIIIeVNNNANNANBNANBNANNANNNANNMf-X IIIIIIIIIIIIIIIIIIIIIIIII=cVNNnIIIIIIIIIIIIIII   .$5xMANCNCBNNANNNANCNCNVANZNZNVNZNNnIIIIII",
"IIIIIIeNBNNNZNNNNCNBNBNBNVNNNNCh-X IIIIIIIIIIIIIIIIIIIIIIIIIIII0NNNNIIIIIIIIIIIIIIIIII   #7nNNNNCNNNNNNNNCNNNCNNNNZNNNNCNnIIIIII",
"IIIIIIeNNNBNNNCNNNNNNNNNNNNNNMe$ IIIIIIIIIIIIIIIIIIIIIIIIIIIIII=nNNNIIIIIIIIIIIIIIIIIIII   -enNNNNNNNNNNNNNNNNNNNNNNNNNNNnIIIIII",
"IIIIIIeNNNNNNNNNNNNNNNNNNNNNc4.IIIIIIIIIIIIIIIIIIIIIIIIIIIIIIII=nNNNIIIIIIIIIIIIIIIIIIIIII  X-jMNNNNNMNNNNNNNNNNNNNNNNNNNnIIIIII",
"IIIIIIeNMNNNNNNNNMNNMNNNNNMh-.IIIIIIIIIIIIIIIIIIIIIIIIIIIIIIIII2MNNMIIIIIIIIIIIIIIIIIIIIIIII  +9MMNNMNNNMNMNMNMNMNNMNMNMMnIIIIII",
"IIIIIIeMNNNNMNMNMNNNNmNNMNh&IIIIIIIIIIIIIIIIIIIIIIIIIIIIIIIIIIIfNMMnIIIIIIIIIIIIIIIIIIIIIIIII  X1jMNMNNMNmMNmNNmMMNmNmMNMbIIIIII",
"IIIIIIeMMMMMNmMmNMmMNMMMMj&IIIIIIIIIIIIIIIIIIIIIIIIIIIIIIIIIIIIcMNMkIIIIIIIIIIIIIIIIIIIIIIIIIII  +0MMMmNNMNmmmNMMNmNmNNmMbIIIIII",
"IIIIIIeMMNmmmmMNmmMMmmmmj&IIIIIIIIIIIIIIIIIIIIIIIIIIIIIIIIIIIIhmMMnIIIIIIIIIIIIIIIIIIIIIIIIIIIII  o0MMmmMMMMmmMMMmmmMMMMMbIIIIII",
"IIIIII0mMMmmmmmmmNMMmmmh&IIIIIIIIIIIIIIIIIIIIIIIIIIIIIIIIIIIIInMmMjIIIIIIIIIIIIIIIIIIIIIIIIIIIIIII o0cmmmMMMmmmmmmmmmmMMmcIIIIII",
"IIIIII0mmMMmnMmmmnMMmnl&IIIIIIIIIIIIIIIIIIIIIIIIIIIIIIIIIIIIIxMmmn1IIIIIIIIIIIIIIIIIIIIIIIIIIIIIIII X:znMnMMMMnnmnMMmnnMmcIIIIII",
"IIIIIIeMnmnMmnMnmMmnnn3IIIIIIIIIIIIIIIIIIIIIIIIIIIIIIIIIIIIIznnMmhIIIIIIIIIIIIIIIIIIIIIIIIIIIIIIIIII  -znnnnnnnnmnnnnnmnmcIIIIII",
"IIIIIIennmmnnmnnnnnnniIIIIIIIIIIIIIIIIIIIIIIIIIIIIIIIIIIIIIInnnnz>IIIIIIIIIIIIIIIIIIIIIIIIIIIIIIIIIII  >cMnnnnnnnnnnnmnnncIIIIII",
"IIIIII0nnnnnnnnnnnnnh%IIIIIIIIIIIIIIIIIIIIIIIIIIIIIIIIIIIIInnnnc2IIIIIIIIIIIIIIIIIIIIIIIIIIIIIIIIIIIII X0nnnnnnnnnnnnnnnncIIIIII",
"IIIIII0vnnnnnnnnnnnc>IIIIIIIIIIIIIIIIIIIIIIIIIIIIIIIIIIIIccnnnneIIIIIIIIIIIIIIIIIIIIIIIIIIIIIIIIIIIIIII o0nnnnnnnnnbnnnnncIIIIII",
"IIIIII0nnnnncncnnnbiIIIIIIIIIIIIIIIIIIIIIIIIIIIIIIIIIIIIccnnnc0IIIIIIIIIIIIIIIIIIIIIIIIIIIIIIIIIIIIIIIII %jncnnnnbnnncnnbxIIIIII",
"IIIIII0nnnnvnnnnncx&IIIIIIIIIIIIIIIIIIIIIIIIIIIIIIIIIIxnnnnnj3IIIIIIIIIIIIIIIIIIIIIIIIIIIIIIIIIIIIIIIIIII >nnnnncnbnbncnnxIIIIII",
"IIIIII0ncncncvncnc0IIIIIIIIIIIIIIIIIIIIIIIIIIIIIIIIIIcbccbce&IIIIIIIIIIIIIIIIIIIIIIIIIIIIIIIIIcnncIIIIIIII+fcnccncncncnnbxIIIIII",
"IIIIII0bcncnnnncnc-IIIIIIIIIIIIIIIIIIIIIIIIIIIIIIIIIxcbbbz2IIIIIIIIIIIIIIIIIIIIIIIcbvcbIIIIIIcbbbbvIIIIIII 3nccncbcnbcnccxIIIIII",
"IIIIII0cncncccncbpIIIIIIIIIIIIIIIIIIIIIIIIIIIIIIIIIIcbbcx,IIIIIIIIIIIIIIIIIIIIIIccnbcnnccIIxncbcnccnIIIIIII2cbncbbbcbccbcxIIIIII",
"IIIIII0ccccnbcccc4IIIIIIIIIIIIIIIIIIIIIIIIIIIIIIIIIzcncx,IIIIIIIIIIIIIIIIIIccIIIcccbccccccccccbclcccczIIII&fcncbnccccnbccxIIIIII",
"IIIIII0bccbcccnczIIIIIIIIIIIIIIIIIIIIIIIIIIIIIIIIIIxccc9IIIIIIIIIIIIIIIIIIcccccccccfijccbcccbcz4I0jcccxgifzcccccccvcbccccxIIIIII",
"IIIIII0ccccccccciIIIIIIIIIIIIIIIIIIIIIIIIIIIIIIIIIIzccx=IIIIIIIIIIIIIIIIIzcccccccciIII7xcccccz2IIIIicccccccccjfcccccccccczIIIIII",
"IIIIII9ccccccccc7IIIIIIIIIIIIIIIIIIIIIIIIIIIIIIIIIIlcccIIIIIIIIIIIIIIIIIIxxccccccx0IIII>elzzi=IIIII>jccccccch&-cccccccccczIIIIII",
"IIIIII9ccccccccxIIIIIIIIIIIIIIIIIIIIIIIIIIIIIIIIIIIjccxIIIIIIIIIIIIIIIIIzccccjcxxcl2IIIII@@@IIIIIIII>fcccxxi= +hccccxcxcxzIIIIII",
"IIIIII7cxcxcxcxlIIIIIIIIIIIIIIIIIIIIIIIIIIIIIIIIIIIjxxc0IIIIIIIIIxxxxcxxxcxz3=ixcxcxe=IIIIIIIIIIIIIIII,222>@  .0xxcxcxccxlIIIIII",
"IIIIII9cxcxcxcciIIIIIIIIIIIIIIIIIIIIIIIIIIIIIIIIIIIjcxxjIIIIIIxxcxxcxxcxccz3. @4xxcxclu1IIIIIIIIIIIIIIIIIIIIII 2xxcxxxxxczIIIIII",
"IIIIII7xxxxxxxxqIIIIIIIIIIIIIIIIIIIIIIIIIIIIIIIIIII0xxxzIIIIIzxxxxxxxxxxli-.I  .4jxxxxxzh0IIIIIIIIIIIIIIIIIIIII:zxxxxcxzxjIIIIII",
"IIIIII7xxxxxxxx3IIIIIIIIIIIIIIIIIIIIIIIIIIIIIIIIIII-zxxxjIIIxxxzxxxzjf09-+IIIIII.-9hxxxxxzgIIIIIIIIIIIIIIIIIIII@jxxxxxxxxjIIIIII",
"IIIIII7xxxzzxxlIIIIIIIIIIIIIIIIIIIIIIIIIIIIIIIIIIII&dzxzxIIgxzxxzf9=IIIIIIIIIIIIIII$7fxxxxxjIIIIIIIIIIIIIIIIIII+fxxzxzzxxjIIIIII",
"IIIIII7zzxzxxxjIIIIIIIIIIIIIIIIIIIIIIIIIIIIIIIIIIejjzxzxzzzxzxzf3@IIIIIIIIIIIIIIIIIIII7jxzxzzIIIIIIIIIIIIIIIIIII0zzxxzzzxjIIIIII",
"IIIIII7xxzzzzzxyIIIIIIIIIIIIIIIIIIIIIIIIIIIIIIIIIzxxzxzzzzzzxzw@IIIIIIIIIIIIIIIIIIIIIII:izzzzzIIIIIIIIIIIIIIIIII5zzzzzzzzjIIIIII",
"IIIIII4zzzzzzzzhIIIIIIIIIIIIIIIIIIIIIIIIIIIIIIIIfzzzzzzxzzzzi,OIIIIIIIIIIIIIIIIIIIIIIIII:jxzzzjIIIIIIIIIIIIIIIII-jzlzzzzzjIIIIII",
"IIIIII7zzzzzzzzjIIIIIIIIIIIIIIIIIIIIIIIIIIIIIIIIjzzh429hhh0>IIIIIIIIIIIIIIIIIIIIIIIIIIIII2jzzlzIIIIIIIIIIIIIIIII%jzzzlzzzjIIIIII",
"IIIIII7zlzlzzlzzfIIIIIIIIIIIIIIIIIIIIIIIIIIIIIIfzzj:   OOOIIIIIIIIIIIIIIIIIIIIIIIIIIIIIIIOqzzlzIIIIIIIIIIIIIIIII%jzzzzzzzjIIIIII",
"IIIIII4zzlzzzllzjIIIIIIIIIIIIIIIIIIIIIIIIIIIIhjzzjiXI IIIIIIIIIIIIIIIIIIIIIIIIIIIIIIIIIIII&gzzjjIIIIIIIIIIIIIIII$hzjjzjzjjIIIIII",
"IIIIII4zlzlzjzjzzgIIIIIIIIIIIIIIIIIIIIIIIIIIjlzjlj3IIIIIIIIIIIIIIIIIIIIIIIIIIIIIIIIIIIIIIIIqzjjzIIIIIIIIIIIIIIIIIellzllzzhIIIIII",
"IIIIII7jljljllzjjjIIIIIIIIIIIIIIIIIIIIIIIIIjjzjzj9IIIIIIIIIIIIIIIIIIIIIIIIIIIIIIIIIIIIIIIII,kjzjIIIIIIIIIIIIIIIIIeljjzjjjhIIIIII",
"IIIIII4zjzjzjljzjzjIIIIIIIIIIIIIIIIIIIIIIgjljzjh7IIIIIIIIIIIIIIIIIIIIIIIIIIIIIIIIIIIIIIIIII-jzjlIIIIIIIIIIIIIIIIIwjjljlljgIIIIII",
"IIIIII4jzjljzjzjljjjIIIIIIIIIIIIIIIIIIIIIjlljj0&IIIIIIIIIIIIIIIIIIIIIIIIIIIIIIIIIIIIIIIIIII:jkljfIIIIIIIIIIIIIIIIejljljkjhIIIIII",
"IIIIII5jjjzjjjjjjjjjIIIIIIIIIIIIIIIIIIIIjjlji,IIIIIIIIIIIIIIIIIIIIIIIIIIIIIIIIIIIIIIIIIIIII-jjjjfIIIIIIIIIIIIIIIIejkljjjjfIIIIII",
"IIIIII4jjjjjjjjjljjjjIIIIIIIIIIIIIIIIIIhjjj0@IIIIIIIIIIIIIIIIIIIIIIIIIIIIIIIIIIIIIIIIIIIIII:jjjjiIIIIIIIIIIIIIIIIejjjjjjjhIIIIII",
"IIIIII4jjjjjjjjjjjjjjjjIIIIIIIIIIIIIIIfjjjf=IIIIIIIIIIIIIIIIIIIIIIIIIIIIIIIIIIIIIIIIIIIIIII>gjjjiIIIIIIIIIIIIIIIIejjjjjjjfIIIIII",
"IIIIII3jjjjjjjhjjjjjjgjghIIIIIIIIIIIIejjjf:IIIIIIIIIIIIIIIIIIIIIIIIIIIIIIIIIIIIIIIIIIIIIIII7jjjg9IIIIIIIIIIIIIIII0jjjggjjfIIIIII",
"IIIIII3jjjjjjjgjjjjjjjjjjjjIIIIIIIIIIhhjj3IIIIIIIIIIIIIIIIIIIIIIIIIIIIIIIIIIIIIIIIIIIIIIIIIehjhhIIIIIIIIIIIIIIIIIejggjjhjiIIIIII",
"IIIIII3jhhjhghjjhgjghjhhhgjhjhgghfhjhhjh9IIIIIIIIIIIIIIIIIIIIIIIIIIIIIIIIIIIIIIIIIIIIIIIIIIfhjhhiffhhhhhhhhhhhs94hhhhghhhfIIIIII",
"IIIIII3jgggggjgghggggggggggggggggjgggggi%IIIIIIIIIIIIIIIIIIIIIIIIIIIIIIIIIIIIIIIIIIIIIIIII4fgfhhhhfggghghhhhggghfghhghhhhsIIIIII",
"IIIIII3hggghhhhghhhghhhhhghhhhgghhhghhf,IIIIIIIIIIIIIIIIIIIIIIIIIIIIIIIIIIIIIIIIIIIIIIIIIIrgghhhhhfhhghfhhfffhhhgfhhhgfhgiIIIIII",
"IIIIII3hhfhhfhfghfhhhghffhhhhhffffhhhh0IIIIIIIIIIIIIIIIIIIIIIIIIIIIIIIIIIIIIIIIIIIIIIIIII4fhhfiee9<2222222229fhfhhghhfhfhsIIIIII",
"IIIIII3hgffgfhfffhffffgfhffffffhfhfffh0IIIIIIIIIIIIIIIIIIIIIIIIIIIIIIIIIIIIIIIIIIIIIIIIIIifhgi=XIIIIIIIIIIII7fffffffhffhfiIIIIII",
"IIIIII2hffffhffffffffffgffffffffffffffiIIIIIIIIIIIIIIIIIIIIIIIIIIIIIIIIIIIIIIIIIIIIIIIIIiffff: IIIIIIIIIIII>fhffffffffffhiIIIIII",
"IIIIII2hfffffffffffffffffffffffffffffffIIIIIIIIIIIIIIIIIIIIIIIIIIIIIIIIIIIIIIIIIIIIIIIIihfff7XIIIIIIIIIIIII3fffffffffffffiIIIIII",
"IIIIII2ffffffffffffffffffffffffffffffffeIIIIIIIIIIIIIIIIIIIIIIIIIIIIIIIIIIIIIIIIIIIIIifsffs7@IIIIIIIIIIIIII3sfsffssfiffffyIIIIII",
"IIIIII2ffsfsfsffsffsfsfsfafdffafffsfsffsIIIIIIIIIIIIIIIIIIIIIIIIIIIIIIIIIIIIIIIIIIIiffffii2+IIIIIIIIIIIIIII2fsffsffsffdsfiIIIIII",
"IIIIII2afaffafafffiffdpfiffdfiffiffpfifipIIIIIIIIIIIIIIIIIIIIIIIIIIIIIIIIIIIIIIIiffiffii0*IIIIIIIIIIIIIIIII=idfafsfsafifftIIIIII",
"IIIIII2ffiififfiiffififffifafipdfififisffiIIIIIIIIIIIIIIIIIIIIIIIIIIIIIIIIIIIidifipfdi9>+IIIIIIIIIIIIIIIIII#ifififfifififyIIIIII",
"IIIIII2dpifafiiadsafafiiaaiaififaiaiifififiIIIIIIIIIIIIIIIIIIIIIIIIIIIIIIIIifsififie9*IIIIIIIIIIIIIIIIIIIII#eififiififfiieIIIIII",
"IIIIII2iifiaifiaifiiaifiiaaifiaipfiffiaifiifiIIIIIIIIIIIIIIIIIIIIIIIIIIiiippissiew2IIIIIIIIIIIIIIIIIIIIIIII#efififiifiifiiIIIIII",
"IIIIII2iifiiifiiifififaisifiisifisifiiiffiifiiiiIIIIIIIIIIIIIIIIIIIIiiaiiispie9>IIIIIIIIIIIIIIIIIIIIIIIIIII=yiiiiiifiiaiirIIIIII",
"IIIIII2iiiafpiaiifiiiiiifiiiiiaiiiifsiaiidiiifiiiiiiIIIIIIIIIIIiiiiiiiaiiii0>IIIIIIIIIIIIIIIIIIIIIIIIIIIIII4iiiiiiiiiiiiieIIIIII",
"IIIIII2iiiiiiiiiiiiiiiiiiiiiiisiiiiiiiiiiiiiiiiaiiiiiiiiiiiiiiiiipiiiiiiiie$IIIIIIIIIIIIIIIIIIIIIIIIIIIIIIIqiiiiiiiaiiiiieIIIIII",
"IIIIII<iiiiiiiiiiiiiiiiiiiiiiiiiiiiiiiiiiiiiiiiiiiiiiiiiiiiiiiiiiiiiiiiiiii=IIIIIIIIIIIIIIIIIIIIIIIIIIIIIIIriiiiiiiiiiiiieIIIIII",
"IIIIII,iiiiitiiiiyiiieiuiitiiyiiiiiiiitiiiiiiiiiiuiiiiiiiiiiyiiyititi99iiii2IIIIIIIIIIIIIIIIIIIIIIIIIIIIII0iieiiiitiiiyiieIIIIII",
"IIIIII,iiitiiuiyitriiiitytiiyiryieiietiitiieeiieiteiieiyeieiiiyii92&%XX3eiieIIIIIIIIIIIIIIIIIIIIIIIIIIIII7tiiiyiieiiieiiieIIIIII",
"IIIIII<iyeiiyieiiiieteiiieeiieiiueieiiityeiiyyieiiiuieiiiyyyeiiyr: I   %eiti0IIIIIIIIIIIIIIIIIIIIIIIIIII7eiueieieieieiiyteIIIIII",
"IIIIII,itiieieiueiritittyiiyuieiiitrieeiriuryieieieieityyuieieyyt9@III .3tuee0IIIIIIIIIIIIIIIIIIIIIIIIIIereyieieieieieeieeIIIIII",
"IIIIII,eiiieeieeeieieiieeieieieteieteieieiierueieieeeiieeieiieiyei>IIIII:eieie0IIIIIIIIIIIIIIIIIIIIIIIIeiteieryieyyeyeyyeeIIIIII",
"IIIIII,ieeeieteiieyeieeiteeeieieeyieieyeieeiereeieeiieeiyeeeeteree0IIIIIO7eeteeeIIIIIIIIIIIIIIIIIIIII0teeeteereeeueyeyyee0IIIIII",
"IIIIII,eeeeeeeeeeyereeteeiyeieeeieeeieeteeeeieieieeteeeeieieeteetee3IIIII:eeeteieeIIIIIIIIIIIIIIIIIeeeeeeieiyeeteiyeyeeiy0IIIIII",
"IIIIII,teeyeeieeteeeeeeeeeeeeeeeeeeeeeeeeeeeeeeeeeeeeeeeeeeeeeeeeeeeIIIIIo2eeeeeeeeeeIIIIIIIIIIIeeeeeereeeeeeeeeeeeeeeeee0IIIIII",
"IIIIII,eeeeeeeeeeeeeeeeeeeeeeeeeeeeeeeeeeeeeeeeeeeeeeeeeeeeeeeeeeeee7IIIIIo-30eeeeeeeweee00eeweeeeeeeeeeeeeeeeeeeeeeeeeee0IIIIII",
"IIIIII,eeeeeeeweeeeeeeeeeeeeeeewweeeeweeeeeweeeeweeeweeeeeqeeeeqqeqe0IIIIIIIX$2wee0eeeeeeeeeeeweeeeeewqeqeeee0eeeqqeee0ee0IIIIII",
"IIIIII>rqeeeeeeeewweeeeeeeeeweeeeeeeeeqeweeeeeeweeweeeqeeqeeqeeeeeeee04IIIIIIII:0eqeeq0eewewewee0eqee0e0weeeeewweee0eqwee0IIIIII",
"IIIIII>eee0eqqqewewe0eqeqe0ewee0ee0ewee0eeww0ewe0ewe0qeqee0we0weqqe0eew5IIIIIII.,eee0eeeewe0eq0eeqe0eeweeqweqqeq0wwee0ee00IIIIII",
"IIIIII>ee0ee0e0eqeee0ee00e0eq0eeeqeeeeew0ee0e0qqewqqee0eee0ee0qeqqe0ee0w9IIIIIII%0e0e0e00ee0ee0eeqe00e0ee0e0e0wewee0e0e009IIIIII",
"IIIIII>0qqq0ewqe000ew00ee0eq0e000e00000w00qw0ee00e0e0qe00ee00e000e0w0qe000IIIIII >0eqq0eq00e0ee00e0ee0e00e0e0e00w00e0e0ee0IIIIII",
"IIIIII>0e0qw00q0ew00qe0q00qqqqe000qq0ewqe0ew000e0qe00000000ee00ee0e0e0e0e00IIIIII&000w000w0ew0e000e00e00e00ew00e0q00000008IIIIII",
"IIIIII>w0q0w0w0w000e00q00w0q00q0e000000000000ew00000qe00e00000q00q000000000IIIIIIX,00e0e000000000w0000w00000w0000w0e0e0e09IIIIII",
"IIIIII>000w00000000000000w0000000000000000000000q000000000w00000000000000007IIIIII@900000000000000000000000000000000000009IIIIII",
"IIIIII:000000000000000000000000000000000000000000000000000000000000000000000IIIIII.>00000000000000000000000080000000000009IIIIII",
"IIIIII:000000000000000000000000000000000000000000000000000008000000000000900IIIIIII#70000080000900000800000000000909089007IIIIII",
"IIIIII:0000008000000008000000000008000000008000000000800000000800000880000807IIIII@-90008000008000000080980008000000800087IIIIII",
"IIIIII:8900909080080080008888808808980089809909008088088988080080808080808089III237988080808088898080888088808888900089997IIIIII",
"IIIIII:8998888889999888890889089888088888088998999889988888889889898998888990559888898898899908808888988898888888899888097IIIIII",
"IIIIII:7998809988899888998888888888888889889888899989889999898989989999989799978899988988888998899989999989999998899889995IIIIII",
"IIIIII:9999999978799879999999999999999999999888899979799999999979787997987999999998797997997978879779979979999799797797797IIIIII",
"IIIIII*9887878789797888887897789778887878878778888887888888878777789788887878897878888887787788878878777878777877977777774IIIIII",
"IIIIII+477788877799777778778797777777877787777777777787777777777787787778777779777777777789777778778777777778877777977787,IIIIII",
"IIIIIII;77777777777778777777777777777777777777777777777777777777777767777777777777767777777777777777777777777777777777775IIIIIII",
"IIIIIII#3757777777777777777577777777777777777777777777677777777777774777777757777777777775777777776777777777777777777777,IIIIIII",
"IIIIIIII%47777775777776677767776667767777746774757757467775747775776767776777677774777777767776777576767777576775777777,IIIIIIII",
"IIIIIIII %3576745776655747745657577775767577477767577567576477477576775774775775747445777576474757744777567657667566742%IIIIIIII",
"IIIIIIIII %2676775756757747757777477757657757747667557777675675755667747476676555777746657467574474774757557657655644-OIIIIIIIII",
"IIIIIIIIII O=255445574444444444444454455444444447444444444444447555544444444444444444455454444444444444444444545554:%XIIIIIIIIII",
"IIIIIIIIIII  O$$$$$$$$$$$$$$$$$$$$$$$$$$$$$$$$$$$$$$$$$$$$$$$$$$$$$$$$$$$$$$$$$$$$$$$$$$$$$$$$$$$$$$$$$$$$$$$$$$$%@.IIIIIIIIIIII",
"IIIIIIIIIIII                                                                                                      IIIIIIIIIIIIII",
"IIIIIIIIIIIIIIIIIIIIIIIIIIIIIIIIIIIIIIIIIIIIIIIIIIIIIIIIIIIIIIIIIIIIIIIIIIIIIIIIIIIIIIIIIIIIIIIIIIIIIIIIIIIIIIIIIIIIIIIIIIIIIIII",
"IIIIIIIIIIIIIIIIIIIIIIIIIIIIIIIIIIIIIIIIIIIIIIIIIIIIIIIIIIIIIIIIIIIIIIIIIIIIIIIIIIIIIIIIIIIIIIIIIIIIIIIIIIIIIIIIIIIIIIIIIIIIIIII",
"IIIIIIIIIIIIIIIIIIIIIIIIIIIIIIIIIIIIIIIIIIIIIIIIIIIIIIIIIIIIIIIIIIIIIIIIIIIIIIIIIIIIIIIIIIIIIIIIIIIIIIIIIIIIIIIIIIIIIIIIIIIIIIII",
"IIIIIIIIIIIIIIIIIIIIIIIIIIIIIIIIIIIIIIIIIIIIIIIIIIIIIIIIIIIIIIIIIIIIIIIIIIIIIIIIIIIIIIIIIIIIIIIIIIIIIIIIIIIIIIIIIIIIIIIIIIIIIIII",
"IIIIIIIIIIIIIIIIIIIIIIIIIIIIIIIIIIIIIIIIIIIIIIIIIIIIIIIIIIIIIIIIIIIIIIIIIIIIIIIIIIIIIIIIIIIIIIIIIIIIIIIIIIIIIIIIIIIIIIIIIIIIIIII",
"IIIIIIIIIIIIIIIIIIIIIIIIIIIIIIIIIIIIIIIIIIIIIIIIIIIIIIIIIIIIIIIIIIIIIIIIIIIIIIIIIIIIIIIIIIIIIIIIIIIIIIIIIIIIIIIIIIIIIIIIIIIIIIII"
};
