/* XPM */
static char *gcolor2[] = {
/* columns rows colors chars-per-pixel */
"128 128 58 1 ",
"  c black",
". c #000608",
"X c #00090C",
"o c #000D10",
"O c #001115",
"+ c #00151A",
"@ c #00181D",
"# c #001920",
"$ c #001C24",
"% c #001E26",
"& c #002129",
"* c #00242E",
"= c #002934",
"- c #002C38",
"; c #00303C",
": c #00323F",
"> c #003442",
", c #003544",
"< c #003746",
"1 c #003C4C",
"2 c #003D4D",
"3 c #003E4D",
"4 c #003D4E",
"5 c #003F51",
"6 c #004152",
"7 c #004153",
"8 c #004355",
"9 c #004557",
"0 c #004657",
"q c #004558",
"w c #00475A",
"e c #00495C",
"r c #00485D",
"t c #004A5F",
"y c #004D61",
"u c #004C62",
"i c #004D62",
"p c #004F64",
"a c #005066",
"s c #005268",
"d c #00546A",
"f c #00546B",
"g c #00566E",
"h c #005870",
"j c #005A73",
"k c #005C75",
"l c #005E77",
"z c #006079",
"x c #00607A",
"c c #00627C",
"v c #00637E",
"b c #00637F",
"n c #00647E",
"m c #00647F",
"M c #006681",
"N c #006883",
"B c #006985",
"V c None",
/* pixels */
"VVVVVVVVVVVVVVVVVVVVVVVVVVVVVVVVVVVVVVVVVVVVVVVVVVVVVVVVVVVVVVVVVVVVVVVVVVVVVVVVVVVVVVVVVVVVVVVVVVVVVVVVVVVVVVVVVVVVVVVVVVVVVVVV",
"VVVVVVVVVVVVVVVVVVVVVVVVVVVVVVVVVVVVVVVVVVVVVVVVVVVVVVVVVVVVVVVVVVVVVVVVVVVVVVVVVVVVVVVVVVVVVVVVVVVVVVVVVVVVVVVVVVVVVVVVVVVVVVVV",
"VVVVVVVVVVVVVVVVVVVVVVVVVVVVVVVVVVVVVVVVVVVVVVVVVVVVVVVVVVVVVVVVVVVVVVVVVVVVVVVVVVVVVVVVVVVVVVVVVVVVVVVVVVVVVVVVVVVVVVVVVVVVVVVV",
"VVVVVVVVVVVVVVVVVVVVVVVVVVVVVVVVVVVVVVVVVVVVVVVVVVVVVVVVVVVVVVVVVVVVVVVVVVVVVVVVVVVVVVVVVVVVVVVVVVVVVVVVVVVVVVVVVVVVVVVVVVVVVVVV",
"VVVVVVVVVVVVVVVVVVVVVVVVVVVVVVVVVVVVVVVVVVVVVVVVVVVVVVVVVVVVVVVVVVVVVVVVVVVVVVVVVVVVVVVVVVVVVVVVVVVVVVVVVVVVVVVVVVVVVVVVVVVVVVVV",
"VVVVVVVVVVVVVVVVVVVVVVVVVVVVVVVVVVVVVVVVVVVVVVVVVVVVVVVVVVVVVVVBBBVVVVVVVVVVVVVVVVVVVVVVVVVVVVVVVVVVVVVVVVVVVVVVVVVVVVVVVVVVVVVV",
"VVVVVVVVVVVVVVVVVVVVVVVVVVVVVVVVVVVVVVVVVVVVVVVVVVVVVVVVVVVVVBBBBBBBVVVVVVVVVVVVVVVVVVVVVVVVVVVVVVVVVVVVVVVVVVVVVVVVVVVVVVVVVVVV",
"VVVVVVVVVVVVVVVVVVVVVVVVVVVVVVVVVVVVVVVVVVVVVVVVVVVVVVVVVVBBBBBBBBBBBBBVVVVVVVVVVVVVVVVVVVVVVVVVVVVVVVVVVVVVVVVVVVVVVVVVVVVVVVVV",
"VVVVVVVVVVVVVVVVVVVVVVVVVVVVVVVVVVVVVVVVVVVVVVVVVVVVVVVVBBBBBBBBBBBBBBBBBVVVVVVVVVVVVVVVVVVVVVVVVVVVVVVVVVVVVVVVVVVVVVVVVVVVVVVV",
"VVVVVVVVVVVVVVVVVVVVVVVVVVVVVVVVVVVVVVVVVVVVVVVVVVVVVVBBBBBBBBBBBBBBBBBBBBBVVVVVVVVVVVVVVVVVVVVVVVVVVVVVVVVVVVVVVVVVVVVVVVVVVVVV",
"VVVVVVVVVVVVVVVVVVVVVVVVVVVVVVVVVVVVVVVVVVVVVVVVVVVNBBBBBBBBBBBBBBBBBBBBBBBBBBVVVVVVVVVVVVVVVVVVVVVVVVVVVVVVVVVVVVVVVVVVVVVVVVVV",
"VVVVVVVVVVVVVVVVVVVVVVVVVVVVVVVVVVVVVVVVVVVVVVVVVNNBBBBBBBBBBBBBBBBBBBBBBBBBBBBBVVVVVVVVVVVVVVVVVVVVVVVVVVVVVVVVVVVVVVVVVVVVVVVV",
"VVVVVVVVVVVVVVVVVVVVVVVVVVVVVVVVVVVVVVVVVVVVVVVNBNBBBNBNBBNBBBBmccBNNBBBBBBBBBBBBNVVVVVVVVVVVVVVVVVVVVVVVVVVVVVVVVVVVVVVVVVVVVVV",
"VVVVVVVVVVVVVVVVVVVVVVVVVVVVVVVVVVVVVVVVVVVVMNBBNBBNBNBBBBNMNxa-O;wkNNNBBBBBBBBBNBBNNVVVVVVVVVVVVVVVVVVVVVVVVVVVVVVVVVVVVVVVVVVV",
"VVVVVVVVVVVVVVVVVVVVVVVVVVVVVVVVVVVVVVVVVVMNNNNNNNNNNNNNBNNk4%X    $5jmNBNBBBBBBNNNNNNNVVVVVVVVVVVVVVVVVVVVVVVVVVVVVVVVVVVVVVVVV",
"VVVVVVVVVVVVVVVVVVVVVVVVVVVVVVVVVVVVVVVVMNNNNNNNNNNNNNNNmf4$         +-amNBBBBBBMNNNNNNMMVVVVVVVVVVVVVVVVVVVVVVVVVVVVVVVVVVVVVVV",
"VVVVVVVVVVVVVVVVVVVVVVVVVVVVVVVVVVVVVMMNMNNMNNNNNNNMNMzp-X  VVVVVVV    X-pzMMNNNMNNNNNNMNNMVVVVVVVVVVVVVVVVVVVVVVVVVVVVVVVVVVVVV",
"VVVVVVVVVVVVVVVVVVVVVVVVVVVVVVVVVVVMMMNNNMMNMNMMNMMMj5$X VVVVVVVVVVVVV   X$4jMMMNMMMMMNMMMMNMMVVVVVVVVVVVVVVVVVVVVVVVVVVVVVVVVVV",
"VVVVVVVVVVVVVVVVVVVVVVVVVVVVVVVVVMMMMMMMNMMMMMMMMca1$  VVVVVVVVVVVVVVVVV    $<pcMMMMMMMMMMMMMMMMVVVVVVVVVVVVVVVVVVVVVVVVVVVVVVVV",
"VVVVVVVVVVVVVVVVVVVVVVVVVVVVVVcMMMMMMMMMMMMMMMMzp-X  VVVVVVVVVVVVVVVVVVVVV    X-acMMMMMMMMMMMMMMMMVVVVVVVVVVVVVVVVVVVVVVVVVVVVVV",
"VVVVVVVVVVVVVVVVVVVVVVVVVVVVmMMMMMMMvMMMMmMMmh5$X VVVVVVVVVVVVVVVVVVVVVVVVVVV   X-8gMMMMMMMMMMMmMMnMcVVVVVVVVVVVVVVVVVVVVVVVVVVV",
"VVVVVVVVVVVVVVVVVVVVVVVVVVcMMMMvMMcMMMMMMmxa1$  VVVVVVVVVVVVVVVVVVVVVVVVVVVVVVV    $5hxmMMcMMmMMMMvMMMcVVVVVVVVVVVVVVVVVVVVVVVVV",
"VVVVVVVVVVVVVVVVVVVVVVVcMcMMmMcMMmMMcMMcki-o  VVVVVVVVVVVVVVVVVVVVVVVVVVVVVVVVVVV    O-uccmMcMMMMMnMMvnMcVVVVVVVVVVVVVVVVVVVVVVV",
"VVVVVVVVVVVVVVVVVVVVVccMbMcMcvMccMccMcg8%o VVVVVVVVVVVVVVVVVVVVVVVVVVVVVVVVVVVVVVVVV   o-yjcMccMccMcnMcmMMcMVVVVVVVVVVVVVVVVVVVV",
"VVVVVVVVVVVVVVVVVVVcMccMcMMvcnMccmmca1$  VVVVVVVVVVVVVVVVVVVVVVVVVVVVVVVVVVVVVVVVVVVVV   X$5gcMcvcbcMMcMMcMMccVVVVVVVVVVVVVVVVVV",
"VVVVVVVVVVVVVVVVcccMcvvcccccMcMcclu-o  VVVVVVVVVVVVVVVVVVVVVVVVVVVVVVVVVVVVVVVVVVVVVVVVV    #,tccMbccccccbccMcccVVVVVVVVVVVVVVVV",
"VVVVVVVVVVVVVVzccmnccMcvmMcMMccg8*o VVVVVVVVVVVVVVVVVVVVVVVVVVVVVVVVVVVVVVVVVVVVVVVVVVVVVV    o-tzcccbcbvccccvcnccVVVVVVVVVVVVVV",
"VVVVVVVVVVVVVcccccccccccccccza4#  VVVVVVVVVVVVVVVVVVVVVVVVVVVVVVVVVVVVVVVVVVVVVVVVVVVVVVVVVVV   o=5gcccccmccccccccccVVVVVVVVVVVV",
"VVVVVVVVVVVVVccccccccccccclt-o  VVVVVVVVVVVVVVVVVVVVVVVVVVVVVVVVVVVVVVVVVVVVVVVVVVVVVVVVVVVVVVV    #5szccccccccccccccVVVVVVVVVVV",
"VVVVVVVVVVVVscccccccccccg5*o VVVVVVVVVVVVVVVVVVVVVVVVVVVVVVVVVVVVVVVVVVVVVVVVVVVVVVVVVVVVVVVVVVVV    o-tzccccxcccccccVVVVVVVVVVV",
"VVVVVVVVVVVVpxcxxccccxcz8. VVVVVVVVVVVVVVVVVVVVVVVVVVVVVVVVVVVVVVVVVVVVVVVVVVVVVVVVVVVVVVVVVVVVVVVVV   o-sccccccccccxVVVVVVVVVVV",
"VVVVVVVVVVVVwcxcxcxcxcxckw$VVVVVVVVVVVVVVVVVVVVVVVVVVVVVVVVVVVVVVVVVVVVVVVVVVVVVVVVVVVVVVVVVVVVVVVVVVV .>fzxzzxzzzczxVVVVVVVVVVV",
"VVVVVVVVVVVVqzczcxcxxccxxcg5VVVVVVVVVVVVVVVVVVVVVVVVVVVVVVVVVVVVVVVVVVVVVVVVVVVVVVVVVVVVVVVVVVVVVVVVVV$0jcxczxczxxczlVVVVVVVVVVV",
"VVVVVVVVVVVV8zxxxxzxzzxxxxzlfVVVVVVVVVVVVVVVVVVVVVVVVVVVVVVVVVVVVVVVVVVVVVVVVVVVVVVVVVVVVVVVVVVVVVVVV8gzxxxxxxxxxzzzlVVVVVVVVVVV",
"VVVVVVVVVVVV5zzzzlxxzxzxlzzzxlVVVVVVVVVVVVVVVVVVVVVVVVVVVVVVVVVVVVVVVVVVVVVVVVVVVVVVVVVVVVVVVVVVVVVVflzzzzzzzzlxlzzzlVVVVVVVVVVV",
"VVVVVVVVVVVV5llzzzzllzlzxzzllzzlVVVVVVVVVVVVVVVVVVVVVVVVVVVVVVVVVVVVVVVVVVVVVVVVVVVVVVVVVVVVVVVVVVglzzlzxllzzzzlzzzljVVVVVVVVVVV",
"VVVVVVVVVVVV5lzlzlltplzllzlxlxlzzlVVVVVVVVVVVVVVVVVVVVVVVVVVVVVVVVVVVVVVVVVVVVVVVVVVVVVVVVVVVVVVVklllzlzlzlllllzllllkVVVVVVVVVVV",
"VVVVVVVVVVVV4llllll<+1hzlllllllllllVVVVVVVVVVVVVVVVVVVVVVVVVVVVVVVVVVVVVVVVVVVVVVVVVVVVVVVVVVVVjllllllllzlllutlllllljVVVVVVVVVVV",
"VVVVVVVVVVVV4lzlllz< .-wllllllllllljlVVVVVVVVVVVVVVVVVVVVVVVVVVVVVVVVVVVVVVVVVVVVVVVVVVVVVVVVVjlllllllllzls<+<llllllfVVVVVVVVVVV",
"VVVVVVVVVVVV4llllll<   X<sllllllllllljVVVVVVVVVVVVVVVVVVVVVVVVVVVVVVVVVVVVVVVVVVVVVVVVVVVVVVjllllllllllljw&  <kllllltVVVVVVVVVVV",
"VVVVVVVVVVVV5klllll1V    *wjllllllllllljVVVVVVVVVVVVVVVVVVVVVVVVVVVVVVVVVVVVVVVVVVVVVVVVVVgjlllllklllljs<X   <llllklwVVVVVVVVVVV",
"VVVVVVVVVVVV1llkjlj8VVVV  .:pljljljljlllljVVVVVVVVVVVVVVVVVVVVVVVVVVVVVVVVVVVVVVVVVVVVVVVjlljljlklljlg5+ VVV <lkkjlltVVVVVVVVVVV",
"VVVVVVVVVVVV1ljljllsVVVVV   #1glljljljljlljVVVVVVVVVVVVVVVVVVVVVVVVVVVVVVVVVVVVVVVVVVVVhjljllljllljkp-.VVVVVV1jlkkljtVVVVVVVVVVV",
"VVVVVVVVVVVV;hkjljkgVVVVVVV  .=pjlljjljljjljjVVVVVVVVVVVVVVVVVVVVVVVVVVVVVVVVVVVVVVVVVhlljlljkljjja<# VVVVVVV5jlkkkjtVVVVVVVVVVV",
"VVVVVVVVVVVVVfjlkkkhVVVVVVVVV  @>aljkjkjjljkkjVVVVVVVVVVVVVVVVVVVVVVVVVVVVVVVVVVVVVVhjljjkjjjkjljw* VVVVVVVVVakjjkjktVVVVVVVVVVV",
"VVVVVVVVVVVVVsjjjkjhVVVVVVVVVV   *wjkjjljjkkjkjjVVVVVVVVVVVVVVVVVVVVVVVVVVVVVVVVVVgjjkjjkkjkjjjp>XVVVVVVVVVVVgjkjkjjVVVVVVVVVVVV",
"VVVVVVVVVVVVVsjjkjjhVVVVVVVVVVVV  X>pjjjjkkjjjjkjVVVVVVVVVVVVVVVVVVVVVVVVVVVVVVVVhjjjjjljjkjjg5+ VVVVVVVVVVVVfhjjkjgVVVVVVVVVVVV",
"VVVVVVVVVVVVVfjjjjjgVVVVVVVVVVVVV   +5gjjjjjjjjjjjhVVVVVVVVVVVVVVVVVVVVVVVVVVVVhjjkjjjjhjjjjt=.VVVVVVVVVVVVVVgjjjjjgVVVVVVVVVVVV",
"VVVVVVVVVVVVVsjhjjjgVVVVVVVVVVVVVVV  .=uhjjjjjjjjjjhhVVVVVVVVVVVVVVVVVVVVVVVVVhjjjjjjhjjjjp>+VVVVVVVVVVVVVVVVshjjjjgVVVVVVVVVVVV",
"VVVVVVVVVVVVVsjjhjjgVVVVVVVVVVVVVVVVV  +>pjhhjhjjhjjjhVVVVVVVVVVVVVVVVVVVVVVgjjhjhhjhjjhg8* VVVVVVVVVVVVVVVVVdjjhjjfVVVVVVVVVVVV",
"VVVVVVVVVVVVVshjhjhgVVVVVVVVVVVVVVVVVV   *8hhjhjhhjhhjhhVVVVVVVVVVVVVVVVVVghhjhjjjhjjhhy;XVVVVVVVVVVVVVVVVVVVshjhhhfVVVVVVVVVVVV",
"VVVVVVVVVVVVVshhhhhgVVVVVVVVVVVVVVVVVVVV  o>phhhhhhhhhhhhVVVVVVVVVVVVVVVVgghhhhhhhhhhd5+ VVVVVVVVVVVVVVVVVVV;ghhhhhgVVVVVVVVVVVV",
"VVVVVVVVVVVVVshhhhggVVVVVVVVVVVVVVVVVVVVV   $7shhhhhhhhhhhgVVVVVVVVVVVVghhhhhhhhhhhg8*.VVVVVVVVVVVVVVVVVVVVV4ghhhhgpVVVVVVVVVVVV",
"VVVVVVVVVVVVVahhhhgdVVVVVVVVVVVVVVVVVVVVVVV  .=tghghhhhghhhhgVVVVVVVVVghghghghhhhgp>oVVVVVVVVVVVVVVVVVVVVVVV5gghhggwVVVVVVVVVVVV",
"VVVVVVVVVVVVVahghghgVVVVVVVVVVVVVVVVVVVVVVVV   +5agghhghhgghggVVVVVVgggghhhgghggs8* VVVVVVVVVVVVVVVVVVVVVVVV5ggghhg8VVVVVVVVVVVV",
"VVVVVVVVVVVVVagghggdVVVVVVVVVVVVVVVVVVVVVVVVVV  .&8gggggghgghgggVVsgggghggghgggt=.VVVVVVVVVVVVVVVVVVVVVVVVVV1ggggggwVVVVVVVVVVVV",
"VVVVVVVVVVVVVagggggsVVVVVVVVVVVVVVVVVVVVVVVVVVVV  o>pgggggggggggfgggggggggggga5+ VVVVVVVVVVVVVVVVVVVVVVVVVVV1gggggg0VVVVVVVVVVVV",
"VVVVVVVVVVVVVpgggggsVVVVVVVVVVVVVVVVVVVVVVVVVVVVV   &5aggggggggfggfggfgggggf5&.VVVVVVVVVVVVVVVVVVVVVVVVVVVVV1ggggggwVVVVVVVVVVVV",
"VVVVVVVVVVVVVpgggfggVVVVVVVVVVVVVVVVVVVVVVVVVVVVVVV  X=wggfgggggfggggfggggp>oVVVVVVVVVVVVVVVVVVVVVVVVVVVVVVVqgfgdggwVVVVVVVVVVVV",
"VVVVVVVVVVVVVtsgfgfgtVVVVVVVVVVVVVVVVVVVVVVVVVVVVVVV   +1pgdfgsffgfgffgga5& VVVVVVVVVVVVVVVVVVVVVVVVVVVVVVVVpggsgfsVVVVVVVVVVVVV",
"VVVVVVVVVVVVV1sgfffgeVVVVVVVVVVVVVVVVVVVVVVVVVVVVVVVVV  .&5sggsgfgffgfsw-.VVVVVVVVVVVVVVVVVVVVVVVVVVVVVVVVVVpfsgsgaVVVVVVVVVVVVV",
"VVVVVVVVVVVVV<fffgffrVVVVVVVVVVVVVVVVVVVVVVVVVVVVVVVVVVV  o>psggffgffa1+ VVVVVVVVVVVVVVVVVVVVVVVVVVVVVVVVVVVpfgfgsaVVVVVVVVVVVVV",
"VVVVVVVVVVVVV<sffdffwVVVVVVVVVVVVVVVVVVVVVVVVVVVVVVVVVVVV   &5ssdfdde&.VVVVVVVVVVVVVVVVVVVVVVVVVVVVVVVVVVVVVpfsfsgaVVVVVVVVVVVVV",
"VVVVVVVVVVVVV<sfddsfwVVVVVVVVVVVVVVVVVVVVVVVVVVVVVVVVVVVVVV  &agsdfs8 VVVVVVVVVVVVVVVVVVVVVVVVVVVVVVVVVVVVVVpsgsfsaVVVVVVVVVVVVV",
"VVVVVVVVVVVVV<dssffswVVVVVVVVVVVVVVVVVVVVVVVVVVVVVVVVVVVVVVV &asssfs8VVVVVVVVVVVVVVVVVVVVVVVVVVVVVVVVVVVVVVVpddsssaVVVVVVVVVVVVV",
"VVVVVVVVVVVVV<ssfsss8VVVVVVVVVVVVVVVVVVVVVVVVVVVVVVVVVVVVVVVV&affssswVVVVVVVVVVVVVVVVVVVVVVVVVVVVVVVVVVVVVVVpsssdspVVVVVVVVVVVVV",
"VVVVVVVVVVVVV<ssssss8VVVVVVVVVVVVVVVVVVVVVVVVVVVVVVVVVVVVVVVV&assssswVVVVVVVVVVVVVVVVVVVVVVVVVVVVVVVVVVVVVV<sssssatVVVVVVVVVVVVV",
"VVVVVVVVVVVVV<ssssss8VVVVVVVVVVVVVVVVVVVVVVVVVVVVVVVVVVVVVVVV*pssssswVVVVVVVVVVVVVVVVVVVVVVVVVVVVVVVVVVVVVV<assssa8VVVVVVVVVVVVV",
"VVVVVVVVVVVVV<asassa8VVVVVVVVVVVVVVVVVVVVVVVVVVVVVVVVVVVVVVVV*psasssrVVVVVVVVVVVVVVVVVVVVVVVVVVVVVVVVVVVVVV<sasssa5VVVVVVVVVVVVV",
"VVVVVVVVVVVVV<aasaas8VVVVVVVVVVVVVVVVVVVVVVVVVVVVVVVVVVVVVVVV*aaaaaatVVVVVVVVVVVVVVVVVVVVVVVVVVVVVVVVVVVVVV<asaasa8VVVVVVVVVVVVV",
"VVVVVVVVVVVVV<aaasaa8VVVVVVVVVVVVVVVVVVVVVVVVVVVVVVVVVVVVVVVV=paaasatVVVVVVVVVVVVVVVVVVVVVVVVVVVVVVVVVVVVVV<aaaaaa6VVVVVVVVVVVVV",
"VVVVVVVVVVVVV<aaaaaa8VVVVVVVVVVVVVVVVVVVVVVVVVVVVVVVVVVVVVVVV*paaaaarVVVVVVVVVVVVVVVVVVVVVVVVVVVVVVVVVVVVVV,aaaaaa8VVVVVVVVVVVVV",
"VVVVVVVVVVVVV>paapaa7VVVVVVVVVVVVVVVVVVVVVVVVVVVVVVVVVVVVVVVV=pppaaptVVVVVVVVVVVVVVVVVVVVVVVVVVVVVVVVVVVVVV1apaapp8VVVVVVVVVVVVV",
"VVVVVVVVVVVVV<papapa7VVVVVVVVVVVVVVVVVVVVVVVVVVVVVVVVVVVVVVVV*pppaparVVVVVVVVVVVVVVVVVVVVVVVVVVVVVVVVVVVVVVwpppappVVVVVVVVVVVVVV",
"VVVVVVVVVVVVV>pppapprVVVVVVVVVVVVVVVVVVVVVVVVVVVVVVVVVVVVVVVV*ppapparVVVVVVVVVVVVVVVVVVVVVVVVVVVVVVVVVVVVVVtpppppyVVVVVVVVVVVVVV",
"VVVVVVVVVVVVV>ppppppyVVVVVVVVVVVVVVVVVVVVVVVVVVVVVVVVVVVVVVVV*ppppppwVVVVVVVVVVVVVVVVVVVVVVVVVVVVVVVVVVVVVVwppppptVVVVVVVVVVVVVV",
"VVVVVVVVVVVVV$wpppppyVVVVVVVVVVVVVVVVVVVVVVVVVVVVVVVVVVVVVVVV*tppppiwVVVVVVVVVVVVVVVVVVVVVVVVVVVVVVVVVVVVVVtpppiptVVVVVVVVVVVVVV",
"VVVVVVVVVVVVVVwptpipyVVVVVVVVVVVVVVVVVVVVVVVVVVVVVVVVVVVVVVVV*upppipwVVVVVVVVVVVVVVVVVVVVVVVVVVVVVVVVVVVVVVrtpppptVVVVVVVVVVVVVV",
"VVVVVVVVVVVVVVwppppytVVVVVVVVVVVVVVVVVVVVVVVVVVVVVVVVVVVVVVVV*yppypiwVVVVVVVVVVVVVVVVVVVVVVVVVVVVVVVVVVVVVVwptppptVVVVVVVVVVVVVV",
"VVVVVVVVVVVVVVwyyyyptVVVVVVVVVVVVVVVVVVVVVVVVVVVVVVVVVVVVVVVV*tttypiwVVVVVVVVVVVVVVVVVVVVVVVVVVVVVVVVVVVVVVwiptpptVVVVVVVVVVVVVV",
"VVVVVVVVVVVVVVwpptpyutVVVVVVVVVVVVVVVVVVVVVVVVVVVVVVVVVVVVVVV*tpiitpwVVVVVVVVVVVVVVVVVVVVVVVVVVVVVVVVVVVVV>tuupttwVVVVVVVVVVVVVV",
"VVVVVVVVVVVVVVwttptppttVVVVVVVVVVVVVVVVVVVVVVVVVVVVVVVVVVVVVV*tuyyptwVVVVVVVVVVVVVVVVVVVVVVVVVVVVVVVVVVVV3tpuutpi2VVVVVVVVVVVVVV",
"VVVVVVVVVVVVVVwtptpttptptVVVVVVVVVVVVVVVVVVVVVVVVVVVVVVVVVVVV*tttttpwVVVVVVVVVVVVVVVVVVVVVVVVVVVVVVVVVVVwtpttuutt5VVVVVVVVVVVVVV",
"VVVVVVVVVVVVVV1tttttttttttVVVVVVVVVVVVVVVVVVVVVVVVVVVVVVVVVVV*tttpyt8VVVVVVVVVVVVVVVVVVVVVVVVVVVVVVVVVVtttttutttt1VVVVVVVVVVVVVV",
"VVVVVVVVVVVVVVo<ttttttttttteVVVVVVVVVVVVVVVVVVVVVVVVVVVVVVVVV*ttttttqVVVVVVVVVVVVVVVVVVVVVVVVVVVVVVVVwttttttttttwVVVVVVVVVVVVVVV",
"VVVVVVVVVVVVVVVo;8tttttttttttVVVVVVVVVVVVVVVVVVVVVVVVVVVVVVVV*rttttt8VVVVVVVVVVVVVVVVVVVVVVVVVVVVVVVwttttttttttw:VVVVVVVVVVVVVVV",
"VVVVVVVVVVVVVVVV $<rtttttttttrVVVVVVVVVVVVVVVVVVVVVVVVVVVVVVV*wttttt8VVVVVVVVVVVVVVVVVVVVVVVVVVVVVVrttttettttt1*VVVVVVVVVVVVVVVV",
"VVVVVVVVVVVVVVVV  o>wtttttttrttwVVVVVVVVVVVVVVVVVVVVVVVVVVVVV*wttttt8VVVVVVVVVVVVVVVVVVVVVVVVVVVVwwtwttwttttq,OVVVVVVVVVVVVVVVVV",
"VVVVVVVVVVVVVVVVV  .*8twttrtrterwVVVVVVVVVVVVVVVVVVVVVVVVVVVV*wttrrt8VVVVVVVVVVVVVVVVVVVVVVVVVVVwttetttwrtr8*XVVVVVVVVVVVVVVVVVV",
"VVVVVVVVVVVVVVVVVVV  $<wwtwtwerttrtVVVVVVVVVVVVVVVVVVVVVVVVVV&wrwttw8VVVVVVVVVVVVVVVVVVVVVVVVVVwtwwtwrrttw<$VVVVVVVVVVVVVVVVVVVV",
"VVVVVVVVVVVVVVVVVVVV  o-8wtwtweewtwwVVVVVVVVVVVVVVVVVVVVVVVVV&wrwtwt8VVVVVVVVVVVVVVVVVVVVVVVVVwwwwttrrwtw>oVVVVVVVVVVVVVVVVVVVVV",
"VVVVVVVVVVVVVVVVVVVVV   *1wewrwrwwrwwVVVVVVVVVVVVVVVVVVVVVVVV*wrwrww8VVVVVVVVVVVVVVVVVVVVVVV9wrtwtwwwww8*.VVVVVVVVVVVVVVVVVVVVVV",
"VVVVVVVVVVVVVVVVVVVVVVV  O>wwwrwtwwrwwwVVVVVVVVVVVVVVVVVVVVVV&wwwrwr7VVVVVVVVVVVVVVVVVVVVVVqwwwwwwwwww<$VVVVVVVVVVVVVVVVVVVVVVVV",
"VVVVVVVVVVVVVVVVVVVVVVVV  o-7wwrwwwwwwwwVVVVVVVVVVVVVVVVVVVVV&wwwwrw8VVVVVVVVVVVVVVVVVVVVVwwwwwwwwww8>OVVVVVVVVVVVVVVVVVVVVVVVVV",
"VVVVVVVVVVVVVVVVVVVVVVVVVV  $>wwwwwwwwwwwVVVVVVVVVVVVVVVVVVVV&qwwwww5VVVVVVVVVVVVVVVVVVV8wwwwwwwwww8*.VVVVVVVVVVVVVVVVVVVVVVVVVV",
"VVVVVVVVVVVVVVVVVVVVVVVVVVV  o>wwwwwwwwwwwqVVVVVVVVVVVVVVVVVV&qwwwww6VVVVVVVVVVVVVVVVVVwwwwwwwwwww>$VVVVVVVVVVVVVVVVVVVVVVVVVVVV",
"VVVVVVVVVVVVVVVVVVVVVVVVVVVV  o=5wwwwwwwwww8VVVVVVVVVVVVVVVVV&0wwwww5VVVVVVVVVVVVVVVV88wwwww8wwww>OVVVVVVVVVVVVVVVVVVVVVVVVVVVVV",
"VVVVVVVVVVVVVVVVVVVVVVVVVVVVVV  &1w8w8w88w8w8wVVVVVVVVVVVVVVV&8qw8w85VVVVVVVVVVVVVVV88ww8w8www96=oVVVVVVVVVVVVVVVVVVVVVVVVVVVVVV",
"VVVVVVVVVVVVVVVVVVVVVVVVVVVVVVV  o:7qw8ww8w8q88VVVVVVVVVVVVVV&8w8wqw5VVVVVVVVVVVVVV8w88ww8w88w1*VVVVVVVVVVVVVVVVVVVVVVVVVVVVVVVV",
"VVVVVVVVVVVVVVVVVVVVVVVVVVVVVVVV   *598w8w8ww8wqVVVVVVVVVVVVV&8q88w85VVVVVVVVVVVV88w8ww88w8w8>OVVVVVVVVVVVVVVVVVVVVVVVVVVVVVVVVV",
"VVVVVVVVVVVVVVVVVVVVVVVVVVVVVVVVVV  #>8w988w880888VVVVVVVVVVV&88w8w84VVVVVVVVVVV888w8w8wqw85=XVVVVVVVVVVVVVVVVVVVVVVVVVVVVVVVVVV",
"VVVVVVVVVVVVVVVVVVVVVVVVVVVVVVVVVVV  o-589q88q80808VVVVVVVVVV&8888885VVVVVVVVVV88888988888<*VVVVVVVVVVVVVVVVVVVVVVVVVVVVVVVVVVVV",
"VVVVVVVVVVVVVVVVVVVVVVVVVVVVVVVVVVVV   *18888w888088VVVVVVVVV&88888w4VVVVVVVV588888898888>OVVVVVVVVVVVVVVVVVVVVVVVVVVVVVVVVVVVVV",
"VVVVVVVVVVVVVVVVVVVVVVVVVVVVVVVVVVVVVV  o>888888888888VVVVVVV$8888885VVVVVVV588889888884=oVVVVVVVVVVVVVVVVVVVVVVVVVVVVVVVVVVVVVV",
"VVVVVVVVVVVVVVVVVVVVVVVVVVVVVVVVVVVVVVV  X*488888888888VVVVVV&5888881VVVVVV58888888888<* VVVVVVVVVVVVVVVVVVVVVVVVVVVVVVVVVVVVVVV",
"VVVVVVVVVVVVVVVVVVVVVVVVVVVVVVVVVVVVVVVVV  #>558887878785VVVV&7888881VVVV588887888785>OVVVVVVVVVVVVVVVVVVVVVVVVVVVVVVVVVVVVVVVVV",
"VVVVVVVVVVVVVVVVVVVVVVVVVVVVVVVVVVVVVVVVVV  X*588685787855VVV&6586874VVV58586858886<*XVVVVVVVVVVVVVVVVVVVVVVVVVVVVVVVVVVVVVVVVVV",
"VVVVVVVVVVVVVVVVVVVVVVVVVVVVVVVVVVVVVVVVVVV   &<58788587885>V$5858661V<58587778675>OVVVVVVVVVVVVVVVVVVVVVVVVVVVVVVVVVVVVVVVVVVVV",
"VVVVVVVVVVVVVVVVVVVVVVVVVVVVVVVVVVVVVVVVVVVVV  O:58575585855>-5878585<87676777655*XVVVVVVVVVVVVVVVVVVVVVVVVVVVVVVVVVVVVVVVVVVVVV",
"VVVVVVVVVVVVVVVVVVVVVVVVVVVVVVVVVVVVVVVVVVVVVV  .*15588565855557556555858558566<& VVVVVVVVVVVVVVVVVVVVVVVVVVVVVVVVVVVVVVVVVVVVVV",
"VVVVVVVVVVVVVVVVVVVVVVVVVVVVVVVVVVVVVVVVVVVVVVVV  +>57585578585775588555855875>OVVVVVVVVVVVVVVVVVVVVVVVVVVVVVVVVVVVVVVVVVVVVVVVV",
"VVVVVVVVVVVVVVVVVVVVVVVVVVVVVVVVVVVVVVVVVVVVVVVVV  O-155565555555555575555551*XVVVVVVVVVVVVVVVVVVVVVVVVVVVVVVVVVVVVVVVVVVVVVVVVV",
"VVVVVVVVVVVVVVVVVVVVVVVVVVVVVVVVVVVVVVVVVVVVVVVVVV   &<55555555555555555555>& VVVVVVVVVVVVVVVVVVVVVVVVVVVVVVVVVVVVVVVVVVVVVVVVVV",
"VVVVVVVVVVVVVVVVVVVVVVVVVVVVVVVVVVVVVVVVVVVVVVVVVVVV  O:155555555555455551>OVVVVVVVVVVVVVVVVVVVVVVVVVVVVVVVVVVVVVVVVVVVVVVVVVVVV",
"VVVVVVVVVVVVVVVVVVVVVVVVVVVVVVVVVVVVVVVVVVVVVVVVVVVVV  X*1543554545555551*XVVVVVVVVVVVVVVVVVVVVVVVVVVVVVVVVVVVVVVVVVVVVVVVVVVVVV",
"VVVVVVVVVVVVVVVVVVVVVVVVVVVVVVVVVVVVVVVVVVVVVVVVVVVVVV   $:543555525452>% VVVVVVVVVVVVVVVVVVVVVVVVVVVVVVVVVVVVVVVVVVVVVVVVVVVVVV",
"VVVVVVVVVVVVVVVVVVVVVVVVVVVVVVVVVVVVVVVVVVVVVVVVVVVVVVVV  O-1521445451:OVVVVVVVVVVVVVVVVVVVVVVVVVVVVVVVVVVVVVVVVVVVVVVVVVVVVVVVV",
"VVVVVVVVVVVVVVVVVVVVVVVVVVVVVVVVVVVVVVVVVVVVVVVVVVVVVVVVV  .&<4544221*XVVVVVVVVVVVVVVVVVVVVVVVVVVVVVVVVVVVVVVVVVVVVVVVVVVVVVVVVV",
"VVVVVVVVVVVVVVVVVVVVVVVVVVVVVVVVVVVVVVVVVVVVVVVVVVVVVVVVVVV  +:1414>$ VVVVVVVVVVVVVVVVVVVVVVVVVVVVVVVVVVVVVVVVVVVVVVVVVVVVVVVVVV",
"VVVVVVVVVVVVVVVVVVVVVVVVVVVVVVVVVVVVVVVVVVVVVVVVVVVVVVVVVVVV  O&&*&OVVVVVVVVVVVVVVVVVVVVVVVVVVVVVVVVVVVVVVVVVVVVVVVVVVVVVVVVVVVV",
"VVVVVVVVVVVVVVVVVVVVVVVVVVVVVVVVVVVVVVVVVVVVVVVVVVVVVVVVVVVVVV     VVVVVVVVVVVVVVVVVVVVVVVVVVVVVVVVVVVVVVVVVVVVVVVVVVVVVVVVVVVVV",
"VVVVVVVVVVVVVVVVVVVVVVVVVVVVVVVVVVVVVVVVVVVVVVVVVVVVVVVVVVVVVVVVVVVVVVVVVVVVVVVVVVVVVVVVVVVVVVVVVVVVVVVVVVVVVVVVVVVVVVVVVVVVVVVV",
"VVVVVVVVVVVVVVVVVVVVVVVVVVVVVVVVVVVVVVVVVVVVVVVVVVVVVVVVVVVVVVVVVVVVVVVVVVVVVVVVVVVVVVVVVVVVVVVVVVVVVVVVVVVVVVVVVVVVVVVVVVVVVVVV",
"VVVVVVVVVVVVVVVVVVVVVVVVVVVVVVVVVVVVVVVVVVVVVVVVVVVVVVVVVVVVVVVVVVVVVVVVVVVVVVVVVVVVVVVVVVVVVVVVVVVVVVVVVVVVVVVVVVVVVVVVVVVVVVVV",
"VVVVVVVVVVVVVVVVVVVVVVVVVVVVVVVVVVVVVVVVVVVVVVVVVVVVVVVVVVVVVVVVVVVVVVVVVVVVVVVVVVVVVVVVVVVVVVVVVVVVVVVVVVVVVVVVVVVVVVVVVVVVVVVV",
"VVVVVVVVVVVVVVVVVVVVVVVVVVVVVVVVVVVVVVVVVVVVVVVVVVVVVVVVVVVVVVVVVVVVVVVVVVVVVVVVVVVVVVVVVVVVVVVVVVVVVVVVVVVVVVVVVVVVVVVVVVVVVVVV",
"VVVVVVVVVVVVVVVVVVVVVVVVVVVVVVVVVVVVVVVVVVVVVVVVVVVVVVVVVVVVVVVVVVVVVVVVVVVVVVVVVVVVVVVVVVVVVVVVVVVVVVVVVVVVVVVVVVVVVVVVVVVVVVVV",
"VVVVVVVVVVVVVVVVVVVVVVVVVVVVVVVVVVVVVVVVVVVVVVVVVVVVVVVVVVVVVVVVVVVVVVVVVVVVVVVVVVVVVVVVVVVVVVVVVVVVVVVVVVVVVVVVVVVVVVVVVVVVVVVV"
};
