/* XPM */
static char *opera[] = {
/* columns rows colors chars-per-pixel */
"128 128 58 1 ",
"  c black",
". c #000608",
"X c #00090C",
"o c #000C10",
"O c #001115",
"+ c #00151B",
"@ c #00181F",
"# c #001D25",
"$ c #001E26",
"% c #002028",
"& c #00242E",
"* c #002531",
"= c #002732",
"- c #002C38",
"; c #00303D",
": c #003341",
"> c #003544",
", c #003847",
"< c #003B4B",
"1 c #003D4D",
"2 c #004051",
"3 c #004152",
"4 c #004153",
"5 c #004355",
"6 c #004557",
"7 c #004558",
"8 c #00475A",
"9 c #00485C",
"0 c #00495C",
"q c #00485D",
"w c #00495D",
"e c #004B5F",
"r c #004C60",
"t c #004D61",
"y c #004C62",
"u c #004D62",
"i c #004E63",
"p c #005066",
"a c #005166",
"s c #005268",
"d c #00546B",
"f c #00566D",
"g c #005870",
"h c #005A72",
"j c #005C75",
"k c #005E77",
"l c #00607A",
"z c #00617C",
"x c #00637E",
"c c #00637F",
"v c #00647E",
"b c #00647F",
"n c #006581",
"m c #006783",
"M c #006784",
"N c #006883",
"B c #006884",
"V c None",
/* pixels */
"VVVVVVVVVVVVVVVVVVVVVVVVVVVVVVVVVVVVVVVVVVVVVVVVVVVVVVVVVVVVVVVVVVVVVVVVVVVVVVVVVVVVVVVVVVVVVVVVVVVVVVVVVVVVVVVVVVVVVVVVVVVVVVVV",
"VVVVVVVVVVVVVVVVVVVVVVVVVVVVVVVVVVVVVVVVVVVVVVVVVVVVVVVVVVVVVVVVVVVVVVVVVVVVVVVVVVVVVVVVVVVVVVVVVVVVVVVVVVVVVVVVVVVVVVVVVVVVVVVV",
"VVVVVVVVVVVVVVVVVVVVVVVVVVVVVVVVVVVVVVVVVVVVVVVVVVVVVVVVVVVVVVVVVVVVVVVVVVVVVVVVVVVVVVVVVVVVVVVVVVVVVVVVVVVVVVVVVVVVVVVVVVVVVVVV",
"VVVVVVVVVVVVVVVVVVVVVVVVVVVVVVVVVVVVVVVVVVVVVVVVVVVVVVVVVVVVVVVVVVVVVVVVVVVVVVVVVVVVVVVVVVVVVVVVVVVVVVVVVVVVVVVVVVVVVVVVVVVVVVVV",
"VVVVVVVVVVVVVVVVVVVVVVVVVVVVVVVVVVVVVVVVVVVVVVVVVVVVVVVVVVVVVVVVVVVVVVVVVVVVVVVVVVVVVVVVVVVVVVVVVVVVVVVVVVVVVVVVVVVVVVVVVVVVVVVV",
"VVVVVVVVVVVVVVVVVVVVVVVVVVVVVVVVVVVVVVVVVVVVVVVVVVVVVVVVVVVVVVVVVVVVVVVVVVVVVVVVVVVVVVVVVVVVVVVVVVVVVVVVVVVVVVVVVVVVVVVVVVVVVVVV",
"VVVVVVVVVVVVVVVVVVVVVVVVVVVVVVVVVVVVVVVVVVVVVVVVVVVVVVVVVVVVVVVVVVVVVVVVVVVVVVVVVVVVVVVVVVVVVVVVVVVVVVVVVVVVVVVVVVVVVVVVVVVVVVVV",
"VVVVVVVVVVVVVVVVVVVVVVVVVVVVVVVVVVVVVVVVVVVVVVVVVVVVVVVVVVVVVVVVVVVVVVVVVVVVVVVVVVVVVVVVVVVVVVVVVVVVVVVVVVVVVVVVVVVVVVVVVVVVVVVV",
"VVVVVVVVVVVVVVVVVVVVVVVVVVVVVVVVVVVVVVVVVVVVVVVVVVVVVVVVVVVVVVVVVVVVVVVVVVVVVVVVVVVVVVVVVVVVVVVVVVVVVVVVVVVVVVVVVVVVVVVVVVVVVVVV",
"VVVVVVVVVVVVVVVVVVVVVVVVVVVVVVVVVVVVVVVVVVVVVVVVVVVVVVVVVVVVVVVVVVVVVVVVVVVVVVVVVVVVVVVVVVVVVVVVVVVVVVVVVVVVVVVVVVVVVVVVVVVVVVVV",
"VVVVVVVVVVVVVVVVVVVVVVVVVVVVVVVVVVVVVVVVVVVVVVVVVVVVVVVVVVVVVVVVVVVVVVVVVVVVVVVVVVVVVVVVVVVVVVVVVVVVVVVVVVVVVVVVVVVVVVVVVVVVVVVV",
"VVVVVVVVVVVVVVVVVVVVVVVVVVVVVVVVVVVVVVVVVVVVVVVVVVVVVVVVVVVVVVVVVVVVVVVVVVVVVVVVVVVVVVVVVVVVVVVVVVVVVVVVVVVVVVVVVVVVVVVVVVVVVVVV",
"VVVVVVVVVVVVVVVVVVVVVVVVVVVVVVVVVVVVVVVVVVVVVVVVVVVVVVVVVVVVVVVVVVVVVVVVVVVVVVVVVVVVVVVVVVVVVVVVVVVVVVVVVVVVVVVVVVVVVVVVVVVVVVVV",
"VVVVVVVVVVVVVVVVVVVVVVVVVVVVVVVVVVVVVVVVVVVVVVVVVVVVVVVVVVVVVVVVVVVVVVVVVVVVVVVVVVVVVVVVVVVVVVVVVVVVVVVVVVVVVVVVVVVVVVVVVVVVVVVV",
"VVVVVVVVVVVVVVVVVVVVVVVVVVVVVVVVVVVVVVVVVVVVVVVVVVVVVVVVVVVVVVVVVVVVVVVVVVVVVVVVVVVVVVVVVVVVVVVVVVVVVVVVVVVVVVVVVVVVVVVVVVVVVVVV",
"VVVVVVVVVVVVVVVVVVVVVVVVVVVVVVVVVVVVVVVVVVVVVVVVVVVVVVVVVVMBMBBBBBBBBBVVVVVVVVVVVVVVVVVVVVVVVVVVVVVVVVVVVVVVVVVVVVVVVVVVVVVVVVVV",
"VVVVVVVVVVVVVVVVVVVVVVVVVVVVVVVVVVVVVVVVVVVVVVVVVVVVNBBBBBBBBBBBBBBBBBBBBBBMVVVVVVVVVVVVVVVVVVVVVVVVVVVVVVVVVVVVVVVVVVVVVVVVVVVV",
"VVVVVVVVVVVVVVVVVVVVVVVVVVVVVVVVVVVVVVVVVVVVVVVVVNBBBBBBBBBBBBBBBBBBBBBBBBBBBBNNVVVVVVVVVVVVVVVVVVVVVVVVVVVVVVVVVVVVVVVVVVVVVVVV",
"VVVVVVVVVVVVVVVVVVVVVVVVVVVVVVVVVVVVVVVVVVVVVVnNBBBBBBBMBBBBBBBBBBBBBBBBMMBMBMBBMNVVVVVVVVVVVVVVVVVVVVVVVVVVVVVVVVVVVVVVVVVVVVVV",
"VVVVVVVVVVVVVVVVVVVVVVVVVVVVVVVVVVVVVVVVVVVVnMMMMMMBMBMMBBBBBBMMBBBBBBBBBMNMNBNBBMnMnVVVVVVVVVVVVVVVVVVVVVVVVVVVVVVVVVVVVVVVVVVV",
"VVVVVVVVVVVVVVVVVVVVVVVVVVVVVVVVVVVVVVVVVVnNNnNNNNNnMMMMBNNNMMMMNNNMBMNMnMMMNNMMNNNBNNnVVVVVVVVVVVVVVVVVVVVVVVVVVVVVVVVVVVVVVVVV",
"VVVVVVVVVVVVVVVVVVVVVVVVVVVVVVVVVVVVVVVVnnMMNMMMNNnNnNNnNNNnnMNnnMnMMMnNNMNnnMnnnNnMNnmnnVVVVVVVVVVVVVVVVVVVVVVVVVVVVVVVVVVVVVVV",
"VVVVVVVVVVVVVVVVVVVVVVVVVVVVVVVVVVVVVVznnnMnnnNnnNnMNnnNnNnnnnnnnNnnBnnNMnnNnNnnnnMnnMnnnnVVVVVVVVVVVVVVVVVVVVVVVVVVVVVVVVVVVVVV",
"VVVVVVVVVVVVVVVVVVVVVVVVVVVVVVVVVVVVVnnnnnnnnnnnnnnnnnnnnnnzgi2::,5fknnnnnnnnnnnnnnnnnnnnnnbVVVVVVVVVVVVVVVVVVVVVVVVVVVVVVVVVVVV",
"VVVVVVVVVVVVVVVVVVVVVVVVVVVVVVVVVVVzcnnnnnnnnnnnnnnnnnnnnne-X      X+,fnnnnnnnnnnnnnnnnnnnnnxVVVVVVVVVVVVVVVVVVVVVVVVVVVVVVVVVVV",
"VVVVVVVVVVVVVVVVVVVVVVVVVVVVVVVVVVknnnnnbnvnnvnvnnvnnxnbd:            O2nnbxvnnvnnnnnnxnvnnvnxVVVVVVVVVVVVVVVVVVVVVVVVVVVVVVVVVV",
"VVVVVVVVVVVVVVVVVVVVVVVVVVVVVVVVVznnnnnnncnnxnnnnbnnnnvd&  VVVVVVVV     1xnvbnnbvnnxncxnnbxnvnxVVVVVVVVVVVVVVVVVVVVVVVVVVVVVVVVV",
"VVVVVVVVVVVVVVVVVVVVVVVVVVVVVVVVzbvbxvxvxncbvxbnnxvbxvf& VVVVVVVVVVVVV   2vxbvxvcxbvvbvbxvxxnxbbxVVVVVVVVVVVVVVVVVVVVVVVVVVVVVVV",
"VVVVVVVVVVVVVVVVVVVVVVVVVVVVVVVzbvbvvbbbxvbvbvbvbvvvxg=VVVVVVVVVVVVVVVV   2xvvvxxxvvxvbbxxxvxvbxxzVVVVVVVVVVVVVVVVVVVVVVVVVVVVVV",
"VVVVVVVVVVVVVVVVVVVVVVVVVVVVVVkxvvxxxxvbxvxxvbxxxvxvx<VVVVVVVVVVVVVVVVVVV  8xxxxxxvvbzzxvzbzbzbzzxzVVVVVVVVVVVVVVVVVVVVVVVVVVVVV",
"VVVVVVVVVVVVVVVVVVVVVVVVVVVVVhxxvxzvxxxzxvxzvzvvxzxxuVVVVVVVVVVVVVVVVVVVVV &fvxvzzvzzzzvzxzxzzzxzxzVVVVVVVVVVVVVVVVVVVVVVVVVVVVV",
"VVVVVVVVVVVVVVVVVVVVVVVVVVVVhzxzzvzxzzvzzzvzxzzzxzxk:VVVVVVVVVVVVVVVVVVVVVV ,vzzzvzxzvczvzzvzxvzzzzzVVVVVVVVVVVVVVVVVVVVVVVVVVVV",
"VVVVVVVVVVVVVVVVVVVVVVVVVVVVzzzzzzzvzzzzzzzzzzzzzzziVVVVVVVVVVVVVVVVVVVVVVV +fzzzzzzzzzvzzzzzzzzzzzzzVVVVVVVVVVVVVVVVVVVVVVVVVVV",
"VVVVVVVVVVVVVVVVVVVVVVVVVVVkzzzzzzzzzzzzzzzzzzzzzzk:VVVVVVVVVVVVVVVVVVVVVVVV 1zzzzzzzzzzzzzzzlzzzzzzzkVVVVVVVVVVVVVVVVVVVVVVVVVV",
"VVVVVVVVVVVVVVVVVVVVVVVVVVfxzlzzzzlzzlzlzzzzlzzzzlfVVVVVVVVVVVVVVVVVVVVVVVVVV&kzzzlzlzzlzzzzzzzzzzlzzzVVVVVVVVVVVVVVVVVVVVVVVVVV",
"VVVVVVVVVVVVVVVVVVVVVVVVVVlzzllzzlzllzzzzlllllzlzz6VVVVVVVVVVVVVVVVVVVVVVVVVV 8zllzlzlllzkllzllllzzllzkVVVVVVVVVVVVVVVVVVVVVVVVV",
"VVVVVVVVVVVVVVVVVVVVVVVVVhzlzlllllzllzzllzjzzllllkVVVVVVVVVVVVVVVVVVVVVVVVVVVV:llllllllllzkzllzlllllkzlhVVVVVVVVVVVVVVVVVVVVVVVV",
"VVVVVVVVVVVVVVVVVVVVVVVVpzlllllllllllllzjzzlllllzfVVVVVVVVVVVVVVVVVVVVVVVVVVVV$jllllllllklzkllllllllzkllVVVVVVVVVVVVVVVVVVVVVVVV",
"VVVVVVVVVVVVVVVVVVVVVVVVjzllllklllllllljzllllzlll8VVVVVVVVVVVVVVVVVVVVVVVVVVVVXslljlllklkzkklkklkllllkklkVVVVVVVVVVVVVVVVVVVVVVV",
"VVVVVVVVVVVVVVVVVVVVVVVdkkklkllllljljlllzjzjljzjl,VVVVVVVVVVVVVVVVVVVVVVVVVVVVV2jkllkkllkklkklkkkkklklkkkVVVVVVVVVVVVVVVVVVVVVVV",
"VVVVVVVVVVVVVVVVVVVVVVVklkkkkkkklkkkkkkkjzljlljlgVVVVVVVVVVVVVVVVVVVVVVVVVVVVVV-llklkklkklkkklkkkkkkkkkkkhVVVVVVVVVVVVVVVVVVVVVV",
"VVVVVVVVVVVVVVVVVVVVVVekkkkkkkkkkkkkkkkkljljjljlfVVVVVVVVVVVVVVVVVVVVVVVVVVVVVV#jjlkkkjkkkkkkkkklkkkkkkkkkVVVVVVVVVVVVVVVVVVVVVV",
"VVVVVVVVVVVVVVVVVVVVVVgkkkkkkkkkkkkkkkkkjjllljjlyVVVVVVVVVVVVVVVVVVVVVVVVVVVVVVVdjkkkkljkkkkkkkkkkkkkkkkkkgVVVVVVVVVVVVVVVVVVVVV",
"VVVVVVVVVVVVVVVVVVVVVVkkkkkkkkkkkkkkkkkkjljjjljj6VVVVVVVVVVVVVVVVVVVVVVVVVVVVVVVrjkjkkjkjkkjkjkkkjkkkkkhkkhVVVVVVVVVVVVVVVVVVVVV",
"VVVVVVVVVVVVVVVVVVVVVsjkkkkkkkkkkkjkkjkjhkkjjjjkVVVVVVVVVVVVVVVVVVVVVVVVVVVVVVVV2khkjkjkjjkkkkjkjjkkjkkkjkkVVVVVVVVVVVVVVVVVVVVV",
"VVVVVVVVVVVVVVVVVVVVVgkjkhjjhkkhjjjjkhjkkkhjjkjjVVVVVVVVVVVVVVVVVVVVVVVVVVVVVVVV:hkkjjjjjjjjhjjjjkhkkhkhkhkgVVVVVVVVVVVVVVVVVVVV",
"VVVVVVVVVVVVVVVVVVVV5kjkkjjkkjkhjjjjkkjkjjjkjjjgVVVVVVVVVVVVVVVVVVVVVVVVVVVVVVVV&gkhhkjjjjjjjjjjjjjjhhkkhhkhVVVVVVVVVVVVVVVVVVVV",
"VVVVVVVVVVVVVVVVVVVVihkhhkhhhkhkjjjjhkhhkhjjjjjfVVVVVVVVVVVVVVVVVVVVVVVVVVVVVVVV$gjhjhjhjjhjjhjjhjhjhkhhhkhhVVVVVVVVVVVVVVVVVVVV",
"VVVVVVVVVVVVVVVVVVVVfjhjhjhjhjkhjjhjjjjhjhjkhhjsVVVVVVVVVVVVVVVVVVVVVVVVVVVVVVVV+fhhhjhjhkhhhhjhhjhhhjhhhjhhdVVVVVVVVVVVVVVVVVVV",
"VVVVVVVVVVVVVVVVVVVVghhhjhjhhhhjjhjhhhhjhjhhhjhiVVVVVVVVVVVVVVVVVVVVVVVVVVVVVVVVVshhhhjhhhhhhhhhhhhhhhhhhhhhfVVVVVVVVVVVVVVVVVVV",
"VVVVVVVVVVVVVVVVVVV5hhhhhhhhhhhhhhhhhhhhhhhhhhhiVVVVVVVVVVVVVVVVVVVVVVVVVVVVVVVVVshhhhhhhhhhhhhhhhhhhhhhhhhhhVVVVVVVVVVVVVVVVVVV",
"VVVVVVVVVVVVVVVVVVVehhhhhhhhhhhhhhhhhhhhhhhhhhh8VVVVVVVVVVVVVVVVVVVVVVVVVVVVVVVVVehhhhhhhhhhhhhhhhhhhhhhhhhhhVVVVVVVVVVVVVVVVVVV",
"VVVVVVVVVVVVVVVVVVVshhhhhghhhhhgghhghhghhhhhghh5VVVVVVVVVVVVVVVVVVVVVVVVVVVVVVVVV8hhghhghhhhhghhhhhghhhhghghgsVVVVVVVVVVVVVVVVVV",
"VVVVVVVVVVVVVVVVVVVfhhhgghghgghhhhghghhggggghhgVVVVVVVVVVVVVVVVVVVVVVVVVVVVVVVVVV6gghhghggghghghggghghgghggggfVVVVVVVVVVVVVVVVVV",
"VVVVVVVVVVVVVVVVVVVfhgggghggghhgggggghgggggggggVVVVVVVVVVVVVVVVVVVVVVVVVVVVVVVVVV<ggggggggggggggggggggggggghgfVVVVVVVVVVVVVVVVVV",
"VVVVVVVVVVVVVVVVVV:gghgghgggggggggggggggggggggfVVVVVVVVVVVVVVVVVVVVVVVVVVVVVVVVVV:ggfggggggggfggggggfggggfgggfVVVVVVVVVVVVVVVVVV",
"VVVVVVVVVVVVVVVVVV2fgggggggggfggggggggggggfgggfVVVVVVVVVVVVVVVVVVVVVVVVVVVVVVVVVV:fggfggfgggggffgffggggffgfggfVVVVVVVVVVVVVVVVVV",
"VVVVVVVVVVVVVVVVVV6ffgfgfgffgggfgfgfggfgfggggffVVVVVVVVVVVVVVVVVVVVVVVVVVVVVVVVVV:ffgfffgfffffffgfgfffgfffgfffVVVVVVVVVVVVVVVVVV",
"VVVVVVVVVVVVVVVVVVqfgffffggffffffffffffffgfffffVVVVVVVVVVVVVVVVVVVVVVVVVVVVVVVVVV:ffffgfffffffffffffffffffffffVVVVVVVVVVVVVVVVVV",
"VVVVVVVVVVVVVVVVVV8ffffffffffffffgfffffffffffffVVVVVVVVVVVVVVVVVVVVVVVVVVVVVVVVVV:fffffffffgffffffffffffffffffeVVVVVVVVVVVVVVVVV",
"VVVVVVVVVVVVVVVVVVefffffffffffffffffffffffffdffVVVVVVVVVVVVVVVVVVVVVVVVVVVVVVVVVV:ffffffffffffdffdffffffdfffdfrVVVVVVVVVVVVVVVVV",
"VVVVVVVVVVVVVVVVVVidffdffffdfdfffffffddfffffffdVVVVVVVVVVVVVVVVVVVVVVVVVVVVVVVVVV:ffdfffffdfffffdfdfffdffffdffiVVVVVVVVVVVVVVVVV",
"VVVVVVVVVVVVVVVVVVifffdfffdfddddffdddfdfffdddddVVVVVVVVVVVVVVVVVVVVVVVVVVVVVVVVVV:dddfddfffddddffdfddfdfddfdddiVVVVVVVVVVVVVVVVV",
"VVVVVVVVVVVVVVVVVVifddddfdfddfdffddfdddddddfddsVVVVVVVVVVVVVVVVVVVVVVVVVVVVVVVVVV:fdddddddddfddddddddddddddfddiVVVVVVVVVVVVVVVVV",
"VVVVVVVVVVVVVVVVVVydddddddddddddfddddddddddddddVVVVVVVVVVVVVVVVVVVVVVVVVVVVVVVVVV:ddddddddddddddddddsddsdddddsyVVVVVVVVVVVVVVVVV",
"VVVVVVVVVVVVVVVVVVyddsdddddddsdddddddddddsddddsVVVVVVVVVVVVVVVVVVVVVVVVVVVVVVVVVV:dsdsdssddssddssdddddsdsdsdddyVVVVVVVVVVVVVVVVV",
"VVVVVVVVVVVVVVVVVVrddddddddsdssddsdssddsddsdsssVVVVVVVVVVVVVVVVVVVVVVVVVVVVVVVVVV:ssssdddsssdssddssssddssddssseVVVVVVVVVVVVVVVVV",
"VVVVVVVVVVVVVVVVVV7dssssssdssddsdssdsssdssdssdsVVVVVVVVVVVVVVVVVVVVVVVVVVVVVVVVVV;ssssssssdssssssssdssssssssss7VVVVVVVVVVVVVVVVV",
"VVVVVVVVVVVVVVVVVV5sssdssssdssssssssssssssssssiVVVVVVVVVVVVVVVVVVVVVVVVVVVVVVVVVV;dsssssssssspssssssssssssssssVVVVVVVVVVVVVVVVVV",
"VVVVVVVVVVVVVVVVVV<ssssssssssssssssssssssssssssVVVVVVVVVVVVVVVVVVVVVVVVVVVVVVVVVV:sssssssssssspsasssssspsapsssVVVVVVVVVVVVVVVVVV",
"VVVVVVVVVVVVVVVVVV:ssssssspsssisssspsssssssssssVVVVVVVVVVVVVVVVVVVVVVVVVVVVVVVVVV;ssspssppsssssspssaasspsssapiVVVVVVVVVVVVVVVVVV",
"VVVVVVVVVVVVVVVVVV;sisasipsppsssipspisppppspssiVVVVVVVVVVVVVVVVVVVVVVVVVVVVVVVVVV;isisispspppppppaapspsppsisspVVVVVVVVVVVVVVVVVV",
"VVVVVVVVVVVVVVVVVV&iissappsispissisisisapsisisiVVVVVVVVVVVVVVVVVVVVVVVVVVVVVVVVVV<isisissisiisisaspppsisisisprVVVVVVVVVVVVVVVVVV",
"VVVVVVVVVVVVVVVVVV+esisissisapspisppisippsaasipVVVVVVVVVVVVVVVVVVVVVVVVVVVVVVVVVV5sisisiisisspasapppissisisiieVVVVVVVVVVVVVVVVVV",
"VVVVVVVVVVVVVVVVVVV5isissisiiissssisapsisiiiisiVVVVVVVVVVVVVVVVVVVVVVVVVVVVVVVVVV2iiisisisiaiiiisiiasiiiisiip5VVVVVVVVVVVVVVVVVV",
"VVVVVVVVVVVVVVVVVVV<iaiiiiissiiiiiaiiisiipasiipVVVVVVVVVVVVVVVVVVVVVVVVVVVVVVVVVV5isiiiiiiisiiiiipiiiaiiiiaii,VVVVVVVVVVVVVVVVVV",
"VVVVVVVVVVVVVVVVVVV;iiiiiiiiiiiisiiiisiiiiiipii7VVVVVVVVVVVVVVVVVVVVVVVVVVVVVVVVV6iiiiiiiiiiiiiiiiiiiiiiiiiiiVVVVVVVVVVVVVVVVVVV",
"VVVVVVVVVVVVVVVVVVV#iiiiiiiiiiiiiiiiiiiiiiiiiii8VVVVVVVVVVVVVVVVVVVVVVVVVVVVVVVVV8iiiiiiiiiiiiiiiiiiiiiiiiii8VVVVVVVVVVVVVVVVVVV",
"VVVVVVVVVVVVVVVVVVVV5iiiiiiiiiiiiiiiiiiiiiiiiii8VVVVVVVVVVVVVVVVVVVVVVVVVVVVVVVVV8iiiiiiiuiiuiiiiyiitiiiiiui2VVVVVVVVVVVVVVVVVVV",
"VVVVVVVVVVVVVVVVVVVV:iiiiiiiiiiiiieiiiiiitiiiiieVVVVVVVVVVVVVVVVVVVVVVVVVVVVVVVVVeuiietitiiiiiuiiiriiuuuiiie:VVVVVVVVVVVVVVVVVVV",
"VVVVVVVVVVVVVVVVVVVV&iiieiitiiieeiiiiyitieeiiieeVVVVVVVVVVVVVVVVVVVVVVVVVVVVVVVVVeiieiiyiiuiyiieiieiyiuiieyqVVVVVVVVVVVVVVVVVVVV",
"VVVVVVVVVVVVVVVVVVVVO5eiieitereiieieyieieiiyeiieVVVVVVVVVVVVVVVVVVVVVVVVVVVVVVVV-ieiieieeieiieieeeiieeiieiu2VVVVVVVVVVVVVVVVVVVV",
"VVVVVVVVVVVVVVVVVVVVV:eiuyeyyierureeieieiieiieeeVVVVVVVVVVVVVVVVVVVVVVVVVVVVVVVV:ieiieeiieeieteiieieietetii:VVVVVVVVVVVVVVVVVVVV",
"VVVVVVVVVVVVVVVVVVVVV#eeyeieyuuieyeieueieeueeierVVVVVVVVVVVVVVVVVVVVVVVVVVVVVVVV<ereeieeeeieeyieteeeieeiee6VVVVVVVVVVVVVVVVVVVVV",
"VVVVVVVVVVVVVVVVVVVVVX<ieiieeyeeteeieeteeteierey5VVVVVVVVVVVVVVVVVVVVVVVVVVVVVVV5eeeeeeueeeeeeeeeeieeeeeee,VVVVVVVVVVVVVVVVVVVVV",
"VVVVVVVVVVVVVVVVVVVVVV=eeeeeeeieieeeueeeeeeereee8VVVVVVVVVVVVVVVVVVVVVVVVVVVVVVV8eeeeeeeeeeeeeeeeeeeeeeee8VVVVVVVVVVVVVVVVVVVVVV",
"VVVVVVVVVVVVVVVVVVVVVVo5eeeeeeeeeeeeeeeeeeeeeeee8VVVVVVVVVVVVVVVVVVVVVVVVVVVVVVVeeeeeeeeeeeeeeeeeeeeeeeee2VVVVVVVVVVVVVVVVVVVVVV",
"VVVVVVVVVVVVVVVVVVVVVVV-eeeeeeeeeeeeeeeeeeeeeeeeeVVVVVVVVVVVVVVVVVVVVVVVVVVVVVV:eeeqeeeeeqeeeeeq8eeeweee6-VVVVVVVVVVVVVVVVVVVVVV",
"VVVVVVVVVVVVVVVVVVVVVVVO2eee8eeeeeeeeeeeeee8eeeeeVVVVVVVVVVVVVVVVVVVVVVVVVVVVVV2wewe9e89ee8eewweee9e8ee8<VVVVVVVVVVVVVVVVVVVVVVV",
"VVVVVVVVVVVVVVVVVVVVVVV -e8qee9e8e8e8e8eeee0e88ee5VVVVVVVVVVVVVVVVVVVVVVVVVVVVV5e0e8e0ee8e8ee8we9qeeeqe6$VVVVVVVVVVVVVVVVVVVVVVV",
"VVVVVVVVVVVVVVVVVVVVVVVV.<ee8ee8e8e8e8e88e8eeee896VVVVVVVVVVVVVVVVVVVVVVVVVVVVV88ewwee8e8ee8weeeq8e8eq8,VVVVVVVVVVVVVVVVVVVVVVVV",
"VVVVVVVVVVVVVVVVVVVVVVVV %68e88e8e098e0999e8888ee8VVVVVVVVVVVVVVVVVVVVVVVVVVVV,ee8e888eweq8ee8888e8e882VVVVVVVVVVVVVVVVVVVVVVVVV",
"VVVVVVVVVVVVVVVVVVVVVVVVV :898eq9e8qq8w0898e88e8085VVVVVVVVVVVVVVVVVVVVVVVVVVV5888e88ee888e889e88e8e88-VVVVVVVVVVVVVVVVVVVVVVVVV",
"VVVVVVVVVVVVVVVVVVVVVVVVVV+<w88888w88e89qw888088806VVVVVVVVVVVVVVVVVVVVVVVVVV:8898888888888w888088888,VVVVVVVVVVVVVVVVVVVVVVVVVV",
"VVVVVVVVVVVVVVVVVVVVVVVVVV &88888e88888e88088qq8088VVVVVVVVVVVVVVVVVVVVVVVVVV268888888888888888888882@VVVVVVVVVVVVVVVVVVVVVVVVVV",
"VVVVVVVVVVVVVVVVVVVVVVVVVVV ;88888888888888888888886VVVVVVVVVVVVVVVVVVVVVVVVV68888888888888888888865&VVVVVVVVVVVVVVVVVVVVVVVVVVV",
"VVVVVVVVVVVVVVVVVVVVVVVVVVV .,8888888888888888888888VVVVVVVVVVVVVVVVVVVVVVVV18878888868888888888688;VVVVVVVVVVVVVVVVVVVVVVVVVVVV",
"VVVVVVVVVVVVVVVVVVVVVVVVVVVV @<6786886866887887668885VVVVVVVVVVVVVVVVVVVVVV>7878767787867676766686;VVVVVVVVVVVVVVVVVVVVVVVVVVVVV",
"VVVVVVVVVVVVVVVVVVVVVVVVVVVVV @<6866768867768786868675VVVVVVVVVVVVVVVVVVVVV3877766887768766876776,VVVVVVVVVVVVVVVVVVVVVVVVVVVVVV",
"VVVVVVVVVVVVVVVVVVVVVVVVVVVVVV @<6667776786766667777765VVVVVVVVVVVVVVVVVVV5777778666676666778675<#VVVVVVVVVVVVVVVVVVVVVVVVVVVVVV",
"VVVVVVVVVVVVVVVVVVVVVVVVVVVVVV  @,6776767777566656665755VVVVVVVVVVVVVVVVV1667777777767767756666<#VVVVVVVVVVVVVVVVVVVVVVVVVVVVVVV",
"VVVVVVVVVVVVVVVVVVVVVVVVVVVVVVV  @,6557657755756677567565VVVVVVVVVVVVVVV5665575775757656775757<#VVVVVVVVVVVVVVVVVVVVVVVVVVVVVVVV",
"VVVVVVVVVVVVVVVVVVVVVVVVVVVVVVVV  @,7575775655765757575665VVVVVVVVVVVVV5565575755655655657575;+VVVVVVVVVVVVVVVVVVVVVVVVVVVVVVVVV",
"VVVVVVVVVVVVVVVVVVVVVVVVVVVVVVVVV  @,75755757555555565555575VVVVVVVV355555555555555555555555- VVVVVVVVVVVVVVVVVVVVVVVVVVVVVVVVVV",
"VVVVVVVVVVVVVVVVVVVVVVVVVVVVVVVVVV  O;5555555555555555555555555555555555555555555555555555<=VVVVVVVVVVVVVVVVVVVVVVVVVVVVVVVVVVVV",
"VVVVVVVVVVVVVVVVVVVVVVVVVVVVVVVVVVV   &,5555555555555545554555535555535555532555554545545>@VVVVVVVVVVVVVVVVVVVVVVVVVVVVVVVVVVVVV",
"VVVVVVVVVVVVVVVVVVVVVVVVVVVVVVVVVVVV   @;4554555555555553555532555444535555555225455554<-.VVVVVVVVVVVVVVVVVVVVVVVVVVVVVVVVVVVVVV",
"VVVVVVVVVVVVVVVVVVVVVVVVVVVVVVVVVVVVVV   %,4525224553544553352552545435225242555454435;@ VVVVVVVVVVVVVVVVVVVVVVVVVVVVVVVVVVVVVVV",
"VVVVVVVVVVVVVVVVVVVVVVVVVVVVVVVVVVVVVVV   o=<355444444443352525244444444445544444455:% VVVVVVVVVVVVVVVVVVVVVVVVVVVVVVVVVVVVVVVVV",
"VVVVVVVVVVVVVVVVVVVVVVVVVVVVVVVVVVVVVVVVV   O=,24234334423332242334433334222333331;%. VVVVVVVVVVVVVVVVVVVVVVVVVVVVVVVVVVVVVVVVVV",
"VVVVVVVVVVVVVVVVVVVVVVVVVVVVVVVVVVVVVVVVVV    X%;222222223222522332232222222224<-+  VVVVVVVVVVVVVVVVVVVVVVVVVVVVVVVVVVVVVVVVVVVV",
"VVVVVVVVVVVVVVVVVVVVVVVVVVVVVVVVVVVVVVVVVVVV     +=><22222222222222222222221,;%o  VVVVVVVVVVVVVVVVVVVVVVVVVVVVVVVVVVVVVVVVVVVVVV",
"VVVVVVVVVVVVVVVVVVVVVVVVVVVVVVVVVVVVVVVVVVVVVV     .o%-;,1<22222222222<<:-*+.   VVVVVVVVVVVVVVVVVVVVVVVVVVVVVVVVVVVVVVVVVVVVVVVV",
"VVVVVVVVVVVVVVVVVVVVVVVVVVVVVVVVVVVVVVVVVVVVVVVVV       .O+%$*-;-;-%$#Oo.     VVVVVVVVVVVVVVVVVVVVVVVVVVVVVVVVVVVVVVVVVVVVVVVVVV",
"VVVVVVVVVVVVVVVVVVVVVVVVVVVVVVVVVVVVVVVVVVVVVVVVVVVV                      VVVVVVVVVVVVVVVVVVVVVVVVVVVVVVVVVVVVVVVVVVVVVVVVVVVVVV",
"VVVVVVVVVVVVVVVVVVVVVVVVVVVVVVVVVVVVVVVVVVVVVVVVVVVVVVVVV            VVVVVVVVVVVVVVVVVVVVVVVVVVVVVVVVVVVVVVVVVVVVVVVVVVVVVVVVVVV",
"VVVVVVVVVVVVVVVVVVVVVVVVVVVVVVVVVVVVVVVVVVVVVVVVVVVVVVVVVVVVVVVVVVVVVVVVVVVVVVVVVVVVVVVVVVVVVVVVVVVVVVVVVVVVVVVVVVVVVVVVVVVVVVVV",
"VVVVVVVVVVVVVVVVVVVVVVVVVVVVVVVVVVVVVVVVVVVVVVVVVVVVVVVVVVVVVVVVVVVVVVVVVVVVVVVVVVVVVVVVVVVVVVVVVVVVVVVVVVVVVVVVVVVVVVVVVVVVVVVV",
"VVVVVVVVVVVVVVVVVVVVVVVVVVVVVVVVVVVVVVVVVVVVVVVVVVVVVVVVVVVVVVVVVVVVVVVVVVVVVVVVVVVVVVVVVVVVVVVVVVVVVVVVVVVVVVVVVVVVVVVVVVVVVVVV",
"VVVVVVVVVVVVVVVVVVVVVVVVVVVVVVVVVVVVVVVVVVVVVVVVVVVVVVVVVVVVVVVVVVVVVVVVVVVVVVVVVVVVVVVVVVVVVVVVVVVVVVVVVVVVVVVVVVVVVVVVVVVVVVVV",
"VVVVVVVVVVVVVVVVVVVVVVVVVVVVVVVVVVVVVVVVVVVVVVVVVVVVVVVVVVVVVVVVVVVVVVVVVVVVVVVVVVVVVVVVVVVVVVVVVVVVVVVVVVVVVVVVVVVVVVVVVVVVVVVV",
"VVVVVVVVVVVVVVVVVVVVVVVVVVVVVVVVVVVVVVVVVVVVVVVVVVVVVVVVVVVVVVVVVVVVVVVVVVVVVVVVVVVVVVVVVVVVVVVVVVVVVVVVVVVVVVVVVVVVVVVVVVVVVVVV",
"VVVVVVVVVVVVVVVVVVVVVVVVVVVVVVVVVVVVVVVVVVVVVVVVVVVVVVVVVVVVVVVVVVVVVVVVVVVVVVVVVVVVVVVVVVVVVVVVVVVVVVVVVVVVVVVVVVVVVVVVVVVVVVVV",
"VVVVVVVVVVVVVVVVVVVVVVVVVVVVVVVVVVVVVVVVVVVVVVVVVVVVVVVVVVVVVVVVVVVVVVVVVVVVVVVVVVVVVVVVVVVVVVVVVVVVVVVVVVVVVVVVVVVVVVVVVVVVVVVV",
"VVVVVVVVVVVVVVVVVVVVVVVVVVVVVVVVVVVVVVVVVVVVVVVVVVVVVVVVVVVVVVVVVVVVVVVVVVVVVVVVVVVVVVVVVVVVVVVVVVVVVVVVVVVVVVVVVVVVVVVVVVVVVVVV",
"VVVVVVVVVVVVVVVVVVVVVVVVVVVVVVVVVVVVVVVVVVVVVVVVVVVVVVVVVVVVVVVVVVVVVVVVVVVVVVVVVVVVVVVVVVVVVVVVVVVVVVVVVVVVVVVVVVVVVVVVVVVVVVVV",
"VVVVVVVVVVVVVVVVVVVVVVVVVVVVVVVVVVVVVVVVVVVVVVVVVVVVVVVVVVVVVVVVVVVVVVVVVVVVVVVVVVVVVVVVVVVVVVVVVVVVVVVVVVVVVVVVVVVVVVVVVVVVVVVV",
"VVVVVVVVVVVVVVVVVVVVVVVVVVVVVVVVVVVVVVVVVVVVVVVVVVVVVVVVVVVVVVVVVVVVVVVVVVVVVVVVVVVVVVVVVVVVVVVVVVVVVVVVVVVVVVVVVVVVVVVVVVVVVVVV"
};
