/* XPM */
static char *picasa[] = {
/* columns rows colors chars-per-pixel */
"128 128 58 1 ",
"  c #000001",
". c #000608",
"X c #00090C",
"o c #000D11",
"O c #000E14",
"+ c #001116",
"@ c #001217",
"# c #00151B",
"$ c #00171C",
"% c #00181F",
"& c #001C23",
"* c #002129",
"= c #00222C",
"- c #00242E",
"; c #002833",
": c #002D39",
"> c #002E3A",
", c #002F3C",
"< c #00323F",
"1 c #003442",
"2 c #003545",
"3 c #003644",
"4 c #003746",
"5 c #003C4C",
"6 c #003C4D",
"7 c #003F50",
"8 c #004052",
"9 c #004153",
"0 c #004355",
"q c #004457",
"w c #004557",
"e c #004558",
"r c #00475A",
"t c #00485D",
"y c #004B5F",
"u c #004C62",
"i c #004F64",
"p c #005066",
"a c #005166",
"s c #005369",
"d c #00546B",
"f c #00566E",
"g c #005870",
"h c #005A73",
"j c #005C75",
"k c #005E78",
"l c #006079",
"z c #00607A",
"x c #00617C",
"c c #00637E",
"v c #00637F",
"b c #00647E",
"n c #00647F",
"m c #006581",
"M c #006784",
"N c #006883",
"B c #006986",
"V c None",
/* pixels */
"VVVVVVVVVVVVVVVVVVVVVVVVVVVVVVVVVVVVVVVVVVVVVVVVVVVVVVVVVVVVVVVVVVVVVVVVVVVVVVVVVVVVVVVVVVVVVVVVVVVVVVVVVVVVVVVVVVVVVVVVVVVVVVVV",
"VVVVVVVVVVVVVVVVVVVVVVVVVVVVVVVVVVVVVVVVVVVVVVVVVVVVVVVVVVVVVVVVVVVVVVVVVVVVVVVVVVVVVVVVVVVVVVVVVVVVVVVVVVVVVVVVVVVVVVVVVVVVVVVV",
"VVVVVVVVVVVVVVVVVVVVVVVVVVVVVVVVVVVVVVVVVVVVVVVVVVVVVVVVVVVVVVVVVVVVVVVVVVVVVVVVVVVVVVVVVVVVVVVVVVVVVVVVVVVVVVVVVVVVVVVVVVVVVVVV",
"VVVVVVVVVVVVVVVVVVVVVVVVVVVVVVVVVVVVVVVVVVVVVVVVVVVVVVVVVVVVVVVVVVVVVVVVVVVVVVVVVVVVVVVVVVVVVVVVVVVVVVVVVVVVVVVVVVVVVVVVVVVVVVVV",
"VVVVVVVVVVVVVVVVVVVVVVVVVVVVVVVVVVVVVVVVVVVVVVVVVVVVVVVVVVVVVVVVVVVVVVVVVVVVVVVVVVVVVVVVVVVVVVVVVVVVVVVVVVVVVVVVVVVVVVVVVVVVVVVV",
"VVVVVVVVVVVVVVVVVVVVVVVVVVVVVVVVVVVVVVVVVVVVVVVVVVVVVVVVVVVVVVVVVVVVVVVVVVVVVVVVVVVVVVVVVVVVVVVVVVVVVVVVVVVVVVVVVVVVVVVVVVVVVVVV",
"VVVVVVVVVVVVVVVVVVVVVVVVVVVVVVVVVVVVVVVVVVVVVVVVVVVVVVVVVVVVVVVVVVVVVVVVVVVVVVVVVVVVVVVVVVVVVVVVVVVVVVVVVVVVVVVVVVVVVVVVVVVVVVVV",
"VVVVVVVVVVVVVVVVVVVVVVVVVVVVVVVVVVVVVVVVVVVVVVVVVVVVVVVVBBBBBBBBBBBBBBBVVVVVVVVVVVVVVVVVVVVVVVVVVVVVVVVVVVVVVVVVVVVVVVVVVVVVVVVV",
"VVVVVVVVVVVVVVVVVVVVVVVVVVVVVVVVVVVVVVVVVVVVVVVVVVBBBBBBBBBBBBBBBBBBBBBBBBBBBVVVVVVVVVVVVVVVVVVVVVVVVVVVVVVVVVVVVVVVVVVVVVVVVVVV",
"VVVVVVVVVVVVVVVVVVVVVVVVVVVVVVVVVVVVVVVVVVVVVVNBBBBBBBBBBBBBBBBBBBBBBBBBBBBBBBBBBVVVVVVVVVVVVVVVVVVVVVVVVVVVVVVVVVVVVVVVVVVVVVVV",
"VVVVVVVVVVVVVVVVVVVVVVVVVVVVVVVVVVVVVVVVVVVVBBBBBBBBBBBBBBBBBBBBBBBBBBBBBBBBBBBBBBBNVVVVVVVVVVVVVVVVVVVVVVVVVVVVVVVVVVVVVVVVVVVV",
"VVVVVVVVVVVVVVVVVVVVVVVVVVVVVVVVVVVVVVVVVVVVxBBBBBBBBBBBBBBBBBBBBBBBBBBBBBBBBBBBBBBBBBVVVVVVVVVVVVVVVVVVVVVVVVVVVVVVVVVVVVVVVVVV",
"VVVVVVVVVVVVVVVVVVVVVVVVVVVVVVVVVVVVVVVVVVVVVfmBBBBBBBBBBBBBBBBBBBBBBBBBBBBBBBBBBBBBBMVVVVVVVVVVVVVVVVVVVVVVVVVVVVVVVVVVVVVVVVVV",
"VVVVVVVVVVVVVVVVVVVVVVVVVVVVVVVVVVVVVVVVVVVVVV6lBBBMBMBMBBBBBBBBBBBBBBMBBBBBBBBBBBMBBMVVVVVVVVVVVVVVVVVVVVVVVVVVVVVVVVVVVVVVVVVV",
"VVVVVVVVVVVVVVVVVVVVVVVVVVVVVVVVVVVNBNVVVVVVVVV1xBMBBMBBBBBBBBBBBBBBMBBBBBBBBBBBBMBMMmVVVVVVVVVVVVVVVVVVVVVVVVVVVVVVVVVVVVVVVVVV",
"VVVVVVVVVVVVVVVVVVVVVVVVVVVVVVVVVVmMMNMmVVVVVVVV1jNMNNNNBBBBBBBBBBBBBMMBBBBBBBBBMMNMMmVVVVVVVmVVVVVVVVVVVVVVVVVVVVVVVVVVVVVVVVVV",
"VVVVVVVVVVVVVVVVVVVVVVVVVVVVVVVVmmMMMMMMmVVVVVVV :hmMMMMNNNNNMmNBBNmMNNNNNmMMNMMMNmMMbVVVVVVVMNVVVVVVVVVVVVVVVVVVVVVVVVVVVVVVVVV",
"VVVVVVVVVVVVVVVVVVVVVVVVVVVVVVVmMMNmmNMmmxVVVVVVV ,hNmNMNNNNmMMMBBNmMNMmNNMMMmmMMmNNNxVVVVVVVNMmmVVVVVVVVVVVVVVVVVVVVVVVVVVVVVVV",
"VVVVVVVVVVVVVVVVVVVVVVVVVVVVVvmmNmmmNMNNNmzVVVVVV  ;immmmNNmMmmMBNNNmNmMmMmmNMmMNMNMNxVVVVVVVmmNmmVVVVVVVVVVVVVVVVVVVVVVVVVVVVVV",
"VVVVVVVVVVVVVVVVVVVVVVVVVVVVzmmmmMmmmmmmmmNzVVVVVV  ormmmmMmmNmmBNmNmMmmMmmmmmNmmmmmmzVVVVVVfmmNmmmVVVVVVVVVVVVVVVVVVVVVVVVVVVVV",
"VVVVVVVVVVVVVVVVVVVVVVVVVVVxmmmmmmmmmmmmmmmmkVVVVVVV ormmmmmmmmmmmmmmmmNmmmmmmmmmmmmmzVVVVVVimmmmmmmcVVVVVVVVVVVVVVVVVVVVVVVVVVV",
"VVVVVVVVVVVVVVVVVVVVVVVVVVxmmmmmmmmmmmmmmmmmmxVVVVVVV ormmmmmmmmmmmmmmmmmmmmmmmmmmmmmzVVVVVVtmmmmmmmmxVVVVVVVVVVVVVVVVVVVVVVVVVV",
"VVVVVVVVVVVVVVVVVVVVVVVVVxmmmmmmmmxmmmmbmmbmmmzVVVVVVV orcmmmvmmmvmmnmmnmmbmmmmmmmmbmlVVVVVVrmmmmmmmmmxVVVVVVVVVVVVVVVVVVVVVVVVV",
"VVVVVVVVVVVVVVVVVVVVVVVVxmmmxmxmxmmmmxmmmmbmmmmxVVVVVVV orxvmmxmxmnmnmnmmxmmmxxmmxmbmzVVVVVV0xmxcbmbmmmzVVVVVVVVVVVVVVVVVVVVVVVV",
"VVVVVVVVVVVVVVVVVVVVVVVxvbmxmxmxmxmxmbmxxmxmxmxmxVVVVVVV X4hxmmxmxmxmbnxmmxmmxmcbxmmmkVVVVVV0bmmxmnnmmxbxVVVVVVVVVVVVVVVVVVVVVVV",
"VVVVVVVVVVVVVVVVVVVVVVzbxvvvxmxmcbxmmxbmmbbbmbnbvxVVVVVVV  >hxvvxmxmxmxmbbnxxmxmxmvxbkVVVVVV9mccmxmxxbbbcxVVVVVVVVVVVVVVVVVVVVVV",
"VVVVVVVVVVVVVVVVVVVVVlbxmmxbxcmxbbbxxvbxxnmxxxbbxxxhVVVVVV  >hxvxmmxmxcxnxxmmxxmxmxbbkVVVVVV0xbxxcbmxmbxmxVVVVVVVVVVVVVVVVVVVVVV",
"VVVVVVVVVVVVVVVVVVVVhxbxxxxnvxmxbxxmcxxbnxnxnxxbxmvxjVVVVVV  :hxxxvxxbxmxnxxxxnxxxbxxkVVVVVV9bxbxbxxcxbxxxxVVVVVVVVVVVVVVVVVVVVV",
"VVVVVVVVVVVVVVVVVVVhxbxbxbxxxxvxxbxxxxbxxxbxxxxbxbxbxjVVVVVV  :hbxxxxnbxxnbxxvbxxnxxxkVVVVVV9xbxxvxxxcxxxbxxVVVVVVVVVVVVVVVVVVVV",
"VVVVVVVVVVVVVVVVVVVzxxxxxxxxxxxxxxxxxxxxxxxxxxxxxxxxxxhVVVVVV  :dxxxxxxxxxxxxxxxxxxxxkVVVVVV9xxxxxxxxxxxxxxxlVVVVVVVVVVVVVVVVVVV",
"VVVVVVVVVVVVVVVVVVkxxxxxxxxxxxxxxxxxxxxxxxxxxxxxxxxxxxxhVVVVVV  &0zxxxxxxxxxxxxxxxxxxjVVVVVV9zxxxxxxxxxxxxxxxVVVVVVVVVVVVVVVVVVV",
"VVVVVVVVVVVVVVVVVhzxzxxzxxxzxxzxxzxzxxxzxxzxxxzxzxzxzxzxhVVVVVV  +rzxzxzxzxzxzxzxzxxzkVVVVVV9xxzzxzxzxzxzxzxxzVVVVVVVVVVVVVVVVVV",
"VVVVVVVVVVVVVVVVVzzzxzllxlxllxlxzxlzllzlzxllxxlzllxlxllllkVVVVVVV +wzzxzlxlzxzzzzxllxhVVVVVV9zzzxzllllzxxzxlxlzVVVVVVVVVVVVVVVVV",
"VVVVVVVVVVVVVVVVjzzxzzzzzzllzzllzlxzllzxllllzlzlzzzllzzzlzhVVVVVVV +rzzzzllzzlxllllzzhVVVVVV8xzzzzzzlxzzzzzzlzlVVVVVVVVVVVVVVVVV",
"VVVVVVVVVVVVVVVfzlkzzzlzllzzlkzzzzzzzzzllzzzllzzzzzzzzzlkhVVVVVVVVV OwkzzzzlzzlzzzzzzhVVVVVV8zzzzzzzzzzzzzzzzzzkVVVVVVVVVVVVVVVV",
"VVVVVVVVVVVVVVVkkzzzzllkklzzlklzlzklzlklzzkzklzzzklzzzlksVVVVVVVVVVV O8hlzlklzzzzzzzzhVVVVVV7klllzzzlkllklkzzzlkjVVVVVVVVVVVVVVV",
"VVVVVVVVVVVVVVdkklkzzkkkkkkzkzlkkkklklkkkzkzkkzkkkzkzkhtVVVVVVVVVVVVV .:flkkkkzkklzkkhVVVVVV7kkklkklkklkkkkkzzkkkVVVVVVVVVVVVVVV",
"VVVVVVVVVVVVVVkkkkkkkkkkkkkkkkkklkkkkkkkkzkkkzzkkkkzkf1VVVVVVVVVVVVVVV  >dlkkkkkkkkkkhVVVVVV7kkkkkkkklkkkkkzkkkkkhVVVVVVVVVVVVVV",
"VVVVVVVVVVVVVskkkkkkkkkklkkkkkkkkkkkkkkkkkkkkkkkkkkkf<VVVVVVVVVVVVVVVVV  :fkkkkkkkkkkhVVVVVV7kkkkkkkkkkkkkkkkkkkkjVVVVVVVVVVVVVV",
"VVVVVVVVVVVVVhkkkkkkkkkkkkkkkkkkkkkkkkkkkkjkkkkkkkkf,VVVVVVVVVVVVVVVVVVV  :fkkkkkkkkkhVVVVVV7kkkkkkkkkkkkkkkkkkkkkhVVVVVVVVVVVVV",
"VVVVVVVVVVVVskkkkjkkkjkkjkkkjkjkkkkkkkkkkjkkhjkkkkd<VVVVVVVVVVVVVVVVVVVVV  :fkkhkjkkjgVVVVVV7kkhjkjkjkkkhjkkkkjkkkkVVVVVVVVVVVVV",
"VVVVVVVVVVVVhhkhkjhkhkhkkkhkkjkkhkhkhkhkkjjkkkkhht-VVVVVVVVVVVVVVVVVVVVVVV  ;tkjkjjkkfVVVVVV5kkjjkkjkjhkkkkhkhkhhkhfVVVVVVVVVVVV",
"VVVVVVVVVVVthkhkhkjkkkjjhjkhjjjjkhkhjkkhjjjkkhhke@VVVVVVVVVVVVVVVVVVVVVVVVV  @0kjjjjkgVVVVVV7hkkjkjjjkjjkjhkkkhkkhkhVVVVVVVVVVVV",
"VVVVVVVVVVVfhjjjkhjjhhhkkhjjjhjjjjhkhhhkjjjhhkh0@VVVVVVVVVVVVVVVVVVVVVVVVVVV  @0jjjjhfVVVVVV5khjhhjjjjjjhkhhhjjjhkhjVVVVVVVVVVVV",
"VVVVVVVVVVVhhhjjjjjhjhjhhhkhjjhjhjhkkhjhjhhkjjr@VVVVVVVVVVVVVVVVVVVVVVVVVVVVVV @0jjjhfVVVVVV7jjhjhjjjhjjhhhjjhhjhhjhfVVVVVVVVVVV",
"VVVVVVVVVVuhhkhhhjhjhkhhhjhhhhjhhjhhhjhjhjhhf0@VVVVVVVVVVVVVVVVVVVVVVVVVVVVVVVV @0hhjfVVVVVV5hhhhjhjhjjjhkjhhjjjhkhjhVVVVVVVVVVV",
"VVVVVVVVVVshhjjhjhhjhhhkhhhjhhhhhjhhhhjhjhhs,XVVVVVVVVVVVVVVVVVVVVVVVVVVVVVVVVVV @qhhfVVVVVV5hhhhhjhhjhhhhhjhjhhjhhjhVVVVVVVVVVV",
"VVVVVVVVVVghhhhhhhhhhhhhhhhhhhhhhhhhhhhhhhs<VVVVVVVVVVVVVVVVVVVVVVVVVVVVVVVVVVVVVV+5ffVVVVVV5hhhhhhhhhhhhhhhhhhhhhhhhfVVVVVVVVVV",
"VVVVVVVVV9hhhhhhhhhhhhhghhhhhhhhhhhhghhhhs,VVVVVVVVVVVVVVVVVVVVVVVVVVVVVVVVVVVVVVVVV5sVVVVVV5hhhhhhhhhhhhhghhhhhhhhhhfVVVVVVVVVV",
"VVVVVVVVVyhhhffhhhghghhhhgfhhgghhhhhhghgs<VVVVVVVVVVVVVVVVVVVVVVVVVVVVVVVVVVVVVVVVVVVVVVVVVV5hhgghggghgghghhhfhghhfhhfVVVVVVVVVV",
"VVVVVVVVVsfhhhghfhhhhhfhhhhgghghgghghfft;VVVVVVVVVVVVVVVVVVVVVVVVVVVVVVVVVVVVVVVVVVVVVVVVVVV5fhfghghghhhfhhhhfhhhfhhghVVVVVVVVVV",
"VVVVVVVVVfhhfgfhhffgffhffhfhggfhghfhgh0#VVVVVVVVVVVVVVVVVVVVVVVVVVVVVVVVVVVVVVVVVVVVVVVVVVVV5hghgghfhffhhffhfhfhfhgfhfsVVVVVVVVV",
"VVVVVVVVVffffhhffhhfgfgghfgffhggfhfhf0#VVVVVVVVVVVVVVVVVVVVVVVVVVVVVVVVVVVVVVVVVVVVVVVVVVVVV5fggghfhggghffgghfghhfgfhfsVVVVVVVVV",
"VVVVVVVVrgfhfffhfffhfhhffgfhgffggfgf0#VVVVVVVVVVVVVVVVVVVVVVVVVVVVVVVVVVVVVVVVVVVVVVVVVVVVVV5fggffffggfffhgfgfffhffhhffVVVVVVVVV",
"VVVVVVVVrffffffffggffgffgfgffgfffgf9#VVVVVVVVVVVVVVVVVVVVVVVVVVVVVVVVVVVVVVVVVVVVVVVVVVVVVVV5fffgffggffggfffggfffffffgfVVVVVVVVV",
"VVVVVVVVtffffhfffffffffffffgfffffs1oVVVVVVVVVVVVVVVVVVVVVVVVVVVVVVVVVVVVVVVVVVVVVVVVVVVVVVVV5ffffgffffffffgfffffffgfffdVVVVVVVVV",
"VVVVVVVVsfffffffffffffffffffffffp<VVVVVVVVVVVVVVVVVVVVVVVVVVVVVVVVVVVVVVVVVVVVVVVVVVVVVVVVVV4ffffffffffffffffffffffffffVVVVVVVVV",
"VVVVVVVVsffffffffffffffffffffffp,VVVVVVVVVVVVVVVVVVVVVVVVVVVVVVVVVVVVVVVVVVVVVVVVVVVVVVVVVVV5fffffffffffffffffdffdfffffuVVVVVVVV",
"VVVVVVVVsfdffsfffdfffddfffdfffp<VVVVVVVVVVVVVVVVVVVVVVVVVVVVVVVVVVVVVVVVVVVVVVVVVVVVVVVVVVVV4ffsffffdfdfffsfdffffddffffyVVVVVVVV",
"VVVVVVVVpfddffsfdfdffddfdddddr:VVVVVVVVVVVVVVVVVVVVVVVVVVVVVVVVVVVVVVVVVVVVVVVVVVVVVVVVVVVVV4ffdddddffddsffffsdffdfdfsftVVVVVVVV",
"VVVVVVVVpsfsfdfssfsfddfdddfs9%VVVVVVVVVVVVVVVVVVVVVVVVVVVVVVVVVVVVVVVVVVVVVVVVVVVVVVVVVVVVVV4fffsfsfddddfdfffsfsdfsffdftVVVVVVVV",
"VVVVVVVVpfdddsddfsfsfssdddd9$VVVVVVVVVVVVVVVVVVVVVVVVVVVVVVVVVVVVVVVVVVVVVVVVVVVVVVVVVVVVVVV4dsddsfsdddssfsssfsfsddssfstVVVVVVVV",
"VVVVVVVVpsdddfsdsddfssddsd9$VVVVVVVVVVVVVVVVVVVVVVVVVVVVVVVVVVVVVVVVVVVVVVVVVVVVVVVVVVVVVVVV5sdssfsfdddsssdssfdssfsfdssrVVVVVVVV",
"VVVVVVVVissssssssssssdsds9%VVVVVVVVVVVVVVVVVVVVVVVVVVVVVVVVVVVVVVVVVVVVVVVVVVVVVVVVVVVVVVVVV4ssdssdsssdsfssdssdssssssdstVVVVVVVV",
"VVVVVVVVpsdsssssssssdssi3@VVVVVVVVaVVVVVVVVVVVVVVVVVVVVVVVVVVVVVVVVVVVVVVVVVVVVVVVVVVVVVVVVV4ssssdsssssdssdssdsssssdssarVVVVVVVV",
"VVVVVVVVpsssssdssssssap,VVVVVVVVVasVVVVVVVVVVVVVVVVVVVVVVVVVVVVVVVVVVVVVVVVVVVVVVVVVVVVVVVVV4ssssssssssssssssssssssssssrVVVVVVVV",
"VVVVVVVVissasssssssssi,VVVVVVVVVsadVVVVVVVVVVVVVVVVVVVVVVVVVVVVVVVVVVVVVVVVVVVVVVVVVVVVVVVVV4assssssssssssdasssssssssssrVVVVVVVV",
"VVVVVVVViassassasspsi,VVVVVVVVyaasaVVVVVVVVVVVVVVVVVVVVVVVVVVVVVVVVVVVVVVVVVVVVVVVVVVVVVVVVV4pssssspasssasaasspspssssaswVVVVVVVV",
"VVVVVVVVysaspspapsat>VVVVVVVVyasssiVVVVVVVVVVVVVVVVVVVVVVVVVVVVVVVVVVVVVVVVVVVVVVVVVVVVVVVVV4asaaapspppsaaadaaaapspspps0VVVVVVVV",
"VVVVVVVVtspppppppp7%VVVVVVVVtaaasaiVVVVVVVVVVVVVVVVVVVVVVVVVVVVVVVVVVVVVVVVVVVVVVVVVVVVVVVVV4aaaapapasppaaaaaaaappppspaVVVVVVVVV",
"VVVVVVVV7pppapppp8%VVVVVVVVtaaaaipiVVVVVVVVVVVVVVVVVVVVVVVVVVVVVVVVVVVVVVVVVVVVVVVVVVVVVVVVV3aaasapaipapaaaaaaaappppaauVVVVVVVVV",
"VVVVVVVV5ipipipa7%VVVVVVVVyaaaiappiVVVVVVVVVVVVVVVVVVVVVVVVVVVVVVVVVVVVVVVVVVVVVVVVVVVVVVVVV3apipapiappiaaaaaaaapiippiiVVVVVVVVV",
"VVVVVVVV4piipip7$VVVVVVVViaaiaiaiiuVVVVVVVVVVVVVVVVVVVVVVVVVVVVVVVVVVVVVVVVVVVVVVVVVVVVVVVVV3aiipipiiaiaiaaiiaiipiippiyVVVVVVVVV",
"VVVVVVVV*yipiy4#VVVVVVVVuiiiiiiiiiyVVVVVVVVVVVVVVVVVVVVVVVVVVVVVVVVVVVVVVVVVVVVVVVVVVVVVVVVV1iiiiiiiiiiiiiiiiiiiiipiip0VVVVVVVVV",
"VVVVVVVV%yipy,VVVVVVVVVyiiiaiiiiiiyVVVVVVVVVVVVVVVVVVVVVVVVVVVVVVVVVVVVVVVVVVVVVVVVVVVVVVVVV1iiiiiiiiiiiiiiiiiiiiiiiii8VVVVVVVVV",
"VVVVVVVVV8iy,VVVVVVVVVyiayiiiiiiiiyVVVVVVVVVVVVVVVVVVVVVVVVVVVVVVVVVVVVVVVVVVVVVVVVVVVVVVVVV1iiiiiiiiiiiiiiiiiiiiiiiiyVVVVVVVVVV",
"VVVVVVVVV5t,VVVVVVVVryiiayaiiiuiiiyVVVVVVVVVVVVVVVVVVVVVVVVVVVVVVVVVVVVVVVVVVVVVVVVVVVVVVVVV1iuiiiuiiuiuiuiiiuuiiiuiitVVVVVVVVVV",
"VVVVVVVVV;:VVVVVVVVryiyiyayiuuiuuitVVVVVVVVVVVVVVVVVVVVVVVVVVVVVVVVVVVVVVVVVVVVVVVVVVVVVVVVV1iiuuuiuuuuiuuuuiuiiuuuui9VVVVVVVVVV",
"VVVVVVVVVVVVVVVVVVwuuuiyyyuuuuuuuutVVVVVVVVVVVVVVVVVVVVVVVVVVVVVVVVVVVVVVVVVVVVVVVVVVVVVVVVV<uuuuuuuuiuuuuuuuiyiuuuui5VVVVVVVVVV",
"VVVVVVVVVVVVVVVVV0yuuiyuuuuuuuuuuutVVVVVVVVVVVVVVVVVVVVVVVVVVVVVVVVVVVVVVVVVVVVVVVVVVVVVVVVV1uuuuuuuuuyuuuuuyuuyuuuutVVVVVVVVVVV",
"VVVVVVVVVVVVVVVVwyyuuuuuyuyuyyuuyurVVVVVVVVVVVVVVVVVVVVVVVVVVVVVVVVVVVVVVVVVVVVVVVVVVVVVVVVV1uuuuuuuyuuuuyuuyyuyyuuywVVVVVVVVVVV",
"VVVVVVVVVVVVVVVtyyyyyyyuyuyyyyyyyytVVVVVVVVVVVVVVVVVVVVVVVVVVVVVVVVVVVVVVVVVVVVVVVVVVVVVVVVV-44433343334333443443445<VVVVVVVVVVV",
"VVVVVVVVVVVVVVtyyyyyyyyyyyyyyyyyyytVVVVVVVVVVVVVVVVVVVVVVVVVVVVVVVVVVVVVVVVVVVVVVVVVVVVVVVVVVV                    VVVVVVVVVVVVVV",
"VVVVVVVVVVVVVtyyyyyyyyyyyyyyyyyyyurVVVVVVVVVVVVVVVVVVVVVVVVVVVVVVVVVVVVVVVVVVVVVVVVVVVVVVVVVVVV                  VVVVVVVVVVVVVVV",
"VVVVVVVVVVVV0tyyyytyyytyyyyytyyyyyrVVVVVVVVVVVVVVVVVVVVVVVVVVVVVVVVVVVVVVVVVVVVVVVVVVVVVVVVVVVVVVVVVVVVVVVVVVVVVVVVVVVVVVVVVVVVV",
"VVVVVVVVVVVV7tytytytytyyyttytytyytrVVVVVVVVVVVVVVVVVVVVVVVVVVVVVVVVVVVVVVVVVVVVVVVVVVVVVVVVVVVVVVVVVVVVVVVVVVVVVVVVVVVVVVVVVVVVV",
"VVVVVVVVVVVVV0tyyyyyrytytytytytyttrVVVVVVVVVVVVVVVVVVVVVVVVVVVVVVVVVVVVVVVVVVVVVVVVVVVVVVVVVVVVVVVVVVVVVVVVVVVVVVVVVVVVVVVVVVVVV",
"VVVVVVVVVVVVV1ttryrryrttttttttttttwVVVVVVVVVVVVVVVVVVVVVVVVVVVVVVVVVVVVVVVVVVVVVVVVVVVVVVVVVVVVVVVVVVVVVVVVVVVVVVVVVVVVVVVVVVVVV",
"VVVVVVVVVVVVV#8tttrtttttttttttrtttrVVVVVVVrtrrrrtrrrrrrrrrtrrrrrtrrrrrrrrrrrrrrrrrrrrrrrrrrwwwwwr0qqqw0wwwww0w0wwVVVVVVVVVVVVVVV",
"VVVVVVVVVVVVVV,rtttrrttttrttrrttrtwVVVVVVrtrtttttrtrttrttrttrttttrttttrrtttttrtttttttttrttttttttttrttrtttrrtttttrVVVVVVVVVVVVVVV",
"VVVVVVVVVVVVVV+7trtrtrttrrtttrttrrwVVVVVVrrtrtrtrtrrrttttrrttrrtrtrttrttrtrtyrrrrttrrtttrtrttrtrtrttrtrrrrrtrrttVVVVVVVVVVVVVVVV",
"VVVVVVVVVVVVVVV;wrrrrrrrrrrrrrrrrrwVVVVVVwtrrrrrrtrrrrrrtrrrrrrrrtrrrrrrrrrrrrrrrrtrrrrrrrrrrrrrrrrrrrrrtrrrrrt9VVVVVVVVVVVVVVVV",
"VVVVVVVVVVVVVVVX3rrrrrrrrrrrrrrrrt9VVVVVV0rrrrrrrrrrrrrrwrrrrrrrrrrrrrrrrtrrrrrrrrrrrrrrrrrrrrrrrrrrrrrrrrrrrrrVVVVVVVVVVVVVVVVV",
"VVVVVVVVVVVVVVVV*8rrrrrrrrrrrrrwrrwVVVVVV9rrrrrrrrrrrrrrrrrrrrrrrrrwrrrrrrrrrrrrrrrrrrrrrrrrrrrrrrrwrrrrrrrrrw5VVVVVVVVVVVVVVVVV",
"VVVVVVVVVVVVVVVV :wwwrrrwrrwrrwrrr9VVVVVV8rrrrwrrwrrrrrwrrwrrererwrrerwrwrwrrrrwrrwrrrwrrrrrrrwrrwrrrrrrrerrw5VVVVVVVVVVVVVVVVVV",
"VVVVVVVVVVVVVVVVVo3rwwwrwwrwwwrrwr0VVVVVV7wwwwwwrwwrwwrwwwrwwrwrerwrerr0wrwrwwwrwwwrwwwrwwwwwrrwwrwrwwrwrwwr9-VVVVVVVVVVVVVVVVVV",
"VVVVVVVVVVVVVVVVV #6eewrewer0er0rw9VVVVVV7r0r0rr0rrerrwrrqrrr0rw0r0rrwwwwereeeeeewwe0r0rrrrr0rr0wweewewer0rr,VVVVVVVVVVVVVVVVVVV",
"VVVVVVVVVVVVVVVVVV -80w00wwwwwww0r9VVVVVV70r0r0wr00r00000r000e0rr0r00r0rww0rqeee0r0re0rw0000re0rwwwwwwwwwe01VVVVVVVVVVVVVVVVVVVV",
"VVVVVVVVVVVVVVVVVVV -80ewewe0r00e09VVVVVV60wr00e00r00we0e00qwr00000r00q000q00ee0w0w00w0w00r000r00ewew00w0w4VVVVVVVVVVVVVVVVVVVVV",
"VVVVVVVVVVVVVVVVVVVVX1000000000w008VVVVVV70000w0000000w00e00000w0000r00q0w0e000qw00w00w00w0w000000000w0007*VVVVVVVVVVVVVVVVVVVVV",
"VVVVVVVVVVVVVVVVVVVV o<900000000009VVVVVV60000000000000000e000000000000000e0q9q0000000000000000q000000006-VVVVVVVVVVVVVVVVVVVVVV",
"VVVVVVVVVVVVVVVVVVVVV o<00000000008VVVVVV60000000000000008000000000e000000000q00000000000000000000000006-VVVVVVVVVVVVVVVVVVVVVVV",
"VVVVVVVVVVVVVVVVVVVVVV o<9900000008VVVVVV60000000900000000000000000900000090e90990000009900000000000006=VVVVVVVVVVVVVVVVVVVVVVVV",
"VVVVVVVVVVVVVVVVVVVVVVV o<009090997VVVVVV50909909000909009090990909090909090909e0009090000099090909096=VVVVVVVVVVVVVVVVVVVVVVVVV",
"VVVVVVVVVVVVVVVVVVVVVVVV o<99990997VVVVVV599999999099990999099099099909099999999909999099990999990995=VVVVVVVVVVVVVVVVVVVVVVVVVV",
"VVVVVVVVVVVVVVVVVVVVVVVVV o:5999997VVVVVV59999998098999990989999999999889999999999999999999980999992*VVVVVVVVVVVVVVVVVVVVVVVVVVV",
"VVVVVVVVVVVVVVVVVVVVVVVVVV  *599987VVVVVV599999998899989898899998899999897999998898999989899898999,oVVVVVVVVVVVVVVVVVVVVVVVVVVVV",
"VVVVVVVVVVVVVVVVVVVVVVVVVVV  *38996VVVVVV58888978888797988887979898888889997888888888888978988875;oVVVVVVVVVVVVVVVVVVVVVVVVVVVVV",
"VVVVVVVVVVVVVVVVVVVVVVVVVVVV  o<795VVVVVV5877979777979977997977779977979797997998878878778778784* VVVVVVVVVVVVVVVVVVVVVVVVVVVVVV",
"VVVVVVVVVVVVVVVVVVVVVVVVVVVVVV .-56VVVVVV48777797897777777779797777777777797777777777877787876>@VVVVVVVVVVVVVVVVVVVVVVVVVVVVVVVV",
"VVVVVVVVVVVVVVVVVVVVVVVVVVVVVVVVVV:VVVVVV5777777777777777777777777777777777777777777877777771&.VVVVVVVVVVVVVVVVVVVVVVVVVVVVVVVVV",
"VVVVVVVVVVVVVVVVVVVVVVVVVVVVVVVVVVVVVVVVV47677777776777777777776777677776777776777777777774;OVVVVVVVVVVVVVVVVVVVVVVVVVVVVVVVVVVV",
"VVVVVVVVVVVVVVVVVVVVVVVVVVVVVVVVVVVVVVVVV497677777775757755767777776775677775677777777774;@ VVVVVVVVVVVVVVVVVVVVVVVVVVVVVVVVVVVV",
"VVVVVVVVVVVVVVVVVVVVVVVVVVVVVVVVVVVVVVVVV4677676575777777777776776677677757777755757754;+ VVVVVVVVVVVVVVVVVVVVVVVVVVVVVVVVVVVVVV",
"VVVVVVVVVVVVVVVVVVVVVVVVVVVVVVVVVVVVVVVVV=,467667575575757575775667667765575575767751;+ VVVVVVVVVVVVVVVVVVVVVVVVVVVVVVVVVVVVVVVV",
"VVVVVVVVVVVVVVVVVVVVVVVVVVVVVVVVVVVVVVVVVV.+-1555757757675767567667676677757757554:&. VVVVVVVVVVVVVVVVVVVVVVVVVVVVVVVVVVVVVVVVVV",
"VVVVVVVVVVVVVVVVVVVVVVVVVVVVVVVVVVVVVVVVVVV  .%*,555676755756666766767666766551;%o  VVVVVVVVVVVVVVVVVVVVVVVVVVVVVVVVVVVVVVVVVVVV",
"VVVVVVVVVVVVVVVVVVVVVVVVVVVVVVVVVVVVVVVVVVVV     +%;<<45577775677667765551,>*$.   VVVVVVVVVVVVVVVVVVVVVVVVVVVVVVVVVVVVVVVVVVVVVV",
"VVVVVVVVVVVVVVVVVVVVVVVVVVVVVVVVVVVVVVVVVVVVVV        @#&::><,:,>,,,>,-##X .   VVVVVVVVVVVVVVVVVVVVVVVVVVVVVVVVVVVVVVVVVVVVVVVVV",
"VVVVVVVVVVVVVVVVVVVVVVVVVVVVVVVVVVVVVVVVVVVVVVVVVV                         VVVVVVVVVVVVVVVVVVVVVVVVVVVVVVVVVVVVVVVVVVVVVVVVVVVVV",
"VVVVVVVVVVVVVVVVVVVVVVVVVVVVVVVVVVVVVVVVVVVVVVVVVVVVVVVV              VVVVVVVVVVVVVVVVVVVVVVVVVVVVVVVVVVVVVVVVVVVVVVVVVVVVVVVVVV",
"VVVVVVVVVVVVVVVVVVVVVVVVVVVVVVVVVVVVVVVVVVVVVVVVVVVVVVVVVVVVVVVVVVVVVVVVVVVVVVVVVVVVVVVVVVVVVVVVVVVVVVVVVVVVVVVVVVVVVVVVVVVVVVVV",
"VVVVVVVVVVVVVVVVVVVVVVVVVVVVVVVVVVVVVVVVVVVVVVVVVVVVVVVVVVVVVVVVVVVVVVVVVVVVVVVVVVVVVVVVVVVVVVVVVVVVVVVVVVVVVVVVVVVVVVVVVVVVVVVV",
"VVVVVVVVVVVVVVVVVVVVVVVVVVVVVVVVVVVVVVVVVVVVVVVVVVVVVVVVVVVVVVVVVVVVVVVVVVVVVVVVVVVVVVVVVVVVVVVVVVVVVVVVVVVVVVVVVVVVVVVVVVVVVVVV",
"VVVVVVVVVVVVVVVVVVVVVVVVVVVVVVVVVVVVVVVVVVVVVVVVVVVVVVVVVVVVVVVVVVVVVVVVVVVVVVVVVVVVVVVVVVVVVVVVVVVVVVVVVVVVVVVVVVVVVVVVVVVVVVVV",
"VVVVVVVVVVVVVVVVVVVVVVVVVVVVVVVVVVVVVVVVVVVVVVVVVVVVVVVVVVVVVVVVVVVVVVVVVVVVVVVVVVVVVVVVVVVVVVVVVVVVVVVVVVVVVVVVVVVVVVVVVVVVVVVV",
"VVVVVVVVVVVVVVVVVVVVVVVVVVVVVVVVVVVVVVVVVVVVVVVVVVVVVVVVVVVVVVVVVVVVVVVVVVVVVVVVVVVVVVVVVVVVVVVVVVVVVVVVVVVVVVVVVVVVVVVVVVVVVVVV",
"VVVVVVVVVVVVVVVVVVVVVVVVVVVVVVVVVVVVVVVVVVVVVVVVVVVVVVVVVVVVVVVVVVVVVVVVVVVVVVVVVVVVVVVVVVVVVVVVVVVVVVVVVVVVVVVVVVVVVVVVVVVVVVVV"
};
