/* XPM */
static char * bottom_left_active_xpm[] = {
"20 20 6 1",
" 	c None",
".	c #000000",
"+	c #0c0c0c",
"@	c #060505",
"#	c #060605",
"$      c #050605",
".+@$#.              ",
".+@$#.              ",
".+@$#.              ",
".+@$#.              ",
".+@$#.              ",
".+@$#.              ",
".+@$#.              ",
".+@$#.              ",
".+@$#.              ",
".+@$#.              ",
".+@$#.              ",
".+@$#.              ",
".+@$#.              ",
".+@$#.              ",
".+@$##..............",
".+@@$+++++++++++++++",
".+$$@@@@@@@@@@@@@@@@",
".##$$$$$$$$$$$$$$$$$",
" .##################",
"  .................."};
