/* XPM */
static char * left_inactive_xpm[] = {
"6 32 7 1",
" 	c None",
".	c #0d0d0d",
"+	c #1d1d1d",
"@	c #141414",
"#	c #101010",
"$      c #121212",
";	c #080808",
".+@$#;",
".+@$#;",
".+@$#;",
".+@$#;",
".+@$#;",
".+@$#;",
".+@$#;",
".+@$#;",
".+@$#;",
".+@$#;",
".+@$#;",
".+@$#;",
".+@$#;",
".+@$#;",
".+@$#;",
".+@$#;",
".+@$#;",
".+@$#;",
".+@$#;",
".+@$#;",
".+@$#;",
".+@$#;",
".+@$#;",
".+@$#;",
".+@$#;",
".+@$#;",
".+@$#;",
".+@$#;",
".+@$#;",
".+@$#;",
".+@$#;",
".+@$#;"};
