/* XPM */
static char * close_active_xpm[] = {
"24 16 12 1",
" 	c None",
".	c #FFFFFF s active_hilight_1",
"+	c #CEC7B5 s active_hilight_1",
"@	c #303030",
"#	c #0a0a0a",
"$	c #D7D7FF s active_hilight_1",
"%	c #FFFFFF s active_hilight_1",
"&	c #E5E5FF",
"*	c #BABAFF",
"=	c #9A9AFF",
"-	c #F2F2FF",
";	c #9D9DFF",
" @@@@@@@@@@@@@@@@@@@@@@ ",
"@@@@@@@@@@@@@@@@@@@@@@@@",
"@$$$$$$$$$$$$$$$$$$$$$$@",
"@......................@",
"@......................@",
"@......................@",
"@......................@",
"@......................@",
"#++++++++++++++++++++++#",
"#++++++++++++++++++++++#",
"#++++++++++++++++++++++#",
"#++++++++++++++++++++++#",
"#++++++++++++++++++++++#",
"#%%%%%%%%%%%%%%%%%%%%%%#",
"########################",
" ###################### "};
