/* XPM */
static char * right_active_xpm[] = {
"6 32 6 1",
" 	c None",
".	c #000000",
"#      c #0e0e0d",
"+	c #050605",
"@	c #040303",
"$      c #060505",
".#+$@.",
".#+$@.",
".#+$@.",
".#+$@.",
".#+$@.",
".#+$@.",
".#+$@.",
".#+$@.",
".#+$@.",
".#+$@.",
".#+$@.",
".#+$@.",
".#+$@.",
".#+$@.",
".#+$@.",
".#+$@.",
".#+$@.",
".#+$@.",
".#+$@.",
".#+$@.",
".#+$@.",
".#+$@.",
".#+$@.",
".#+$@.",
".#+$@.",
".#+$@.",
".#+$@.",
".#+$@.",
".#+$@.",
".#+$@.",
".#+$@.",
".#+$@."};
