/* XPM */
static char *cmake[] = {
/* columns rows colors chars-per-pixel */
"128 128 43 1 ",
"  c black",
". c #000506",
"X c #001920",
"o c #001E26",
"O c #002029",
"+ c #00242E",
"@ c #002833",
"# c #002D39",
"$ c #00303E",
"% c #003442",
"& c #003847",
"* c #003C4D",
"= c #003D4D",
"- c #003D4E",
"; c #003F50",
": c #004152",
"> c #004153",
", c #004355",
"< c #004557",
"1 c #004558",
"2 c #00475A",
"3 c #00485C",
"4 c #00495C",
"5 c #00495D",
"6 c #004A5F",
"7 c #004C61",
"8 c #004D61",
"9 c #004C62",
"0 c #004F63",
"q c #005066",
"w c #005166",
"e c #005369",
"r c #00546B",
"t c #00566D",
"y c #005870",
"u c #005A72",
"i c #005E77",
"p c #00617C",
"a c #00637E",
"s c #00647F",
"d c #006581",
"f c #006985",
"g c None",
/* pixels */
"gggggggggggggggggggggggggggggggggggggggggggggggggggggggggggggggggggggggggggggggggggggggggggggggggggggggggggggggggggggggggggggggg",
"gggggggggggggggggggggggggggggggggggggggggggggggggggggggggggggggggggggggggggggggggggggggggggggggggggggggggggggggggggggggggggggggg",
"gggggggggggggggggggggggggggggggggggggggggggggggggggggggggggggggggggggggggggggggggggggggggggggggggggggggggggggggggggggggggggggggg",
"gggggggggggggggggggggggggggggggggggggggggggggggggggggggggggggggggggggggggggggggggggggggggggggggggggggggggggggggggggggggggggggggg",
"gggggggggggggggggggggggggggggggggggggggggggggggggggggggggggggggggggggggggggggggggggggggggggggggggggggggggggggggggggggggggggggggg",
"gggggggggggggggggggggggggggggggggggggggggggggggggggggggggggggggggggggggggggggggggggggggggggggggggggggggggggggggggggggggggggggggg",
"gggggggggggggggggggggggggggggggggggggggggggggggggggggggggggggggggggggggggggggggggggggggggggggggggggggggggggggggggggggggggggggggg",
"ggggggggggggggggggggggggggggggggggggggggggggggggggggggggggggggggfggggggggggggggggggggggggggggggggggggggggggggggggggggggggggggggg",
"gggggggggggggggggggggggggggggggggggggggggggggggggggggggggggggggfffgggggggggggggggggggggggggggggggggggggggggggggggggggggggggggggg",
"gggggggggggggggggggggggggggggggggggggggggggggggggggggggggggggggfffgggggggggggggggggggggggggggggggggggggggggggggggggggggggggggggg",
"ggggggggggggggggggggggggggggggggggggggggggggggggggggggggggggggdffffggggggggggggggggggggggggggggggggggggggggggggggggggggggggggggg",
"ggggggggggggggggggggggggggggggggggggggggggggggggggggggggggggggfffffggggggggggggggggggggggggggggggggggggggggggggggggggggggggggggg",
"gggggggggggggggggggggggggggggggggggggggggggggggggggggggggggggpffffffgggggggggggggggggggggggggggggggggggggggggggggggggggggggggggg",
"gggggggggggggggggggggggggggggggggggggggggggggggggggggggggggggfffffffgggggggggggggggggggggggggggggggggggggggggggggggggggggggggggg",
"ggggggggggggggggggggggggggggggggggggggggggggggggggggggggggggpffffffffggggggggggggggggggggggggggggggggggggggggggggggggggggggggggg",
"ggggggggggggggggggggggggggggggggggggggggggggggggggggggggggggdfdffffffggggggggggggggggggggggggggggggggggggggggggggggggggggggggggg",
"gggggggggggggggggggggggggggggggggggggggggggggggggggggggggggpfdfdfffdfdgggggggggggggggggggggggggggggggggggggggggggggggggggggggggg",
"gggggggggggggggggggggggggggggggggggggggggggggggggggggggggggfdfdffddfddgggggggggggggggggggggggggggggggggggggggggggggggggggggggggg",
"ggggggggggggggggggggggggggggggggggggggggggggggggggggggggggidddddddfdfddggggggggggggggggggggggggggggggggggggggggggggggggggggggggg",
"ggggggggggggggggggggggggggggggggggggggggggggggggggggggggggdfddddddddddfggggggggggggggggggggggggggggggggggggggggggggggggggggggggg",
"gggggggggggggggggggggggggggggggggggggggggggggggggggggggggiddddddddddddddgggggggggggggggggggggggggggggggggggggggggggggggggggggggg",
"gggggggggggggggggggggggggggggggggggggggggggggggggggggggggdddddddddddddddgggggggggggggggggggggggggggggggggggggggggggggggggggggggg",
"ggggggggggggggggggggggggggggggggggggggggggggggggggggggggidddaddddddaddsdpggggggggggggggggggggggggggggggggggggggggggggggggggggggg",
"ggggggggggggggggggggggggggggggggggggggggggggggggggggggggspdaddpdpdddpsdsdggggggggggggggggggggggggggggggggggggggggggggggggggggggg",
"gggggggggggggggggggggggggggggggggggggggggggggggggggggggipdddpddpdpdddaddpdgggggggggggggggggggggggggggggggggggggggggggggggggggggg",
"gggggggggggggggggggggggggggggggggggggggggggggggggggggggpaapadpdppdpppdpsapgggggggggggggggggggggggggggggggggggggggggggggggggggggg",
"ggggggggggggggggggggggggggggggggggggggggggggggggggggggudaaaapdpdpsdpspsppdpggggggggggggggggggggggggggggggggggggggggggggggggggggg",
"ggggggggggggggggggggggggggggggggggggggggggggggggggggggpppppppppppappappppppggggggggggggggggggggggggggggggggggggggggggggggggggggg",
"ggggggggggggggggggggggggggggggggggggggggggggggggggggguppppppppppppppppppppppgggggggggggggggggggggggggggggggggggggggggggggggggggg",
"gggggggggggggggggggggggggggggggggggggggggggggggggggggppppppppppppappppppspppgggggggggggggggggggggggggggggggggggggggggggggggggggg",
"gggggggggggggggggggggggggggggggggggggggggggggggggggguppppppppppppppppppppppppggggggggggggggggggggggggggggggggggggggggggggggggggg",
"ggggggggggggggggggggggggggggggggggggggggggggggggggggppppippppppppppppppppppppggggggggggggggggggggggggggggggggggggggggggggggggggg",
"gggggggggggggggggggggggggggggggggggggggggggggggggggupipipppippiipiippppipippppgggggggggggggggggggggggggggggggggggggggggggggggggg",
"gggggggggggggggggggggggggggggggggggggggggggggggggggpippipiipipppppppiippppipiigggggggggggggggggggggggggggggggggggggggggggggggggg",
"gggggggggggggggggggggggggggggggggggggggggggggggggguippipippiipipiipipiipiipipipggggggggggggggggggggggggggggggggggggggggggggggggg",
"ggggggggggggggggggggggggggggggggggggggggggggggggggipiipiiipiipiiipiipiipipiipiiggggggggggggggggggggggggggggggggggggggggggggggggg",
"ggggggggggggggggggggggggggggggggggggggggggggggggguiiipiiipiipiipipiiiipiipiiipiigggggggggggggggggggggggggggggggggggggggggggggggg",
"gggggggggggggggggggggggggggggggggggggggggggggggggiiiiiiiiiiiiiiiiiiiiiiiiiiiiiiigggggggggggggggggggggggggggggggggggggggggggggggg",
"ggggggggggggggggggggggggggggggggggggggggggggggggtiiiiiiiiiiiiiiiiiiiiipiiiiiiiiiiggggggggggggggggggggggggggggggggggggggggggggggg",
"ggggggggggggggggggggggggggggggggggggggggggggggggiiiiiiiiiiiiiiiiiiiiiiiiiiiiiiiiiggggggggggggggggggggggggggggggggggggggggggggggg",
"gggggggggggggggggggggggggggggggggggggggggggggggtiiiiiiiuiiuiuiiuiiiiiiiiiiiiiuiiiigggggggggggggggggggggggggggggggggggggggggggggg",
"ggggggggggggggggggggggggggggggggggggggggggggggguuiiuiuiiuiiiiiiiiiuiiuiuiuuiiiuiuigggggggggggggggggggggggggggggggggggggggggggggg",
"ggggggggggggggggggggggggggggggggggggggggggggggtiuiuiiiiiiuuiuiiiuiuiiiiuiiiuuiuiiiuggggggggggggggggggggggggggggggggggggggggggggg",
"gggggggggggggggggggggggggggggggggggggggggggggguuiuiuuuuuiuiuiuuiiuiuuuiuuiuiiuiuuuiggggggggggggggggggggggggggggggggggggggggggggg",
"gggggggggggggggggggggggggggggggggggggggggggggtuiuiuiuiuiuiuiuuiuiuiuuiuiiuuuuuuiuiiugggggggggggggggggggggggggggggggggggggggggggg",
"ggggggggggggggggggggggggggggggggggggggggggggguuuuiuuuuuuuuuuiuuuuuuuuuuuuuiuuiuuuuuugggggggggggggggggggggggggggggggggggggggggggg",
"ggggggggggggggggggggggggggggggggggggggggggggtuuuuuuuuuuuuuuuuuuuuuuuuuuuiuuuiuuuuiuuuggggggggggggggggggggggggggggggggggggggggggg",
"gggggggggggggggggggggggggggggggggggggggggggguuuuuuuuuuuuuuuuuuuuuuuuiuuuuuuuuuuuuuuuuggggggggggggggggggggggggggggggggggggggggggg",
"gggggggggggggggggggggggggggggggggggggggggggeuuyuuuuuuuuuuuuuuuuuuuuuuuuuuuuuuuuuuuuuutgggggggggggggggggggggggggggggggggggggggggg",
"ggggggggggggggggggggggggggggggggggggggggggguuuuuyuuuyuuyyuuyuyuyuuuuyuuyyuyuuyuuuuyuuugggggggggggggggggggggggggggggggggggggggggg",
"ggggggggggggggggggggggggggggggggggggggggggeyuyuyyuyyyuyuyuutyyuuuuyyuuyuyyuuuttuuyyuyuyggggggggggggggggggggggggggggggggggggggggg",
"ggggggggggggggggggggggggggggggggggggggggggtututuyyyuyyyyutuuyyyyttuytuyyyyyyyuyyyuyyyyyggggggggggggggggggggggggggggggggggggggggg",
"gggggggggggggggggggggggggggggggggggggggggttyuttuyyyyyytuyytuyyyyyyyyyyyytuyytutuyyytyyytgggggggggggggggggggggggggggggggggggggggg",
"gggggggggggggggggggggggggggggggggggggggggtuttutttytytyttytytttyyyttyyytyutyyutytyyyyyyyugggggggggggggggggggggggggggggggggggggggg",
"ggggggggggggggggggggggggggggggggggggggggettutttttyyttyyttytyytyttytytyyyttyttytyyytytytttggggggggggggggggggggggggggggggggggggggg",
"ggggggggggggggggggggggggggggggggggggggggttttttttttttytttytttytttytyttyttytytyytttytyttttyggggggggggggggggggggggggggggggggggggggg",
"gggggggggggggggggggggggggggggggggggggggettttttttttttttttttttttttttttttttttttttttttttttttttgggggggggggggggggggggggggggggggggggggg",
"gggggggggggggggggggggggggggggggggggggggtttttttttttttttttttttttttttttttttttttttttttttttttttgggggggggggggggggggggggggggggggggggggg",
"ggggggggggggggggggggggggggggggggggggggqtrtrtrtttttttttrrrttrttrtttrtrtttttttrtttrttttttttrtggggggggggggggggggggggggggggggggggggg",
"ggggggggggggggggggggggggggggggggggggggettttettetrrtrrrtrrtrtrtrtrrtrtrrrrrrrttrrttetetetettggggggggggggggggggggggggggggggggggggg",
"gggggggggggggggggggggggggggggggggggggqtrettrtetrrrrrrrrrrtrrrrrrrrrtrrrrrrrrrrrrtetrrtettrtegggggggggggggggggggggggggggggggggggg",
"gggggggggggggggggggggggggggggggggggggeetreetteetrrrrrrrrrrerrrrrrrrrrrrrrrrrrrrtetettettetetgggggggggggggggggggggggggggggggggggg",
"ggggggggggggggggggggggggggggggggggggqeereteeeeterrerrrrrrrrrrrrerrrrrrrrrrrrrrrrrrteeeteteterggggggggggggggggggggggggggggggggggg",
"ggggggggggggggggggggggggggggggggggggeereeeerereerererrerreerrrerrrerrrerererrerrreetereeeteeeggggggggggggggggggggggggggggggggggg",
"ggggggggggggggggggggggggggggggggggg0eeeeeeeeeeeeeeeeeeeereeeeeeeeereeeeereeeerereeeereeereereegggggggggggggggggggggggggggggggggg",
"gggggggggggggggggggggggggggggggggggeeeeeeeeeeeeeeeeweeeeeeeeeeeeeeeeeqeeeeeeeeeeeeeeeeeeeeeeeegggggggggggggggggggggggggggggggggg",
"gggggggggggggggggggggggggggggggggg6eeeeeeeeeeeeeeeeeeeeeeeeeeeeeeeew&&qeeeeeeeeeeeeeeeeeeeeeeeeggggggggggggggggggggggggggggggggg",
"ggggggggggggggggggggggggggggggggggqeeweweweeweeeeeeeeeweeeweeeeewww$.Oqeeeweeweeeweeeeewweeeqeeggggggggggggggggggggggggggggggggg",
"ggggggggggggggggggggggggggggggggg0qqwweeweqewwwwewewwweeqeqewwwqww#. oqqweewweqewweweewwweeweqeqgggggggggggggggggggggggggggggggg",
"gggggggggggggggggggggggggggggggggewqwwwwwwqqqqweqqewwwwwqqqqqqwe2+   X0eqwwwqwqqwwqwqwwwqqwwqewwgggggggggggggggggggggggggggggggg",
"gggggggggggggggggggggggggggggggg6qqqqq0qqqqqqqqqqqqqqqqqqqqqqqe,X gg gqwqq0wqqqqqqwqqqqwqqwwqqwqqggggggggggggggggggggggggggggggg",
"ggggggggggggggggggggggggggggggggqqqqq0qqq0qqq0qqqq0qq0q0q0qqqq,ggggggg6wqqqqqqqqqqqqqqqqqqqqqqqqqggggggggggggggggggggggggggggggg",
"ggggggggggggggggggggggggggggggg60q0q0q000q00q0q00000q00q0qqq0&gggggggg,0qqq0q0qq0qqqqqq0q0qqqq0qq0gggggggggggggggggggggggggggggg",
"ggggggggggggggggggggggggggggggg0000000q00qq0q0000qq00q00qq08$.gggggggg1q000q0q000qq0000q0q0000qqq0gggggggggggggggggggggggggggggg",
"gggggggggggggggggggggggggggggg60000000000000000000000000000$gggggggggg,0000000000000000000000000q00ggggggggggggggggggggggggggggg",
"gggggggggggggggggggggggggggggg0q000000000000000000000000q,Oggggggggggg>0000000000000000000000000000ggggggggggggggggggggggggggggg",
"ggggggggggggggggggggggggggggg690909000800800000890900088,Xgggggggggggg;q808q008000009090000800888088gggggggggggggggggggggggggggg",
"ggggggggggggggggggggggggggggg98008098888808898800800808,gggggggggggggg$89099888898880808608888808808gggggggggggggggggggggggggggg",
"gggggggggggggggggggggggggggg20888888888809809809998888%ggggggggggggggg@689998088900989800808000008080ggggggggggggggggggggggggggg",
"gggggggggggggggggggggggggggg9698989998888696998699886$.gggggggggggggggg909888998888998899888606999989ggggggggggggggggggggggggggg",
"ggggggggggggggggggggggggggg6066896990660666066060666#gggggggggggggggggg6060060606006006006006060606088gggggggggggggggggggggggggg",
"ggggggggggggggggggggggggggg66668966666766798690666,Oggggggggggggggggggg66066660666696666686666989696965ggggggggggggggggggggggggg",
"gggggggggggggggggggggggggg26666686696966606666666,Xgggggggggggggggggggg66666696860660667666660666689666ggggggggggggggggggggggggg",
"gggggggggggggggggggggggggg6666666666666666666666;gggggggggggggggggggggg,66666666666666666666666666666662gggggggggggggggggggggggg",
"ggggggggggggggggggggggggg6666666666666666666666$ggggggggggggggggggggggg,66666666666666666666666666666662gggggggggggggggggggggggg",
"ggggggggggggggggggggggggg666266656566336662666$gggggggggggggggggggggggg;66636566563666626666636666666666gggggggggggggggggggggggg",
"gggggggggggggggggggggggg266262665566565662662;ggggggggggggggggggggggggg;626226266266656662365665646664566ggggggggggggggggggggggg",
"gggggggggggggggggggggggg2626366256552626262636,$ggggggggggggggggggggggg*6266626436262562626462562464626622gggggggggggggggggggggg",
"ggggggggggggggggggggggg26226266226265662622622622,ggggggggggggggggggggg$6626643426336262626626336462626262gggggggggggggggggggggg",
"ggggggggggggggggggggggg22622322652532226626226262222ggggggggggggggggggg@22242326626226262622622662622626262ggggggggggggggggggggg",
"gggggggggggggggggggggg222226222222522322226422252623222gggggggggggggggg+22526262622262222562262226262626625ggggggggggggggggggggg",
"gggggggggggggggggggggg22222242222323225222226322262262222ggggggggggggggg22622222226225222322523222222222222,gggggggggggggggggggg",
"ggggggggggggggggggggg,22322222222222222222222222222222222222gggggggggggg222222222222222222222222222222222222gggggggggggggggggggg",
"ggggggggggggggggggggg22222222222222222222222222222222222222222gggggggggg222222222222222222222222222222222222,ggggggggggggggggggg",
"gggggggggggggggggggg,222,22222<212222,222222<222222,2,222212222<,ggggggg;2,2222222222222222222222222222222222ggggggggggggggggggg",
"gggggggggggggggggggg12,222222,22122222,22,2,2212,2222222,22,,21222,ggggg;22221,222122,22222222<22222222221222,gggggggggggggggggg",
"ggggggggggggggggggg,,2<,222,2,2222,2,22,2,2212,22,<2,22,,21<2,2<2,21,*gg*2222<22,2222<2222,22212,22,222,12,22,gggggggggggggggggg",
"ggggggggggggggggggg,2,,2,,,2,2,,,22,2,,2,2,,2,1,,22,1,,22,,21<,2,2,2,2,;,2,,,2,222,,,2,2,,22,2,1212,2,12222,22,ggggggggggggggggg",
"gggggggggggggggggg,,,2,,2,2<,22,,,,2,,2<,22,,2,2<<,<,22,,22,,2,,2,2,2,,2,2,21,2,,2,21,2,2,2,,2,2,2,22,,21,,2,2,ggggggggggggggggg",
"gggggggggggggggggg,,,2,,,,,,,,,,2,,,,1,,,,1,,2,,,<2,<,<,2,,22,,22,,,2,2,,,2,,2,1,,2,,2,12,,2,,2,,,2,,2,,,2,,,1,ggggggggggggggggg",
"ggggggggggggggggg,,,,,,,,<,,,2,,,,,,,,,,,1,,,,,,1,,,,,2,,,,,,,,,,,,2,,,,<,,2,,,,,2,,,,,,,,,,,,,1,<,1,,<,,<,2,,,,gggggggggggggggg",
"ggggggggggggggggg,,,1,,,,,,,,,,,,,,,,,,,,,,,,,,,,,,,,,,,,,,,,,,,,,,,,,,,,,,,,,,,,,,,,,,,,,<,,,,,,,,,,,,,1,,,,,,,gggggggggggggggg",
"gggggggggggggggg;,,,,,,,,,,,,,,,,,,,,,,,,,,,,,,,,,,,,,,,,,,,,,,,,,,,,,,,,,,,,,,,,,,,,,,,,,,,,,,,,,,,,,,,,,,,,,,,,ggggggggggggggg",
"gggggggggggggggg,,,;,,,,,,;,,,,,,,,,,,:,,,,,,,,,,,,;,,,,:,,,,,,,;,,,,,:,:,,,,,>,,,,,,,,,,,,,,,,,,,,,,,,,,,,,,,,,,ggggggggggggggg",
"ggggggggggggggg;,,,;>,>,,:;,,,;,,:,>,;,,;,,,;,,,,>,;,,;,;:,;,::,,,>,:,,,,,:,,,,,,,,;,,,,,,>,,,,;,,,;,,,,,,,,,,,,,;gggggggggggggg",
"ggggggggggggggg,;;,,:,;,,:,,;,,>>,;,;,;,,,;;,,;;;,;,>,,>,,,,:,,;,>,:,;,>,,,;,;,;,:,,,>,;,,,;,;,,,,,,;,,;,;,;;,;,,,gggggggggggggg",
"gggggggggggggg=,,;,;;,,;;,;;,;;;,;:;,;,>;,>,;,,,;,,,,;,;;,;,;,;,;,,,,,;,,;,;,,,,;,;,;,;,,;,;,,,,;,;,;,;,,,,;;,;,;,,ggggggggggggg",
"gggggggggggggg;;,;;,;;;,;>>>;,;,;,;,;,;>,;>;,;;:;,;;;,;,,>>;,;,;:;;>;;>;;,;,;;;:;,:;,;,;;,;,;;;;,;,;,;,;;;;,,;,>,;;ggggggggggggg",
"ggggggggggggg;;;;;;;,;;;;;,;;,;;;>;>;;;,;:;,;;,:,;;,;;,;;;;;,;;,,;,;;;;,,;;;;;;:,;;;;,;;,;;;;;;;;;>;,;;,;,;,;;,;;,;;gggggggggggg",
"ggggggggggggg;;;;;;;;;;;;;;;;;;;;:>;>:;;;;;;;;;;;;;,,;;;;;,;;;;,;;;:;,;;;>;,:,;;;;,,;;;:;:;,:,;;;;;;;;;,;;;,,;;:;;,;*ggggggggggg",
"gggggggggggg*;;;;;>;;;;;>;;;>;;;;;;;;;;;;;;;;;;;;;;;;;;;;;:;;;;;;;;;;;;;;;;;;;;;;;;;;;;;;;;;;;;;;;,;;;>;;;;;;;;;;;;;;ggggggggggg",
"gggggggggggg;;;;;;;;;;;;;;;;;;;;;;;;;;;;;;;;;;;;;;;;;;;;;;;;;;;;;;;;;;;;;;;;;;;;;;;;;;;;;;;;;;;;;;;;;;;;;;;;;;;;:;;;;*gggggggggg",
"ggggggggggg*;;*;;;;=*;;;;*;;;;;;;;;;*;;=;;;*;;;;;;-;*;;;=;;;*;;;;;-;;;-;;;;-;;;-;;-;=;;;;;;=;;;;;;;;;;;;;;;;;;;;;;;;;;gggggggggg",
"ggggggggggg***;;;;*;;;*;*;*;*-;**;*;*;;-*;*;*;*;**;;;;*;;;*=;;*;;;;=-;;-;=;;-;;;=;;;-;=;=;;;;;*;*;;;*;;;*;;;;-;;;;;;;*gggggggggg",
"gggggggggg***;;**;*;;**;**=;*;**;**;*;*;*;=;;****;;****-*=-;*-*=;=*;*;;**;**;;*;*;;;;;;;;**;*;;*;*;*;*;*;*;*=;;*;=*;;;-ggggggggg",
"gggggggggg***************;****=********==***=--;=*=**;;**;=*;=;**;**;**;*;*;*=**;********;=*;=*;;==*;-*;;**;***;*;****;ggggggggg",
"ggggggggg%*********************************************************************************=***-**-;;*;**;**;*;=*;;;**;*gggggggg",
"gggggggggggOOOOOOOOOOOOOOOOOOOOOOOOOOOOOOOOOOOOOOOOOOOOOOOOOOOOOOOOOOOOOOOOOOOOOOOOOOOOOOOOOOOOOOOOOOOOOOOOOOOOOOOO++@gggggggggg",
"gggggggggggg                                                                                                        gggggggggggg",
"ggggggggggggg                                                                                                     gggggggggggggg",
"gggggggggggggggggggggggggggggggggggggggggggggggggggggggggggggggggggggggggggggggggggggggggggggggggggggggggggggggggggggggggggggggg",
"gggggggggggggggggggggggggggggggggggggggggggggggggggggggggggggggggggggggggggggggggggggggggggggggggggggggggggggggggggggggggggggggg",
"gggggggggggggggggggggggggggggggggggggggggggggggggggggggggggggggggggggggggggggggggggggggggggggggggggggggggggggggggggggggggggggggg",
"gggggggggggggggggggggggggggggggggggggggggggggggggggggggggggggggggggggggggggggggggggggggggggggggggggggggggggggggggggggggggggggggg",
"gggggggggggggggggggggggggggggggggggggggggggggggggggggggggggggggggggggggggggggggggggggggggggggggggggggggggggggggggggggggggggggggg",
"gggggggggggggggggggggggggggggggggggggggggggggggggggggggggggggggggggggggggggggggggggggggggggggggggggggggggggggggggggggggggggggggg",
"gggggggggggggggggggggggggggggggggggggggggggggggggggggggggggggggggggggggggggggggggggggggggggggggggggggggggggggggggggggggggggggggg",
"gggggggggggggggggggggggggggggggggggggggggggggggggggggggggggggggggggggggggggggggggggggggggggggggggggggggggggggggggggggggggggggggg"
};
