/* XPM */
static char *DC__[] = {
/* columns rows colors chars-per-pixel */
"128 128 63 1 ",
"  c #000001",
". c #000506",
"X c #00090C",
"o c #000D10",
"O c #001115",
"+ c #00151B",
"@ c #00181F",
"# c #001B22",
"$ c #001D25",
"% c #001F26",
"& c #002029",
"* c #00232B",
"= c #00242E",
"- c #002833",
"; c #002934",
": c #002C38",
"> c #00303C",
", c #003442",
"< c #003847",
"1 c #003949",
"2 c #003A49",
"3 c #003C4C",
"4 c #003D4D",
"5 c #003E4F",
"6 c #004152",
"7 c #004153",
"8 c #004355",
"9 c #004557",
"0 c #004558",
"q c #00475A",
"w c #00485C",
"e c #00495C",
"r c #00485D",
"t c #00495D",
"y c #004B5F",
"u c #004C61",
"i c #004D61",
"p c #004C62",
"a c #004D62",
"s c #004E63",
"d c #005066",
"f c #005166",
"g c #005268",
"h c #00546B",
"j c #00566D",
"k c #005870",
"l c #005A72",
"z c #005C75",
"x c #005E78",
"c c #006079",
"v c #00607A",
"b c #00627C",
"n c #00637E",
"m c #00637F",
"M c #00647E",
"N c #00647F",
"B c #006581",
"V c #006783",
"C c #006784",
"Z c #006883",
"A c #006884",
"S c #006985",
"D c None",
/* pixels */
"DDDDDDDDDDDDDDDDDDDDDDDDDDDDDDDDDDDDDDDDDDDDDDDDDDDDDDDDDDDDDDDDDDDDDDDDDDDDDDDDDDDDDDDDDDDDDDDDDDDDDDDDDDDDDDDDDDDDDDDDDDDDDDDD",
"DDDDDDDDDDDDDDDDDDDDDDDDDDDDDDDDDDDDDDDDDDDDDDDDDDDDDDDDDDDDDDDDDDDDDDDDDDDDDDDDDDDDDDDDDDDDDDDDDDDDDDDDDDDDDDDDDDDDDDDDDDDDDDDD",
"DDDDDDDDDDDDDDDDDDDDDDDDDDDDDDDDDDDDDDDDDDDDDDDDDDDDDDDDDDDDDDDDDDDDDDDDDDDDDDDDDDDDDDDDDDDDDDDDDDDDDDDDDDDDDDDDDDDDDDDDDDDDDDDD",
"DDDDDDDDDDDDDDDDDDDDDDDDDDDDDDDDDDDDDDDDDDDDDDDDDDDDDDDDDDDDDDDDDDDDDDDDDDDDDDDDDDDDDDDDDDDDDDDDDDDDDDDDDDDDDDDDDDDDDDDDDDDDDDDD",
"DDDDDDDDDDDDDDDDDDDDDDDDDDDDDDDDDDDDDDDDDDDDDDDDDDDDDDDDDDDDDDDDDDDDDDDDDDDDDDDDDDDDDDDDDDDDDDDDDDDDDDDDDDDDDDDDDDDDDDDDDDDDDDDD",
"DDDDDDDDDDDDDDDDDDDDDDDDDDDDDDDDDDDDDDDDDDDDDDDDDDDDDDDDDDDDDDDDDDDDDDDDDDDDDDDDDDDDDDDDDDDDDDDDDDDDDDDDDDDDDDDDDDDDDDDDDDDDDDDD",
"DDDDDDDDDDDDDDDDDDDDDDDDDDDDDDDDDDDDDDDDDDDDDDDDDDDDDDDDDSSSSSSSSSSSSSSSSDDDDDDDDDDDDDDDDDDDDDDDDDDDDDDDDDDDDDDDDDDDDDDDDDDDDDDD",
"DDDDDDDDDDDDDDDDDDDDDDDDDDDDDDDDDDDDDDDDDDDDDDDDDDDDCCSSSSSSSSSSSSSSSSSSSSSSSSDDDDDDDDDDDDDDDDDDDDDDDDDDDDDDDDDDDDDDDDDDDDDDDDDD",
"DDDDDDDDDDDDDDDDDDDDDDDDDDDDDDDDDDDDDDDDDDDDDDDDDSSSSSSSSSSSSSSSSSSSSSSSSSSSSSSSSDDDDDDDDDDDDDDDDDDDDDDDDDDDDDDDDDDDDDDDDDDDDDDD",
"DDDDDDDDDDDDDDDDDDDDDDDDDDDDDDDDDDDDDDDDDDDDDZCSSSSSSSSSSSSSSSSSSSSSSSSSSSSSSSSSSSSCDDDDDDDDDDDDDDDDDDDDDDDDDDDDDDDDDDDDDDDDDDDD",
"DDDDDDDDDDDDDDDDDDDDDDDDDDDDDDDDDDDDDDDDDDDZCSSSSSSSSSSSSSSSSCSSSSSSSSCSSSSSSSSSSSCCSZZDDDDDDDDDDDDDDDDDDDDDDDDDDDDDDDDDDDDDDDDD",
"DDDDDDDDDDDDDDDDDDDDDDDDDDDDDDDDDDDDDDDDDZZSSSSCSSSSCSSCSSSSSSCCSSSSSSCCSSSSSSSSCSCCCSCCZDDDDDDDDDDDDDDDDDDDDDDDDDDDDDDDDDDDDDDD",
"DDDDDDDDDDDDDDDDDDDDDDDDDDDDDDDDDDDDDDDZCCCCCCCCSCCCCCCCSSCCCCCCSSZZCZCACCACSSSSCABZAVZZZCZDDDDDDDDDDDDDDDDDDDDDDDDDDDDDDDDDDDDD",
"DDDDDDDDDDDDDDDDDDDDDDDDDDDDDDDDDDDDDBVZAZZZZCZZZCVZZZZCSSZAZZZCSSZZCCZZCCBCSSSSVCCABVVCBCZBBDDDDDDDDDDDDDDDDDDDDDDDDDDDDDDDDDDD",
"DDDDDDDDDDDDDDDDDDDDDDDDDDDDDDDDDDDBBCZZCBBABAACZZBVBCZCAZZABABZVZZBABCBZZCCSSSSBCZCCBBZVZZBCZBDDDDDDDDDDDDDDDDDDDDDDDDDDDDDDDDD",
"DDDDDDDDDDDDDDDDDDDDDDDDDDDDDDDDDDZBABCBZABZZCBCZBBZZBBBZBBBZBBCBBZBBZBZBBCSSSSSCBBBCBVBBBZBBBBBDDDDDDDDDDDDDDDDDDDDDDDDDDDDDDDD",
"DDDDDDDDDDDDDDDDDDDDDDDDDDDDDDDDcBAZBBZBBBABBBBBCBBBBBBBBBBBBBBBBBBBBBBBBBBBBBBBBBBBBBBBBBBBBBBBBbDDDDDDDDDDDDDDDDDDDDDDDDDDDDDD",
"DDDDDDDDDDDDDDDDDDDDDDDDDDDDDDDBBBBBBBBBBZBBBBBBBBBBBBBBBBBBBBBBBBBBBBBBBBBBBBBBBBBBBBBBBBBBBBBBBBBDDDDDDDDDDDDDDDDDDDDDDDDDDDDD",
"DDDDDDDDDDDDDDDDDDDDDDDDDDDDDDBBBBBBBBBBBBBBBBBBBBBBBBBBBBBBBBBBBBBBBBBBBBBBBBBBBBmBBBBBBBBBBBBMBBBBDDDDDDDDDDDDDDDDDDDDDDDDDDDD",
"DDDDDDDDDDDDDDDDDDDDDDDDDDDDbBBBNBBBBBBBBBBBBmBBBBBBBBBBBBBBBBBMBBBBBBBBBbBBBBBBBBBBBmBBNBBBBNBBmBbBBBDDDDDDDDDDDDDDDDDDDDDDDDDD",
"DDDDDDDDDDDDDDDDDDDDDDDDDDDxBBBBBBbmBBMBNBBBMBBnBMBmNBmBBBBbBNBBbBBBNMBbBBmBBMBmmBmBmBBnBBBbNnBBBnBnbBbDDDDDDDDDDDDDDDDDDDDDDDDD",
"DDDDDDDDDDDDDDDDDDDDDDDDDDcBBbBnBBBBBbBBBNBbBbnBNBBmBBBbNNmBNBbBBBbbMBbBbBBbbBbBbBbBmmBbbBbBBBbBbBBbBBbbDDDDDDDDDDDDDDDDDDDDDDDD",
"DDDDDDDDDDDDDDDDDDDDDDDDDcBbbBbBBbbBbBBNbBBBbBbMBBbBBbBbBbNBBbBbMMNBBMBbbmbBNmmmBbBbbBbBBbbBbbNbbBbBBbbNbDDDDDDDDDDDDDDDDDDDDDDD",
"DDDDDDDDDDDDDDDDDDDDDDDDxBMbBnmbNbBmmbbBMbbnbkjgssggjbbBbBbbbBbBBbBbbNbBBbBbBbmmbBbmmbnbbBbbnNmNbMbbbbBNbbDDDDDDDDDDDDDDDDDDDDDD",
"DDDDDDDDDDDDDDDDDDDDDDDzmNmbBBbBNmbnbmbbbbl8:OXX. XXO:6lbnbnbmBbbBbbmbmbmmmbmbmmbBbmmbmmbbNbbmmbnbbbBbbMbbbDDDDDDDDDDDDDDDDDDDDD",
"DDDDDDDDDDDDDDDDDDDDDDxmmbbBbbbbbBBbBbbx5&o.          .o=6xbbbbbbbbbbmbmbbbbbbbbbbbbmbbbbmbmbbbbbbMbbbbbmbbvDDDDDDDDDDDDDDDDDDDD",
"DDDDDDDDDDDDDDDDDDDDDDbbbbMbnbbNbbmbbvq&    DDDDDDDD     .&tbbbbbbmbbbmbbbbbbbbbbbbbbbbbbbbbbbbbbbbbbbbbbbbbDDDDDDDDDDDDDDDDDDDD",
"DDDDDDDDDDDDDDDDDDDDDcbbbbbbbbbbbbbbj,. DDDDDDDDDDDDDDDD   o4zbbbbbbbbvbbbbbbbbbbbbbbcbbbbbbbbbbbbbbbbbbbbcbbDDDDDDDDDDDDDDDDDDD",
"DDDDDDDDDDDDDDDDDDDDxbbbbbbbbbbbbbbg= DDDDDDDDDDDDDDDDDDDD   :fbbbbbbbbbbbbbbcbbbbcbbcbbbccbbcbbvbvbbbbbbbcbbcDDDDDDDDDDDDDDDDDD",
"DDDDDDDDDDDDDDDDDDDlvbbbbcbbbbbccbpODDDDDDDDDDDDDDDDDDDDDDDD  @tcbbcbccbcbbbcbcbbcbbvbcbcbbvcbcvbvbbcccccbbvccxDDDDDDDDDDDDDDDDD",
"DDDDDDDDDDDDDDDDDDDcbbcbcbcbbbcbci+DDDDDDDDDDDDDDDDDDDDDDDDDD  +sccbvbcvbcbcbcbcccbcbvvcbccbbvcbvcvccvbccccvccbDDDDDDDDDDDDDDDDD",
"DDDDDDDDDDDDDDDDDDccvbcvbvbcvcbck%DDDDDDDDDDDDDDDDDDDDDDDDDDDD  &lcccccbvcvcvvvvcbvvvvvvvxccvvvcbcvbcbccvbvbccccDDDDDDDDDDDDDDDD",
"DDDDDDDDDDDDDDDDDlcccccccccccccx>DDDDDDDDDDDDDDDDDDDDDDDDDDDDDD  >xcvccxvvvvccvvcvczlkddghdhhzzzvxvvxcvvcccccvvxxDDDDDDDDDDDDDDD",
"DDDDDDDDDDDDDDDDDvccvvccvvvvvcv4DDDDDDDDDDDDDDDDDDDDDDDDDDDDDDDD .rvvcccxcvvxvxczkgr7755555557rdkzxxvxcxxcvxxvccxDDDDDDDDDDDDDDD",
"DDDDDDDDDDDDDDDDxxcvxvxcxvvvxvlDDDDDDDDDDDDDDDDDDDDDDDDDDDDDDDDDD &kvxcvvxvxxxzjy8655555455455556rgzxxxxxxcxxxxxxxDDDDDDDDDDDDDD",
"DDDDDDDDDDDDDDDfxcxvcvvxvvxvxx6DDDDDDDDDDDDDDDDDDDDDDDDDDDDDDDDDDD.6vxxvvxxxzjp74445545345455535446rgxxxcxxxxvcxxxDDDDDDDDDDDDDD",
"DDDDDDDDDDDDDDDxxxcxxxxxxxxxxlDDDDDDDDDDDDDDDDDDDDDDDDDDDDDDDDDDDDD-lxxxxxxldq54454555555545355545548slxxxxxxxxxxxxDDDDDDDDDDDDD",
"DDDDDDDDDDDDDDsxxxxxxxxxxxxxxsDDDDDDDDDDDDDDDDDDDDDDDDDDDDDDDDDDDDD.txxxxllp55555445535545555555554455yllxxxxxxxxxxDDDDDDDDDDDDD",
"DDDDDDDDDDDDDDlxxxxxxxxxxxxxz2DDDDDDDDDDDDDDDDDDDDDDDDDDDDDDDDDDDDDD2xxxlly6555555555553555555555444555tkzxxzxxzxxxlDDDDDDDDDDDD",
"DDDDDDDDDDDDDDxxxxxxxxxxxxxxlDDDDDDDDDDDDDDDDDDDDDDDDDDDDDDDDDDDDDDD&llljp635535555555555555553545444555tllzxlxzxzzxDDDDDDDDDDDD",
"DDDDDDDDDDDDDjxxxxlxlxxlxxxlfDDDDDDDDDDDDDDDDDDDDDDDDDDDDDDDDDDDDDDDOglkp74555555555535555555555554555555pkzxzxxlxlxlDDDDDDDDDDD",
"DDDDDDDDDDDDDlxzzxxxlxxzlzxxsDDDDDDDDDDDDDDDDDDDDDDDDDDDDDDDDDDDDDDDDrkd0554555355555555553555555445355555pllzlzxlxzlDDDDDDDDDDD",
"DDDDDDDDDDDDszzzzzzxxxlxxllxDDDDDDDDDDDDDDDDDDDDDDDDDDDDDDDDDDDDDDDDD9fq55555555355355553555355355555553540hlzzzlxzzlkDDDDDDDDDD",
"DDDDDDDDDDDDkxlxxlxlzzxllxxzDDDDDDDDDDDDDDDDDDDDDDDDDDDDDDDDDDDDDDDDD2y555355555555555535555555555555555544ykllllllxllDDDDDDDDDD",
"DDDDDDDDDDDDlxlxxlxxlxxlzlxlDDDDDDDDDDDDDDDDDDDDDDDDDDDDDDDDDDDDDDDDD=65535555355555555555555355555555555557dklzlzllllDDDDDDDDDD",
"DDDDDDDDDDDylllllllllllxlxllDDDDDDDDDDDDDDDDDDDDDDDDDDDDDDDDDDDDDDDDD=55555555555535355555535555555335555555ykllzllllljDDDDDDDDD",
"DDDDDDDDDDDklllllxllzlllxlllDDDDDDDDDDDDDDDDDDDDDDDDDDDDDDDDDDDDDDDDD>455555535555555553535555353555555555530hklllllllkDDDDDDDDD",
"DDDDDDDDDDDlllxllzllzllllllzDDDDDDDDDDDDDDDDDDDDDDDDDDDDDDDDDDDDDDDDD,445355555553535555555355555555555355555pjllllllllDDDDDDDDD",
"DDDDDDDDDD6lllllllllllllllllfDDDDDDDDDDDDDDDDDDDDDDDDDDDDDDDDDDDDDDD@1554555555553555555355535555535555554554rhkllklllkDDDDDDDDD",
"DDDDDDDDDDtlllllllllllllllllgDDDDDDDDDDDDDDDDDDDDDDDDDDDDDDDDDDDDDDD%34555555355555553555555555555555355554440gklllklkkfDDDDDDDD",
"DDDDDDDDDDdlllllllklllklllkllDDDDDDDDDDDDDDDDDDDDDDDDDDDDDDDDDDDDDDD-34555555553555555555535555553555555454448djkkkklkkhDDDDDDDD",
"DDDDDDDDDDjllkkkklklkklkkkllkDDDDDDDDDDDDDDDDDDDDDDDDDDDDDDDDDDDDDDD>55455535555553555353555553555553553544447sjkkkkkkkjDDDDDDDD",
"DDDDDDDDDDlkkkkkkklkkkkkkkkklgDDDDDDDDDDDDDDDDDDDDDDDDDDDDDDDDDDDDDD,45555353555553555355555555555535555545547sgjkkkkkkkDDDDDDDD",
"DDDDDDDDDDkkklkkkkkkkkkkkkkkkkDDDDDDDDDDDDDDDDDDDDDDDDDDDDDDDDDDDDD$144555555535555555555535555355553555455547pgjkjkkjkkDDDDDDDD",
"DDDDDDDDD6kkkkkkkkkkjkkkkkkkkkgDDDDDDDDDDDDDDDDDDDDDDDDDDDDDDDDDDDD,344553555555555555555555555555555535555547ygjjkkjkjkDDDDDDDD",
"DDDDDDDDD8jkjkjkkjkjkkkjjkjkkjkDDDDDDDDDDDDDDDDDDDDDDDDDDDDDDDDDDDD5254455553555355553555355355553555555555547pdjjjjjjjjjDDDDDDD",
"DDDDDDDDD6kkjkjkjkjjjjkkjkjkjkjgDDDDDDDDDDDDDDDDDDDDDDDDDDDDDDDDDDr7153555555355355553535555355555555555555557ydhjjjjjjjgDDDDDDD",
"DDDDDDDDDyjjjjkjjjjkjjjjjjjjjjjjDDDDDDDDDDDDDDDDDDDDDDDDDDDDDDDDDws7555555535555555555555355555535555355555347ydhjjjjjjjgDDDDDDD",
"DDDDDDDDDgjjjjjjjjjjjjjjjjjjjjjjjDDDDDDDDDDDDDDDDDDDDDDDDDDDDDDDDhp7755535555555553555355555555355555553555457rdjjjhjhjjgDDDDDDD",
"DDDDDDDDDfjjjjjjjjjjjjjjjjjjjjjjjjDDDDDDDDDDDDDDDDDDDDDDDDDDDDDDghp75755555555535555555555355555555355555555450dhgjjgjhjgDDDDDDD",
"DDDDDDDDDgjgjjjjhjhjjhjhhjjhjjjjjhgDDDDDDDDDDDDDDDDDDDDDDDDDDDDfjgs6,14555555555535555533555535555353555454456tfggjhhjghgDDDDDDD",
"DDDDDDDDDfjhgjjgjhjjgjjhjhjhjgjgjhjjDDDDDDDDDDDDDDDDDDDDDDDDDDDD5esq,<5555353555555555555535555555555535555566pgjjhhhjjhgDDDDDDD",
"DDDDDDDDDdjjjgjjhjhhjhhjhhhjgjhjhhhgjgDDDDDDDDDDDDDDDDDDDDDDDDDDDD-41,555555555355555355355555555355355554446qsggggjjggjfDDDDDDD",
"DDDDDDDDDdhhhjgjhhhhhhjggjhhjghhgjgjgjgDDDDDDDDDDDDDDDDDDDDDDDDDDD o->353553555553555555555553555555555544444qsgjjggghhggDDDDDDD",
"DDDDDDDDDsjghhhhjggjhhhhgjgjgjjgghhhhhhggDDDDDDDDDDDDDDDDDDDDDDDDD  .+>35554554555555555553555555555535554477yfgghggggghfDDDDDDD",
"DDDDDDDDDsgjghghgjghghgghghgggghjhgggghhghgDDDDDDDDDDDDDDDDDDDDDDDD   O>5554454555535553555555535553555555358sgghgggggggdDDDDDDD",
"DDDDDDDDD6hgggggggghghghggjghghggggjghhgggDDDDDDDDDDDDDDDDDDDDDDDDDD   O,44555543555555555553555555555555523rsggggggggggsDDDDDDD",
"DDDDDDDDD2gghgghgggggggggggggggggggggggggDDDDDDDDDDDDDDDDDDDDDDDDDDDD   #44455555555355555355555355555355<<8ydfgggggggggsDDDDDDD",
"DDDDDDDDD3gggggggggggggggggggggggggfgggf8DDDDDDDDDDDDDDDDDDDDDDDDDDDDD   *5435555553535555555353555355553<5wsggggggfggggpDDDDDDD",
"DDDDDDDDD,ggggggggggggggggggggfgggggfggqDDDDDDDDDDDDDDDDDDDDDDDDDDDDDDD  .:65555535555555355555555555351,3qsdfdfgfgffdffDDDDDDDD",
"DDDDDDDDDDgfgfggggggggggfgggfgfggggfggfDDDDDDDDDDDDDDDDDDDDDDDDDDDDDDDDD  o>353555535545555555355355541,<9usddgfffgddgddDDDDDDDD",
"DDDDDDDDDDsfgfffdfgfffdfggffgfggfffgffqDDDDDDDDDDDDDDDDDDDDDDDDDDDDDDDDDD  @:354555555555535555555555,,<8ysdfdffdddddddsDDDDDDDD",
"DDDDDDDDDDpfffffdfffgffffffffffffffgds-DDDDDDDDDDDDDDDDDDDDDDDDDDDDDDDDDDD o&:,444445544544444455351,><6yssdffdfffffffssDDDDDDDD",
"DDDDDDDDDD6fgfddffffddddddddfdsdddffdtDDDDDDDDDDDDDDDDDDDDDDDDDDDDDDDDDDDD .*::,1<445444454444453<,>,28ysssdfsdsdsdfdsdqDDDDDDDD",
"DDDDDDDDDD<fdddddfdfsddddddfdfdddddss4DDDDDDDDDDDDDDDDDDDDDDDDDDDDDDDDDDDDD #<>--=><71334533473<>-:,38tysssdfdfssddssds5DDDDDDDD",
"DDDDDDDDDDDssdsddsdsfddsdfsfdssddssdsDDDDDDDDDDDDDDDDDDDDDDDDDDDDDDDDDDDDDDD@73,>:=->-:::;:::>:::,37rysssdsssssssssssssDDDDDDDDD",
"DDDDDDDDDDDysfdffsfssfdssdsffsssdsssyDDDDDDDDDDDDDDDDDDDDDDDDDDDDDDDDDDDDDDDo6q852,>:;;;-;-;;:><57qrpssssdsssssssssdssyDDDDDDDDD",
"DDDDDDDDDDD6dssssssdsssssssssssssdss6DDDDDDDDDDDDDDDDDDDDDDDDDDDDDDDDDDDDDDDD<yyrq65311<<<<<1358qyyspsssssssssssssssssqDDDDDDDDD",
"DDDDDDDDDDD:ssssssssssssssssssssssss3DDDDDDDDDDDDDDDDDDDDDDDDDDDDDDDDDDDDDDDD,ssyytrqqq0q000qqtypppsssssssssssusisssss,DDDDDDDDD",
"DDDDDDDDDDD+ysssssssssssssssssssssss4DDDDDDDDDDDDDDDDDDDDDDDDDDDDDDDDDDDDDDDD>pssspppypyyyppysyyppsppspsssyssssyssissyDDDDDDDDDD",
"DDDDDDDDDDDD8ssssssssssssssisssssssaDDDDDDDDDDDDDDDDDDDDDDDDDDDDDDDDDDDDDDDDDDusisssyssysyssyspssusssiisssysysysyssys8DDDDDDDDDD",
"DDDDDDDDDDDD:pspyssypsysasyssyysspspDDDDDDDDDDDDDDDDDDDDDDDDDDDDDDDDDDDDDDDDDDsusyyssyysyssysasyysysysypyyspspsssyysy,DDDDDDDDDD",
"DDDDDDDDDDDD+tysspysusyssysyisysysys5DDDDDDDDDDDDDDDDDDDDDDDDDDDDDDDDDDDDDDDD>ssysyisysyysiiysusyssysyysiiysyspyypputDDDDDDDDDDD",
"DDDDDDDDDDDDD,ppppiiiaiausyssysasppy6DDDDDDDDDDDDDDDDDDDDDDDDDDDDDDDDDDDDDDDD,uypysyysyupuyiyyyayyyuiysyiysyyyupsysy2DDDDDDDDDDD",
"DDDDDDDDDDDDD#rysyyspyuuysiysysyyyuy8DDDDDDDDDDDDDDDDDDDDDDDDDDDDDDDDDDDDDDDD1yuyyypyyysyuyyyiyysyuyyypiyaypyyuyyyytDDDDDDDDDDDD",
"DDDDDDDDDDDDD.<yyspyysyyyyiiiyyiyiystDDDDDDDDDDDDDDDDDDDDDDDDDDDDDDDDDDDDDDDD8yyisyyyiyyiyyiyuyuyyyyuyyyyyyyyyyyyyy3DDDDDDDDDDDD",
"DDDDDDDDDDDDDD&epyayyyyuysyyyiyuysyyyDDDDDDDDDDDDDDDDDDDDDDDDDDDDDDDDDDDDDDDDtyyyyyyyyyyyyyyyyyyyyyyyyyyyyyyyyyyyytDDDDDDDDDDDDD",
"DDDDDDDDDDDDDDX2yyyuyyyyyyyyyyyyyyyyyDDDDDDDDDDDDDDDDDDDDDDDDDDDDDDDDDDDDDDDDyyyyyyyyyyyyyyyyyyyyyyyyyyyyyyyyyyyyy6DDDDDDDDDDDDD",
"DDDDDDDDDDDDDDD#qyyyyyyyyyyyyyyyyyyytrDDDDDDDDDDDDDDDDDDDDDDDDDDDDDDDDDDDDDD5yyyyyyttyttyyyttyytyyyyryyeyytytyyyteDDDDDDDDDDDDDD",
"DDDDDDDDDDDDDDD ,yytyyyyyyyytyyyyyytytDDDDDDDDDDDDDDDDDDDDDDDDDDDDDDDDDDDDDDqtywtyyyyyyyyetyyytyytryytwytyyetettt<DDDDDDDDDDDDDD",
"DDDDDDDDDDDDDDDD+qtyyyyyeyytyyytywyyttqDDDDDDDDDDDDDDDDDDDDDDDDDDDDDDDDDDDD5eyttyrrtyetewyyeettttytyryywtteeytywqDDDDDDDDDDDDDDD",
"DDDDDDDDDDDDDDDDD:ttrrwtteyteettyttytytDDDDDDDDDDDDDDDDDDDDDDDDDDDDDDDDDDDDqyttewytttttewtteyttettttwtwweeeewrww,DDDDDDDDDDDDDDD",
"DDDDDDDDDDDDDDDDDo<teeeeettteeeewwwweeeqDDDDDDDDDDDDDDDDDDDDDDDDDDDDDDDDDD5rrwwwwwrqeewrwweerreewewewrrrrrrerww<DDDDDDDDDDDDDDDD",
"DDDDDDDDDDDDDDDDD +6reeetewreerrwwrweeerDDDDDDDDDDDDDDDDDDDDDDDDDDDDDDDDDDqrqrwwrrrwqrwerrqreqqrrqrewrwqrwqerr6#DDDDDDDDDDDDDDDD",
"DDDDDDDDDDDDDDDDDD =qwwrqrwweeeeqrrrrqrqrDDDDDDDDDDDDDDDDDDDDDDDDDDDDDDDDqqrwwrqrrrreqeqrrqweerwqrrqwqqwqqrqrq;DDDDDDDDDDDDDDDDD",
"DDDDDDDDDDDDDDDDDDD.>rwqrrrwqrrqwrqrrrqrrqDDDDDDDDDDDDDDDDDDDDDDDDDDDDDD8rrqqqqrqqqqqrqrqqrqqqqqqqqrqwqqrqqqq,DDDDDDDDDDDDDDDDDD",
"DDDDDDDDDDDDDDDDDDD o,qqrqrqrqqrqrqrqqrqqqqDDDDDDDDDDDDDDDDDDDDDDDDDDDD6qqqqqqqqqqqqqqqqqqqqqqqrqqqqqqqqqqqq2DDDDDDDDDDDDDDDDDDD",
"DDDDDDDDDDDDDDDDDDDD #6qqqqqqqqqqqqqqqqqqqrqDDDDDDDDDDDDDDDDDDDDDDDDDD8qqqqqqqqqqqqqqqqqqqqqqqqqqqqqqqqqqqq6&DDDDDDDDDDDDDDDDDDD",
"DDDDDDDDDDDDDDDDDDDDD %5qqqqqqqqqqqqqqqqqqqqqDDDDDDDDDDDDDDDDDDDDDDDDqq9qqqqqqqqqqq9q90qq0qqq9q8qqq9qqqqqq6&DDDDDDDDDDDDDDDDDDDD",
"DDDDDDDDDDDDDDDDDDDDDD $5qqqqq9qqq9qqq9q9qq9q9qDDDDDDDDDDDDDDDDDDDD6qqqqq0qqq8qq0qq0qqqq0qq8qqqq9q9q99q9q5&DDDDDDDDDDDDDDDDDDDDD",
"DDDDDDDDDDDDDDDDDDDDDDD =89q9qq9q0qqqq9qq9q0q98q9DDDDDDDDDDDDDDDD60qq8qq0q8q8qq9q8qqqq9qq9q90q8qq8q998q9q=DDDDDDDDDDDDDDDDDDDDDD",
"DDDDDDDDDDDDDDDDDDDDDDD  ;8qq99qqq8q98qq8qq88qqqq8q8DDDDDDDDDD080q000qq8008qq08q8qq88q8q8qq8qqq8qq8q9q88:DDDDDDDDDDDDDDDDDDDDDDD",
"DDDDDDDDDDDDDDDDDDDDDDDD  &59q99q8q89q8qqq8qqq8q8q8q880888q88q8q8q9098q0q80q8q8q808899q8998q08q088q88q5&DDDDDDDDDDDDDDDDDDDDDDDD",
"DDDDDDDDDDDDDDDDDDDDDDDDD  #38q88q8q88q889q88008q8q8qq8qq8800800q8q8q8898q880089q08q088q89880880q89893$DDDDDDDDDDDDDDDDDDDDDDDDD",
"DDDDDDDDDDDDDDDDDDDDDDDDDD  #3989898008q8980080888q8008q808q0800888q8q88080008q8888q808q0880888888983$DDDDDDDDDDDDDDDDDDDDDDDDDD",
"DDDDDDDDDDDDDDDDDDDDDDDDDDD  o>898800898q8008800888880888888888888088888808888888898888888088088888,oDDDDDDDDDDDDDDDDDDDDDDDDDDD",
"DDDDDDDDDDDDDDDDDDDDDDDDDDDD  .:688888808808888888898888898880880888888988888888888888888888888886:DDDDDDDDDDDDDDDDDDDDDDDDDDDDD",
"DDDDDDDDDDDDDDDDDDDDDDDDDDDDDD  #2888888888888888888888888888888888888887888888888888868888888881#DDDDDDDDDDDDDDDDDDDDDDDDDDDDDD",
"DDDDDDDDDDDDDDDDDDDDDDDDDDDDDDD  o:588686868878888888888888888888888888888888887888888688688866:ODDDDDDDDDDDDDDDDDDDDDDDDDDDDDDD",
"DDDDDDDDDDDDDDDDDDDDDDDDDDDDDDDD  .@<78888688868688687868668877886866886866877887867688688767<# DDDDDDDDDDDDDDDDDDDDDDDDDDDDDDDD",
"DDDDDDDDDDDDDDDDDDDDDDDDDDDDDDDDDD  X&286686686786887688686878687768866868866868766866686672*XDDDDDDDDDDDDDDDDDDDDDDDDDDDDDDDDDD",
"DDDDDDDDDDDDDDDDDDDDDDDDDDDDDDDDDDD   O:27866867687677766666667667677677677777778678677771:O DDDDDDDDDDDDDDDDDDDDDDDDDDDDDDDDDDD",
"DDDDDDDDDDDDDDDDDDDDDDDDDDDDDDDDDDDDD   o-,57766777777766777776677766676676666656667775<;o DDDDDDDDDDDDDDDDDDDDDDDDDDDDDDDDDDDDD",
"DDDDDDDDDDDDDDDDDDDDDDDDDDDDDDDDDDDDDD    .$,4666667666675666666776667666677667766654,%.  DDDDDDDDDDDDDDDDDDDDDDDDDDDDDDDDDDDDDD",
"DDDDDDDDDDDDDDDDDDDDDDDDDDDDDDDDDDDDDDDDD   .o$>4676576677666566776676665777666665>$o.  DDDDDDDDDDDDDDDDDDDDDDDDDDDDDDDDDDDDDDDD",
"DDDDDDDDDDDDDDDDDDDDDDDDDDDDDDDDDDDDDDDDDDD    .O=>1466756675656656556567565541>=O.  DDDDDDDDDDDDDDDDDDDDDDDDDDDDDDDDDDDDDDDDDDD",
"DDDDDDDDDDDDDDDDDDDDDDDDDDDDDDDDDDDDDDDDDDDDDD     X@&:<334456555565655532<>=+X    DDDDDDDDDDDDDDDDDDDDDDDDDDDDDDDDDDDDDDDDDDDDD",
"DDDDDDDDDDDDDDDDDDDDDDDDDDDDDDDDDDDDDDDDDDDDDDDD       ..O++$:>>>>:>:$++o..     DDDDDDDDDDDDDDDDDDDDDDDDDDDDDDDDDDDDDDDDDDDDDDDD",
"DDDDDDDDDDDDDDDDDDDDDDDDDDDDDDDDDDDDDDDDDDDDDDDDDDDD          .   .         DDDDDDDDDDDDDDDDDDDDDDDDDDDDDDDDDDDDDDDDDDDDDDDDDDDD",
"DDDDDDDDDDDDDDDDDDDDDDDDDDDDDDDDDDDDDDDDDDDDDDDDDDDDDDDDDDD          DDDDDDDDDDDDDDDDDDDDDDDDDDDDDDDDDDDDDDDDDDDDDDDDDDDDDDDDDDD",
"DDDDDDDDDDDDDDDDDDDDDDDDDDDDDDDDDDDDDDDDDDDDDDDDDDDDDDDDDDDDDDDDDDDDDDDDDDDDDDDDDDDDDDDDDDDDDDDDDDDDDDDDDDDDDDDDDDDDDDDDDDDDDDDD",
"DDDDDDDDDDDDDDDDDDDDDDDDDDDDDDDDDDDDDDDDDDDDDDDDDDDDDDDDDDDDDDDDDDDDDDDDDDDDDDDDDDDDDDDDDDDDDDDDDDDDDDDDDDDDDDDDDDDDDDDDDDDDDDDD",
"DDDDDDDDDDDDDDDDDDDDDDDDDDDDDDDDDDDDDDDDDDDDDDDDDDDDDDDDDDDDDDDDDDDDDDDDDDDDDDDDDDDDDDDDDDDDDDDDDDDDDDDDDDDDDDDDDDDDDDDDDDDDDDDD",
"DDDDDDDDDDDDDDDDDDDDDDDDDDDDDDDDDDDDDDDDDDDDDDDDDDDDDDDDDDDDDDDDDDDDDDDDDDDDDDDDDDDDDDDDDDDDDDDDDDDDDDDDDDDDDDDDDDDDDDDDDDDDDDDD",
"DDDDDDDDDDDDDDDDDDDDDDDDDDDDDDDDDDDDDDDDDDDDDDDDDDDDDDDDDDDDDDDDDDDDDDDDDDDDDDDDDDDDDDDDDDDDDDDDDDDDDDDDDDDDDDDDDDDDDDDDDDDDDDDD",
"DDDDDDDDDDDDDDDDDDDDDDDDDDDDDDDDDDDDDDDDDDDDDDDDDDDDDDDDDDDDDDDDDDDDDDDDDDDDDDDDDDDDDDDDDDDDDDDDDDDDDDDDDDDDDDDDDDDDDDDDDDDDDDDD",
"DDDDDDDDDDDDDDDDDDDDDDDDDDDDDDDDDDDDDDDDDDDDDDDDDDDDDDDDDDDDDDDDDDDDDDDDDDDDDDDDDDDDDDDDDDDDDDDDDDDDDDDDDDDDDDDDDDDDDDDDDDDDDDDD",
"DDDDDDDDDDDDDDDDDDDDDDDDDDDDDDDDDDDDDDDDDDDDDDDDDDDDDDDDDDDDDDDDDDDDDDDDDDDDDDDDDDDDDDDDDDDDDDDDDDDDDDDDDDDDDDDDDDDDDDDDDDDDDDDD"
};
