/* XPM */
static char *file_roller[] = {
/* columns rows colors chars-per-pixel */
"128 128 70 1 ",
"  c #00232C",
". c #002731",
"X c #002B37",
"o c #00303C",
"O c #00303E",
"+ c #003341",
"@ c #003543",
"# c #003645",
"$ c #003746",
"% c #003948",
"& c #003C4A",
"* c #003C4C",
"= c #003D4E",
"- c #003F50",
"; c #004051",
": c #004254",
"> c #004355",
", c #004456",
"< c #004658",
"1 c #00475A",
"2 c #00485C",
"3 c #00495C",
"4 c #004A5F",
"5 c #004C5F",
"6 c #004C61",
"7 c #004E63",
"8 c #004F65",
"9 c #005166",
"0 c #005368",
"q c #00536A",
"w c #00546B",
"e c #00566D",
"r c #00566E",
"t c #005870",
"y c #005971",
"u c #005B73",
"i c #005B74",
"p c #005C75",
"a c #005D76",
"s c #005E77",
"d c #005F79",
"f c #006079",
"g c #00607B",
"h c #00617B",
"j c #00617C",
"k c #00637E",
"l c #00647E",
"z c #00647F",
"x c #006681",
"c c #006781",
"v c #006783",
"b c #006883",
"n c #006884",
"m c #006985",
"M c #006A86",
"N c #006C87",
"B c #006B88",
"V c #006C88",
"C c #006C8A",
"Z c #006D8A",
"A c #006E8C",
"S c #00708D",
"D c #00708E",
"F c #007290",
"G c #007392",
"H c #007594",
"J c #007595",
"K c #007797",
"L c #00799A",
"P c None",
/* pixels */
"PPPPPPPPPPPPPPPPPPPPPPPPPPPPPPPPPPPPPPPPPPPPPPPPPPPPPPPPPPPPPPPPPPPPPPPPPPPPPPPPPPPPPPPPPPPPPPPPPPPPPPPPPPPPPPPPPPPPPPPPPPPPPPPP",
"PPPPPPPPPPPPPPPPPPPPPPPPPPPPPPPPPPPPPPPPPPPPPPPPPPPPPPPPPPPPPPPPPPPPPPPPPPPPPPPPPPPPPPPPPPPPPPPPPPPPPPPPPPPPPPPPPPPPPPPPPPPPPPPP",
"PPPPPPPPPPPPPPPPPPPPPPPPPPPPPPPPPPPPPPPPPPPPPPPPPPPPPPPPPPPPPPPPPPPPPPPPPPPPPPPPPPPPPPPPPPPPPPPPPPPPPPPPPPPPPPPPPPPPPPPPPPPPPPPP",
"PPPPPPPPPPPPPPPPPPPPPPPPPPPPPPPPPPPPPPPPPPPPPPPPPPPPPPPPPPPPPPPPPPPPPPPPPPPPPPPPPPPPPPPPPPPPPPPPPPPPPPPPPPPPPPPPPPPPPPPPPPPPPPPP",
"PPPPPPPPPPPPPPPPPPPPPPPPPPPPPPPPPPPPPPPPPPPPPPPPPPPPPPPPPPPPPPPPPPPPPPPPPPPPPPPPPPPPPPPPPPPPPPPPPPPPPPPPPPPPPPPPPPPPPPPPPPPPPPPP",
"PPPPPPPPPPPPPPPPPPPPPPPPPPPPPPPPPPPPPPPPPPPPPPPPPPPPPPPPPPPPPPPPPPPPPPPPPPPPPPPPPPPPPPPPPPPPPPPPPPPPPPPPPPPPPPPPPPPPPPPPPPPPPPPP",
"PPPPPPPPPPPPPPPPPPPPPPPPPPPPPPPPPPPPPPPPPPPPPPPPPPPPPPPPPPPPDDGJDAADADDDDPPPPPPPPPPPPPPPPPPPPPPPPPPPPPPPPPPPPPPPPPPPPPPPPPPPPPPP",
"PPPPPPPPPPPPPPPPPPPPPPPPPPPPPPPPPPPPPPPPPPPPPPPPPPPPPPPPPADGJGADDGGGJJJJJJJJJGDDADDGDDPPPPPPPPPPPPPPPPPPPPPPPPPPPPPPPPPPPPPPPPPP",
"PPPPPPPPPPPPPPPPPPPPPPPPPPPPPPPPPPPPPPPPPPPPPPPPPPPPPPDDDJGDADADADDDDDDDDGDDGDGGGJKKKKLLGPPPPLPPPPPPPPPPPPPPPPPPPPPPPPPPPPPPPPPP",
"PPPPPPPPPPPPPPPPPPPPPPPPPPPPPPPPPPPPPPPPPPPPPPPPPPPPAAGGDAADDADADADADDDDDDDDDDDDDDGGKJGPPPPLLLLJPPPPPPPPPPPPPPPPPPPPPPPPPPPPPPPP",
"PPPPPPPPPPPPPPPPPPPPPPPPPPPPPPPPPPPPPPPPPPPPPPPPPCAGGDAADAADDDDADDDDDDDDDDDDDDDDGJKGPPPPKLLLJGJLJKPPPPPPPPPPPPPPPPPPPPPPPPPPPPPP",
"PPPPPPPPPPPPPPPPPPPPPPPPPPPPPPPPPPPPPPPPPPPPPPCCGGDAAAAAAADAADDDDDDDDDDDDDDDDDGGJGPPPPLLLKGGGJGJKLKPPPPPPPPPPPPPPPPPPPPPPPPPPPPP",
"PPPPPPPPPPPPPPPPPPPPPPPPPPPPPPPPPPPPPPPPPPPCAGGDACAAAAADDAADDADDDDDDDDDDDDDDGGGCgPPGKLLJGGJGJGJGJGKLKPPPPPPPPPPPPPPPPPPPPPPPPPPP",
"PPPPPPPPPPPPPPPPPPPPPPPPPPPPPPPPPPPPPPPPBCGGACCCCAAAAAAAADDDDDDDDDDDDDGDDGGGCgiimGKLKGJGJGGJGJGJGJGJLLJPPPPPPPPPPPPPPPPPPPPPPPPP",
"PPPPPPPPPPPPPPPPPPPPPPPPPPPPPPPPPPPPPCCDGACBCCCCAAAADADDDDDDDDDDDDDDDDDGGDvieamGKKJGGGJGJGJGJGGJJGJGJJLJKPPPPPPPPPPPPPPPPPPPPPPP",
"PPPPPPPPPPPPPPPPPPPPPPPPPPPPPPPPPPCCAGACBCCCCCAAAAAAAADAADADDDDDDDDDGGGCdeedCJKGGGGGJJGJGJGJGJJJJJJJJJJKLKKPPPPPPPPPPPPPPPPPPPPP",
"PPPPPPPPPPPPPPPPPPPPPPPPPPPPPPPCCAGDCBBCCCBCCCCCAADAAADADDDDDDDDDGGGDzy8rzGKJJGGGJGJGJGJGJJJJJGJJGJGJGJGJKLKPPPPPPPPPPPPPPPPPPPP",
"PPPPPPPPPPPPPPPPPPPPPPPPPPPPCCCGDCCBCBBBBCCCCAAAAAAADDADADDDDDDDGGCg98yCJKJGGGJGGGJGJGJGJJJGJGJJJJJJJJJJJJJLLJPPPPPPPPPPPPPPPPPP",
"PPPPPPPPPPPPPPPPPPPPPPPPPPABGDCCCBBBBBBCCCCCCCAAAADAADADDDDDDGGGvr79gDKJGGGGGJGGJJGJJGJGJGJJJJJJJGJJJGJJJGJJJLKKPPPPPPPPPPPPPPPP",
"PPPPPPPPPPPPPPPPPPPPPPPCBGGCCCBBBBCCBCCCBCCCACAAAAAADADDDDDGGCd86rmGKJGGGGGGGGJGJGJGJJJJJJGJJGJGJJGJJJJJJJJJJJKLKKPPPPPPPPPPPPPP",
"PPPPPPPPPPPPPPPPPPPPCCGGCCBBBBBCCBBBBBCCCCCCCAAADADADDDAGGGvr78dAJKGGGGGGGGGGJGJGJJJGJGJJGJGJGJJJJJJJJKJJJJJJJJJLLLPPPPPPPPPPPPP",
"PPPPPPPPPPPPPPPPPCCDGCCBCBCCBCBBBBCBBCBBCCCACAAAAAADAAGGCd84ezGJJGGGGGGGJGGJGGJGJGJGJJJJJJJJJJJJJJJJJKJJJKJKKJKJKJLLLPPPPPPPPPPP",
"PPPPPPPPPPPPPPBCDGACCCBBBBBBCBCBBCBCCBCCBCCCCCAAAADDGGmy66iCGKGGGGGGGGGGGGGGJGGJGJJJJJGJJGGJJJJJJKJKJJJJJJJJJJJJJKJKLLKPPPPPPPPP",
"PPPPPPPPPPPBBDGACBCBBBBCBCCBBBCBBCBBBCBCCCCCAAAAADGAg849gGKGGGGGGGGGGGGGJGGJGJJJGJJGJGJJJJJKJJKJJJJJJJKKKJKKKJKJJJJJJKLKKPPPPPPP",
"PPPPPPPPBBAGACBBCBBBBBBCBCBBCCBBBCBBBCBCCCCCCAAGGmy64rBGJGGGGGGGGGGGGGGJGGJGJGJGJGJJJJJJJJKJKJJJJKKJKJKJJKJKJKJKJKJJJJJLLLPPPPPP",
"PPPPPmCAGACCCCCBBBCCCCBBBBCBBBBCBCBCBCCCCCACDGAg948dAJJGDGGGGGGGGGGGGJGGGJGJGJJJJJGJGJGJJJJJJJJKKJJKJKJKKJKJKJKJKJKKKJKJJLLLPPPP",
"PPAAAGACBBBCBCBBBCBBBBCBCCBBBBBCBBCBBBCCCCDDmy64emGJGDGGGGDGGGGGGGGGGGGGJGJGGJJJJJJJJJJJJJKJJKKJJKJJJJKJJKKJJJKJJKKJKJJJKKJLLLPP",
"GJGGGDAAAACCCBBCBBCBBCBBBBBCCCBBCBBBCCCCDAkq47aCGJGGGGGDGGGGGGGGGGGGGJGGGJGJJJGJGJGJJJJKKJJKJKJKKJKKKKKKKJKKKKKKKJJKJKKJJJJJKLLL",
"GJGDCBmBmmmBBCAAAAACCBBCCBCBBBBCBBCCCADmi74qzGJGGDGDGGDGGGGGGGGGGGGGJGGJJGJGJJJGJJJGJKJJJKJKJKKJKKKKKJKKJKKKJKJKKKKJJKJKKJJJKLLJ",
"DGGGDGCmvvkgddddgzzmBCAAAACCBCBBBCCACke46iCGJGGDDGDGDGGGGGGGGGGGGGGGGGJGGJJGGJJJGJJJJJJJKJKJKJJKKJKJKKJKKKKJKKKKKJKKKKKJJKLLJDDP",
"DGDADGGGACBBmzgdirreeeyagkvBAAAAAABa849kDJGDGDDDGDGDGDGGGGGGGGGGGGGJJGGJJJGJJGJGJJJKJJKKJKJKKKKKJKKKKKKKKKKKKKKKJKKJKJKKLKGCmmDP",
"AGDDAADDGGGACCCmzkdayr9867789eigky44ymGJGDAGDDGGDGGDGGGDGGGGGGGGGGGGGJJGGJJJJJJJJJJJKJKJKJKJJKJKKKKKKKKKKKKKKKKKKKKKKLLJACmmmBDP",
"DGADADDDDDGGJGDCCBmzkdiyrq88744242iGJGGADDDDDDGDGDGDGGDGGGGGGGGGGGJGGGJGJJJJJJJJJKJKJKJKJKJKJKKKKKKKKKKKLKKKKKKKKKLLKGCmvmmmBmAP",
"PGADDDDDDDDGGJJGGDAACmvgdireq97766rDLGDDDDDGGDDGDDGGDGGGGGGGGGGGJGGGJJGJGJGJGJGJJJJJKJKJKKKKKKKKKKKKLKLKKKKLKKKKLLJDmvmmmmmmmmCP",
"PGDAADDADDGDDDGJJKGGADACmzkdirrqqq9qzKJGDDDDDDGDGGGGGGGGGGGGGGGGGGJGGJGJJJJGJJJJJJJJJKJKKJJKKKKKKKKKLKKLLKKLLLLKGCmmmmmmmmmmmmAP",
"PGAADAADDDDDGGDGGGJKJGGDGABmzkdiiyre9iGKGDGDGGDGDGDDDGGGGGGGGGGGJGGGJGGJGJJJGJJKJKKJKJKKKKKKKKKKKKKLKKLKKLLLLKDBvvvmmvvmvmvvvmCP",
"PGAAAAADDDDDDDDGGDDGJJKJGDGGCBmvzgayr89mKJDGDDGDDGGGGGGGGGGGGGGGGJGJGJJJJGJJJJJJJKJKJKKKKKKKKKKKKKLKLKKLLLLGCvzvvmvvvvvvvvvvmmCP",
"PGCCCACAAAADDDDDDDDDDGGJKJGGGGGACmkdir97iGKGDGDGGDDGGDGGGGGGGGGGGGJGJGGJJJGJJJJJJKKJKJKJJKKKKLKLLLKLLLLLKDBzzvvvvvvvvvvvvvvvvvBP",
"PDCCCCCAAAADADDADDDDDDDDGGKKGGGGGABvgiyq79mKJDGDGGDGGGGGGGGGGGGGGGGJJJJJJJJJJJJJJKJKKKKKKKKKKKLKKLLLLLJCvzvzvvvvvvvvvvvvvvvvvmBP",
"PGCCCCCACAAAADADADDADDDDDDDGJKKGGGDABzgaye9dGKGGDGGGGDGGGGGGGGGGGGJGGJGJGJGJJKJJKJKJKJKKKKKKKLKLLLLJGBzzzvzvzvvvzvzvzvzvvzvvzzBP",
"PACBBCCCCAAAAADAADAADDADDADAADGJKJGGDCBzgayqrCKGGGDGGDGGGGGGGGGGJGGJGGJJJJJJJKJKJKJKKJKKKKKKLKKLLGAvzzvvzvzvvzzzzvvzvzzvzzzvzmmP",
"PCACBCCCCACAAAADDADDADDDDDDDDDDDGGJJGDDCmvgdyezJKGGGGGGGGGGGGGGJGJJGJJGJGJGJJJJKKJJKKKKKKKKLLLKDBzkzzvzzzzzzzvvzzzzvzzvzzvzvvmzP",
"PCACBCCBCCCAAAADADADDADAADDAADDAAADGJJGGDCBvkdyaAKGGGGGGGGGGGGGGGJGJJJJJJJJKJJJJJKKKKKKKKLKLJCvkkzzzzzzzzvzzzzzzzvzzzzzzzzvzzmvP",
"PCCBBCCBCCCAAAAAAAAAADADDAADAAAAAAAAAGJJGGAABvkaimKJGGGGGGGGGGGJGJJGGJGJGJJJKJKKKJJKKKKKLKGmzkkkzzzzzzzzzzzzzzzzzzzzzzzzzzzvvmzP",
"PBCBBBBBBCCCCAAAAAAAAAAAAAADAAAAAAAAACCAGGGGAABmkakGLJGGGGGGGGJGGGJGJGJJJJJJKJKJJKJKKLLJAzkkkzzkzzzzzzzzzzzzzzzzzzzzkkkzvzzvzmzP",
"PBABBBBCBBBCCCCCCACAAAAAAAAAAAAAAAACACACCCGGGGACBmggCKJGGGGGGGGGJJGJJJGJGJJJJJJKKKKKKGBkgkzkkkkkkkkkkkkkkkkkkkkkkkkkkkkzzzvzzBzP",
"PBABBBBBBCBBCCCCCCCAAAAAAAACAAAACAACCACACCCCCGGGACBmkvGKGGGGGGGGJGJGJJJJJJJJJJKJKLJAvggkkkkkkkkkkkkkkkkkkgkgkgkgkkkkkkkvzzzzzmzP",
"PmCBBmBBBBBBBCCCCCCCCACACCAACACCACACCACCCCCCCBCDGGDCmvvDLJGGGGJGGJGJGJGJJJJKJKKKGBkggkgkgkgkkggkkgkgkgkgkkkkkkkkgkgkkkzzzzzzzmzP",
"PmCBmmBBBBBBBBBBBCCCCCCCCCCACCCCCCCCCCCCCCCCCCBBBCAGDAmvCJKGGGGJJGJJGJJJJJJKKJAvgdgkkkkkkkkkkkgkgkkkkkgkkgkkgkkgkkgkkkkzzzzzzmkP",
"PmABmBmmBBmBBBBBBBBBCBCCCCCCCCCCCCBCCCCBCCBBBBBCBBmBAGDAmmGLKGGGGJJGJJJGJKKGCkdggkkggggkgggggkkgkkggggkkgkggkkgkgkgkkkkkkkkkkmkP",
"PmCmmmmmmBmBBBBBBBBBBCBCCCCCCCCCCCCCBCBCBBBBBBBBBBBBBmCADCmCKLJGJGGJGJJKJAvddggkkggkkgkggkkgkggkggkggkkgkggkggkgggkkkkgkkkkkkmkP",
"PmCmmmmBmBmBBBBmBBBBBBBBBBBBCBBBBBBBBBBBBBBBBBBBBBBBBBmmBCACCGKKGJGJKKGBkdddggggggggggggggggggggggggggggggggkggggkgkgkkkkgkgkmgP",
"PvAmmmmmmmmmmBBBmBmBBBBBBBBBBBBBBBBBBBBBBBBBBBBBmBBBBmBBmmmBBCGKLJJJDvdaddgggggggggggggggggggggggggggggggggggggdkgkgkggkkggkgmgP",
"PvCvmmmmmmmBmBmBBBmBBmmBBBmBBBmBBBmBBBBBBBBBBBmmBBmBmBmmmBmmvvBAJJCkaaddggdgdgdgggdgdggdgggddgdggggggdgdggdgggdkgkgkkgkggkgggmgP",
"PvCvvvvmmmmmmBBmBmBmBmmBBBmBmBBBmBBBmBmBBmBmmBBBmmBmBmBmBmmBmmvmmdiadgddddgddddgddgdgddgddggggdddgdddgdggdgdddggggkggggggggkgmgP",
"PzCvvvvvvmmmmmmmBmmmmmBmmmBmBmmBBmmmBmBmmBmBmmmBmBmmmmBmmmmmmmvBmadddddggdddggddgdddgdddgddddddgdddgdgddddgddgkggggggggkkggggmgP",
"PzCzvvvvvvvmmmmmmBmmmmmmmmmmmBmmmmBmmmBmmmmmmBmmmmmmmmmmmmmmmvvBmaddddddddddddddddddddddddddddddddddddddddddgggggggggggggggggvgP",
"PmCvzmvvvvvvmmmBmmmmmmmmBmmBmmmmmmmmmmmmBmmBmmmmBmmBmmmmmmmmmmmBmaddddadddadddadadddadddadddadddddddadddadddgggdgdggdggdgdgdgzdP",
"PmBzvzzvvvvmmmmmmmBmBmvmmmmmmmmmmmmmmmmmmmmmmmmmmmmmmmmmvmmmmvvBmiadadddaddddadaaddaddaadadadadaaaddadaaadgddgdggdgdggggdgdgdvdP",
"PzBzzzvvvvvvvvmmmmmmmmmmmmvmmvmmvmmmmmvmmmvmmvmmmmvmmvmmmmvvmvvmmidaaaaaaaaaadaadaaaaaaddaaadaaadaaaaaadddddgdgddgdgddddgdgddzdP",
"PPmzzvvzzzvzmvvvmmmvmmmmvvvmvvmvmvvvmvvmvvvmvvmvvvvmvvmvvvmvvvmBmiaaaaaaaaaaaaaaaaaaaaaaaaaaaaaaaaaaaaaaddddddddddddddddddddgzPP",
"PPmzkzzzzvzvvvvvvvmvmmvmvvvvvvvvvvvvvvvvvvvvvvvvvvvvvvvvvvvvvvzmmiaaaaaaaaaaaaaaaaaaaaaaaaaaaaaaaaaaaaaddddddddddddddddddddddkPP",
"PPmzzzzzzvzzvzmvmmvvvvmmmmvvvvvvvvvvvvvvvvvvvvvvvvvvvvvvvvvvvvzBmiaaaaaaaaaaaaaaaaaaaaaaaaaaaaaaaaaaaaaddddddddddddddddddddddkPP",
"PPmzzzzvvzvzvvvvvvvmmmmmmmvvvvvvvvvvvvvvvvvvvvvvvvvvvvvvvvvvvvzBmiaaaaaaaaaaaaaaaaaaaaaaaaaaaaaaaaaaadddddddddddddddddddddddgkPP",
"PPmzzzzvzvzvvvvvvmmvvmmmmmmvvvvvvvvvvvvvvvvvvvvvvvvvvvvvvvvvvvzBviaaaaaaaaaaaaaaaaaaaaaaaaaaaaaaaaaaaddddddddddddddddddddddddkPP",
"PPmzzzzzzzvzxxvvvvvvmmvmmmmmvvvvvvvvvvvvvvvvvvvvvvvvvvvvvvvvvvvmmiaaaaaaaaaaaaaaaaaaaaaaaaaaaaaaaaaadddddddddddddddddddddddddkPP",
"PPmzzzzzzvvzvvvvmvbmmvmmmmmmmvvvvvvvvvvvvvvvvvvvvvvvvvvvvvvvvvzBmiaaaaaaaaaaaaaaaaaaaaaaaaaaaaaaaaaddddddddddddddddddddddddddkPP",
"PPmvzzzvzzzvzxvvmvvvmmvmmmmmmmvvvvvvvvvvvvvvvvvvvvvvvvvvvvvvvvvmviaaaaaaaaaaaaaaaaaaaaaaaaaaaaaaaadddddddddddddddddddddddddddkPP",
"PPvzzzzzvzzvvvvvvvvmmvmmmmmmmmvvvvvvvvvvvvvvvvvvvvvvvvvvvvvvvvzBmiaaaaaaaaaaaaaaaaaaaaaaaaaaaaaaaddddddddddddddddddddddddddddgPP",
"PPmzzzvzzvzvzvvvvmvvmvmmmmmmmmmvvvvvvvvvvvvvvvvvvvvvvvvvvvvvvvvmmiaaaaaaaaaaaaaaaaaaaaaaaaaaaaaadddddddddddddddddddddddddddddkPP",
"PPvzzzzzzvzvvvvvmvmvmmvmmmmmmmmmvvvvvvvvvvvvvvvvvvvvvvvvvvvvvvzBviaaaaaaaaaaaaaaaaaaaaaaaaaaaaaadddddddddddddddddddddddddddddkPP",
"PPkvzzzvzzzvzvvvvvmvvmmmmmmmmmmmmvvvvvvvvvvvvvvvvvvvvvvvvvvvvvvmmiaaaaaaaaaaaaaaaaaaaaaaaaaaaaddddddddddddddddddddddddddddddggPP",
"PPkzzzzzzvzvzvxvvmvvmmnmmmmmmmmmmmvvvvvvvvvvvvvvvvvvvvvvvvvvvvzBmiaaaaaaaaaaaaaaaaaaaaaaaaaaadddddddddddddddddddddddddddddddgdPP",
"PPkvzzzvzvzvvvvvvvmvmnmmmmmmmmmmmmmvvvvvvvvvvvvvvvvvvvvvvvvvvvvmviaaaaaaaaaaaaaaaaaaaaaaaaaaadddddddddddddddddddddddddddddddgdPP",
"PPkzzzzzvzzvzvxvmmvvmnnmmmmmmmmmmmmmvvvvvvvvvvvvvvvvvvvvvvvvvvzBmiaaaaaaaaaaaaaaaaaaaaaaaaaaddddddddddddddddddddddddddddddddgdPP",
"PPkvzkzvzzvzvvvvvvvmnmnmmmmmmmmmmmmmmvvvvvvvvvvvvvvvvvvvvvvvvvvmmiaaaaaaaaaaaaaaaaaaaaaaaaadddddddddddddddddddddddddddddddddkdPP",
"PPkvzzzzvzvzzvvvvvvmmnmnmmmmmmmmmmmmmvvvvvvvvvvvvvvvvvvvvvvvvvzBviaaaaaaaaaaaaaaaaaaaaaaaaddddddddddddddddddddddddddddddddddkdPP",
"PPzvzzzzzzzvvzvvvmvvvmnmmmmmmmmmmmmmmmmvvvvvvvvvvvvvvvvvvvvvvvvmmiaaaaaaaaaaaaaaaaaaaaaaaaddddddddddddddddddddddddddddddddddgdPP",
"PPzmzzzvzvzvzvvvvmmvvnmnmmmmmmmmmmmmmmmvvvvvvvvvvvvvvvvvvvvvvvzBmiaaaaaaaaaaaaaaaaaaaaaaadddddddddddddddddddddddddddddddddddkdPP",
"PPzmzzzzzzvzzvvvvvvvmmnmmmmmmmmmmmmmmmmmvvvvvvvvvvvvvvvvvvvvvvvmviaaaaaaaaaaaaaaaaaaaaaaddddddddddddddddddddddddddddddddddddkdPP",
"PPzBlzzzxzvzvzvvvvvvvmmvmmmmmmmmmmmmmmmmmvvvvvvvvvvvvvvvvvvvvvzBmiaaaaaaaaaaaaaaaaaaaaadddddddddddddddddddddddddddddddddddddzgPP",
"PPzmxzzxzvzvzvzvvvvmvvmvmvmmmmmmmmmmmmmmmmvvvvvvvvvvvvvvvvvvvvvmmiaaaaaaaaaaaaaaaaaaaadddddddddddddddddddddddddddddddddddgddzgPP",
"PPxBxzxzzzvzzvvvvvbbmmvmvmvmmmmmmmmmmmmmmmvvvvvvvvvvvvvvvvvvvvzBviaaaaaaaaaaaaaaaaaaasdddddddddddddddddddddddddddgddgdddddggzgPP",
"PPxCxvxxvxzvvzvzvvvvvvvmmmvmmvmmmmmmmmmmmmmvvvvvvvvvvvvvvvvvvvvmmiaaaaaaaaaaaaaaaaaadddddddddddddddddddddddddgddddddddgggdddxdPP",
"PPlAbbvvxvvvvxxbvvvvmvvvvmmmvmmmmmmmmmmmmmmmvvvvvvvvvvvvvvvvvvzBmiaaaaaaaaaaaaaaaaaaddddddddddddddddddddggddddggdgfdgdfddfffxdPP",
"PPPVMmmbbbvbvvbbvvvvvvmmvvvmvmvmvmmmmmmmmmmmmvvvvvvvvvvvvvvvvvvmviaaaaaaaaaaaaaaaaadddddddddddddddddgddgdddggddddddgfffdggfgzPPP",
"PPPemMMmMbbmmbbmbmvvvbbbmvmmmmmmmmmmmmmmmmmmmmvvvvvvvvvvvvvvvvzBmiaaaaaaaaaaaaaaaaddddddddddddddgdgdgddfdfdgdffdgdgdggdgfggkqPPP",
"PPPPrbvmMMMmMmmmbmmmmmmmmvvvvvmvmvvmvmmmmmmmmmvvvvvvvvvvvvvvvvvmmiaaaaaaaaaaaaaaaadddddddddddddfddgdddgdgffdgfggfgfgdggggggrPPPP",
"PPPPPwsxbMBmMMMmMMmMmmmmmmmmmvbvmmmmvmmmmmmmmmmvvvvvvvvvvvvvvvzBviaaaaaaaaaaaaaaddddddddddddgddddgdgfdfggfgfgdgffgfgffhfdr5PPPPP",
"PPPPPPPqfbbBMMMMMMMmmMmMMmmmbmmmvvvmmmvvvmmmmmmmvvvvvvvvvvvvvvvmmiaaaaaaaaaaaaaadddddddddddgdfgfgdgdfggffgfgggfggfgghgfy6PPPPPPP",
"PPPPPPPPPehbmVVBMMMMMMMMmMMmmMmmmbnbmvmmmmmmmmmmmvvvvvvvvvvvvvzBmiaaaaaaaaaaaaadddddddddffffgdfgfggggfdggffgfgfggggggu7*PPPPPPPP",
"PPPPPPPPPP1ekvMVBVBMMMMMMMMmMmmMmmmvmmvmmvvmvmmmmvvvvvvvvvvvvvvmviaaaaaaaaaaaaadddddddgfgdgggdgfgddgfgfgfggggggggggi7*PPPPPPPPPP",
"PPPPPPPPPPPP3rzMNVVBBBMMMMMMMMMMmmMmmmmmbmmmmmmmmmvvvvvvvvvvvvzBmiaaaaaaaaaaaaddddddggfggdgfgffggfgfggggggggggggga7=PPPPPPPPPPPP",
"PPPPPPPPPPPPPP5txmBCVVVBBBMBBMMMMMMMMmmmmmmmmvmvmmmvvvvvvvvvvvvmmiaaaaaaaaaaaddddddgdggfggfgfgggggggggggggggghgd9;PPPPPPPPPPPPPP",
"PPPPPPPPPPPPPPPP6ucMVCVVVBVBMMMBMMBmmMMmmmmmmmmvbmmvvvvvvvvvvvzBviaaaaaaaaaadddgggffggfgfggggggggggggggggghhgf9>PPPPPPPPPPPPPPPP",
"PPPPPPPPPPPPPPPPPP6ibMCZVVBVBBBBVMBBBmBMMMMmMmmmmmvmvvvvvvvvvvvmmiaaaaaaaaaadggggfgggggggggggggggghghghghhgdw,PPPPPPPPPPPPPPPPPP",
"PPPPPPPPPPPPPPPPPPPP8smVZZCVVVVVBBBBMMMBMMMMmMmmMmmmmvvvvvvvvvzBmiaaaaaaassfggggggggggggggggghgghhhgkgkgggr1PPPPPPPPPPPPPPPPPPPP",
"PPPPPPPPPPPPPPPPPPPPPP9fMBZZZCVVVVVBVVBBBNVMBMMMmMmMmmvvvvvvvvvmmiaaaaaassgggggggggggggghggghggghgghgjggr1PPPPPPPPPPPPPPPPPPPPPP",
"PPPPPPPPPPPPPPPPPPPPPPPP0kMVAZCCCVVVVVVBBVBBMMBMBMmmMmvvvvbvxvzmbiaaaasdddggggggggghghggghggghgkghhhgfy4oPPPPPPPPPPPPPPPPPPPPPPP",
"PPPPPPPPPPPPPPPPPPPPPPPPPPwlMCSZZZCCCVVCVVBVBBBBBmBmMMmmmbbbvvxBmiassddddgggghggghhghgkghgkghghghhhhi4+PPPPPPPPPPPPPPPPPPPPPPPPP",
"PPPPPPPPPPPPPPPPPPPPPPPPPPP;exBVSAZZZZCCVVCVCBVVBBBMBMBmmbmbbbvMmisddsddfghghgkghgggghghggghghhhhfp6@PPPPPPPPPPPPPPPPPPPPPPPPPPP",
"PPPPPPPPPPPPPPPPPPPPPPPPPPPPP:rbVZSAAZZZZCZZCVVVVVVBBMMBMMMbmmbMmadddddfghghghgggkgghghhkghhgkkgd7%PPPPPPPPPPPPPPPPPPPPPPPPPPPPP",
"PPPPPPPPPPPPPPPPPPPPPPPPPPPPPPP,tmCZSAZZZZZZZCZCVCVCVVVBBmMMmmbBmsdddddkgghggggghhkggggkkgkghgd8&PPPPPPPPPPPPPPPPPPPPPPPPPPPPPPP",
"PPPPPPPPPPPPPPPPPPPPPPPPPPPPPPPPP1ymCSSSAAZZZZZCCZVCCVVVBBMMmMmVMsddddgghggkhgkhhhhhkhggghkhd9=PPPPPPPPPPPPPPPPPPPPPPPPPPPPPPPPP",
"PPPPPPPPPPPPPPPPPPPPPPPPPPPPPPPPPPP4iMCSSSSAAZAZZZZZZCCCVCBMMBmCMsdfdfhhhhhghkhhkgkgggkhkgfq-PPPPPPPPPPPPPPPPPPPPPPPPPPPPPPPPPPP",
"PPPPPPPPPPPPPPPPPPPPPPPPPPPPPPPPPPPPP6sBZSFSSSAZZAZZZZZZCZVBMBMCmddgfghhggkggggkkghgkhkgde:PPPPPPPPPPPPPPPPPPPPPPPPPPPPPPPPPPPPP",
"PPPPPPPPPPPPPPPPPPPPPPPPPPPPPPPPPPPPPPP7gVZDFSASZSSAZZAZZZCCVVBZBdddggkghkhhkghhghkkkggr,PPPPPPPPPPPPPPPPPPPPPPPPPPPPPPPPPPPPPPP",
"PPPPPPPPPPPPPPPPPPPPPPPPPPPPPPPPPPPPPPPPP9kCSDFSSSASSSAZSAZZVVBSmsdfggkghgkggkkghkkggy1XPPPPPPPPPPPPPPPPPPPPPPPPPPPPPPPPPPPPPPPP",
"PPPPPPPPPPPPPPPPPPPPPPPPPPPPPPPPPPPPPPPPPP$0zCDGFFSASSSAAAZAZCVAMsfgkgkggkgkkhkgkjgi4oPPPPPPPPPPPPPPPPPPPPPPPPPPPPPPPPPPPPPPPPPP",
"PPPPPPPPPPPPPPPPPPPPPPPPPPPPPPPPPPPPPPPPPPPP&ebZSFFFSSSSSSSAAZCSBdgkgkgkkhkgghkkgp5OPPPPPPPPPPPPPPPPPPPPPPPPPPPPPPPPPPPPPPPPPPPP",
"PPPPPPPPPPPPPPPPPPPPPPPPPPPPPPPPPPPPPPPPPPPPPP*rMAFGFFDSSSSSSZZSBahhhkkghkhkkkgd6+PPPPPPPPPPPPPPPPPPPPPPPPPPPPPPPPPPPPPPPPPPPPPP",
"PPPPPPPPPPPPPPPPPPPPPPPPPPPPPPPPPPPPPPPPPPPPPPPP-tBZFGGFFSFSDSAFBdhhkhhkgkkkgd8#PPPPPPPPPPPPPPPPPPPPPPPPPPPPPPPPPPPPPPPPPPPPPPPP",
"PPPPPPPPPPPPPPPPPPPPPPPPPPPPPPPPPPPPPPPPPPPPPPPPPP:iCAGGGFFFFDSFBdhkhkkkkkhg8&PPPPPPPPPPPPPPPPPPPPPPPPPPPPPPPPPPPPPPPPPPPPPPPPPP",
"PPPPPPPPPPPPPPPPPPPPPPPPPPPPPPPPPPPPPPPPPPPPPPPPPPPP<pVSFGGGFFSFBdhkkhkhgd9*PPPPPPPPPPPPPPPPPPPPPPPPPPPPPPPPPPPPPPPPPPPPPPPPPPPP",
"PPPPPPPPPPPPPPPPPPPPPPPPPPPPPPPPPPPPPPPPPPPPPPPPPPPPPP4aZSGGGFGGVgkhkkkgq=PPPPPPPPPPPPPPPPPPPPPPPPPPPPPPPPPPPPPPPPPPPPPPPPPPPPPP",
"PPPPPPPPPPPPPPPPPPPPPPPPPPPPPPPPPPPPPPPPPPPPPPPPPPPPPPPP6gAFGGGHCgkkkhr; PPPPPPPPPPPPPPPPPPPPPPPPPPPPPPPPPPPPPPPPPPPPPPPPPPPPPPP",
"PPPPPPPPPPPPPPPPPPPPPPPPPPPPPPPPPPPPPPPPPPPPPPPPPPPPPPPPPP7kAGGJCgkgy: PPPPPPPPPPPPPPPPPPPPPPPPPPPPPPPPPPPPPPPPPPPPPPPPPPPPPPPPP",
"PPPPPPPPPPPPPPPPPPPPPPPPPPPPPPPPPPPPPPPPPPPPPPPPPPPPPPPPPPPo9xSGCgi1.PPPPPPPPPPPPPPPPPPPPPPPPPPPPPPPPPPPPPPPPPPPPPPPPPPPPPPPPPPP",
"PPPPPPPPPPPPPPPPPPPPPPPPPPPPPPPPPPPPPPPPPPPPPPPPPPPPPPPPPPPPP@9CV1XPPPPPPPPPPPPPPPPPPPPPPPPPPPPPPPPPPPPPPPPPPPPPPPPPPPPPPPPPPPPP",
"PPPPPPPPPPPPPPPPPPPPPPPPPPPPPPPPPPPPPPPPPPPPPPPPPPPPPPPPPPPPPPP*=PPPPPPPPPPPPPPPPPPPPPPPPPPPPPPPPPPPPPPPPPPPPPPPPPPPPPPPPPPPPPPP",
"PPPPPPPPPPPPPPPPPPPPPPPPPPPPPPPPPPPPPPPPPPPPPPPPPPPPPPPPPPPPPPPPPPPPPPPPPPPPPPPPPPPPPPPPPPPPPPPPPPPPPPPPPPPPPPPPPPPPPPPPPPPPPPPP",
"PPPPPPPPPPPPPPPPPPPPPPPPPPPPPPPPPPPPPPPPPPPPPPPPPPPPPPPPPPPPPPPPPPPPPPPPPPPPPPPPPPPPPPPPPPPPPPPPPPPPPPPPPPPPPPPPPPPPPPPPPPPPPPPP",
"PPPPPPPPPPPPPPPPPPPPPPPPPPPPPPPPPPPPPPPPPPPPPPPPPPPPPPPPPPPPPPPPPPPPPPPPPPPPPPPPPPPPPPPPPPPPPPPPPPPPPPPPPPPPPPPPPPPPPPPPPPPPPPPP",
"PPPPPPPPPPPPPPPPPPPPPPPPPPPPPPPPPPPPPPPPPPPPPPPPPPPPPPPPPPPPPPPPPPPPPPPPPPPPPPPPPPPPPPPPPPPPPPPPPPPPPPPPPPPPPPPPPPPPPPPPPPPPPPPP",
"PPPPPPPPPPPPPPPPPPPPPPPPPPPPPPPPPPPPPPPPPPPPPPPPPPPPPPPPPPPPPPPPPPPPPPPPPPPPPPPPPPPPPPPPPPPPPPPPPPPPPPPPPPPPPPPPPPPPPPPPPPPPPPPP",
"PPPPPPPPPPPPPPPPPPPPPPPPPPPPPPPPPPPPPPPPPPPPPPPPPPPPPPPPPPPPPPPPPPPPPPPPPPPPPPPPPPPPPPPPPPPPPPPPPPPPPPPPPPPPPPPPPPPPPPPPPPPPPPPP",
"PPPPPPPPPPPPPPPPPPPPPPPPPPPPPPPPPPPPPPPPPPPPPPPPPPPPPPPPPPPPPPPPPPPPPPPPPPPPPPPPPPPPPPPPPPPPPPPPPPPPPPPPPPPPPPPPPPPPPPPPPPPPPPPP",
"PPPPPPPPPPPPPPPPPPPPPPPPPPPPPPPPPPPPPPPPPPPPPPPPPPPPPPPPPPPPPPPPPPPPPPPPPPPPPPPPPPPPPPPPPPPPPPPPPPPPPPPPPPPPPPPPPPPPPPPPPPPPPPPP"
};
