/* XPM */
static char *graveman[] = {
/* columns rows colors chars-per-pixel */
"128 128 63 1 ",
"  c #000001",
". c #000607",
"X c #00090C",
"o c #000D11",
"O c #000F14",
"+ c #001116",
"@ c #001418",
"# c #00151A",
"$ c #001920",
"% c #001D25",
"& c #001E28",
"* c #002029",
"= c #00242E",
"- c #002631",
"; c #002732",
": c #002A34",
"> c #002C38",
", c #002E3A",
"< c #00303D",
"1 c #00313E",
"2 c #003442",
"3 c #003544",
"4 c #003644",
"5 c #003847",
"6 c #003C4C",
"7 c #003F51",
"8 c #004152",
"9 c #004153",
"0 c #004355",
"q c #004557",
"w c #004558",
"e c #00475A",
"r c #00485C",
"t c #00495C",
"y c #00485D",
"u c #00495D",
"i c #004B5F",
"p c #004C61",
"a c #004D61",
"s c #004C62",
"d c #004D62",
"f c #004E63",
"g c #005066",
"h c #005166",
"j c #005268",
"k c #00546B",
"l c #00566D",
"z c #005870",
"x c #005A72",
"c c #005C75",
"v c #005E77",
"b c #006079",
"n c #00607A",
"m c #00627C",
"M c #00637E",
"N c #00637F",
"B c #00647E",
"V c #006681",
"C c #006784",
"Z c #006883",
"A c #006884",
"S c #006986",
"D c None",
/* pixels */
"DDDDDDDDDDDDDDDDDDDDDDDDDDDDDDDDDDDDDDDDDDDDDDDDDDDDDDDDDDDDDDDDDDDDDDDDDDDDDDDDDDDDDDDDDDDDDDDDDDDDDDDDDDDDDDDDDDDDDDDDDDDDDDDD",
"DDDDDDDDDDDDDDDDDDDDDDDDDDDDDDDDDDDDDDDDDDDDDDDDDDDDDDDDDDDDDDDDDDDDDDDDDDDDDDDDDDDDDDDDDDDDDDDDDDDDDDDDDDDDDDDDDDDDDDDDDDDDDDDD",
"DDDDDDDDDDDDDDDDDDDDDDDDDDDDDDDDDDDDDDDDDDDDDDDDDDDDDDDDDDDDDDDDDDDDDDDDDDDDDDDDDDDDDDDDDDDDDDDDDDDDDDDDDDDDDDDDDDDDDDDDDDDDDDDD",
"DDDDDDDDDDDDDDDDDDDDDDDDDDDDDDDDDDDDDDDDDDDDDDDDDDDDDDDDDDDDDDDDDDDDDDDDDDDDDDDDDDDDDDDDDDDDDDDDDDDDDDDDDDDDDDDDDDDDDDDDDDDDDDDD",
"DDDDDDDDDDDDDDDDDDDDDDDDDDDDDDDDDDDDDDDDDDDDDDDDDDDDDDDDDDDDDDDDDDDDDDDDDDDDDDDDDDDDDDDDDDDDDDDDDDDDDDDDDDDDDDDDDDDDDDDDDDDDDDDD",
"DDDDDDDDDDDDDDDDDDDDDDDDDDDDDDDDDDDDDDDDDDDDDDDDDDDDDDDDDSSSSSSSSSSSSSSSSDDDDDDDDDDDDDDDDDDDDDDDDDDDDDDDDDDDDDDDDDDDDDDDDDDDDDDD",
"DDDDDDDDDDDDDDDDDDDDDDDDDDDDDDDDDDDDDDDDDDDDDDDDDDDDSSSSSSSSSSSSSSSSSSSSSSSSSSDDDDDDDDDDDDDDDDDDDDDDDDDDDDDDDDDDDDDDDDDDDDDDDDDD",
"DDDDDDDDDDDDDDDDDDDDDDDDDDDDDDDDDDDDDDDDDDDDDDDDSSSSSSSSSSSSSSSSSSSSSSSSSSSSSSSSSSDDDDDDDDDDDDDDDDDDDDDDDDDDDDDDDDDDDDDDDDDDDDDD",
"DDDDDDDDDDDDDDDDDDDDDDDDDDDDDDDDDDDDDDDDDDDDDDSSSSSSSSSSSSSSSSSSSSSSSSSSSSSSSSSSSSSSSDDDDDDDDDDDDDDDDDDDDDDDDDDDDDDDDDDDDDDDDDDD",
"DDDDDDDDDDDDDDDDDDDDDDDDDDDDDDDDDDDDDDDDDDDSSSSSSSSSSSSSSSSSSSSSSSSSSSSSSSSSSSSSSSSSSSSDDDDDDDDDDDDDDDDDDDDDDDDDDDDDDDDDDDDDDDDD",
"DDDDDDDDDDDDDDDDDDDDDDDDDDDDDDDDDDDDDDDDDSSSSSSSSSSSSSSSSSSSSSSSSSSSSSSSSSSSSSSSSSSSSSSSSCDDDDDDDDDDDDDDDDDDDDDDDDDDDDDDDDDDDDDD",
"DDDDDDDDDDDDDDDDDDDDDDDDDDDDDDDDDDDDDDDCSSSSSSSSSSSSSSSSSSSSSSSSSSSSSSASSSSSSSSSZSSSSSSSSSAVDDDDDDDDDDDDDDDDDDDDDDDDDDDDDDDDDDDD",
"DDDDDDDDDDDDDDDDDDDDDDDDDDDDDDDDDDDDDCZSSSSSSSSSSSSSSSSSSSSSSSZSSSSSSASSSSSSSSSSZSSSSSZSCSSCSDDDDDDDDDDDDDDDDDDDDDDDDDDDDDDDDDDD",
"DDDDDDDDDDDDDDDDDDDDDDDDDDDDDDDDDDDVZSZSSSZZZSCSSSSSSCZZSSZSSCSSSSSSSAASSSSSSSSSSZCZZZSZSCZCZSCDDDDDDDDDDDDDDDDDDDDDDDDDDDDDDDDD",
"DDDDDDDDDDDDDDDDDDDDDDDDDDDDDDDDDDCZZSZZZZZZCZCCSSSSCCCZSSSZCCCZZCSSZZAASASSSSSSZSZZZZZZCCSCZZZCZDDDDDDDDDDDDDDDDDDDDDDDDDDDDDDD",
"DDDDDDDDDDDDDDDDDDDDDDDDDDDDDDDDMCCCCCCZZZZZCZCCSSSSCCCZSSSSCCCCCSSSCCCCCASSSSSSCCCCCZZZZCCCCCCCSCDDDDDDDDDDDDDDDDDDDDDDDDDDDDDD",
"DDDDDDDDDDDDDDDDDDDDDDDDDDDDDDDVVAAAVAZZZZZZZVZCVCCCCAVCCCAAAVAVCCZVZZVVCCCCCVCVCZCCZZZVVVZACVZCAVVmDDDDDDDDDDDDDDDDDDDDDDDDDDDD",
"DDDDDDDDDDDDDDDDDDDDDDDDDDDDDbVVCVVAVCVCVCZVCVCCCCVCVVCCVCVVVCVCVZVZVZZVVVVVCVCVVVVCVVVVVVVVVZVVVVVVVDDDDDDDDDDDDDDDDDDDDDDDDDDD",
"DDDDDDDDDDDDDDDDDDDDDDDDDDDDmVCVVVVVVCVCVVVZVVVVVVVVVZVVVCVVVVVVVVZVZVVVVVVVVVCVVVVVVVVVVVVVVVVVVVVVVVDDDDDDDDDDDDDDDDDDDDDDDDDD",
"DDDDDDDDDDDDDDDDDDDDDDDDDDDVVVVVVVVVVVVVVVVVVVVVVVVVVVVVVVBBvjhzljjjjlMMNVVVVVVVVVVVVVVVVVVVVVVVVVVVVVVDDDDDDDDDDDDDDDDDDDDDDDDD",
"DDDDDDDDDDDDDDDDDDDDDDDDDDmVVVVVVVVVVVVVVVVMVVVVVVVMVVnzf0:-$..*5....o-=6ijnbVVVNVVVVVMVVMVVVVVVVNVVVVNNDDDDDDDDDDDDDDDDDDDDDDDD",
"DDDDDDDDDDDDDDDDDDDDDDDDDmVVVVVVNVNVmVBVVMVVMVVMVVVvh6*@ .     oe%       XX&<exmVVMVMVMVVMVNNMVVVVVNVMNVVDDDDDDDDDDDDDDDDDDDDDDD",
"DDDDDDDDDDDDDDDDDDDDDDDDbVVmVMMVBVBVVVmVMMVMMVMVmf5*.    DDDDDDDjyDDDD   o.XXX#<exNVVVVNVVVNVmVmVMMNVVVVmVDDDDDDDDDDDDDDDDDDDDDD",
"DDDDDDDDDDDDDDDDDDDDDDDbNVVVmVVmVNVBBBVVVMMVVmxe>o   DDDDDDDDDDDzb2DDDDDDDD.Xo+oX*6hmMMNmVmVmVVmmMVMmVmmVVmDDDDDDDDDDDDDDDDDDDDD",
"DDDDDDDDDDDDDDDDDDDDDDnVMVmVmVmVBBBVNNVmNVVmx0%  DDDDDDDDDDDDDDDxVfDDDDDDDDDDD.o@o.+5fmMmVNmBBBVMMVmVVmVMMMmDDDDDDDDDDDDDDDDDDDD",
"DDDDDDDDDDDDDDDDDDDDDbmBmmVmVmNmBBBNNNNBmmbf;  DDDDDDDDDDDDDDDDDbmvDDDDDDDDDDDDDD.oX +8vMmNNmVmNBmmMmmmmmMmNmDDDDDDDDDDDDDDDDDDD",
"DDDDDDDDDDDDDDDDDDDDxNVmBVmVVmmVBmNmmVmNmz2X DDDDDDDDDDDDDDDDDDimMbDDDDDDDDDDDDDDDD X..*ybmNNmmNNmVmMmmMMmmMMmDDDDDDDDDDDDDDDDDD",
"DDDDDDDDDDDDDDDDDDDxmmmmmmmmmmmmmBmNmmmme% DDDDDDDDDDDDDDDDDDDDcmMmDDDDDDDDDDDDDDDDDD.  o2xmmmNmmmmmmMmmmMmmmMbDDDDDDDDDDDDDDDDD",
"DDDDDDDDDDDDDDDDDDDbmNmNmBmmmmmBmmmNmmx6oDDDDDDDDDDDDDDDDDDDDDDbmmmxDDDDDDDDDDDDDDDDDDD.  >fbmmmmmmmmmmmmmmmMmMvDDDDDDDDDDDDDDDD",
"DDDDDDDDDDDDDDDDDDvmmmmmmmmmmmmmmmmmbx1 DDDDDDDDDDDDDDDDDDDDDDxmmmbzDDDDDDDDDDDDDDDDDDDDD  $ibmmmmmmmmmmmmmmbmbnDDDDDDDDDDDDDDDD",
"DDDDDDDDDDDDDDDDDzmmmmmmmmmmmmmmmmmmi;DDDDDDDDDDDDDDDDDDDDDDDxmmmmblDDDDDDDDDDDDDDDDDDDDDD  @6cbbmmmmmmbmbmmmbmmbDDDDDDDDDDDDDDD",
"DDDDDDDDDDDDDDDDDnmbbmmbmbmbmbmbmbmy@DDDDDDDDDDDDDDDDDDDDDDDkbmmmbnDDDDDDDDDDDDDDDDDDDDDDDDD  2cbnbmbbbmmbnbmbnmnvDDDDDDDDDDDDDD",
"DDDDDDDDDDDDDDDDxbbmbmmnbnmnbbbbmby#DDDDDDDDDDDDDDDDDDDDDDDjbbbbbbxDDDDDDDDDDDDDDDDDDDDDDDDDD  5cnnbnbbbbbbbbbbbbnDDDDDDDDDDDDDD",
"DDDDDDDDDDDDDDDjnbmbnnbbbmnnbnbbbi#DDDDDDDDDDDDDDDDDDDDDDDDnbbbbbbiDDDDDDDDDDDDDDDDDDDDDDDDDDD  4xnnnnbnbbbbbbbvnbvDDDDDDDDDDDDD",
"DDDDDDDDDDDDDDDvbbbbnbbbnbnnnnbbz>DDDDDDDDDDDDDDDDDDDDDDDDxbnvnnbvDDDDDDDDDDDDDDDDDDDDDDDDDDDDD  7nnnnnnbnvnnnnnnnnDDDDDDDDDDDDD",
"DDDDDDDDDDDDDDjnnbbbnnnnnnnnnnbz2DDDDDDDDDDDDDDDDDDDDDDDDxnbnbvvniDDDDDDDDDDDDDDDDDDDDDDDDDDDDDD $ynvnnnnvnnnnnnnvnvDDDDDDDDDDDD",
"DDDDDDDDDDDDDDxnnvbvnnnnnnnvnvx3DDDDDDDDDDDDDDDDDDDDDDDDlnnnvnnnxDDDDDDDDDDDDDDDDDDDDDDDDDDDDDDDD $hvvvnnvvnvnvvvvnvDDDDDDDDDDDD",
"DDDDDDDDDDDDDhnnvnvnvvvvvvvnbveDDDDDDDDDDDDDDDDDDDDDDDDDvnvvvvvvgDDDDDDDDDDDDDDDDDDDDDDDDDDDDDDDDD 1zvvvvvvvvvvvvvvvxDDDDDDDDDDD",
"DDDDDDDDDDDDDxvvvvvvvvvvvvvvvh$DDDDDDDDDDDDDDDDDDDDDDDDxvvvvvvvv9DDDDDDDDDDDDDDDDDDDDDDDDDDDDDDDDDD 5cvvvvvvvvvvvvvvnDDDDDDDDDDD",
"DDDDDDDDDDDDfvvvvvvvvvvvvvvvc5DDDDDDDDDDDDDDDDDDDDDDDDlvvvvvvvvxDDDDDDDDDDDDDDDDDDDDDDDDDDDDDDDDDDDD+ivvcvvvvvvvvvvcvxDDDDDDDDDD",
"DDDDDDDDDDDDxvvvvvccvvvvcvvceDDDDDDDDDDDDDDDDDDDDDDDDDxvvvvvcvvjDDDDDDDDDDDDDDDDDDDDDDDDDDDDDDDDDDDD :zvcvvccvccvvvvvxDDDDDDDDDD",
"DDDDDDDDDDDexvvvvvvvvccvcvcz=DDDDDDDDDDDDDDDDDDDDDDDDjcvxcccvvclDDDDDDDDDDDDDDDDDDDDDDDDDDDDDDDDDDDDDXevvcxvvvcvxvxvvvxDDDDDDDDD",
"DDDDDDDDDDDjvvcvvcxvxvvvvcveDDDDDDDDDDDDDDDDDDDDDDDDDxvcvccvxvvxDDDDDDDDDDDDDDDDDDDDDDDDDDDDDDDDDDDDDD=jvxvxvxxvvxvxxvxDDDDDDDDD",
"DDDDDDDDDDDxxxvxvxvvvxxvccl;DDDDDDDDDDDDDDDDDDDDDDDDfvxvvcccvxcchDDDDDDDDDDDDDDDDDDDDDDDDDDDDDDDDDDDDD 5xvxvvxcvxvcccxcDDDDDDDDD",
"DDDDDDDDDDyxvvxvcccxxvccxxeDDDDDDDDDDDDDDDDDDDDDDDDDxxxvxccxcxvvxlDDDDDDDDDDDDDDDDDDDDDDDDDDDDDDDDDDDDD*lxvxcxcxxvxcvxxzDDDDDDDD",
"DDDDDDDDDDjcxxcxcxxvxcxccl:DDDDDDDDDDDDDDDDDDDDDDDDexvxxxcxvxvxxxxxxDDDDDDDDDDDDDDDDDDDDDDDDDDDDDDDDDDD.qxxxvxxccxcxxccxDDDDDDDD",
"DDDDDDDDDDxxxvxcxvxccxcxxeDDDDDDDDDDDDDDDDDDDDDDDDDhxxxvxxxxcxxxcxcxxcxxDDDDDDDDDDDDDDDDDDDDDDDDDDDDDDDD>zxxxxxcxcxxxxxxDDDDDDDD",
"DDDDDDDDD9xxxxxxxcxcxxxxx3DDDDDDDDDDDDDDDDDxDDDDDDDxxxxcxcxxxxxxxxxxxxxxxxxDDDDDDDDDDDDDDDDDDDDDDDDDDDDD.yxxxxxxxxxxxxxxlDDDDDDD",
"DDDDDDDDDyxxxxxxxxxxxxxxfDDDDDDDDDDDDDDDDDDDxDDDDD0xxxxxxxxxxxxxxxxxxxxxxxxzDDDDDDDDDDDDDDDDDDDDDDDDDDDDD5zxxxxxxxxxxxxxzDDDDDDD",
"DDDDDDDDDhxxxxxxxxxxxxxx0DDDDDDDDDDDDDDDDDDDxDDDDDexxxxxxxxxxxzxxxxxxxxxxzxxxDDDDDDDDDDxDDDDDDDDDDDDDDDDD*jxzxxzxxxxxxzxzDDDDDDD",
"DDDDDDDDDlzxxxxxxzxxzxxz1DDDDDDDDDDDDDDDDDDDxzDDDDfzxxxxxzzxzzxxxzxxxzzxxzzxzzDDDDDDDDlzDDDDDDDDDDDDDDDDDXixzxxxzxxzxzzzzDDDDDDD",
"DDDDDDDD6zzxxxzxzxzxzxzjDDDDDDDDDDDDDDDDDDDfxlDDDDlxzxzzxzxzzxzxzxzxzxzxzxxzxzzDDDDDDDlzDDDDDDDDDDDDDDDDDD7zzzzzzzzzzxzzxhDDDDDD",
"DDDDDDDD0zzzxzzzxzzzxzzfDDDDDDDDDDDDDDDDDDDizzDDDDkzzzzzzzzzzzzzzxzzzzzzzxzzzzzDDDDDDDzzlDDDDDDDDDDDDDDDDD1zzzzzzzzzzzzzzlDDDDDD",
"DDDDDDDDezxzzzxzzzzzzzz0DDDDDDDDDDDDDDDDDDDfzzDDDDjzzzzzzzzzzzzzzzzzzzzzzzzzzzzlDDDDDDlzlDDDDDDDDDDDDDDDDD*hlzzzzzzzzlzzllDDDDDD",
"DDDDDDDDhzzzzzzlzzzzzzlDDDDDDDDDDDDDDDDDDDDkzlDDDDrzlzlzzzzlzlzllzllzzzllzzlzzllDDDDDDjzzDDDDDDDDDDDDDDDDDOfzzzzzzlzzzzzzlDDDDDD",
"DDDDDDDDhzlzzlzzzllzlzlDDDDDDDDDDDDDDDDDDDtlzlDDDD6lzzzllzlzlzlzzlzzlllzlllzlllzhDDDDDilllDDDDDDDDDDDDDDDDDellllllzlllllllDDDDDD",
"DDDDDDDDhzzlzlzlllzlzlfDDDDDDDDDDDDDDDDDDDjzlhDDDD;hzlzzlzlllllzzlzllllllzlzlzlljDDDDD9llzkDDDDDDDDDDDDDDDD5zlllllllllllllDDDDDD",
"DDDDDDDDjzllllllllllllhDDDDDDDDDDDDDDDDDDhlzzfDDDDD4jzllllllllllllllllzllllllllllDDDDDDjllljDDDDDDDDDDDDDDD5llllllllllllllDDDDDD",
"DDDDDDD5klllllllllllllfDDDDDDDDDDDDDDDDDflllz0DDDDD 2jlllllllllllllllllllllllllllDDDDDDqlllllDDDDDDDDDDDDDD5kllllklllkllllfDDDDD",
"DDDDDDD5llllllllllllkl9DDDDDDDDDDDDDDDDjllklhDDDDDDD 1ikllklllkllkkllllllklklklllDDDDDD>hljlllDDDDDDDDDDDDD=flklklklklklklfDDDDD",
"DDDDDDD5klkllkljklkllj7DDDDDDDDDDDDDDDhllllleDDDDDDDD #5ikllkllkkkljljljljklklkllDDDDDDD0ljllljjDDDDDDDDDDDDfljlljlllljlklhDDDDD",
"DDDDDDD2jklljllklklkll7DDDDDDDDDDDDDDhllljkl3DDDDDDDDD  #2ihljljkljlljklllkkjlljjDDDDDDD-hlkjlljjDDDDDDDDDDDfjlljlljklljjlfDDDDD",
"DDDDDDD2lllllljljljljj9DDDDDDDDDDDDDljljjljfDDDDDDDDDDD   @;0fklklljklljjjkkjljkaDDDDDDDD8jjjljlljDDDDDDDDDDflljjljlljjlljfDDDDD",
"DDDDDDD2jjjjjkljkkljjlDDDDDDDDDDDDDjjljlljl0DDDDDDDDDDDDD   .%7hjjjlkkjljlkkkjlj0DDDDDDDD=flkkjjljjjDDDDDDDDfjjjljjjjkjjljfDDDDD",
"DDDDDDD2jkjkkjkkjljlkkDDDDDDDDDDDDgjjkjkljh7DDDDDDDDDDDDDDD   X=0jjkkjkjkjjkkljhDDDDDDDDDD0jkjjkjkjkjDDDDDDDfjjkjjjljjkjjkfDDDDD",
"DDDDDDD1jjkkjkjjjjjjjj0DDDDDDDDDDfjkjkjjjjgDDDDDDDDDDDDDDDDDD   $0jjjjjkjkkjjjj0DDDDDDDDDD5jkjkjjjkjjjDDDDDDfjjkjkjjkjjjjjfDDDDD",
"DDDDDDD2jkkjjkkjjkjkjkiDDDDDDDDDDhjjjjjkjjhDDDDDDDDDDDDDDDDDDDD  $yjjjjjjjjjjjfDDDDDDDDDDD5jjjjjjjjjjjfDDDD2jjjjjjjjjjjjjjuDDDDD",
"DDDDDDD;fjjjjjjjjjjjjjfDDDDDDDDDejjjkjjjjjjeDDDDDDDDDDDDDDDDDDDD  5jjjjjjjjjjh6DDDDDDDDDDD6hjjjjjjjjjjhDDDD6hjjjjhjjjjjjjj9DDDDD",
"DDDDDDDDijjjjjjjjjjjjjfDDDDDDDDD0jjjjjjjjjjsDDDDDDDDDDDDDDDDDDDDD =fhhjjjjjjj7DDDDDDDDDDDDyjhjhjjhjhjjjiDDD6hjjjjjjhjjjjhhDDDDDD",
"DDDDDDDDijjhhjjhjhhjjhfDDDDDDDDDehjhhjjhjhjhiDDDDDDDDDDDDDDDDDDDDD+ihjgjhhhhw*DDDDDDDDDDD6hhjhjhgjgjhhgfDDDwjhgjhhjhhghghhDDDDDD",
"DDDDDDDDyjhhhjjhjhhjjjhDDDDDDDDDwgghhjjhjhhjfDDDDDDDDDDDDDDDDDDDDD+ihghghjhq*DDDDDDDDDDDDfhhghhgghgghhgfDDDigghhhghhghhjhhDDDDDD",
"DDDDDDDD7hhjhhghgjhhhhhDDDDDDDDD6jhhhgggghgghhDDDDDDDDDDDDDDDDDDDD@ihjhjhhy%DDDDDDDDDDDDffghggjgjgjhhhhiDDDigghhjgggghgggsDDDDDD",
"DDDDDDDD2hhhghhhghghhhhiDDDDDDDD5ghgggggfhhgfhfDDDDDDDDDDDDDDDDDDD>fghgghf2DDDDDDDDDDDDfghhhgghhgggghhgiDD2fhhhffhghfhfhgyDDDDDD",
"DDDDDDDD<fhgggghgggggfffDDDDDDDD5ghhggggggggghhfDDDDDDDDDDDDDDDDDD9ffgffs2DDDDDDDDDDDDfhfgfhfhfffgffhff9DD5ffggghhfggghhfeDDDDDD",
"DDDDDDDD$ihffgfgggghghgfDDDDDDDD5gffhffghgfffgfgffDDDDDDDDDDDDDDDDyhfhff1DDDDDDDDDDDfffffhgffhfffggffffDDD0ffffffgfhfffff6DDDDDD",
"DDDDDDDDDeffgffhffffffffeDDDDDDD%efgfgffffgfgffgfffDDDDDDDDDDDDDD9fhffi1DDDDDDDDDDifffhfgfffffffffffff7DDDiffffffffgffffdDDDDDDD",
"DDDDDDDDD6ffffffffffffffiDDDDDDDD2fffffffffffffffffffDDDDDDDDDDDDffffi1DDDDDDDDDifffffffffffffffffffi6DDD5ffffffffffffffyDDDDDDD",
"DDDDDDDDD>fffffffffffffffDDDDDDDDO9ffffffffffffffffffdDDDDDDDDDDeffff2DDDDDDDDDiffffffffffffffffffi6*DDDD0affdfffffffafa0DDDDDDD",
"DDDDDDDDD$effffffffffffffeDDDDDDDD:yaffffffffffsfiffffDDDDDDDDDepfff9@DDDDDDDDiffiffaffffffffffffy>XDDDDDiffffdffffsffff6DDDDDDD",
"DDDDDDDDDD9ffsdfffafdffffiDDDDDDDD.6fffffififpfsffafifDDDDDDDDeaffie%DDDDDDDDDfffafifafififdsfify> DDDDD7ifaiffsisfsfifyDDDDDDDD",
"DDDDDDDDDD1iffsfifffifffpsDDDDDDDDD:ifafdsffsfsffsafdsyDDDDDDeffiff5DDDDDDDDD7iffissfffiffiffisd2DDDDDDDypdfaaaaffifsfi0DDDDDDDD",
"DDDDDDDDDD%eiffiffififififyDDDDDDDDX9faaifififfiiffiifeDDDDDyififie%DDDDDDDDD0aaiffiiissiddiiff0$DDDDDD5ifiiifiaisfifia5DDDDDDDD",
"DDDDDDDDDDD7fiiapiifisidifaDDDDDDDDD2aifpfiiifiiififdfeDDDD0iaiaif8DDDDDDDDDDeiadfisidifddiaiai5DDDDDDDediifsiiaiiiiifeDDDDDDDDD",
"DDDDDDDDDDD>ypsiifiififiaiayDDDDDDDD*yaiisifpiififidis0DDDDifiaapi6DDDDDDDDDD9iiisisasiiiiaapiy*DDDDDD0iipaiiaaiafiiii0DDDDDDDDD",
"DDDDDDDDDDD@qiaiaiafaiaiiiiieDDDDDDDo0iaiaiiiifiaiaiii6DDDyaiiaiaieDDDDDDDDDD1iiaiiiipiiiiaiiieDDDDDDDuiifiiiiiaiiiiiy<DDDDDDDDD",
"DDDDDDDDDDDD2iaiiiiiiiiiiasiiDDDDDDDo0iiiiiiiiiiiiiiieDDDyiiaiiiiiyDDDDDDDDDD=yiipiiiiiiiiiiiy7DDDDDD0iiiiiiiiiiiiiii0DDDDDDDDDD",
"DDDDDDDDDDDD$qiiiiiiiiiiiiiiiuDDDDDDD0iiiiiiiiiiiiiiy2DDeiiiiiiiiiy0DDDDDDDDDD5iiiiiiiiiiiiiii7DDDDDDyiiiiiiiiiiiiiiy5DDDDDDDDDD",
"DDDDDDDDDDDD 5yiiiiiiiiiiiiiiiDDDDDDD0iiiiiiiiiiyiii6DD7iiyiiyiyiiiyDDDDDDDDDD#9iyiyiyiiiiyiyi8DDDDDeiyiyiiyiiyiiiyieDDDDDDDDDDD",
"DDDDDDDDDDDDD$wiiiiiiyiitiyiiiyDDDDDD0yiiiiiyiiyyie2$D<tyiyiyiyiyiyyyDDDDDDDDDD*6yyiiyiiytiyiyeDDDD0yiiyitytitiyyiyt4DDDDDDDDDDD",
"DDDDDDDDDDDDD 4yyytytiuiyiyityitDDDD4tiiyyyyiyiye0< D@0yiiyiiiyiyiyiiyeDDDDDDDD +2euyyyyitiuyye2DD0yyyyyyyyiutyyuyy0DDDDDDDDDDDD",
"DDDDDDDDDDDDDD$0ttyyuuyytyyyutyyeDDDetyyyitttttt6% DD2eyttyyttyyyytyyyyteDDDDDDD X;8yryuttttuyy0D6euttuuytyyuuyytuy2DDDDDDDDDDDD",
"DDDDDDDDDDDDDD 1tiyyttuuitttyuyye9D9ttyyyyttett1+ DDD0yuttetttetttttettyey0DDDDDD  $4ttytttttyyy0eyyttttttyyttettt6DDDDDDDDDDDDD",
"DDDDDDDDDDDDDDD+6yyytyttttttyyyyeteeyuuyuyryuu7+ DDD1teteeteueytttetetettete02DDDD  @7yyeeyeytyteteteyytyeyeyeyeee;DDDDDDDDDDDDD",
"DDDDDDDDDDDDDDD =0teeretetteetteeyyeeueeteeyee; DDDD7eteetetettetetteetyteetee4DDDD  1eeetyeeeeyeyeyeeeeeueteteee5DDDDDDDDDDDDDD",
"DDDDDDDDDDDDDDDD.2teeyteeteeeyueyeetueeteeteee=DDDD*weetteeyeeeeeeteeteeeereeee1DDDD *0eeeeeeeeeyeeeeeeeeeeeeeee7%DDDDDDDDDDDDDD",
"DDDDDDDDDDDDDDDDD+6eeeeeeeeeeeeeeeeeeeeeeeeeee;DDDD>eeeeeeeeeeeeeeeeeeeeeeeeeee9DDDD *0eeeeeeeeeeeeeeeeeeeeeeee0:DDDDDDDDDDDDDDD",
"DDDDDDDDDDDDDDDDD =9eeeeeeeeeeeeeeeeeeeeeeeeee2DDDD5eeeeeeeeeeeweeeeeeeeeeeeeee0DDDD.2eeeeeeeeeweeeeeeeeeqeeeee2DDDDDDDDDDDDDDDD",
"DDDDDDDDDDDDDDDDDD <eeewweeeqee0qeeqqeeeqee0qe0DDDD7eeeewee0eeeee0eee0ee0eweweee2DDD@60ee0eeeqeeeeqeeweweee0qe6DDDDDDDDDDDDDDDDD",
"DDDDDDDDDDDDDDDDDDDo20qeeqeee0eqqe0eeeweqeeweeq6DD;0ee0eeee00ewee0ewe0eweeeee0ew5DDD10eeweew0eeeewewew0eewqee7*DDDDDDDDDDDDDDDDD",
"DDDDDDDDDDDDDDDDDDD o5eeqe0eeeeqewee0ee0ee0e0eq0221000eq0eweew0e0eqe0eqqe00e0ew01DD:9e0ee0e0e00e0e0e0e0ewe0e7*DDDDDDDDDDDDDDDDDD",
"DDDDDDDDDDDDDDDDDDDD %70ee0e0ee0ee0e0eew0e0eqe0e8000eee0ewwq0qe0eqqwwwqq0e0eqq00<-,7qqq000wqq0eee00w0qq0e0w0>DDDDDDDDDDDDDDDDDDD",
"DDDDDDDDDDDDDDDDDDDDD &600qwq00e0ww0wq0w00e000e0097w000q0e0eee0q0qe00e0eq0w0qqe066900e0e0ew0wq0000ewe00e000<DDDDDDDDDDDDDDDDDDDD",
"DDDDDDDDDDDDDDDDDDDDDD *6ee0000we0e00qq0qe0ewe0e00000ee0000w000qe000q0e0e00e0q07670wq0e00ww0w0000e0w0q0w00<DDDDDDDDDDDDDDDDDDDDD",
"DDDDDDDDDDDDDDDDDDDDDDD %60q0e00000q000q000000000qw000000e00q00000e000000000q0000000000w00w00000000w00000<DDDDDDDDDDDDDDDDDDDDDD",
"DDDDDDDDDDDDDDDDDDDDDDDD *60w000000000000000000000000000000000000000000000000000000000000000000000000000>DDDDDDDDDDDDDDDDDDDDDDD",
"DDDDDDDDDDDDDDDDDDDDDDDD  %6000000000000000000000000000000000000000000000000009000000000000000000000007>DDDDDDDDDDDDDDDDDDDDDDDD",
"DDDDDDDDDDDDDDDDDDDDDDDDDD $10000000008000000000000000900800000000080000000089000090009000908080000005*DDDDDDDDDDDDDDDDDDDDDDDDD",
"DDDDDDDDDDDDDDDDDDDDDDDDDDD o<00090000080980090000009000000880900880990880808090900909098800909099086%DDDDDDDDDDDDDDDDDDDDDDDDDD",
"DDDDDDDDDDDDDDDDDDDDDDDDDDDD X=68909090988090888988808089888080808880808880880089008980988099988990>#DDDDDDDDDDDDDDDDDDDDDDDDDDD",
"DDDDDDDDDDDDDDDDDDDDDDDDDDDDD  %208888888989888089888888898888889088998988888888988898998888908996=XDDDDDDDDDDDDDDDDDDDDDDDDDDDD",
"DDDDDDDDDDDDDDDDDDDDDDDDDDDDDD  o:699999889997799999999899999998998999998979999799978899897999071%DDDDDDDDDDDDDDDDDDDDDDDDDDDDDD",
"DDDDDDDDDDDDDDDDDDDDDDDDDDDDDDDD  %169997889999999799977997999777797797987997997979797978799795=XDDDDDDDDDDDDDDDDDDDDDDDDDDDDDDD",
"DDDDDDDDDDDDDDDDDDDDDDDDDDDDDDDDD  X=59997977979879877777797799778977777797777777777777797776>+ DDDDDDDDDDDDDDDDDDDDDDDDDDDDDDDD",
"DDDDDDDDDDDDDDDDDDDDDDDDDDDDDDDDDD   o;5777777777777977787777777777777777777777777777777776,% DDDDDDDDDDDDDDDDDDDDDDDDDDDDDDDDDD",
"DDDDDDDDDDDDDDDDDDDDDDDDDDDDDDDDDDDD   o=577777977777777779777777777777677776777777779776<$.DDDDDDDDDDDDDDDDDDDDDDDDDDDDDDDDDDDD",
"DDDDDDDDDDDDDDDDDDDDDDDDDDDDDDDDDDDDDD   O*16777776777777767777977777777777777777777764=@  DDDDDDDDDDDDDDDDDDDDDDDDDDDDDDDDDDDDD",
"DDDDDDDDDDDDDDDDDDDDDDDDDDDDDDDDDDDDDDDD   .$>56677777777767776667767777777777767765<*o  DDDDDDDDDDDDDDDDDDDDDDDDDDDDDDDDDDDDDDD",
"DDDDDDDDDDDDDDDDDDDDDDDDDDDDDDDDDDDDDDDDDD    X$:26667676767677767777676676767765>*+. DDDDDDDDDDDDDDDDDDDDDDDDDDDDDDDDDDDDDDDDDD",
"DDDDDDDDDDDDDDDDDDDDDDDDDDDDDDDDDDDDDDDDDDDDD    X$*<166677667767676676776662<=$o.  DDDDDDDDDDDDDDDDDDDDDDDDDDDDDDDDDDDDDDDDDDDD",
"DDDDDDDDDDDDDDDDDDDDDDDDDDDDDDDDDDDDDDDDDDDDDDD      .@#*,,,1566665662<,<=$#X.   DDDDDDDDDDDDDDDDDDDDDDDDDDDDDDDDDDDDDDDDDDDDDDD",
"DDDDDDDDDDDDDDDDDDDDDDDDDDDDDDDDDDDDDDDDDDDDDDDDDDD         .++@@+@@@X        DDDDDDDDDDDDDDDDDDDDDDDDDDDDDDDDDDDDDDDDDDDDDDDDDD",
"DDDDDDDDDDDDDDDDDDDDDDDDDDDDDDDDDDDDDDDDDDDDDDDDDDDDDDDD                 DDDDDDDDDDDDDDDDDDDDDDDDDDDDDDDDDDDDDDDDDDDDDDDDDDDDDDD",
"DDDDDDDDDDDDDDDDDDDDDDDDDDDDDDDDDDDDDDDDDDDDDDDDDDDDDDDDDDDDDDDDDDDDDDDDDDDDDDDDDDDDDDDDDDDDDDDDDDDDDDDDDDDDDDDDDDDDDDDDDDDDDDDD",
"DDDDDDDDDDDDDDDDDDDDDDDDDDDDDDDDDDDDDDDDDDDDDDDDDDDDDDDDDDDDDDDDDDDDDDDDDDDDDDDDDDDDDDDDDDDDDDDDDDDDDDDDDDDDDDDDDDDDDDDDDDDDDDDD",
"DDDDDDDDDDDDDDDDDDDDDDDDDDDDDDDDDDDDDDDDDDDDDDDDDDDDDDDDDDDDDDDDDDDDDDDDDDDDDDDDDDDDDDDDDDDDDDDDDDDDDDDDDDDDDDDDDDDDDDDDDDDDDDDD",
"DDDDDDDDDDDDDDDDDDDDDDDDDDDDDDDDDDDDDDDDDDDDDDDDDDDDDDDDDDDDDDDDDDDDDDDDDDDDDDDDDDDDDDDDDDDDDDDDDDDDDDDDDDDDDDDDDDDDDDDDDDDDDDDD",
"DDDDDDDDDDDDDDDDDDDDDDDDDDDDDDDDDDDDDDDDDDDDDDDDDDDDDDDDDDDDDDDDDDDDDDDDDDDDDDDDDDDDDDDDDDDDDDDDDDDDDDDDDDDDDDDDDDDDDDDDDDDDDDDD",
"DDDDDDDDDDDDDDDDDDDDDDDDDDDDDDDDDDDDDDDDDDDDDDDDDDDDDDDDDDDDDDDDDDDDDDDDDDDDDDDDDDDDDDDDDDDDDDDDDDDDDDDDDDDDDDDDDDDDDDDDDDDDDDDD"
};
