/* XPM */
static char *kommander[] = {
/* columns rows colors chars-per-pixel */
"128 128 55 1 ",
"  c black",
". c #000607",
"X c #000A0C",
"o c #000D11",
"O c #001015",
"+ c #00151B",
"@ c #001920",
"# c #001C24",
"$ c #002129",
"% c #00242E",
"& c #002833",
"* c #002C38",
"= c #002E3B",
"- c #00303C",
"; c #003442",
": c #003746",
"> c #003B4B",
", c #003D4E",
"< c #003F50",
"1 c #004152",
"2 c #004153",
"3 c #004355",
"4 c #004557",
"5 c #004558",
"6 c #00475A",
"7 c #00485C",
"8 c #00495C",
"9 c #00485D",
"0 c #00495D",
"q c #004A5F",
"w c #004C61",
"e c #004D61",
"r c #004C62",
"t c #004D62",
"y c #004F64",
"u c #005066",
"i c #005166",
"p c #005369",
"a c #00546B",
"s c #00566D",
"d c #005870",
"f c #005A73",
"g c #005C75",
"h c #005E78",
"j c #006079",
"k c #00607A",
"l c #00627C",
"z c #00637E",
"x c #00637F",
"c c #00647E",
"v c #006580",
"b c #006783",
"n c #006883",
"m c #006986",
"M c None",
/* pixels */
"MMMMMMMMMMMMMMMMMMMMMMMMMMMMMMMMMMMMMMMMMMMMMMMMMMMMMMMMMMMMMMMMMMMMMMMMMMMMMMMMMMMMMMMMMMMMMMMMMMMMMMMMMMMMMMMMMMMMMMMMMMMMMMMM",
"MMMMMMMMMMMMMMMMMMMMMMMMMMMMMMMMMMMMMMMMMMMMMMMMMMMMMMMMMMMMMMMMMMMMMMMMMMMMMMMMMMMMMMMMMMMMMMMMMMMMMMMMMMMMMMMMMMMMMMMMMMMMMMMM",
"MMMMMMMMMMMMMMMMMMMMMMMMMMMMMMMMMMMMMMMMMMMMMMMMMMMMMMMMMMMMMMMMMMMMMMMMMMMMMMMMMMMMMMMMMMMMMMMMMMMMMMMMMMMMMMMMMMMMMMMMMMMMMMMM",
"MMMMMMMMMMMMMMMMMMMMMMMMMMMMMMMMMMMMMMMMMMMMMMMMMMMMMMMMMMMMMMMMMMMMMMMMMMMMMMMMMMMMMMMMMMMMMMMMMMMMMMMMMMMMMMMMMMMMMMMMMMMMMMMM",
"MMMMMMMMMMMMMMMMMMMMMMMMMMMMMMMMMMMMMMMMMMMMMMMMMMMMMMMMMMMMMMMMMMMMMMMMMMMMMMMMMMMMMMMMMMMMMMMMMMMMMMMMMMMMMMMMMMMMMMMMMMMMMMMM",
"MMMMMMMMMMMMMMMMMMMMMMMMMMMMMMMMMMMMMMMMMMMMMMMMMMMMMMMMMMMMMMMMMMMMMMMMMMMMMMMMMMMMMMMMMMMMMMMMMMMMMMMMMMMMMMMMMMMMMMMMMMMMMMMM",
"MMMMMMMMMMMMMMMMMMMMMMMMMMMMMMMMMMMMMMMMMMMMMMMMMMMMMMMMMMMMMMMMMMMMMMMMMMMMMMMMMMMMMMMMMMMMMMMMMMMMMMMMMMMMMMMMMMMMMMMMMMMMMMMM",
"MMMMMMMMMMMMMMMMMMMMMMMMMMMMMMMMMMMMMMMMMMMMMMMMMMMMMMMMMMMMMMMMMMMMMMMMMMMMMMMMMMMMMMMMMMMMMMMMMMMMMMMMMMMMMMMMMMMMMMMMMMMMMMMM",
"MMMMMMMMMMMMMMMMMMMMMMMMMMMMMMMMMMMMMMMMMMMMMMMMMMMMMMMMMMMMMMMMMMMMMMMMMMMMMMMMMMMMMMMMMMMMMMMMMMMMMMMMMMMMMMMMMMMMMMMMMMMMMMMM",
"MMMMMMMMMMMMMMMMMMMMMMMMMMMMMMMMMMMMMMMMMMMMMMMMMMMMMMMMMMMMMMMMMMMMMMMMMMMMMMMMMMMMMMMMMMMMMMMMMMMMMMMMMMMMMMMMMMMMMMMMMMMMMMMM",
"MMMMMMMMMMMMMMMMMMMMMMMMMMMMMMMMMMMMMMMMMMMMMMMMMMMMMMMMMMMMMMMMMMMMMMMMMMMMMMMMMMMMMMMMMMMMMMMMMMMMMMMMMMMMMMMMMMMMMMMMMMMMMMMM",
"MMMMMMMMMMMMMMMMMMMMMMMMMMMMMMMMMMMMMMMMMMMMMMMMMMMMMMMMMMMMMMMMMMMMMMMMMMMMMMMMMMMMMMMMMMMMMMMMMMMMMMMMMMMMMMMMMMMMMMMMMMMMMMMM",
"MMMMMMMMMMMMMMMMMMMMMMMMMMMMMMMMMMMMMMMMMMMMMMMMMMMMMMMMMMMMMMMMMMMMMMMMMMMMMMMMMMMMMMMMMMMMMMMMMMMMMMMMMMMMMMMMMMMMMMMMMMMMMMMM",
"MMMMMMMMMMMMMMMMMMMMMMMMMMMMMMMMMMMMMMMMMMMMMMMMMMMMMMMMMMMMmmmmmmmmmMMMMMMMMMMMMMMMMMMMMMMMMMMMMMMMMMMMMMMMMMMMMMMMMMMMMMMMMMMM",
"MMMMMMMMMMMMMMMMMMMMMMMMMMMMMMMMMMMMMMMMMMMMMMMMMMMMMMMMMMmmmmmmmmmmmmMMMMMMMMMMMMMMMMMMMMMMMMMMMMMMMMMMMMMMMMMMMMMMMMMMMMMMMMMM",
"MMMMMMMMMMMMMMMMMMMMMMMMMMMMMMMMMMMMMMMMMMMMMMMMMMMMMMMMMMmmmmmmmmmmmmmMMMMMMMMMMMMMMMMMMMMMMMMMMMMMMMMMMMMMMMMMMMMMMMMMMMMMMMMM",
"MMMMMMMMMMMMMMMMMMMMMMMMMMMMMMMMMMMMMMMMMMMMMMMMMMMMMMMMMMmmmmmmmmmmmmmmMMMMMMMMMMMMMMMMMMMMMMMMMMMMMMMMMMMMMMMMMMMMMMMMMMMMMMMM",
"MMMMMMMMMMMMMMMMMMMMMMMMMMMMMMMMMMMMMMMMMMMMMMMMMMMMMMMMMlmmmmmmmmmmmmmmMMMMMMMMMMMMMMMMMMMMMMMMMMMMMMMMMMMMMMMMMMMMMMMMMMMMMMMM",
"MMMMMMMMMMMMMMMMMMMMMMMMMMMMMMMMMMMMMMMMMMMMMMMMMMMMMMMMMvmnmnmnmmmmmmmmMMMMMMMMMMMMMMMMMMMMMMMMMMMMMMMMMMMMMMMMMMMMMMMMMMMMMMMM",
"MMMMMMMMMMMMMMMMMMMMMMMMMMMMMMMMMMMMMMMMMMMMMMMMMMMMMMMMumnnmnnnmmmmmmmmMMMMMMMMMMMMMMMMMMMMMMMMMMMMMMMMMMMMMMMMMMMMMMMMMMMMMMMM",
"MMMMMMMMMMMMMMMMMMMMMMMMMMMMMMMMMMMMMMMMMMMMMMMMMMMMMMMMfbbnbbbbbbnbmmbnjMMMMMMMMMMMMMMMMMMMMMMMMMMMMMMMMMMMMMMMMMMMMMMMMMMMMMMM",
"MMMMMMMMMMMMMMMMMMMMMMMMMMMMMMMMMMMMMMMMMMMMMMMMMMMMMMMMxbnnbbnvbbvnmmnnvMMMMMMMMMMMMMMMMMMMMMMMMMMMMMMMMMMMMMMMMMMMMMMMMMMMMMMM",
"MMMMMMMMMMMMMMMMMMMMMMMMMMMMMMMMMMMMMMMMMMMMMMMMMMMMMMMlvnvvbvvnvbvnnvnvvlMMMMMMMMMMMMMMMMMMMMMMMMMMMMMMMMMMMMMMMMMMMMMMMMMMMMMM",
"MMMMMMMMMMMMMMMMMMMMMMMMMMMMMMMMMMMMMMMMMMMMMMMMMMMMMMgvvvnvvnvvvvnvvnvvnnlMMMMMMMMMMMMMMMMMMvMMMMMMMMMMMMMMMMMMMMMMMMMMMMMMMMMM",
"MMMMMMMMMMMMMMMMMMMMMMMMMMMMMMMMMMMMMMMMMMMMMMMMMMMMklvnvvvvvvvvvvvvvvvvvvvvvcMMMMMMMMMMMMMcvvvvMMMMMMMMMMMMMMMMMMMMMMMMMMMMMMMM",
"MMMMMMMMMMMMMMMMMMMMMMMMMMMMMMMMlvvvvvvMMMMMMMMMMMcvvvvvvvvvvvvvvvvvvvvvvvvvvvcvMMMMMMMMMkcvvvvvvlMMMMMMMMMMMMMMMMMMMMMMMMMMMMMM",
"MMMMMMMMMMMMMMMMMMMMMMMMMMMMMMMkxvxxvcvxMMMMMMMlvvvvvxcxvvvvvvxvxvvvvvvxvxvvvvvvvllMMMMklvvvvvxvvvlMMMMMMMMMMMMMMMMMMMMMMMMMMMMM",
"MMMMMMMMMMMMMMMMMMMMMMMMMMMMMMhcvxxxxvccvlMMlcxccxcxxcvxxxxxccxvxxvxxxxxlvzzlvcvvvzvclcvvxxclvxxlvvMMMMMMMMMMMMMMMMMMMMMMMMMMMMM",
"MMMMMMMMMMMMMMMMMMMMMMMMMMMMMhvlccxccxcxcxccccxcxcxxccxxcxxxccccxcxcccxcvlvlvlvllvlvlvvllcxcccxccxcckMMMMMMMMMMMMMMMMMMMMMMMMMMM",
"MMMMMMMMMMMMMMMMMMMMMMMMMMMMhlvlxxlxxlcxclcllxlxlclccxxlcclllcllxlcxxlcxvllzlvlxllvlzllcccxlxlxllxlclMMMMMMMMMMMMMMMMMMMMMMMMMMM",
"MMMMMMMMMMMMMMMMMMMMMMMMMMMdlzllcllcllllxllxlcxllxclclllclcllclcllclllxllllxllvllvllllcllllclllzlccllkMMMMMMMMMMMMMMMMMMMMMMMMMM",
"MMMMMMMMMMMMMMMMMMMMMMMMMMMklllllllllllllllllllllllllllllllllllllllllllllllllllllllllllllllllllllllllkMMMMMMMMMMMMMMMMMMMMMMMMMM",
"MMMMMMMMMMMMMMMMMMMMMMMMMMMkllllllllllllllllllllllllllllkllllllllllllllllllllllllllllllllllllllllllllkMMMMMMMMMMMMMMMMMMMMMMMMMM",
"MMMMMMMMMMMMMMMMMMMMMMMMMMMhklklljlkkllkkllkkllkkllklkllllljlkkljlkllklljlklklkljlkllklljlkllklklkllkhMMMMMMMMMMMMMMMMMMMMMMMMMM",
"MMMMMMMMMMMMMMMMMMMMMMMMMMMiklkkkkklljlkkljlljjkklkkjklkjljkklkkklljjklkklklljlkkklkjkkkkllkjkklkklklsMMMMMMMMMMMMMMMMMMMMMMMMMM",
"MMMMMMMMMMMMMMMMMMMMMMMMMMMMelkkkjjjkkjkjkkjjlkkjlkkjjjkjkkjjlkkjjkkkkkkjjkkjjkkjkkkjjkkjjkjjjkkkkkkfMMMMMMMMMMMMMMMMMMMMMMMMMMM",
"MMMMMMMMMMMMMMMMMMMMMMMMMMMM*fkjkjkkkjkjjkjkjjjjkkkjkkhjjhkkkjkkjkjjkjhkjjjjkkhkjjjjhkkkjjhkjhkkhkhd>MMMMMMMMMMMMMMMMMMMMMMMMMMM",
"MMMMMMMMMMMMMMMMMMMMMMMMMMMMX6jkjjhkkhkhjkhkhhkhkhhjhhjhhkhjhjjhhhhhkhjhhhjhhkkhjhhhkkhhhjjhjhhjjkh3MMMMMMMMMMMMMMMMMMMMMMMMMMMM",
"MMMMMMMMMMMMMMMMMMMMMMMMMMMMM-hhhhjhhjhjhhkhhkhhhjkhhjhhhkhjhjhjkhhjhjjhhjhhhhhhhhhjkhhhkhhhhhhhhhgMMMMMMMMMMMMMMMMMMMMMMMMMMMMM",
"MMMMMMMMMMMMMMMMMMMMMMMMMMMMMOphhhhhhhhhhhhhhhhhhhhhhhhhhhhhhhhhhhhhhhhhhhhhhhhhhhhhhhhhhhhhhhhhhhiMMMMMMMMMMMMMMMMMMMMMMMMMMMMM",
"MMMMMMMMMMMMMMMMMMMMMMMMMMMMM.ihhhhhhhhhhhhhhhhhhhhhhhhhhhhhhhhghhhhhhghhhhhhghhhhghhhhhghhhhgghhhqMMMMMMMMMMMMMMMMMMMMMMMMMMMMM",
"MMMMMMMMMMMMMMMMMMMMMMMMMMMMMM8hfhhhhhghhhhhfhfhghhghghgfhghghghhhhgghghghhgghghghhhhghfhhghghhghhfMMMMMMMMMMMMMMMMMMMMMMMMMMMMM",
"MMMMMMMMMMMMMMMMMMMMMMMMMMMMMM9hhghffhfhhghghhhgfhghfhhhhfhgghghgghhfhgghgghghfhghgffhghhfhhfhghhhf6MMMMMMMMMMMMMMMMMMMMMMMMMMMM",
"MMMMMMMMMMMMMMMMMMMMMMMMMMMMMMihfhhfhfhhfhfhffhghhffhffhfhfhgfhfggfgggggfhfgggggggghgggfggffhffhffgsMMMMMMMMMMMMMMMMMMMMMMMMMMMM",
"MMMMMMMMMMMMMMMMMMMMMMMMMMMMM3ggffhfggfffhfhfhfhhfghfhfhggfhiy>%%%;qyphffhfgfhfgfhggfghfggggggfggfhdMMMMMMMMMMMMMMMMMMMMMMMMMMMM",
"MMMMMMMMMMMMMMMMMMMMMMMMMMMMMpgfhfhffhhfffgfgffffgfgfffffp3&...    ..+=5dffgffgggffggfgffgfgfgfggfgfpMMMMMMMMMMMMMMMMMMMMMMMMMMM",
"MMMMMMMMMMMMMMMMMMMMMMMMMMMM<fgfffffffgfgffgfgfffgffgfds3+X            X&6sfffffffffffffffffffffffffdMMMMMMMMMMMMMMMMMMMMMMMMMMM",
"MMMMMMMMMMMMMMMMMMMMMMMMMMMMyfffffffffffffffffffffffff6&.   MMMMMMMM     o*afffffffffffffffffffffffffMMMMMMMMMMMMMMMMMMMMMMMMMMM",
"MMMMMMMMMMMMMMMMMMMMMMMMMMMMsfffffffffffdfdffdfffffdd:.  MMMMMMMMMMMMMM    -sddffdffdffdfffffdffdffffsMMMMMMMMMMMMMMMMMMMMMMMMMM",
"MMMMMMMMMMMMMMMMMMMMMMMMMMM9dfdffdffdddffffddfdfddfd: MMMMMMMMMMMMMMMMMMM   #8ddfdfdfdfdddddfddddfddfdMMMMMMMMMMMMMMMMMMMMMMMMMM",
"MMMMMMMMMMMMMMMMMMMMMMMMMMMpddffdfdddddffddddfddfdd,.MMMMMMMMMMMMMMMMMMMMMM  ;addddfddddddddddfdddddddpMMMMMMMMMMMMMMMMMMMMMMMMM",
"MMMMMMMMMMMMMMMMMMMMMMMMMM5dddddddddddddddddddddddy@MMMMMMMMMMMMMMMMMMMMMMMM  =pdddddddddddddddddddddddMMMMMMMMMMMMMMMMMMMMMMMMM",
"MMMMMMMMMMMMMMMMMMMMMMMMM9sdddddddddddsdddddddsdsp*MMMMMMMMMMMMMMMMMMMMMMMMMM  :sddddddsddddsddsddsdddssaMMMMMMMMMMMMMMMMMMMMMMM",
"MMMMMMMMMMMMMMMMMMMMMMMMysdsdssdsdssdsdssdsdssdsd3MMMMMMMMMMMMMMMMMMMMMMMMMMMM #yssssssssssdssdssddssdsdsssMMMMMMMMMMMMMMMMMMMMM",
"MMMMMMMMMMMMMMMMMMMMMassdssdsssssssddssssssdsssss&MMMMMMMMMMMMMMMMMMMMMMMMMMMMM >ssssdsssdssssdsssssssdssssssssMMMMMMMMMMMMMMMMM",
"MMMMMMMMMMMMMMMMMMpsssssssssssssssssssssssssssssyMMMMMMMMMMMMMMMMMMMMMMMMMMMMMM @yssssssssssssssssssssssssssssssMMMMMMMMMMMMMMMM",
"MMMMMMMMMMMMMMMMMpsssssssssssssssssssassssssssss2MMMMMMMMMMMMMMMMMMMMMMMMMMMMMMMo5ssssssssssssasssssssssssassasssMMMMMMMMMMMMMMM",
"MMMMMMMMMMMMMMMMMssssaasassssaspsssssssasssaasas*MMMMMMMMMMMMMMMMMMMMMMMMMMMMMMMM-sasasapsasspsssssspsspsssaasassMMMMMMMMMMMMMMM",
"MMMMMMMMMMMMMMMM9saaassapspsssssaaaasassasaasasqMMMMMMMMMMMMMMMMMMMMMMMMMMMMMMMMM*aspsssspsppssspsapsaassppspspsaMMMMMMMMMMMMMMM",
"MMMMMMMMMMMMMMMM5aapsppssaappapsaspapspppaapaapqMMMMMMMMMMMMMMMMMMMMMMMMMMMMMMMMM$upappapsaaappssppspsppapsaspsppMMMMMMMMMMMMMMM",
"MMMMMMMMMMMMMMMM2papapapppapapapapapaaspapspapaqMMMMMMMMMMMMMMMMMMMMMMMMMMMMMMMMMM9spspspspaaapppapapsppppsapspsaMMMMMMMMMMMMMMM",
"MMMMMMMMMMMMMMMM<pappaapaapapapapppapppppapaappeMMMMMMMMMMMMMMMMMMMMMMMMMMMMMMMMMM9ppppppppppapaapapppspsppppppppMMMMMMMMMMMMMMM",
"MMMMMMMMMMMMMMMM>ppapapppppppppaapppappppppppppqMMMMMMMMMMMMMMMMMMMMMMMMMMMMMMMMMM9ppppppppppppppppppppppppppppppMMMMMMMMMMMMMMM",
"MMMMMMMMMMMMMMMM:ppppppppppppppppppppppppppppppqMMMMMMMMMMMMMMMMMMMMMMMMMMMMMMMMM%ippppppppppipppppppppiippppppppMMMMMMMMMMMMMMM",
"MMMMMMMMMMMMMMMM:ppppppipppiippippppipipppipppiwMMMMMMMMMMMMMMMMMMMMMMMMMMMMMMMMM;ipppppppippupppippipupippppipipMMMMMMMMMMMMMMM",
"MMMMMMMMMMMMMMMM:iiiuiiuuupiipiiiiuipipiuipiupiuMMMMMMMMMMMMMMMMMMMMMMMMMMMMMMMMM;iiiuiiuipipiuipiiiipiuuuuipiiuiMMMMMMMMMMMMMMM",
"MMMMMMMMMMMMMMMM*iiiuiiuuuuuipuuuiiiuiuuuiiiuiuuMMMMMMMMMMMMMMMMMMMMMMMMMMMMMMMMM6uuiiuiuuuuuuuuuuuuiuuiiuuuuuuuqMMMMMMMMMMMMMMM",
"MMMMMMMMMMMMMMMMM<uuuuiiuuiuuuiuuuuuuuuuuuuuuuyiqMMMMMMMMMMMMMMMMMMMMMMMMMMMMMMMMqiuuuuuiiuuyiiiuuiiuuuuiiiiuuii<MMMMMMMMMMMMMMM",
"MMMMMMMMMMMMMMMMM+<86iyyiiiyiyiiiiyuiyuyiiiyyiyiiMMMMMMMMMMMMMMMMMMMMMMMMMMMMMMM2yiiyiiiiiyiyuuiiuiyiiyiiyiii66>MMMMMMMMMMMMMMMM",
"MMMMMMMMMMMMMMMMMMXXO&>8iyiyyiyyiyyyyiyiyiyyiyiyyqMMMMMMMMMMMMMMMMMMMMMMMMMMMMMMqiyyyyyyyyiyiyyyyyyiiyyyyy<=&OMMMMMMMMMMMMMMMMMM",
"MMMMMMMMMMMMMMMMMMM   .o&3yyyyyyyyyyyyyyyyyyyyyyyyMMMMMMMMMMMMMMMMMMMMMMMMMMMMM2yyyyyyyyyyyyyyyyyyyyyyyr2&o  MMMMMMMMMMMMMMMMMMM",
"MMMMMMMMMMMMMMMMMMMM     #3yyyyyyyyyyyyyyyyyyyyyyyyMMMMMMMMMMMMMMMMMMMMMMMMMMMMqyyyyyyyyyyyyyyyyyyyyyyq*o   MMMMMMMMMMMMMMMMMMMM",
"MMMMMMMMMMMMMMMMMMMMMM    #3yyywyyyryywyyqyyyytyeyy9MMMMMMMMMMMMMMMMMMMMMMMMMM8eyeyyqywyryryytyyryrywy>o MMMMMMMMMMMMMMMMMMMMMMM",
"MMMMMMMMMMMMMMMMMMMMMMMM   -yqyyyryrwyyqyryqqyyeyqyyqMMMMMMMMMMMMMMMMMMMMMMMM3qyyqwyytyeyryyqyttyrerye&MMMMMMMMMMMMMMMMMMMMMMMMM",
"MMMMMMMMMMMMMMMMMMMMMMMMMM #8ywqwywyyweytyqyyyqytqyqy9MMMMMMMMMMMMMMMMMMMMMM6ryqwyyeqtyyqyyqyqrtrweyy,oMMMMMMMMMMMMMMMMMMMMMMMMM",
"MMMMMMMMMMMMMMMMMMMMMMMMMMM.:rqyqrwqqyqqyqeyqryqqyqyqeqMMMMMMMMMMMMMMMMMMMMqqrqyyqqyyqqtqqwwqyrrwwwqw*MMMMMMMMMMMMMMMMMMMMMMMMMM",
"MMMMMMMMMMMMMMMMMMMMMMMMMMM &qqyqyqqqyqrwqyqqryqqyqyeyqqMMMMMMMMMMMMMMMMM99yqrqyrqrqeqwwqtqrrqrrwqrq9#MMMMMMMMMMMMMMMMMMMMMMMMMM",
"MMMMMMMMMMMMMMMMMMMMMMMMMMMMO3qqqqwyqqqqrqqqwqqrqqqqqqrqeq9MMMMMMMMMMMM8qeqqrqqqwqqwqqqqrqqqrqqqqqqq:MMMMMMMMMMMMMMMMMMMMMMMMMMM",
"MMMMMMMMMMMMMMMMMMMMMMMMMMMMM-qqqqqqqqqqqqqqqqqqqqqqqqqqqqqqq8MMMMMM99qqqqqqqqqqqqqqqqqqqqqqqqqqqqqq$MMMMMMMMMMMMMMMMMMMMMMMMMMM",
"MMMMMMMMMMMMMMMMMMMMMMMMMMMMM$qqqqqqqqqqqqqqqqqqqqqqqqqqqqq9qqqqqqqqqqqqqqqqqqqqqqqqqqqqqqqqqqqqqqq2MMMMMMMMMMMMMMMMMMMMMMMMMMMM",
"MMMMMMMMMMMMMMMMMMMMMMMMMMMMM.;9qqq9qq9q9qqqqqq99qqqq9qqqqq899q99qq9qqqq9qq9qq9q9q99qq9q9q99qq99998-MMMMMMMMMMMMMMMMMMMMMMMMMMMM",
"MMMMMMMMMMMMMMMMMMMMMMMMMMMMMM$0999q999q9999898q99999q998898999qq9999908999999988q87998899q90078978MMMMMMMMMMMMMMMMMMMMMMMMMMMMM",
"MMMMMMMMMMMMMMMMMMMMMMMMMMMMMM@8999999989q889980999998089999889980989889977788888888888878680888986MMMMMMMMMMMMMMMMMMMMMMMMMMMMM",
"MMMMMMMMMMMMMMMMMMMMMMMMMMMMMM#68880688899888888889988888888888688888888868888888888688886888888888>MMMMMMMMMMMMMMMMMMMMMMMMMMMM",
"MMMMMMMMMMMMMMMMMMMMMMMMMMMMMM&888868678676888688699866888688668686886886687868696666676866886888682MMMMMMMMMMMMMMMMMMMMMMMMMMMM",
"MMMMMMMMMMMMMMMMMMMMMMMMMMMMMM>686868666868768669666686866868686696686668666686669666996668666666886,MMMMMMMMMMMMMMMMMMMMMMMMMMM",
"MMMMMMMMMMMMMMMMMMMMMMMMMMMMM;66666666666666666666666666666666666666666666666666666666666666666666663MMMMMMMMMMMMMMMMMMMMMMMMMMM",
"MMMMMMMMMMMMMMMMMMMMMMMMMMMMM3666666666666566666666566566666656666666566665665666666566665666546656563MMMMMMMMMMMMMMMMMMMMMMMMMM",
"MMMMMMMMMMMMMMMMMMMMMMMMMMMM>6666636665656656665646655666565646566566653664666465656666463666566636643MMMMMMMMMMMMMMMMMMMMMMMMMM",
"MMMMMMMMMMMMMMMMMMMMMMMMMMMM344435663556555555556336643636363636556336463663364455543636366346443636363MMMMMMMMMMMMMMMMMMMMMMMMM",
"MMMMMMMMMMMMMMMMMMMMMMMMMMM>646463344463555636445644336544456363363663366334646336536336363463633535633MMMMMMMMMMMMMMMMMMMMMMMMM",
"MMMMMMMMMMMMMMMMMMMMMMMMMMM:633663636336443534433634363534436336634334433443353343543534534334336363342MMMMMMMMMMMMMMMMMMMMMMMMM",
"MMMMMMMMMMMMMMMMMMMMMMMMMMMM33333434533335533533333443335533333333333333333333333433333333333333433333MMMMMMMMMMMMMMMMMMMMMMMMMM",
"MMMMMMMMMMMMMMMMMMMMMMMMMMMM;335333333353333533333333333333333333333333333333333333333333333333333333:MMMMMMMMMMMMMMMMMMMMMMMMMM",
"MMMMMMMMMMMMMMMMMMMMMMMMMMMMM-3333332333333333333333333333333333333333333333331333333333333333333331;MMMMMMMMMMMMMMMMMMMMMMMMMMM",
"MMMMMMMMMMMMMMMMMMMMMMMMMMMMM.*2233333323322;:3331313323233331313313333133333333332<;;-;23323313333*MMMMMMMMMMMMMMMMMMMMMMMMMMMM",
"MMMMMMMMMMMMMMMMMMMMMMMMMMMMM  &31331113<:&+ X@*333312323133133331231331231331312<&+    +&33131321=MMMMMMMMMMMMMMMMMMMMMMMMMMMMM",
"MMMMMMMMMMMMMMMMMMMMMMMMMMMMMM .=113133:#       @*:1132211112211213111112122122;%+.      .%;11112-MMMMMMMMMMMMMMMMMMMMMMMMMMMMMM",
"MMMMMMMMMMMMMMMMMMMMMMMMMMMMMMM X=,32:%X         .X%;>2211112121221111122222>*$X           X$->-$.MMMMMMMMMMMMMMMMMMMMMMMMMMMMMM",
"MMMMMMMMMMMMMMMMMMMMMMMMMMMMMMMM .@&&@  MMMMMMM     X+*<1<112<2<2<1<221<2<>*+   MMMMMMMMM     o MMMMMMMMMMMMMMMMMMMMMMMMMMMMMMMM",
"MMMMMMMMMMMMMMMMMMMMMMMMMMMMMMMMM     MMMMMMMMMMMM     %<<11<1<1<1<22<22<<%   MMMMMMMMMMMMMM  MMMMMMMMMMMMMMMMMMMMMMMMMMMMMMMMMM",
"MMMMMMMMMMMMMMMMMMMMMMMMMMMMMMMMMMMMMMMMMMMMMMMMMMMM    %<<<<<<<<<<<<<<<<;X MMMMMMMMMMMMMMMMMMMMMMMMMMMMMMMMMMMMMMMMMMMMMMMMMMMM",
"MMMMMMMMMMMMMMMMMMMMMMMMMMMMMMMMMMMMMMMMMMMMMMMMMMMMMM  X;<<<<<<<<<<<<<<<&MMMMMMMMMMMMMMMMMMMMMMMMMMMMMMMMMMMMMMMMMMMMMMMMMMMMMM",
"MMMMMMMMMMMMMMMMMMMMMMMMMMMMMMMMMMMMMMMMMMMMMMMMMMMMMMM  %<<<<<<<<<<,<<,>+MMMMMMMMMMMMMMMMMMMMMMMMMMMMMMMMMMMMMMMMMMMMMMMMMMMMMM",
"MMMMMMMMMMMMMMMMMMMMMMMMMMMMMMMMMMMMMMMMMMMMMMMMMMMMMMMM %<<,<,<<<<,,<,<:MMMMMMMMMMMMMMMMMMMMMMMMMMMMMMMMMMMMMMMMMMMMMMMMMMMMMMM",
"MMMMMMMMMMMMMMMMMMMMMMMMMMMMMMMMMMMMMMMMMMMMMMMMMMMMMMMMM$,,,,,,<>,,,,,,&MMMMMMMMMMMMMMMMMMMMMMMMMMMMMMMMMMMMMMMMMMMMMMMMMMMMMMM",
"MMMMMMMMMMMMMMMMMMMMMMMMMMMMMMMMMMMMMMMMMMMMMMMMMMMMMMMMMo;<,,,,,,,,,,,,%MMMMMMMMMMMMMMMMMMMMMMMMMMMMMMMMMMMMMMMMMMMMMMMMMMMMMMM",
"MMMMMMMMMMMMMMMMMMMMMMMMMMMMMMMMMMMMMMMMMMMMMMMMMMMMMMMMMM&,,,,,,,,,,,<>MMMMMMMMMMMMMMMMMMMMMMMMMMMMMMMMMMMMMMMMMMMMMMMMMMMMMMMM",
"MMMMMMMMMMMMMMMMMMMMMMMMMMMMMMMMMMMMMMMMMMMMMMMMMMMMMMMMMMX*,,<,,,,>,,,-MMMMMMMMMMMMMMMMMMMMMMMMMMMMMMMMMMMMMMMMMMMMMMMMMMMMMMMM",
"MMMMMMMMMMMMMMMMMMMMMMMMMMMMMMMMMMMMMMMMMMMMMMMMMMMMMMMMMMMX*:::::::::=MMMMMMMMMMMMMMMMMMMMMMMMMMMMMMMMMMMMMMMMMMMMMMMMMMMMMMMMM",
"MMMMMMMMMMMMMMMMMMMMMMMMMMMMMMMMMMMMMMMMMMMMMMMMMMMMMMMMMMM .X....XXXMMMMMMMMMMMMMMMMMMMMMMMMMMMMMMMMMMMMMMMMMMMMMMMMMMMMMMMMMMM",
"MMMMMMMMMMMMMMMMMMMMMMMMMMMMMMMMMMMMMMMMMMMMMMMMMMMMMMMMMMMMM       MMMMMMMMMMMMMMMMMMMMMMMMMMMMMMMMMMMMMMMMMMMMMMMMMMMMMMMMMMMM",
"MMMMMMMMMMMMMMMMMMMMMMMMMMMMMMMMMMMMMMMMMMMMMMMMMMMMMMMMMMMMMMMMMMMMMMMMMMMMMMMMMMMMMMMMMMMMMMMMMMMMMMMMMMMMMMMMMMMMMMMMMMMMMMMM",
"MMMMMMMMMMMMMMMMMMMMMMMMMMMMMMMMMMMMMMMMMMMMMMMMMMMMMMMMMMMMMMMMMMMMMMMMMMMMMMMMMMMMMMMMMMMMMMMMMMMMMMMMMMMMMMMMMMMMMMMMMMMMMMMM",
"MMMMMMMMMMMMMMMMMMMMMMMMMMMMMMMMMMMMMMMMMMMMMMMMMMMMMMMMMMMMMMMMMMMMMMMMMMMMMMMMMMMMMMMMMMMMMMMMMMMMMMMMMMMMMMMMMMMMMMMMMMMMMMMM",
"MMMMMMMMMMMMMMMMMMMMMMMMMMMMMMMMMMMMMMMMMMMMMMMMMMMMMMMMMMMMMMMMMMMMMMMMMMMMMMMMMMMMMMMMMMMMMMMMMMMMMMMMMMMMMMMMMMMMMMMMMMMMMMMM",
"MMMMMMMMMMMMMMMMMMMMMMMMMMMMMMMMMMMMMMMMMMMMMMMMMMMMMMMMMMMMMMMMMMMMMMMMMMMMMMMMMMMMMMMMMMMMMMMMMMMMMMMMMMMMMMMMMMMMMMMMMMMMMMMM",
"MMMMMMMMMMMMMMMMMMMMMMMMMMMMMMMMMMMMMMMMMMMMMMMMMMMMMMMMMMMMMMMMMMMMMMMMMMMMMMMMMMMMMMMMMMMMMMMMMMMMMMMMMMMMMMMMMMMMMMMMMMMMMMMM",
"MMMMMMMMMMMMMMMMMMMMMMMMMMMMMMMMMMMMMMMMMMMMMMMMMMMMMMMMMMMMMMMMMMMMMMMMMMMMMMMMMMMMMMMMMMMMMMMMMMMMMMMMMMMMMMMMMMMMMMMMMMMMMMMM",
"MMMMMMMMMMMMMMMMMMMMMMMMMMMMMMMMMMMMMMMMMMMMMMMMMMMMMMMMMMMMMMMMMMMMMMMMMMMMMMMMMMMMMMMMMMMMMMMMMMMMMMMMMMMMMMMMMMMMMMMMMMMMMMMM",
"MMMMMMMMMMMMMMMMMMMMMMMMMMMMMMMMMMMMMMMMMMMMMMMMMMMMMMMMMMMMMMMMMMMMMMMMMMMMMMMMMMMMMMMMMMMMMMMMMMMMMMMMMMMMMMMMMMMMMMMMMMMMMMMM",
"MMMMMMMMMMMMMMMMMMMMMMMMMMMMMMMMMMMMMMMMMMMMMMMMMMMMMMMMMMMMMMMMMMMMMMMMMMMMMMMMMMMMMMMMMMMMMMMMMMMMMMMMMMMMMMMMMMMMMMMMMMMMMMMM",
"MMMMMMMMMMMMMMMMMMMMMMMMMMMMMMMMMMMMMMMMMMMMMMMMMMMMMMMMMMMMMMMMMMMMMMMMMMMMMMMMMMMMMMMMMMMMMMMMMMMMMMMMMMMMMMMMMMMMMMMMMMMMMMMM",
"MMMMMMMMMMMMMMMMMMMMMMMMMMMMMMMMMMMMMMMMMMMMMMMMMMMMMMMMMMMMMMMMMMMMMMMMMMMMMMMMMMMMMMMMMMMMMMMMMMMMMMMMMMMMMMMMMMMMMMMMMMMMMMMM",
"MMMMMMMMMMMMMMMMMMMMMMMMMMMMMMMMMMMMMMMMMMMMMMMMMMMMMMMMMMMMMMMMMMMMMMMMMMMMMMMMMMMMMMMMMMMMMMMMMMMMMMMMMMMMMMMMMMMMMMMMMMMMMMMM",
"MMMMMMMMMMMMMMMMMMMMMMMMMMMMMMMMMMMMMMMMMMMMMMMMMMMMMMMMMMMMMMMMMMMMMMMMMMMMMMMMMMMMMMMMMMMMMMMMMMMMMMMMMMMMMMMMMMMMMMMMMMMMMMMM",
"MMMMMMMMMMMMMMMMMMMMMMMMMMMMMMMMMMMMMMMMMMMMMMMMMMMMMMMMMMMMMMMMMMMMMMMMMMMMMMMMMMMMMMMMMMMMMMMMMMMMMMMMMMMMMMMMMMMMMMMMMMMMMMMM",
"MMMMMMMMMMMMMMMMMMMMMMMMMMMMMMMMMMMMMMMMMMMMMMMMMMMMMMMMMMMMMMMMMMMMMMMMMMMMMMMMMMMMMMMMMMMMMMMMMMMMMMMMMMMMMMMMMMMMMMMMMMMMMMMM"
};
