/* XPM */
static char *xfce4_mcs_manager[] = {
/* columns rows colors chars-per-pixel */
"128 128 57 1 ",
"  c black",
". c #000709",
"X c #00090B",
"o c #000D11",
"O c #001218",
"+ c #001318",
"@ c #00151A",
"# c #00181D",
"$ c #00181F",
"% c #001D25",
"& c #002129",
"* c #00242E",
"= c #002833",
"- c #002C38",
"; c #002E3A",
": c #002F3A",
"> c #002E3B",
", c #002F3B",
"< c #00303C",
"1 c #00313F",
"2 c #003341",
"3 c #003948",
"4 c #003A49",
"5 c #003B4A",
"6 c #003D4E",
"7 c #003F51",
"8 c #004152",
"9 c #004153",
"0 c #004456",
"q c #004557",
"w c #004558",
"e c #00475A",
"r c #00485C",
"t c #00495C",
"y c #00485D",
"u c #00495D",
"i c #004A5F",
"p c #004C61",
"a c #004D61",
"s c #004C62",
"d c #004D62",
"f c #004E63",
"g c #005066",
"h c #005166",
"j c #005369",
"k c #00546B",
"l c #00566D",
"z c #005870",
"x c #005A72",
"c c #005C75",
"v c #005E78",
"b c #00607A",
"n c #00617C",
"m c #00647E",
"M c #00647F",
"N c #006580",
"B c None",
/* pixels */
"BBBBBBBBBBBBBBBBBBBBBBBBBBBBBBBBBBBBBBBBBBBBBBBBBBBBBBBBBBBBBBBBBBBBBBBBBBBBBBBBBBBBBBBBBBBBBBBBBBBBBBBBBBBBBBBBBBBBBBBBBBBBBBBB",
"BBBBBBBBBBBBBBBBBBBBBBBBBBBBBBBBBBBBBBBBBBBBBBBBBBBBBBBBBBBBBBBBBBBBBBBBBBBBBBBBBBBBBBBBBBBBBBBBBBBBBBBBBBBBBBBBBBBBBBBBBBBBBBBB",
"BBBBBBBBBBBBBBBBBBBBBBBBBBBBBBBBBBBBBBBBBBBBBBBBBBBBBBBBBBBBBBBBBBBBBBBBBBBBBBBBBBBBBBBBBBBBBBBBBBBBBBBBBBBBBBBBBBBBBBBBBBBBBBBB",
"BBBBBBBBBBBBBBBBBBBBBBBBBBBBBBBBBBBBBBBBBBBBBBBBBBBBBBBBBBBBBBBBBBBBBBBBBBBBBBBBBBBBBBBBBBBBBBBBBBBBBBBBBBBBBBBBBBBBBBBBBBBBBBBB",
"BBBBBBBBBBBBBBBBBBBBBBBBBBBBBBBBBBBBBBBBBBBBBBBBBBBBBBBBBBBBBBBBBBBBBBBBBBBBBBBBBBBBBBBBBBBBBBBBBBBBBBBBBBBBBBBBBBBBBBBBBBBBBBBB",
"BBBBBBBBBBBBBBBBBBBBBBBBBBBBBBBBBBBBBBBBBBBBBBBBBBBBBBBBBBBBBBBBBBBBBBBBBBBBBBBBBBBBBBBBBBBBBBBBBBBBBBBBBBBBBBBBBBBBBBBBBBBBBBBB",
"BBBBBBBBBBBBBBBBBBBBBBBBBBBBBBBBBBBBBBBBBBBBBBBBBBBBBBBBBBBBBBBBBBBBBBBBBBBBBBBBBBBBBBBBBBBBBBBBBBBBBBBBBBBBBBBBBBBBBBBBBBBBBBBB",
"BBBBBBBBBBBBBBBBBBBBBBBBBBBBBBBBBBBBBBBBBBBBBBBBBBBBBBBBBBBBBBBBBBBBBBBBBBBBBBBBBBBBBBBBBBBBBBBBBBBBBBBBBBBBBBBBBBBBBBBBBBBBBBBB",
"BBBBBBBBBBBBBBBBBBBBBBBBBBBBBBBBBBBBBBBBBBBBBBBBBBBBBBBBBBBBBBBBBBBBBBBBBBBBBBBBBBBBBBBBBBBBBBBBBBBBBBBBBBBBBBBBBBBBBBBBBBBBBBBB",
"BBBBBBBBBBBBBBBBBBBBBBBBBBBBBBBBBBBBBBBBBBBBBBBBBBBBBBBBBBBBBBBBBBBBBBBBBBBBBBBBBBBBBBBBBBBBBBBBBBBBBBBBBBBBBBBBBBBBBBBBBBBBBBBB",
"BBBBBBBBBBBBBBBBBBBBBBBBBBBBBBBBBBBBBBBBBBBBBBBBBBBBBBBBBBBBBBBBBBBBBBBBBBBBBBBBBBBBBBBBBBBBBBBBBBBBBBBBBBBBBBBBBBBBBBBBBBBBBBBB",
"BBBBBBBBBBBBBBBBBBBBBBBBBBBBBBBBBBBBBBBBBBBBBBBBBBBBBBBBBBBBBBBBBBBBBBBBBBBBBBBBBBBBBBBBBBBBBBBBBBBBBBBBBBBBBBBBBBBBBBBBBBBBBBBB",
"BBBBBBBBBBBBBBBBBBBBBBBBBBBBBBBBBBBBBBBBBBBBBBBBBBBBBBBBBBBBBBBBBBBBBBBBBBBBBBBBBBBBBBBBBBBBBBBBBBBBBBBBBBBBBBBBBBBBBBBBBBBBBBBB",
"BBBBBBBBBBBBBBBBBBBBBBBBBBBBBBBBBBBBBBBBBBBBBBBBBBBBBBBBBBBBBBBBBBBBBBBBBBBBBBBBBBBBBBBBBBBBBBBBBBBBBBBBBBBBBBBBBBBBBBBBBBBBBBBB",
"BBBBBBBBBBBBBBBBBBBBBBBBBBBBBBBBBBBBBBBBBBBBBBBBBBBBBBBBBBBBBBBBBBBBBBBBBBBBBBBBBBBBBBBBBBBBBBBBBBBBBBBBBBBBBBBBBBBBBBBBBBBBBBBB",
"BBBBBBBBBBBBBBBBBBBBBBBBBBBBBBBBBBBBBBBBBBBBBBBBBBBBBBBBBBBBBBBBBBBBBBBBBBBBBBBBBBBBBBBBBBBBBBBBBBBBBBBBBBBBBBBBBBBBBBBBBBBBBBBB",
"BBBBBBBBBBBBBBBBBBBBBBBBBBBBBBBBBBBBBBBBBBBBBBBBBBBBBBBBBBBBBBBBBBBBBBBBBBBBBBBBBBBBBBBBBBBBBBBBBBBBBBBBBBBBBBBBBBBBBBBBBBBBBBBB",
"BBBBBBBBBBBBBBBBBBBBBBBBBBBBBBBBBBBBBBBBBBBBBBBBBBBBBBBBBBBBBBBBBBBBBBBBBBBBBBBBBBBBBBBBBBBBBBBBBBBBBBBBBBBBBBBBBBBBBBBBBBBBBBBB",
"BBBBBBBBBBBBBBBBBBBBBBBBBBBBBBBBBBBBBBBBBBBBBBBBBBBBBBBBBBBBBBBBBBBBBBBBBBBBBBBBBBBBBBBBBBBBBBBBBBBBBBBBBBBBBBBBBBBBBBBBBBBBBBBB",
"BBBBBBBBBBBBBBBBBBBBBBBBBBBBBBBBBBBBBBBBBBBBBBBBBBBBBBBBBBBBBBBBBBBBBBBBBBBBBBBBBBBBBBBBBBBBBBBBBBBBBBBBBBBBBBBBBBBBBBBBBBBBBBBB",
"BBBBBBBBBBBBBBBBBBBBBBBBBBBBBBBBBBBBBBBBBBBBBBBBBBBBBBBBBBBBBBBBBBBBBBBBBBBBBBBBBBBBBBBBBBBBBBBBBBBBBBBBBBBBBBBBBBBBBBBBBBBBBBBB",
"BBBBBBBBBBBBBBBBBBBBBBBBBBBBBBBBBBBBBBBBBBBBBBBBBBBBBBBBBBBBBBBBBBBBBBBBBBBBBBBBBBBBBBBBBBBBBBBBBBBBBBBBBBBBBBBBBBBBBBBBBBBBBBBB",
"BBBBBBBBBBBBBBBBBBBBBBMNNNNNNNNNNNNNBBBBBBBBBBBBBBBBBBBBBBNNNNNNNNNNNNNBBBBBBBBBBBBBBBBBBBBBBNNNNNNNNNNNNNNBBBBBBBBBBBBBBBBBBBBB",
"BBBBBBBBBBBBBBBBBBBBBBNNNNNNNNNNNNNNMBBBBBBBBBBBBBBBBBBBBNNNNNNNNNNNNNNNBBBBBBBBBBBBBBBBBBBBnNNNNNNNNNNNNNNBBBBBBBBBBBBBBBBBBBBB",
"BBBBBBBBBBBBBBBBBBBBBnNNNNNNNNNNNNNNNBBBBBBBBBBBBBBBBBBBBNNNNNNNNNNNNNNNnBBBBBBBBBBBBBBBBBBBmNNNNNNNNNNNNNNMBBBBBBBBBBBBBBBBBBBB",
"BBBBBBBBBBBBBBBBBBBBBnNNNNNNNNNNNNNNNBBBBBBBBBBBBBBBBBBBBNNNNNNNNNNNNmNNnBBBBBBBBBBBBBBBBBBBmmmNNNNNNNNNNNmmBBBBBBBBBBBBBBBBBBBB",
"BBBBBBBBBBBBBBBBBBBBBbmmNNNNNNNNNNmNNBBBBBBBBBBBBBBBBBBBBNNmNNNmNNNNNNmmbBBBBBBBBBBBBBBBBBBBmNmNNNNNNNNNNNNnBBBBBBBBBBBBBBBBBBBB",
"BBBBBBBBBBBBBBBBBBBBBvmmNNNNNNNNmNmmMBBBBBBBBBBBBBBBBBBBqmmmNMMMNNNNmNmmbBBBBBBBBBBBBBBBBBBBnmmmNNNNNNNNmmmnBBBBBBBBBBBBBBBBBBBB",
"BBBBBBBBBBBBBBBBBBBBBvMMmmmmNNNMmMnmNBBBBBBBBBBBBBBBBBBB8mmmmmmmNNmmMMmmcBBBBBBBBBBBBBBBBBBBnMMnnmMmMMMMmMnbBBBBBBBBBBBBBBBBBBBB",
"BBBBBBBBBBBBBBBBBBBBBcnMnnMnNNMMMmmnmBBBBBBBBBBBBBBBBBBB6mnmnmmmNNmnnnmmxBBBBBBBBBBBBBBBBBBBbMMMmmnmMMnMmmmvBBBBBBBBBBBBBBBBBBBB",
"BBBBBBBBBBBBBBBBBBBBBxnnnmnMMnnnnnnMMBBBBBBBBBBBBBBBBBBB5mmnnmmnNMnMmnmnxBBBBBBBBBBBBBBBBBBBbnMnnnMnnMnMnnnbBBBBBBBBBBBBBBBBBBBB",
"BBBBBBBBBBBBBBBBBBBBBxmnMnMnnnMnMnnnnBBBBBBBBBBBBBBBBBBB5nnnnnnnMnnnnnnnxBBBBBBBBBBBBBBBBBBBbnnnnnnnnnnnMnnbBBBBBBBBBBBBBBBBBBBB",
"BBBBBBBBBBBBBBBBBBBBBxnnnnnnnnnnnnnnbBBBBBBBBBBBBBBBBBBB5nnnnnnnnnnnnmnnxBBBBBBBBBBBBBBBBBBBbnnnnnnnnnnnnnnvBBBBBBBBBBBBBBBBBBBB",
"BBBBBBBBBBBBBBBBBBBBBxnnnnnnnnnnnnnnnBBBBBBBBBBBBBBBBBBB8nnnnnnnnmcnnnnczBBBBBBBBBBBBBBBBBBBvnnnnnnnbnnbbnncBBBBBBBBBBBBBBBBBBBB",
"BBBBBBBBBBBBBBBBBBBBBznnnnnnnnnnbnnnbBBBBBBBBBBBBbbnbvcxxnnbnnnnnnnnnbnnbvbbnnnbBBBBBBBBBBBBvnnbnnbnnnbnnnbcBBBBBBBBBBBBBBBBBBBB",
"BBBBBBBBBBBBBBBBBBBBBznbbbnbbnnnnnbbbBBBBBBBBBBvnbnbnbnbnbnbcnnncnbnbnnbbbbbnbbbbbBBBBBBBBBBvbbnbnbnbbnbbbncBBBBBBBBBBBBBBBBBBBB",
"BBBBBBBBBBBBBBBBBBBBBzbbbbbbbbnccnncnBBBBBBBBBBbbbbbbbbbbbbbbbncnnnnbncnbbbnbbbbbbBBBBBBBBBBvbbbnbbbbbbbbbbcBBBBBBBBBBBBBBBBBBBB",
"BBBBBBBBBBBBBBBBBBBBBlbbbbbbbbbbcbbbbBBBBBBBBBzbbbvbbbbbbbbbbbbbncncbbnbbbbbbbbbbbvBBBBBBBBBcbbbcbbbbbbbbbbcBBBBBBBBBBBBBBBBBBBB",
"BBBBBBBBBBBBBBBBBBBBBzvbvbvbcnbbnbcnvBBBBBBBBBzbvbbbbbbbbbbbcnbbbncnnbbnbbbcbvbvvbcBBBBBBBBBcbbbncbbcbbbbbvcBBBBBBBBBBBBBBBBBBBB",
"BBBBBBBBBBBBBBBBBBBBBkbbvbvbnccbcnnccBBBBBBBBBjvbvvvbvvvvvvvnccbccnccbccbcbbbvvvvbxBBBBBBBBBcvvvbbcbbbbcvbvcBBBBBBBBBBBBBBBBBBBB",
"BBBBBBBBBBBBBBBBBBBBBzbvbvvvvvvvvvvvvBBBBBBBBBhbvvbvvvvci5<,:,,,;;<:<<4ixvvvvvvvvvzBBBBBBBBBcvvvccncvvvvvvvzBBBBBBBBBBBBBBBBBBBB",
"BBBBBBBBBBBBBBBBBBBBBlvvvvvvvvvvvvvvxBBBBBBBBBfvvvvvvvg=                =fvvvvvvvvzBBBBBBBBBxbvvcbcbvvcvvvvxBBBBBBBBBBBBBBBBBBBB",
"BBBBBBBBBBBBBBBBBBBBBkvcvvvvvvvvvvvvvBBBBBBBBBivvcvvvv<                  <vvvvvvvvkBBBBBBBBBcvvvbccbvvvvvvvzBBBBBBBBBBBBBBBBBBBB",
"BBBBBBBBBBBBBBBBBBBBBlvvvcvcvcvvvcvbxBBBBBBBBBivvcvccfXBBBBBBBBBBBBBBBB  XivvccvvckBBBBBBBBBxvcccbcccvcvcvvzBBBBBBBBBBBBBBBBBBBB",
"BBBBBBBBBBBBBBBBBBBBBkcvccvcccvcxvvccBBBBBBBBBivvccvveBBBBBBBBBBBBBBBBBB  qcvxvvxvjBBBBBBBBBxccvcccvcccccvczBBBBBBBBBBBBBBBBBBBB",
"BBBBBBBBBBBBBBBBBBBBBkccccccccccvxvxxBBBBBBBBBixccccxfBBBBBBBBBBBBBBBBBBB ivvvxxvvjBBBBBBBBBxcccccccvcccccczBBBBBBBBBBBBBBBBBBBB",
"BBBBBBBBBBBBBBBBBBBBBlxcxcccccccxvxvxBBBBBBBBBixccxvvzBBBBBBBBBBBBBBBBBBB%kxxxxvxvjBBBBBBBBBxcccccccccccccczBBBBBBBBBBBBBBBBBBBB",
"BBBBBBBBBBBBBBBBBBBBBkcccccxxcxcxxcxxBBBBBBBBBicxvxxxxhBBBBBBBBBBBBBBBBBBwvvxcvxxxjBBBBBBBBBxxxcccccxcxcxcxlBBBBBBBBBBBBBBBBBBBB",
"BBBBBBBBBBBBBBBBBBBBBjxcxcxcxcccccccxBBBBBBBBBrxxcxcccxlBBBBBBBBBBBBBBBBfxxvxcxxcxjBBBBBBBBBzxxccxxcxcxccxxlBBBBBBBBBBBBBBBBBBBB",
"BBBBBBBBBBBBBBBBBBBBBjxxxxcxxxxxxxxczBBBBBBBBBtxxxxvxxxxxxxxxxxxxxxxxxxxxxxxxxxcxxgBBBBBBBBBzxxxxcxxxxxxxxxzBBBBBBBBBBBBBBBBBBBB",
"BBBBBBBBBBBBBBBBBBBBBjxxxxxxxxcxxxxxxBBBBBBBBBrxxxxxxxxcxxxxxxxxxxxxxxxxxxxxxxxxxxgBBBBBBBBBzxxxxxxxxxxxxxxlBBBBBBBBBBBBBBBBBBBB",
"BBBBBBBBBBBBBBBBBBBBBjxxxxxxxxxxxxxxzBBBBBBBBBrxxxxxxxxxxxxxxxxxxxxxxxxxxxxxxxxxxxgBBBBBBBBBzxxxxxxxxxxxxxxlBBBBBBBBBBBBBBBBBBBB",
"BBBBBBBBBBBBBBBBBBBBBgxxxxzxxxxxzxxzzBBBBBBBBB0xzxxzxxxxxxxxxzxxxxxxxzzxxxxxxxxzxxdBBBBBBBBBzxzxxxxxxxxxxxxkBBBBBBBBBBBBBBBBBBBB",
"BBBBBBBBBBBBBBBBBBBBBgxxzxzxzzzzxxzzzBBBBBBBBB-lxxzxxzzzzxzzzxzzxzzzzxxzzzzxxzzxzzBBBBBBBBBBlxxzzzzzzzzzxzxkBBBBBBBBBBBBBBBBBBBB",
"BBBBBBBBBBBBBBBBBBBBBhzzzzxzzzzzzzzzzBBBBBBBBBB5zzzzzxzxzzzzzxzzzzzzzzzxzzzzzzzzxwBBBBBBBBBBkxzzzzzxzzzzzxzjBBBBBBBBBBBBBBBBBBBB",
"BBBBBBBBBBBBBBBBBBBBBhzzzzzzzzzzzzzzzBBBBBBBBBB -qfififiglzzzzzzzzzzzzzzkddddfft2BBBBBBBBBBBlzzzzzzzzzzzzzzkBBBBBBBBBBBBBBBBBBBB",
"BBBBBBBBBBBBBBBBBBBBBhzzzzlzzzzzzzzzzBBBBBBBBBBB XXXXXXX1zzzzzlzzzzzzzzz8.XXXXXXBBBBBBBBBBBBkzlzzlzzzzzlzzljBBBBBBBBBBBBBBBBBBBB",
"BBBBBBBBBBBBBBBBBBBBBhzllzzzlzlzzlzllBBBBBBBBBBBB       -lzlzzzlllllzkzz8     BBBBBBBBBBBBBBklzzzlllllzlzlljBBBBBBBBBBBBBBBBBBBB",
"BBBBBBBBBBBBBBBBBBBBBhlllzllzzlzzzlllBBBBBBBBBBBBBBBB   -lllzllzllzlllzl9 BBBBBBBBBBBBBBBBBBjzzllzlzzllllzzjBBBBBBBBBBBBBBBBBBBB",
"BBBBBBBBBBBBBBBBBBBBBhlllllllllllllllBBBBBBBBBBBBBBBBBB -zllllllzlzkzlll0BBBBBBBBBBBBBBBBBBBjlllllllllzlllljBBBBBBBBBBBBBBBBBBBB",
"BBBBBBBBBBBBBBBBBBBBBfllllzkzkllllllkBBBBBBBBBBBBBBBBBBB<klllllllllllllleBBBBBBBBBBBBBBBBBBBklllllllllllllljBBBBBBBBBBBBBBBBBBBB",
"BBBBBBBBBBBBBBBBBBB54hllllklklkllklljiBBBBBBBBBBBBBBBBBB1llllkkllklkllkliBBBBBBBBBBBBBBBBBBBjlkllkllkllklkkjBBBBBBBBBBBBBBBBBBBB",
"BBBBBBBBBBBBjkklklklkkkkkkklllklkkkkkllkkkllkjBBBBBBBBBB<kkkklklklkklklkiBBBBBBBBBBBBBBBBBBBjklkkllklkkkzkkgBBBBBBBBBBBBBBBBBBBB",
"BBBBBBBBBBBBkklkkkkkklklkkkkkkkkkklkkkkkkkkkkkBBBBBBBBBB2kkkkkkkkkkkkkkkiBBBBBBBBBBBBBBBBBBBjkkkkkkkkkkkkkkgBBBBBBBBBBBBBBBBBBBB",
"BBBBBBBBBBBjkkkkkkkkkkkkkkkkkkkkkkkkkjkkkkkkkkkBBBBBBBBB2kjkkkkkkkjkjkkkiBBBBBBBBBBBBBBBBBBBjkjkkkkjkkkkkkkgBBBBBBBBBBBBBBBBBBBB",
"BBBBBBBBBBBjkkkkkkkkkkkkkkjkkkkkkkjkkkkkjkkkkkjBBBBBBBBB1kkkkjkkkkjkkkkjiBBBBBBBBBBBBBBBBBBBgkkjjkkjkjjkjkjgBBBBBBBBBBBBBBBBBBBB",
"BBBBBBBBBBBjjkjkjjkjkkjjjkjkjjkjkjjkkjjkkkjkjkjBBBBBBBBB2jjkjkkjjkkjkjjkiBBBBBBBBBBBBBBBBBBBjjkjkkkkjkkjkjjhBBBBBBBBBBBBBBBBBBBB",
"BBBBBBBBBBBjjjjjjkjjjhieryeieiereiigjjkjjjkjjjjBBBBBBBBB1jkjjjjjjjkjjkjjdBBBBBBBBBBBBBBBBBBBgjjjjjjjjjkjjjjfBBBBBBBBBBBBBBBBBBBB",
"BBBBBBBBBBBgjjjjjjji<#..........X..#<ejjjjjjjjjBBBBBBBBB1jjjjjjjjjjjjjjjiBBBBBBBBBBBBBBBBBBBgjjjjjjjjjjjjjjhBBBBBBBBBBBBBBBBBBBB",
"BBBBBBBBBBBhjjjjjji%                 %ijjjgjjjgBBBBBBBBB1jgjjjjjjjjjjjjjiBBBBBBBBBBBBBBBBBBBhjjjjhjjjjjjgjjfBBBBBBBBBBBBBBBBBBBB",
"BBBBBBBBBBBhjgjggg5  BBBBBBBBBBBBB    3jjgjjjggBBBBBBBBB<jjgjgjgjjjjggjjiBBBBBBBBBBBBBBBBBBBhggjgjjjgjgjjjgfBBBBBBBBBBBBBBBBBBBB",
"BBBBBBBBBBBhgjgggh&BBBBBBBBBBBBBBBBB  %fgjgggghBBBBBBBBB<ghjgjgggggggjhgiBBBBBBBBBBBBBBBBBBBfgggghgjgjgggggfBBBBBBBBBBBBBBBBBBBB",
"BBBBBBBBBBBhhggggh%BBBBBBBBBBBBBBBBBBB#fgggjhhhBBBBBBBBB1hhhhgggggghggggtBBBBBBBBBBBBhffiywwggggjhhhggggggghysfhfhhBBBBBBBBBBBBB",
"BBBBBBBBBBBfggghgg2BBBBBBBBBBBBBBBBBBB-ggghghhhBBBBBBBBB1ghhghhgghhhhgggyBBBBBBBBBBhhhggghgghhhhhhhhgghhhhhhhhggghhhhBBBBBBBBBBB",
"BBBBBBBBBBBphhhhghqBBBBBBBBBBBBBBBBBBB9hhfhhhhfBBBBBBBBB>ghhhhhghhhhhhhfeBBBBBBBBBfhhhffggfghffhgfhhfggfgfhfghhhhffhhBBBBBBBBBBB",
"BBBBBBBBBBBfhhfhhhhwBBBBBBBBBBBBBBBBB5fhhfhhhhfBBBBBBBBB<hfhhfhfhffhhhfheBBBBBBBBBffhfghhhhfhhhhhhffhfghfhfhfgfffghfhfBBBBBBBBBB",
"BBBBBBBBBBBfhffffhfffiBBBBBBBBBBBBBqihffffhffhfBBBBBBBBB<hhfhfhfffhfffffeBBBBBBBBBhhgffhffhfhfhfffgfgfgfgffhfffhgffgffBBBBBBBBBB",
"BBBBBBBBBBBffhfffffffffhffhffhffhfffhffffffffffBBBBBBBBB-ffffffffffffffheBBBBBBBB3ffffffffffffffffffffffffffffffffffffBBBBBBBBBB",
"BBBBBBBBBBBiffffffffffffffffffffffffffffffffffaBBBBBBBBB<fffffffffffffffeBBBBBBBB3fffffffffe83534444444446wfffffffffhiBBBBBBBBBB",
"BBBBBBBBBBBifaffsfffsfsfffiffffffsffsffffdfdfffBBBBBBBBB<fiffspffsffffffeBBBBBBBB2sfsfsfff2#X             .=8fsfsfsffiBBBBBBBBBB",
"BBBBBBBBBBBqfdfffpffpffaffdfffsdipfaffffifafdaiBBBBBBBBB<fdaifffsfffiffieBBBBBBBB1ffiffff3                  &ifsfsfsfiBBBBBBBBBB",
"BBBBBBBBBBB1fssdpfpafaddiffiifsfffadififpfffdf5BBBBBBBBB-ffafsiffiiffaifqBBBBBBBB<dsfifii* BBBBBBBBBBBBBB    3ifssfsiiBBBBBBBBBB",
"BBBBBBBBBBBB2efifssfififsfififififfiiffspfiie3BBBBBBBBBB>siffssfspffdffdqBBBBBBBB<ifsfidqXBBBBBBBBBBBBBBBBB  -ififiiftBBBBBBBBBB",
"BBBBBBBBBBBB #******-qssiifififfffidy<****==$BBBBBBBBBBB-fiiifiiifiiiifiqBBBBBBBB-fiiifiqBBBBBBBBBBBBBBBBBBB -spisifaiBBBBBBBBBB",
"BBBBBBBBBBBBB       .9fifiifiiiiiifii@     BBBBBBBBBBBBB-fidififififafia0BBBBBBBB<fifpifi-BBBBBBBBBBBBBBBBBBB5isaifiiiBBBBBBBBBB",
"BBBBBBBBBBBBBBB     .9iiiiiffififiiie#   BBBBBBBBBBBBBBB-ifiiiifiiiiiiii0BBBBBBBB-iiiiiii9BBBBBBBBBBBBBBBBBB=iiiidiiieBBBBBBBBBB",
"BBBBBBBBBBBBBBBBBBB .0iiipiiiiiiiiiiy#BBBBBBBBBBBBBBBBBB-isiiiiiidiiifii0BBBBBBBB-ifiiiiii0BBBBBBBBBBBBBBBB20iiiiiifieBBBBBBBBBB",
"BBBBBBBBBBBBBBBBBBBBX9iiiiiiiiiiiiiiy%BBBBBBBBBBBBBBBBBB-iiiiiiiiiiiiiii0BBBBBBBB-iiiiiiiiiiieietiuuieyieeeiiiiiiiiiieBBBBBBBBBB",
"BBBBBBBBBBBBBBBBBBBBB0iiiiiiiiiiiiiiiBBBBBBBBBBBBBBBBBBB-iiiiiiiiiiiiiri9BBBBBBBB-iiiitiiiiiiiiiiiiiiiriiiiiiiiiiiiiieBBBBBBBBBB",
"BBBBBBBBBBBBBBBBBBBBB0tiiieiiyiiyitieBBBBBBBBBBBBBBBBBBB-iuieituiiieitie0BBBBBBBB-iiitieirieeiiyeitiriieiieiieeieiyiiqBBBBBBBBBB",
"BBBBBBBBBBBBBBBBBBBBB0iitiiieiietiiiiBBBBBBBBBBBBBBBBBBB-eieiiiiriieiiiu9BBBBBBBB-yyuitieitiirtiiietitieieuyeiiiieieyqBBBBBBBBBB",
"BBBBBBBBBBBBBBBBBBBBB9rrieeieiieieeieBBBBBBBBBBBBBBBBBBB-iieieeirieieiei9BBBBBBBB$0ytietieietieieyireieittriieeueiyrr7BBBBBBBBBB",
"BBBBBBBBBBBBBBBBBBBBB9ieeuteieuieeieeBBBBBBBBBBBBBBBBBBB-ieyyyeyeiieieie9BBBBBBBBB1etttteieieuieeiietteiieiyiyuuieie9BBBBBBBBBBB",
"BBBBBBBBBBBBBBBBBBBBB9eieteieiereiieeBBBBBBBBBBBBBBBBBBB=eteyeieeeeiieei9BBBBBBBBBB-8wqqw0qqteeeeeeieueeetee00qq0qq5BBBBBBBBBBBB",
"BBBBBBBBBBBBBBBBBBBBB9yeeyeeeeeieeeeeBBBBBBBBBBBBBBBBBBB-yeeeyyeereeeeee9BBBBBBBBBB oOO@OO@*weeieieeieyeeee7$OO@O@#BBBBBBBBBBBBB",
"BBBBBBBBBBBBBBBBBBBBB8eeeeeeeeeeeeeeeBBBBBBBBBBBBBBBBBBB-eeeeeeeeeeeeeee8BBBBBBBBBBB       +0eeeeeeeeeeeeee7.     BBBBBBBBBBBBBB",
"BBBBBBBBBBBBBBBBBBBBB8eeqeeeweeeeeeewBBBBBBBBBBBBBBBBBBB-eeeeqeeeeeeeeee8BBBBBBBBBBBBBB    O0eeeqeeeeeeeeee7.  BBBBBBBBBBBBBBBBB",
"BBBBBBBBBBBBBBBBBBBBB7eeeeeeeeeweeewqBBBBBBBBBBBBBBBBBBB=eqeeeqeqweeweqe7BBBBBBBBBBBBBBBBB O0eqeeqqeeweqeqq7BBBBBBBBBBBBBBBBBBBB",
"BBBBBBBBBBBBBBBBBBBBB8qewewqqeeweqqeqBBBBBBBBBBBBBBBBBBB=eeqwqeqewewqeqe7BBBBBBBBBBBBBBBBBB#0wqeqqeewewqqew8BBBBBBBBBBBBBBBBBBBB",
"BBBBBBBBBBBBBBBBBBBBB7eqqeweeweqqeqqwBBBBBBBBBBBBBBBBBBB=eqqqeweweweqwwe7BBBBBBBBBBBBBBBBBB#0qqqeqqqwweqqww8BBBBBBBBBBBBBBBBBBBB",
"BBBBBBBBBBBBBBBBBBBBB7qqqqqqwwwwqqqq0BBBBBBBBBBBBBBBBBBB=qeqqqwwwwwqqqqq7BBBBBBBBBBBBBBBBBB$0wwwqqqqwwwwqqq9BBBBBBBBBBBBBBBBBBBB",
"BBBBBBBBBBBBBBBBBBBBB7wqwwwqwwq0wqww0BBBBBBBBBBBBBBBBBBB=qwwww0wwwww0wqq5BBBBBBBBBBBBBBBBBB$9wwwwwwqww0wwww9BBBBBBBBBBBBBBBBBBBB",
"BBBBBBBBBBBBBBBBBBBBB5qq0wqw0ww0qw000BBBBBBBBBBBBBBBBBBB=q0w0w0qw000qw0w7BBBBBBBBBBBBBBBBBB$00w0w0qw0w0qq009BBBBBBBBBBBBBBBBBBBB",
"BBBBBBBBBBBBBBBBBBBBB7000000000000000BBBBBBBBBBBBBBBBBBB=00000000w0000005BBBBBBBBBBBBBBBBBBB9000000000000008BBBBBBBBBBBBBBBBBBBB",
"BBBBBBBBBBBBBBBBBBBBB3000090000000008BBBBBBBBBBBBBBBBBBB*0000000000000093BBBBBBBBBBBBBBBBBBB8000000900900006BBBBBBBBBBBBBBBBBBBB",
"BBBBBBBBBBBBBBBBBBBBB*090000000900093BBBBBBBBBBBBBBBBBBBB309009009900006BBBBBBBBBBBBBBBBBBBB-090000000009091BBBBBBBBBBBBBBBBBBBB",
"BBBBBBBBBBBBBBBBBBBBBB-7900000900081BBBBBBBBBBBBBBBBBBBBB$2099000900095BBBBBBBBBBBBBBBBBBBBBB-7009909090971BBBBBBBBBBBBBBBBBBBBB",
"BBBBBBBBBBBBBBBBBBBBBB O&&&&&&&&&&%BBBBBBBBBBBBBBBBBBBBBBB.%&&&&&&&&&&BBBBBBBBBBBBBBBBBBBBBBB #&&&&&&&&&*#BBBBBBBBBBBBBBBBBBBBBB",
"BBBBBBBBBBBBBBBBBBBBBBB          BBBBBBBBBBBBBBBBBBBBBBBBB           BBBBBBBBBBBBBBBBBBBBBBBBB          BBBBBBBBBBBBBBBBBBBBBBBB",
"BBBBBBBBBBBBBBBBBBBBBBBBB      BBBBBBBBBBBBBBBBBBBBBBBBBBBBB       BBBBBBBBBBBBBBBBBBBBBBBBBBBBB      BBBBBBBBBBBBBBBBBBBBBBBBBB",
"BBBBBBBBBBBBBBBBBBBBBBBBBBBBBBBBBBBBBBBBBBBBBBBBBBBBBBBBBBBBBBBBBBBBBBBBBBBBBBBBBBBBBBBBBBBBBBBBBBBBBBBBBBBBBBBBBBBBBBBBBBBBBBBB",
"BBBBBBBBBBBBBBBBBBBBBBBBBBBBBBBBBBBBBBBBBBBBBBBBBBBBBBBBBBBBBBBBBBBBBBBBBBBBBBBBBBBBBBBBBBBBBBBBBBBBBBBBBBBBBBBBBBBBBBBBBBBBBBBB",
"BBBBBBBBBBBBBBBBBBBBBBBBBBBBBBBBBBBBBBBBBBBBBBBBBBBBBBBBBBBBBBBBBBBBBBBBBBBBBBBBBBBBBBBBBBBBBBBBBBBBBBBBBBBBBBBBBBBBBBBBBBBBBBBB",
"BBBBBBBBBBBBBBBBBBBBBBBBBBBBBBBBBBBBBBBBBBBBBBBBBBBBBBBBBBBBBBBBBBBBBBBBBBBBBBBBBBBBBBBBBBBBBBBBBBBBBBBBBBBBBBBBBBBBBBBBBBBBBBBB",
"BBBBBBBBBBBBBBBBBBBBBBBBBBBBBBBBBBBBBBBBBBBBBBBBBBBBBBBBBBBBBBBBBBBBBBBBBBBBBBBBBBBBBBBBBBBBBBBBBBBBBBBBBBBBBBBBBBBBBBBBBBBBBBBB",
"BBBBBBBBBBBBBBBBBBBBBBBBBBBBBBBBBBBBBBBBBBBBBBBBBBBBBBBBBBBBBBBBBBBBBBBBBBBBBBBBBBBBBBBBBBBBBBBBBBBBBBBBBBBBBBBBBBBBBBBBBBBBBBBB",
"BBBBBBBBBBBBBBBBBBBBBBBBBBBBBBBBBBBBBBBBBBBBBBBBBBBBBBBBBBBBBBBBBBBBBBBBBBBBBBBBBBBBBBBBBBBBBBBBBBBBBBBBBBBBBBBBBBBBBBBBBBBBBBBB",
"BBBBBBBBBBBBBBBBBBBBBBBBBBBBBBBBBBBBBBBBBBBBBBBBBBBBBBBBBBBBBBBBBBBBBBBBBBBBBBBBBBBBBBBBBBBBBBBBBBBBBBBBBBBBBBBBBBBBBBBBBBBBBBBB",
"BBBBBBBBBBBBBBBBBBBBBBBBBBBBBBBBBBBBBBBBBBBBBBBBBBBBBBBBBBBBBBBBBBBBBBBBBBBBBBBBBBBBBBBBBBBBBBBBBBBBBBBBBBBBBBBBBBBBBBBBBBBBBBBB",
"BBBBBBBBBBBBBBBBBBBBBBBBBBBBBBBBBBBBBBBBBBBBBBBBBBBBBBBBBBBBBBBBBBBBBBBBBBBBBBBBBBBBBBBBBBBBBBBBBBBBBBBBBBBBBBBBBBBBBBBBBBBBBBBB",
"BBBBBBBBBBBBBBBBBBBBBBBBBBBBBBBBBBBBBBBBBBBBBBBBBBBBBBBBBBBBBBBBBBBBBBBBBBBBBBBBBBBBBBBBBBBBBBBBBBBBBBBBBBBBBBBBBBBBBBBBBBBBBBBB",
"BBBBBBBBBBBBBBBBBBBBBBBBBBBBBBBBBBBBBBBBBBBBBBBBBBBBBBBBBBBBBBBBBBBBBBBBBBBBBBBBBBBBBBBBBBBBBBBBBBBBBBBBBBBBBBBBBBBBBBBBBBBBBBBB",
"BBBBBBBBBBBBBBBBBBBBBBBBBBBBBBBBBBBBBBBBBBBBBBBBBBBBBBBBBBBBBBBBBBBBBBBBBBBBBBBBBBBBBBBBBBBBBBBBBBBBBBBBBBBBBBBBBBBBBBBBBBBBBBBB",
"BBBBBBBBBBBBBBBBBBBBBBBBBBBBBBBBBBBBBBBBBBBBBBBBBBBBBBBBBBBBBBBBBBBBBBBBBBBBBBBBBBBBBBBBBBBBBBBBBBBBBBBBBBBBBBBBBBBBBBBBBBBBBBBB",
"BBBBBBBBBBBBBBBBBBBBBBBBBBBBBBBBBBBBBBBBBBBBBBBBBBBBBBBBBBBBBBBBBBBBBBBBBBBBBBBBBBBBBBBBBBBBBBBBBBBBBBBBBBBBBBBBBBBBBBBBBBBBBBBB",
"BBBBBBBBBBBBBBBBBBBBBBBBBBBBBBBBBBBBBBBBBBBBBBBBBBBBBBBBBBBBBBBBBBBBBBBBBBBBBBBBBBBBBBBBBBBBBBBBBBBBBBBBBBBBBBBBBBBBBBBBBBBBBBBB",
"BBBBBBBBBBBBBBBBBBBBBBBBBBBBBBBBBBBBBBBBBBBBBBBBBBBBBBBBBBBBBBBBBBBBBBBBBBBBBBBBBBBBBBBBBBBBBBBBBBBBBBBBBBBBBBBBBBBBBBBBBBBBBBBB",
"BBBBBBBBBBBBBBBBBBBBBBBBBBBBBBBBBBBBBBBBBBBBBBBBBBBBBBBBBBBBBBBBBBBBBBBBBBBBBBBBBBBBBBBBBBBBBBBBBBBBBBBBBBBBBBBBBBBBBBBBBBBBBBBB"
};
