/* XPM */
static char * close_inactive_xpm[] = {
"22 26 67 1",
" 	c None",
".	c #1E1E1E",
"+	c #1C1C1C",
"@	c #121311",
"#	c #0B0D0A",
"$	c #080A07",
"%	c #171716",
"&	c #0A0B08",
"*	c #151810",
"=	c #1F2419",
"-	c #242A1D",
";	c #14180F",
">	c #0B0D08",
",	c #1F2519",
"'	c #272D20",
")	c #292F21",
"!	c #293021",
"~	c #202519",
"{	c #282E20",
"]	c #2A3122",
"^	c #2C3324",
"/	c #2D3424",
"(	c #0B0C08",
"_	c #1C1C1B",
":	c #545C52",
"<	c #434B3E",
"[	c #313827",
"}	c #0C0D0A",
"|	c #5F6960",
"1	c #485042",
"2	c #1F2418",
"3	c #090A07",
"4	c #626D62",
"5	c #212120",
"6	c #242B1C",
"7	c #090B07",
"8	c #242522",
"9	c #0D0F0B",
"0	c #0D0F0C",
"a	c #252723",
"b	c #191B16",
"c	c #2E3028",
"d	c #0A0D09",
"e	c #2E3228",
"f	c #212221",
"g	c #2C2F29",
"h	c #262A22",
"i	c #282C23",
"j	c #2B2F28",
"k	c #353930",
"l	c #2B2F27",
"m	c #0B0E09",
"n	c #1F2318",
"o	c #2B3027",
"p	c #343930",
"q	c #1E1E1D",
"r	c #33372E",
"s	c #3D4436",
"t	c #252920",
"u	c #121710",
"v	c #0A0D08",
"w	c #32362E",
"x	c #242623",
"y	c #363A32",
"z	c #41473B",
"A	c #464E3F",
"B	c #242523",
"......................",
"......................",
"......................",
"......................",
"......................",
"......+@#$$#@+........",
".....%&*=--=;&%.......",
"....%>,')!!)'~>%......",
"...+&,{]^//^]{~(_.....",
"...@*']:<[[<:]';@.....",
"...}=)^<|11|<^)2#.....",
"...3-!/[1441[/!-3.....",
"..53-!/[1441[/!675....",
"..89=)^<|11|<^)208....",
"..ab;']:<[[<:]';ba....",
"..5c&~{]^//^]{~def....",
"...gh>~')!!)'~>ij.....",
"....klm;2--n;mopq.....",
".....rstuvvutsw.......",
"......xyzAAzyB........",
"......................",
"......................",
"......................",
"......................",
"......................",
"......................"};
