/* XPM */
static char * close_prelight_xpm[] = {
"22 26 67 1",
" 	c None",
".	c #1E1E1E",
"+	c #1C1C1C",
"@	c #121311",
"#	c #0B0D0A",
"$	c #080A07",
"%	c #171716",
"&	c #0C0B08",
"*	c #331912",
"=	c #4E2118",
"-	c #59241A",
";	c #321911",
">	c #130E09",
",	c #512118",
"'	c #56261D",
")	c #4F281D",
"!	c #4C291D",
"~	c #53271C",
"{	c #49291E",
"]	c #432B1F",
"^	c #402D20",
"/	c #0C0C08",
"(	c #1C1C1B",
"_	c #DD4F4D",
":	c #904038",
"<	c #393223",
"[	c #321810",
"}	c #0C0D0A",
"|	c #4F2118",
"1	c #FE5656",
"2	c #8E453C",
"3	c #090A07",
"4	c #58241A",
"5	c #212120",
"6	c #59251A",
"7	c #090B07",
"8	c #242522",
"9	c #0D0F0B",
"0	c #0D0F0C",
"a	c #252723",
"b	c #191B16",
"c	c #2E3028",
"d	c #0D0D09",
"e	c #2E3228",
"f	c #212221",
"g	c #2C2F29",
"h	c #262A22",
"i	c #282C23",
"j	c #2B2F28",
"k	c #353930",
"l	c #2B2F27",
"m	c #0E0E09",
"n	c #4E2018",
"o	c #2B3027",
"p	c #343930",
"q	c #1E1E1D",
"r	c #33372E",
"s	c #3D4436",
"t	c #252920",
"u	c #121710",
"v	c #0A0D08",
"w	c #32362E",
"x	c #242623",
"y	c #363A32",
"z	c #41473B",
"A	c #464E3F",
"B	c #242523",
"......................",
"......................",
"......................",
"......................",
"......................",
"......+@#$$#@+........",
".....%&*=--=;&%.......",
"....%>,')!!)',>%......",
"...+&,~{]^^]{~,/(.....",
"...@*'{_:<<:_{'[@.....",
"...}|)]:1221:])=#.....",
"...34!^<2112<^!43.....",
"..534!^<2112<^!675....",
"..89|)]:1221:])=08....",
"..ab;'{_:<<:_{'[ba....",
"..5c&,~{]^^]{~,def....",
"...gh>,')!!)',>ij.....",
"....klm[=44n[mopq.....",
".....rstuvvutsw.......",
"......xyzAAzyB........",
"......................",
"......................",
"......................",
"......................",
"......................",
"......................"};
