/* XPM */
static char * close_active_xpm[] = {
"22 26 38 1",
" 	c None",
".	c #1E1E1E",
"+	c #111210",
"@	c #080A07",
"#	c #0B0C09",
"$	c #0C0E09",
"%	c #20221E",
"&	c #22251F",
"*	c #1F201E",
"=	c #242820",
"-	c #292E22",
";	c #2C3223",
">	c #0C0D09",
",	c #AEBABD",
"'	c #727C76",
")	c #313827",
"!	c #121210",
"~	c #C8D6DD",
"{	c #75807A",
"]	c #090A07",
"^	c #090B07",
"/	c #141613",
"(	c #171816",
"_	c #242522",
":	c #0E100D",
"<	c #282B24",
"[	c #212220",
"}	c #353930",
"|	c #0E110D",
"1	c #232521",
"2	c #343930",
"3	c #33372E",
"4	c #3D4436",
"5	c #0B0E09",
"6	c #32362E",
"7	c #363A32",
"8	c #41473B",
"9	c #464E3F",
"......................",
"......................",
"......................",
"......................",
"......................",
"........+@@+..........",
"......#......#........",
".....$..%&&%..$.......",
"....#.*=-;;-=*.>......",
"......=,'))',=........",
"...!.%-'~{{~'-%.+.....",
"...].&;){~~{);&.].....",
"...].&;){~~{);&.^.....",
".../.%-'~{{~'-%.(.....",
"......=,'))',=........",
"..._#.*=-;;-=*.:<.....",
"...[.$..%&&%..$.[.....",
"....}[|......|12......",
".....34..55..46.......",
".......789987.........",
"......................",
"......................",
"......................",
"......................",
"......................",
"......................"};
