/* XPM */
static char * close_pressed_xpm[] = {
"22 26 72 1",
" 	c None",
".	c #1E1E1E",
"+	c #1C1C1C",
"@	c #121311",
"#	c #0B0D0A",
"$	c #080A07",
"%	c #171716",
"&	c #0A0B08",
"*	c #0E1210",
"=	c #121619",
"-	c #13191D",
";	c #090C08",
">	c #121719",
",	c #14191D",
"'	c #13181C",
")	c #131719",
"!	c #12181B",
"~	c #12171A",
"{	c #111619",
"]	c #0B0C08",
"^	c #1C1C1B",
"/	c #652C2E",
"(	c #261B1E",
"_	c #101417",
":	c #0E1110",
"<	c #0C0D0A",
"[	c #131619",
"}	c #D24A4B",
"|	c #D94C4C",
"1	c #25181B",
"2	c #D1494A",
"3	c #121618",
"4	c #090A07",
"5	c #261A1D",
"6	c #212120",
"7	c #3B1F21",
"8	c #FE5656",
"9	c #131A1C",
"0	c #090B07",
"a	c #242522",
"b	c #0D0F0B",
"c	c #0D0F0C",
"d	c #252723",
"e	c #191B16",
"f	c #DA4C4D",
"g	c #2E3028",
"h	c #662E2F",
"i	c #271D20",
"j	c #090D09",
"k	c #2E3228",
"l	c #212221",
"m	c #2C2F29",
"n	c #262A22",
"o	c #282C23",
"p	c #2B2F28",
"q	c #353930",
"r	c #2B2F27",
"s	c #0A0E09",
"t	c #2B3027",
"u	c #343930",
"v	c #1E1E1D",
"w	c #33372E",
"x	c #3D4436",
"y	c #252920",
"z	c #121710",
"A	c #0A0D08",
"B	c #32362E",
"C	c #242623",
"D	c #363A32",
"E	c #41473B",
"F	c #464E3F",
"G	c #242523",
"......................",
"......................",
"......................",
"......................",
"......................",
"......+@#$$#@+........",
".....%&*=--=*&%.......",
"....%;>,'''',);%......",
"...+&>-!~{{~!-)]^.....",
"...@*,!/(__(/!,:@.....",
"...<['~}|11|2~'3#.....",
"...4-'{5||||5{'-4.....",
"..64-'{_7887_{'906....",
"..ab['~(||||(~'3ca....",
"..de*,!}f55f2!,:ed....",
"..6g&)-hi{{ih-)jkl....",
"...mn;),'''',);op.....",
"....qrs:3--3:stuv.....",
".....wxyzAAzyxB.......",
"......CDEFFEDG........",
"......................",
"......................",
"......................",
"......................",
"......................",
"......................"};
