/* XPM */
static char * maximize_prelight_xpm[] = {
"22 26 71 1",
" 	c None",
".	c #1E1E1E",
"+	c #1C1C1C",
"@	c #121311",
"#	c #0B0F0C",
"$	c #090E0A",
"%	c #171716",
"&	c #0B0E0C",
"*	c #151C18",
"=	c #1E2A24",
"-	c #242F29",
";	c #141C17",
">	c #0C110E",
",	c #1E2B24",
"'	c #26342F",
")	c #273733",
"!	c #273936",
"~	c #1F2B24",
"{	c #263630",
"]	c #283B38",
"^	c #293F3D",
"/	c #294040",
"(	c #0C0E0C",
"_	c #1C1C1B",
":	c #2B4446",
"<	c #2D474A",
"[	c #0C0F0C",
"}	c #2C4A4E",
"|	c #5F924D",
"1	c #1E2A23",
"2	c #9EE744",
"3	c #0A0D0B",
"4	c #212120",
"5	c #5E8D48",
"6	c #609552",
"7	c #243028",
"8	c #0B0D0C",
"9	c #242522",
"0	c #0D100E",
"a	c #8BCB44",
"b	c #5E8F4A",
"c	c #2D4E53",
"d	c #0D110E",
"e	c #252723",
"f	c #191B16",
"g	c #2E3028",
"h	c #0C0F0D",
"i	c #2E3228",
"j	c #212221",
"k	c #2C2F29",
"l	c #262A22",
"m	c #282C23",
"n	c #2B2F28",
"o	c #353930",
"p	c #2B2F27",
"q	c #1E2923",
"r	c #0C100E",
"s	c #2B3027",
"t	c #343930",
"u	c #1E1E1D",
"v	c #33372E",
"w	c #3D4436",
"x	c #252920",
"y	c #121812",
"z	c #0B110C",
"A	c #32362E",
"B	c #242623",
"C	c #363A32",
"D	c #41473B",
"E	c #464E3F",
"F	c #242523",
"......................",
"......................",
"......................",
"......................",
"......................",
"......+@#$$#@+........",
".....%&*=--=;&%.......",
"....%>,')!!)'~>%......",
"...+&,{]^//^]{~(_.....",
"...@*']/:<<:/]';@.....",
"...[=)^:}||}:^)1#.....",
"...$-!/<|22|</!-3.....",
"..43-!/526625/!784....",
"..90=)^abccba^)1d9....",
"..ef;']/:<<:/]';fe....",
"..4g#~{]^//^]{~hij....",
"...kl>~')!!)'~>mn.....",
"....op>;1--q;rstu.....",
".....vwxyzzyxwA.......",
"......BCDEEDCF........",
"......................",
"......................",
"......................",
"......................",
"......................",
"......................"};
