/* XPM */
static char * bottom_right_inactive_xpm[] = {
"20 20 13 1",
" 	c None",
".	c #000000",
"+	c #0c0c0c",
"@	c #060505",
"#	c #050605",
"$      c #060505",
";	c #000000",
">	c #000000",
",	c #050505",
"=	c #0e0e0d",
"-	c #000000",
"!	c #050605",
"'	c #040303",
"              .=!$'-",
"              .=!$'-",
"              .=!$'-",
"              .=!$'-",
"              .=!$'-",
"              .=!$'-",
"              .=!$'-",
"              .=!$'-",
"              .=!$'-",
"              .=!$'-",
"              .=!$'-",
"              .=!$'-",
"              .=!$'-",
"              .=!$'-",
";;;;;;;;;;;;;;#=!$'-",
"++++++++++++++++@$'-",
"@@@@@@@@@@@@@@@@@$'-",
"$$$$$$$$$$$$$$$$$'@.",
"#################.. ",
">>>>>>>>>>>>>>>>..  "};
