/* XPM */
static char * bottom_right_inactive_xpm[] = {
"20 20 11 1",
" 	c None",
".	c #0f0f0f",
"+	c #1d1d1d",
"@	c #141414",
"#	c #101010",
"$      c #121212",
";	c #0f0f0f",
">	c #050505",
",	c #050505",
"=	c #1f1f1f",
"-	c #060606",
"              .=@$.-",
"              .=@$.-",
"              .=@$.-",
"              .=@$.-",
"              .=@$.-",
"              .=@$.-",
"              .=@$.-",
"              .=@$.-",
"              .=@$.-",
"              .=@$.-",
"              .=@$.-",
"              .=@$.-",
"              .=@$.-",
"              .=@$.-",
";;;;;;;;;;;;;;#=@$.-",
"++++++++++++++++@$.-",
"@@@@@@@@@@@@@@@@@$.-",
"$$$$$$$$$$$$$$$$$.@,",
"#################,, ",
">>>>>>>>>>>>>>>>,,  "};
