/* XPM */
static char * bottom_left_inactive_xpm[] = {
"20 20 9 1",
" 	c None",
".	c #0d0d0d",
"+	c #1d1d1d",
"@	c #141414",
"#	c #101010",
"$      c #121212",
";	c #0f0f0f",
">	c #050505",
",	c #090909",
".+@$#;              ",
".+@$#;              ",
".+@$#;              ",
".+@$#;              ",
".+@$#;              ",
".+@$#;              ",
".+@$#;              ",
".+@$#;              ",
".+@$#;              ",
".+@$#;              ",
".+@$#;              ",
".+@$#;              ",
".+@$#;              ",
".+@$#;              ",
".+@$##;;;;;;;;;;;;;;",
".+@@$+++++++++++++++",
".+$$@@@@@@@@@@@@@@@@",
",##$$$$$$$$$$$$$$$$$",
" ,##################",
"  ,,>>>>>>>>>>>>>>>>"};
