/* XPM */
static char * left_active_xpm[] = {
"6 32 6 1",
" 	c None",
".	c #000000",
"+	c #0f0f0f",
"@	c #060505",
"#	c #060605",
"$      c #050605",
".+@$#.",
".+@$#.",
".+@$#.",
".+@$#.",
".+@$#.",
".+@$#.",
".+@$#.",
".+@$#.",
".+@$#.",
".+@$#.",
".+@$#.",
".+@$#.",
".+@$#.",
".+@$#.",
".+@$#.",
".+@$#.",
".+@$#.",
".+@$#.",
".+@$#.",
".+@$#.",
".+@$#.",
".+@$#.",
".+@$#.",
".+@$#.",
".+@$#.",
".+@$#.",
".+@$#.",
".+@$#.",
".+@$#.",
".+@$#.",
".+@$#.",
".+@$#."};
