/* XPM */
static char * right_active_xpm[] = {
"6 32 7 1",
" 	c None",
".	c #0f0f0f",
"#      c #1f1f1f",
"+	c #141414",
"@	c #0f0f0f",
"$      c #131313",
"%	c #060606",
".#+$@%",
".#+$@%",
".#+$@%",
".#+$@%",
".#+$@%",
".#+$@%",
".#+$@%",
".#+$@%",
".#+$@%",
".#+$@%",
".#+$@%",
".#+$@%",
".#+$@%",
".#+$@%",
".#+$@%",
".#+$@%",
".#+$@%",
".#+$@%",
".#+$@%",
".#+$@%",
".#+$@%",
".#+$@%",
".#+$@%",
".#+$@%",
".#+$@%",
".#+$@%",
".#+$@%",
".#+$@%",
".#+$@%",
".#+$@%",
".#+$@%",
".#+$@%"};
