/* XPM */
static char * title_1_inactive_xpm[] = {
"4 22 8 1",
" 	c None",
".	c #000000",
"+	c #FFFFFF s active_hilight_1",
"@	c #D9D1BF s active_color_1",
"#	c #CEC7B5 s active_mid_1",
"$	c #B3AD9D s active_shadow_1",
"%	c #080808",
"&	c #9D9D9D s active_shadow_2",
"....",
"++++",
"++++",
"@@@@",
"@@@@",
"@@@@",
"@@@@",
"@@@@",
"@@@@",
"@@@@",
"@@@@",
"@@@@",
"@@@@",
"####",
"####",
"####",
"####",
"####",
"$$$$",
"....",
"%%%%",
"&&&&"};
