/* XPM */
static char * buttonufcs_xpm[] = {
"15 15 2 1",
" 	c #6AEDA5",
".	c #1B7648",
"               ",
" ............. ",
" ............. ",
" ..         .. ",
" ..         .. ",
" ..         .. ",
" ..         .. ",
" ..         .. ",
" ..         .. ",
" ..         .. ",
" ..         .. ",
" ..         .. ",
" ............. ",
" ............. ",
"               "};
