/* XPM */
static char * close_active_xpm[] = {
"22 26 39 1",
" 	c None",
".	c #888888",
"+	c #1E1E1E",
"@	c #111210",
"#	c #080A07",
"$	c #0B0C09",
"%	c #0C0E09",
"&	c #20221E",
"*	c #22251F",
"=	c #1F201E",
"-	c #242820",
";	c #292E22",
">	c #2C3223",
",	c #0C0D09",
"'	c #AEBABD",
")	c #727C76",
"!	c #313827",
"~	c #121210",
"{	c #C8D6DD",
"]	c #75807A",
"^	c #090A07",
"/	c #090B07",
"(	c #141613",
"_	c #171816",
":	c #242522",
"<	c #0E100D",
"[	c #282B24",
"}	c #212220",
"|	c #353930",
"1	c #0E110D",
"2	c #232521",
"3	c #343930",
"4	c #33372E",
"5	c #3D4436",
"6	c #0B0E09",
"7	c #32362E",
"8	c #363A32",
"9	c #41473B",
"0	c #464E3F",
"......................",
"++++++++++++++++++++++",
"++++++++++++++++++++++",
"++++++++++++++++++++++",
"++++++++++++++++++++++",
"++++++++@##@++++++++++",
"++++++$++++++$++++++++",
"+++++%++&**&++%+++++++",
"++++$+=-;>>;-=+,++++++",
"++++++-')!!)'-++++++++",
"+++~+&;){]]{);&+@+++++",
"+++^+*>!]{{]!>*+^+++++",
"+++^+*>!]{{]!>*+/+++++",
"+++(+&;){]]{);&+_+++++",
"++++++-')!!)'-++++++++",
"+++:$+=-;>>;-=+<[+++++",
"+++}+%++&**&++%+}+++++",
"++++|}1++++++123++++++",
"+++++45++66++57+++++++",
"+++++++890098+++++++++",
"++++++++++++++++++++++",
"++++++++++++++++++++++",
"++++++++++++++++++++++",
"++++++++++++++++++++++",
"++++++++++++++++++++++",
"++++++++++++++++++++++"};
