/* XPM */
static char * close_inactive_xpm[] = {
"22 26 68 1",
" 	c None",
".	c #888888",
"+	c #1E1E1E",
"@	c #1C1C1C",
"#	c #121311",
"$	c #0B0D0A",
"%	c #080A07",
"&	c #171716",
"*	c #0A0B08",
"=	c #151810",
"-	c #1F2419",
";	c #242A1D",
">	c #14180F",
",	c #0B0D08",
"'	c #1F2519",
")	c #272D20",
"!	c #292F21",
"~	c #293021",
"{	c #202519",
"]	c #282E20",
"^	c #2A3122",
"/	c #2C3324",
"(	c #2D3424",
"_	c #0B0C08",
":	c #1C1C1B",
"<	c #545C52",
"[	c #434B3E",
"}	c #313827",
"|	c #0C0D0A",
"1	c #5F6960",
"2	c #485042",
"3	c #1F2418",
"4	c #090A07",
"5	c #626D62",
"6	c #212120",
"7	c #242B1C",
"8	c #090B07",
"9	c #242522",
"0	c #0D0F0B",
"a	c #0D0F0C",
"b	c #252723",
"c	c #191B16",
"d	c #2E3028",
"e	c #0A0D09",
"f	c #2E3228",
"g	c #212221",
"h	c #2C2F29",
"i	c #262A22",
"j	c #282C23",
"k	c #2B2F28",
"l	c #353930",
"m	c #2B2F27",
"n	c #0B0E09",
"o	c #1F2318",
"p	c #2B3027",
"q	c #343930",
"r	c #1E1E1D",
"s	c #33372E",
"t	c #3D4436",
"u	c #252920",
"v	c #121710",
"w	c #0A0D08",
"x	c #32362E",
"y	c #242623",
"z	c #363A32",
"A	c #41473B",
"B	c #464E3F",
"C	c #242523",
"......................",
"++++++++++++++++++++++",
"++++++++++++++++++++++",
"++++++++++++++++++++++",
"++++++++++++++++++++++",
"++++++@#$%%$#@++++++++",
"+++++&*=-;;->*&+++++++",
"++++&,')!~~!){,&++++++",
"+++@*']^/((/^]{_:+++++",
"+++#=)^<[}}[<^)>#+++++",
"+++|-!/[1221[/!3$+++++",
"+++4;~(}2552}(~;4+++++",
"++64;~(}2552}(~786++++",
"++90-!/[1221[/!3a9++++",
"++bc>)^<[}}[<^)>cb++++",
"++6d*{]^/((/^]{efg++++",
"+++hi,{)!~~!){,jk+++++",
"++++lmn>3;;o>npqr+++++",
"+++++stuvwwvutx+++++++",
"++++++yzABBAzC++++++++",
"++++++++++++++++++++++",
"++++++++++++++++++++++",
"++++++++++++++++++++++",
"++++++++++++++++++++++",
"++++++++++++++++++++++",
"++++++++++++++++++++++"};
