/* XPM */
static char * maximize_prelight_xpm[] = {
"22 26 72 1",
" 	c None",
".	c #888888",
"+	c #1E1E1E",
"@	c #1C1C1C",
"#	c #121311",
"$	c #0B0F0C",
"%	c #090E0A",
"&	c #171716",
"*	c #0B0E0C",
"=	c #151C18",
"-	c #1E2A24",
";	c #242F29",
">	c #141C17",
",	c #0C110E",
"'	c #1E2B24",
")	c #26342F",
"!	c #273733",
"~	c #273936",
"{	c #1F2B24",
"]	c #263630",
"^	c #283B38",
"/	c #293F3D",
"(	c #294040",
"_	c #0C0E0C",
":	c #1C1C1B",
"<	c #2B4446",
"[	c #2D474A",
"}	c #0C0F0C",
"|	c #2C4A4E",
"1	c #5F924D",
"2	c #1E2A23",
"3	c #9EE744",
"4	c #0A0D0B",
"5	c #212120",
"6	c #5E8D48",
"7	c #609552",
"8	c #243028",
"9	c #0B0D0C",
"0	c #242522",
"a	c #0D100E",
"b	c #8BCB44",
"c	c #5E8F4A",
"d	c #2D4E53",
"e	c #0D110E",
"f	c #252723",
"g	c #191B16",
"h	c #2E3028",
"i	c #0C0F0D",
"j	c #2E3228",
"k	c #212221",
"l	c #2C2F29",
"m	c #262A22",
"n	c #282C23",
"o	c #2B2F28",
"p	c #353930",
"q	c #2B2F27",
"r	c #1E2923",
"s	c #0C100E",
"t	c #2B3027",
"u	c #343930",
"v	c #1E1E1D",
"w	c #33372E",
"x	c #3D4436",
"y	c #252920",
"z	c #121812",
"A	c #0B110C",
"B	c #32362E",
"C	c #242623",
"D	c #363A32",
"E	c #41473B",
"F	c #464E3F",
"G	c #242523",
"......................",
"++++++++++++++++++++++",
"++++++++++++++++++++++",
"++++++++++++++++++++++",
"++++++++++++++++++++++",
"++++++@#$%%$#@++++++++",
"+++++&*=-;;->*&+++++++",
"++++&,')!~~!){,&++++++",
"+++@*']^/((/^]{_:+++++",
"+++#=)^(<[[<(^)>#+++++",
"+++}-!/<|11|</!2$+++++",
"+++%;~([1331[(~;4+++++",
"++54;~(637736(~895++++",
"++0a-!/bcddcb/!2e0++++",
"++fg>)^(<[[<(^)>gf++++",
"++5h${]^/((/^]{ijk++++",
"+++lm,{)!~~!){,no+++++",
"++++pq,>2;;r>stuv+++++",
"+++++wxyzAAzyxB+++++++",
"++++++CDEFFEDG++++++++",
"++++++++++++++++++++++",
"++++++++++++++++++++++",
"++++++++++++++++++++++",
"++++++++++++++++++++++",
"++++++++++++++++++++++",
"++++++++++++++++++++++"};
