/* XPM */
static char * title_1_inactive_xpm[] = {
"12 26 3 1",
" 	c None",
".	c #888888",
"+	c #1E1E1E",
"............",
"++++++++++++",
"++++++++++++",
"++++++++++++",
"++++++++++++",
"++++++++++++",
"++++++++++++",
"++++++++++++",
"++++++++++++",
"++++++++++++",
"++++++++++++",
"++++++++++++",
"++++++++++++",
"++++++++++++",
"++++++++++++",
"++++++++++++",
"++++++++++++",
"++++++++++++",
"++++++++++++",
"++++++++++++",
"++++++++++++",
"++++++++++++",
"++++++++++++",
"++++++++++++",
"++++++++++++",
"++++++++++++"};
