#define desk_toggled_pressed_width 6
#define desk_toggled_pressed_height 6
static unsigned char desk_toggled_pressed_bits[] = {
0x00, 0x00, 0x38, 0x28, 0x38, 0x00 };
