/* XPM */
static char *browser[] = {
/* columns rows colors chars-per-pixel */
"128 128 61 1 ",
"  c black",
". c #000607",
"X c #00090B",
"o c #000C10",
"O c #001217",
"+ c #00151A",
"@ c #00181F",
"# c #001C23",
"$ c #002029",
"% c #00242E",
"& c #002833",
"* c #002C38",
"= c #00303D",
"- c #003442",
"; c #003847",
": c #003B4B",
"> c #003C4E",
", c #003F51",
"< c #004152",
"1 c #004153",
"2 c #004355",
"3 c #004557",
"4 c #004558",
"5 c #00475A",
"6 c #00485C",
"7 c #00495C",
"8 c #00485D",
"9 c #00495D",
"0 c #004B5F",
"q c #004D61",
"w c #004C62",
"e c #004D62",
"r c #004E63",
"t c #005066",
"y c #005166",
"u c #005268",
"i c #00546B",
"p c #00566D",
"a c #005870",
"s c #005A72",
"d c #005C75",
"f c #005E78",
"g c #006079",
"h c #00607A",
"j c #00617C",
"k c #00637F",
"l c #00647E",
"z c #00647F",
"x c #006681",
"c c #006783",
"v c #006784",
"b c #006883",
"n c #006884",
"m c #006985",
"M c #006C89",
"N c #006D8B",
"B c #00708E",
"V c #007190",
"C c #007595",
"Z c #007898",
"A c None",
/* pixels */
"AAAAAAAAAAAAAAAAAAAAAAAAAAAAAAAAAAAAAAAAAAAAAAAAAAAAAAAAAAAAAAAAAAAAAAAAAAAAAAAAAAAAAAAAAAAAAAAAAAAAAAAAAAAAAAAAAAAAAAAAAAAAAAAA",
"AAAAAAAAAAAAAAAAAAAAAAAAAAAAAAAAAAAAAAAAAAAAAAAAAAAAAAAAAAAAAAAAAAAAAAAAAAAAAAAAAAAAAAAAAAAAAAAAAAAAAAAAAAAAAAAAAAAAAAAAAAAAAAAA",
"AAAAAAAAAAAAAAAAAAAAAAAAAAAAAAAAAAAAAAAAAAAAAAAAAAAAAAAAAAAAAAAAAAAAAAAAAAAAAAAAAAAAAAAAAAAAAAAAAAAAAAAAAAAAAAAAAAAAAAAAAAAAAAAA",
"AAAAAAAAAAAAAAAAAAAAAAAAAAAAAAAAAAAAAAAAAAAAAAAAAAAAAAAAAAAAAAAAAAAAAAAAAAAAAAAAAAAAAAAAAAAAAAAAAAAAAAAAAAAAAAAAAAAAAAAAAAAAAAAA",
"AAAAAAAAAAAAAAAAAAAAAAAAAAAAAAAAAAAAAAAAAAAAAAAAAAAAAAAAAAAAAAAAAAAAAAAAAAAAAAAAAAAAAAAAAAAAAAAAAAAAAAAAAAAAAAAAAAAAAAAAAAAAAAAA",
"AAAAAAAAAAAAAAAAAAAAAAAAAAAAAAAAAAAAAAAAAAAAAAAAAAAAAAAAAAAAAAAAAAAAAAAAAAAAAAAAAAAAAAAAAAAAAAAAAAAAAAAAAAAAAAAAAAAAAAAAAAAAAAAA",
"AAAAAAAAAAAAAAAAAAAAAAAAAAAAAAAAAAAAAAAAAAAAAAAAAAAAAAAAAAAAAAAAAAAAAAAAAAAAAAAAAAAAAAAAAAAAAAAAAAAAAAAAAAAAAAAAAAAAAAAAAAAAAAAA",
"AAAAAAAAAAAAAAAAAAAAAAAAAAAAAAAAAAAAAAAAAAAAAAAAAAAAAAAAAAAAAAAAAAAAAAAAAAAAAAAAAAAAAAAAAAAAAAAAAAAAAAAAAAAAAAAAAAAAAAAAAAAAAAAA",
"AAAAAAAAAAAAAAAAAAAAAAAAAAAAAAAAAAAAAAAAAAAAAAAAAAAAAAAAAAAAAAAAAAAAAAAAAAAAAAAAAAAAAAAAAAAAAAAAAAAAAAAAAAAAAAAAAAAAAAAAAAAAAAAA",
"AAAAAAAAAAAAAAAAAAAAAAAAAAAAAAAAAAAAAAAAAAAAAAAAAAAAAAAAAAAAAAAAAAAAAAAAAAAAAAAAAAAAAAAAAAAAAAAAAAAAAAAAAAAAAAAAAAAAAAAAAAAAAAAA",
"AAAAAAAAAAAAAAAAAAAAAAAAAAAAAAAAAAAAAAAAAAAAAAAAAAAAAAAAAAAAAAAAAAAAAAAAAAAAAAAAAAAAAAAAAAAAAAAAAAAAAAAAAAAAAAAAAAAAAAAAAAAAAAAA",
"AAAAAAAAAAAAAAAAAAAAAAAAAAAAAAAAAAAAAAAAAAAAAAAAAAAAAAAAAAAAAAAAAAAAAAAAAAAAAAAAAAAAAAAAAAAAAAAAAAAAAAAAAAAAAAAAAAAAAAAAAAAAAAAA",
"AAAAAAAAAAAAAAAAAAAAAAAAAAAAAAAAAAAAAAAAAAAAAAAAAAAAAmMmmMmMmMMmMMmMMmmmmcAAAAAAAAAAAAAAAAAAAAAAAAAAAAAAAAAAAAAAAAAAAAAAAAAAAAAA",
"AAAAAAAAAAAAAAAAAAAAAAAAAAAAAAAAAAAAAAAAAAAAAAAAAxmmmMmMmmmMmmmMmmmmmMmMmMmmmmAAAAAAAAAAAAAAAAAAAAAAAAAAAAAAAAAAAAAAAAAAAAAAAAAA",
"AAAAAAAAAAAAAAAAAAAAAAAAAAAAAAAAAAAAAAAAAAAAAAmmmmmmmmmmmmmmmmmmmmmmmmmmmmmMmmmmmAAAAAAAAAAAAAAAAAAAAAAAAAAAAAAAAAAAAAAAAAAAAAAA",
"AAAAAAAAAAAAAAAAAAAAAAAAAAAAAAAAAAAAAAAAAAAvvmmmmmmmmmmmmmmmmmmmmmmmmmmmmmmmmmmmmmbxAAAAAAAAAAAAAAAAAAAAAAAAAAAAAAAAAAAAAAAAAAAA",
"AAAAAAAAAAAAAAAAAAAAAAAAAAAAAAAAAAAAAAAAAvbmmmmmmmmmmmmmmmmbmmmbmmmmccmmbbmbmbbmmnmmbmAAAAAAAAAAAAAAAAAAAAAAAAAAAAAAAAAAAAAAAAAA",
"AAAAAAAAAAAAAAAAAAAAAAAAAAAAAAAAAAAAAAAxbbmbbmmbmbvbmbmmnmmbbbbmmmccmmcl00axnmnnmnbbnbvvAAAAAAAAAAAAAAAAAAAAAAAAAAAAAAAAAAAAAAAA",
"AAAAAAAAAAAAAAAAAAAAAAAAAAAAAAAAAAAAAxxbnnbbbbbbhr4rkvbbvnnnbbbbmccccccx=$%=,tgvvvvbnnvvvxAAAAAAAAAAAAAAAAAAAAAAAAAAAAAAAAAAAAAA",
"AAAAAAAAAAAAAAAAAAAAAAAAAAAAAAAAAAAAxvcxvvvvnbbbt*%$;ubbvvvvvvvvccccxccs;-=*%$*>rkvxnxvvvvcAAAAAAAAAAAAAAAAAAAAAAAAAAAAAAAAAAAAA",
"AAAAAAAAAAAAAAAAAAAAAAAAAAAAAAAAAAzvxcvvxvvxnxxxvd8=&%4bxxnxvvxxxnxnccxu0uw4:-*&$-0fxnxnvcxxxAAAAAAAAAAAAAAAAAAAAAAAAAAAAAAAAAAA",
"AAAAAAAAAAAAAAAAAAAAAAAAAAAAAAAAAxxxvcxxxxxnxjxxxxxa4**axvxvxxxcxnxxxxs3hmbkfi5:=&%=0fxxxxxcxxAAAAAAAAAAAAAAAAAAAAAAAAAAAAAAAAAA",
"AAAAAAAAAAAAAAAAAAAAAAAAAAAAAAAgxxxvxxxfpjvp1*,rjxxxf1=4vxxxxxxxxxxxxxgsbCCCBNxar1-&$=0fxxxxxxxzAAAAAAAAAAAAAAAAAAAAAAAAAAAAAAAA",
"AAAAAAAAAAAAAAAAAAAAAAAAAAAAAAgxxxxxxxr-4xxff0*%;9fxzi::jxxxxxxxxxxxxxxxbCAAAZCBmfu3-&=uxxxxxxxxxAAAAAAAAAAAAAAAAAAAAAAAAAAAAAAA",
"AAAAAAAAAAAAAAAAAAAAAAAAAAAAAkxxxxxxlx8%rxpxxf:-*&-1up53lxzxxxxxjfasadffxCAAAAAZZVmfwusxlxlxxxzxxkAAAAAAAAAAAAAAAAAAAAAAAAAAAAAA",
"AAAAAAAAAAAAAAAAAAAAAAAAAAAAjxxxxxzxlxg:,1%5uryr1:;:rdrixlxlxls4-*&%&*-4sBZAAAAAAZCbjzxxlxzzkxlxlxlAAAAAAAAAAAAAAAAAAAAAAAAAAAAA",
"AAAAAAAAAAAAAAAAAAAAAAAAAAAjxjjxllllxzl0;-=-:uxxhpuifjufzxzxzr;&*==---:0gVZAAAAAAZmxxxxzfazxzlllzzzzAAAAAAAAAAAAAAAAAAAAAAAAAAAA",
"AAAAAAAAAAAAAAAAAAAAAAAAAAjxzxxjzxlzkzpwr055rgNCVNmNNxyfzzzzt&-,5rruuipgNCAAAAAACmjxjxjp--glxllzzzzzlAAAAAAAAAAAAAAAAAAAAAAAAAAA",
"AAAAAAAAAAAAAAAAAAAAAAAAAhxjzllljzzzs02sxxljxBCAAZZZCx4plljg4,yfxbNNmNNVCZVNZAAZNzxjxjx3%4ljzzzzlzlzljAAAAAAAAAAAAAAAAAAAAAAAAAA",
"AAAAAAAAAAAAAAAAAAAAAAAAgxjxjxxjllzp:;rxBCCCCZAAAAAACx41pjgu1abVCZZZZZZZZVmjbCZVjfjxxjj5-0lzjljljzjlljjAAAAAAAAAAAAAAAAAAAAAAAAA",
"AAAAAAAAAAAAAAAAAAAAAAAfjzxjjxjjll6-;wjBBbcNZAAAAAAACmr-=:::imCZAAAAAAAZCmfjjmCNasjjjjxu1=5jljzzljjzjzlgAAAAAAAAAAAAAAAAAAAAAAAA",
"AAAAAAAAAAAAAAAAAAAAAAazjjjljjjkj0*>ylNBxjjjcNAAAAAAZBs2-=:rxCZAAAAAAAZNxfrfkjNxr1pjjjfiw::djjjjjjjljjjjgAAAAAAAAAAAAAAAAAAAAAAA",
"AAAAAAAAAAAAAAAAAAAAAAjjjjjjjjkjf;2avVBkgjjjjxNZAAAAACNdrwpxVZAAAAAAACmxjf1pjjxxr-*;285tppfjjjjjjljjjjljjAAAAAAAAAAAAAAAAAAAAAAA",
"AAAAAAAAAAAAAAAAAAAAAfjjjjjjjjjjfwsmCCmgjjjjjjkBZAAAAZCBmbNVZAAAAAAAZBfaga,ejjjxs2;*&=1pffjjjjjgjjjjjjjjjhAAAAAAAAAAAAAAAAAAAAAA",
"AAAAAAAAAAAAAAAAAAAAajgjgjjjgjjjjfjBCBjhjjjjjjgzBAAAAAAZCCCAAAAAAAAACmi150,2jjfvxpsaupshhjjjjjjjjjjjjjgjjjfAAAAAAAAAAAAAAAAAAAAA",
"AAAAAAAAAAAAAAAAAAAAgjjjjjjjjjgjgjjxVxfjgjgjggjgcCAAAAAAAAAAAAAAAAAACNp44r4-5ruvmhgjggjgjgjgjgjggggggjgggjgAAAAAAAAAAAAAAAAAAAAA",
"AAAAAAAAAAAAAAAAAAAdjjgjgjjgjggjjggjkhjgjgggjjggjNCAAAAAAAAAAAAAAAAAZVxssfp,;,pxjhgggggjhggggggjgggggggjggghAAAAAAAAAAAAAAAAAAAA",
"AAAAAAAAAAAAAAAAAAighgggggggjhggjggggggghjghggggglCAAAAAAAAAAAAAAAAAAZCNNNxiwusghhhhfggghhhhgggghhhggghhfhggdAAAAAAAAAAAAAAAAAAA",
"AAAAAAAAAAAAAAAAAAfghhggghfghhhghghhhghghhhhat0udgBZAAAAAAAAAAAAAAAAAAAZZZVngffggghfgggfhghhgffhhhfgfhfhghgffAAAAAAAAAAAAAAAAAAA",
"AAAAAAAAAAAAAAAAApffhffghhhffhfhhffgfhfghfe:*&%&>pNZAAAAAAAAAAAAAAAAAAAAAACNjhgffgfhhfhhfgffgfhfgfgfghfffgffffAAAAAAAAAAAAAAAAAA",
"AAAAAAAAAAAAAAAAAdfgffgfffffhfffgfgfffffffi0>-;:2pMCAAAAAAAAAAAAAAAAAAAAAACxfffffhgfhffgfffffgffffhffffffgffffAAAAAAAAAAAAAAAAAA",
"AAAAAAAAAAAAAAAAiffffgfffhffffgfffffffffhfffpuiipjNZAAAAAAAAAAAAAAAAAAAAAZNpffffffffffffffffffffffffffffffffffaAAAAAAAAAAAAAAAAA",
"AAAAAAAAAAAAAAAAsfffffffffffffffffffffffffsipnNNNBCAAAAAAAAAAAAAAAAAAAAAZCjaffffffffffffffdffffffffffffffffffffAAAAAAAAAAAAAAAAA",
"AAAAAAAAAAAAAAArdffffffffffffffffffffffffr11sNCZZZAAAAAAAAAAAAAAAAAAAAAZCbfffdfdf0;;5ffsdfffffffffffffsffffffdfaAAAAAAAAAAAAAAAA",
"AAAAAAAAAAAAAAApffffffffffdffsfsfffffsfu:=;wlVAAAAAAAAAAAAAAAAAAAAAAAAACmffddfff2&%%$1f05dfffdddsffdfsfffsffsffsAAAAAAAAAAAAAAAA",
"AAAAAAAAAAAAAAAfsfdffsfsfffdfffffdfsfd5-=:rgBZAAAAAAAAAAAAAAAAAAAAAAAAZNfsffffs4*;:;**ru-udddfdddddfdfsfsfsffssfAAAAAAAAAAAAAAAA",
"AAAAAAAAAAAAAAusddsfsfffsfsffssfsfsff3*;0abVZAAAAAAAAAAAAAAAAAAAAAAAAACjpfsfsf5-4isi3=:3%,da5udddddsdsfdfddddsfdaAAAAAAAAAAAAAAA",
"AAAAAAAAAAAAAAaffsfddssfsfssdsfdfsfs4=1pjNCZAAAAAAAAAAAAAAAAAAAAAAAAAZVs4ufsr1-0fNBma4;:-&;;$*3isfsfsfsdsdsfsfsdsAAAAAAAAAAAAAAA",
"AAAAAAAAAAAAAAdddssfssdssddddsfssss4=4sMCZAAAAAAAAAAAAAAAAAAAAAAAAAAAZVs:-14:;wsjmMVMdye9:-==&%=5dsdddddsdsddsdsdAAAAAAAAAAAAAAA",
"AAAAAAAAAAAAA9sdsffssfsfddsdsdsssd0=4fNCAAAAAAAAAAAAAAAAAAAAAAAAAAAAAAVg4-&-4isssdddjkvvjieeq1-&$;edsssssdsdsdsdspAAAAAAAAAAAAAA",
"AAAAAAAAAAAAAisdssfssfssdssdsdsfdu:4fNCAAAAAAAAAAAAAAAAAAAAAAAAAAAAAAACma59issssssssdddBVMmmndr,=%4dssdssssssssssaAAAAAAAAAAAAAA",
"AAAAAAAAAAAAAassssssssssssssssssp,3sNCAAAAAAAAAAAAAAAAAAAAAAAAAAAAAAAAZCvasssssdssssssdhxxvMNMxp42ussssasssssssssaAAAAAAAAAAAAAA",
"AAAAAAAAAAAAAsssssssssssssssssss51aNCAAAAAAAAAAAAAAAAAAAAAAAAAAAAAAAAAZVdsssssssdssssdsasssssddsassssssdsassasssasAAAAAAAAAAAAAA",
"AAAAAAAAAAAA4sassassasassasaasau1imCAAAAAAAAAAAAAAAAAAAAAAAAAAAAAAAAAZVxdasssaaspsssspsssassssasssspssaasssassaasstAAAAAAAAAAAAA",
"AAAAAAAAAAAAesassasasasau949usa00jVZAAAAAAAAAAAAAAAAAAAAAAAAAAAAAAAAACxssssasasasssspsssassapssssssssppsssassisaasiAAAAAAAAAAAAA",
"AAAAAAAAAAAAuasspsasaay>*$$$&,p4sBZAAAAAAAAAAAAAAAAAAAAAAAAAAAAAAAAACmsaspaaasaapspspapsaapssppspppespssppsp4;iaaapAAAAAAAAAAAAA",
"AAAAAAAAAAAAiaaasspsae;*=;;=**2rcCAAAAAAAAAAAAAAAAAAAAAAAAAAAAAAAAAZBdsppppsppspspsspsaasppspspaapi>raaaaaaa4*iaaapAAAAAAAAAAAAA",
"AAAAAAAAAAAApaaapaspu;-2epir410fBZAAAAAAAAAAAAAAAAAAAAAAAAAAAAAAAAAVxspapssppspapappppaapspappsapsa>:papaapay:uaappAAAAAAAAAAAAA",
"AAAAAAAAAAAAppapapppq:ygmBBmjfgNCAAAAAAAAAAAAAAAAAAAAAAAAAAAAAAAAAZBdpspppppppapppppspsppppppapppppe&1ppappppyippapAAAAAAAAAAAAA",
"AAAAAAAAAAA;pappppspeyxVCZZCVVVZAAAAAAAAAAAAAAAAAAAAAAAAAAAAAAAAAAVzppppsppssapaspppppppapsppppapasi:=eppppppppppppAAAAAAAAAAAAA",
"AAAAAAAAAAA;ppppppppygVZAAAAAZZAAAAAAAAAAAAAAAAAAAAAAAAAAAAAAAAAAZBauppppppipppppppppppppppppppppppp0*;ppppppipppppAAAAAAAAAAAAA",
"AAAAAAAAAAA;pppppppppnCVNBAAAAAAAAAAAAAAAAAAAAAAAAAAAAAAAAAAAAAAAZnuipppppppipppppppppppppppppppppppu>&4pppppppppppAAAAAAAAAAAAA",
"AAAAAAAAAAA-pppppppppddspaBAAAAAAAAAAAAAAAAAAAAAAAAAAAAAAAAAAAAAAVgrpppppipipppippippppipppipiipippppe-;iipppipppppAAAAAAAAAAAAA",
"AAAAAAAAAAA-pppiuppppippppgCAAAAAAAAAAAAAAAAAAAAAAAAAAAAAAAAAAAAZVaepupppipipiippupppupiippipiipiiipiu1=0iiiipipiipAAAAAAAAAAAAA",
"AAAAAAAAAAA=piii1:pippiiipaBZAAAAAAAAAAAAAAAAAAAAAAAAAAAAAAAAAAAZNirpiipiiiipiippiiiiiiipiiiiiiiiiiiiie-<ipiiipiiiiAAAAAAAAAAAAA",
"AAAAAAAAAAA-ipii3#:riiiiiipzZAAAAAAAAAAAAAAAAAAAAAAAAAAAAAAAAAAAZNy9iiiiipiiiiiiiiiipiiiiiiiiiiiiiiiiiu,;uiiiiyiiiiAAAAAAAAAAAAA",
"AAAAAAAAAAA-iiii0=%=1tiiiiisCAAAAAAAAAAAAAAAAAAAAAAAAAAAAAAAAAAAZMr3iiiiiiiuiiiuiiiiiiuiiiiuiiiiiiiiuii0:yiuu,5iiiiAAAAAAAAAAAAA",
"AAAAAAAAAAA-uiiur,-*$=,eiiipxZAAAAAZAAAAAAAAAAAAAAAAAAAAAAAAAAAAZme,yiuiuiuiuiuiuiiuuiiuuiuiuiuiiuuiiiiy0uii1$0iuuiAAAAAAAAAAAAA",
"AAAAAAAAAAA%uiuiuur1-&%&;0iusVZZCkdssfxNAAAAAAAAAAAAAAAAAAAAAAAAZNu:0iiuiuiuiuuiuiuiuiuuuiiuuiiuuiuuuuiuriiu5*0uiuuAAAAAAAAAAAAA",
"AAAAAAAAAAA#ruiuisxdr1-*%&,yufNNfpuiuuipgNAAAAAAAAAAAAAAAAAAAAAAZNp:,uuuuuuuuuuuuuuuuuuuuuuuuuuuuuuuuuuuuuuui1riuuuAAAAAAAAAAAAA",
"AAAAAAAAAAAA0iuuifNBmfu4;=*:euiiuuuuuuuuupgZAAAAAAAAAAAAAAAAAAAAAVg3=5uuuuuuuuuuuuuuuuuuuuuuuuuuuuuuuuuuuuuuu3ruuurAAAAAAAAAAAAA",
"AAAAAAAAAAAA0uuuudVZCVmgu3;-,euuuuuuuuuuuuifCAAAAAAAAAAAAAAAAAAAACmr--5uuyuyuuyuututuuuyuyuyuyuyuuuyuuyuuuyuu1ruyurAAAAAAAAAAAAA",
"AAAAAAAAAAAA3utuupBZAAZVNfr1;-3uuyuuyuuuuuuusZAAAAAAAAAAAAAAAAAAAZBf3*=4uyuyuuyuuutyuyuuyuyuuyuuyuyuuruyuurur3uuuu0AAAAAAAAAAAAA",
"AAAAAAAAAAAA;uuyupBZAAAAZVbp1--rrutuurururruugZAAAAAAAAAAAAAAAAAAACNp:*=1ruuru01110utttuuyuuruyruyururyuruut21ttrr1AAAAAAAAAAAAA",
"AAAAAAAAAAAA%truyubZAAAAAZCma1=0uruyruuryuuttpxZAAAAAAAAAAAAAAAAAAACxi:*%*:1:=&%$$*3ututruururuururuuururur5-5rytrAAAAAAAAAAAAAA",
"AAAAAAAAAAAA#ruttujCAAAAAAZCby,rruruturyurruruixZAAAAAAAAAAAAAAAAAAZVxi1-*%%&*---=%-ryryyrrururuururruruyt5--rtuurAAAAAAAAAAAAAA",
"AAAAAAAAAAAAA4ytyysCAAAAAAAZBa0rurttttrtryrrurrifCAAAAAAAAAAAAAAAAAAZCmfr3,:15rpu5;*4trrrruryryrrrurruyrr0-=,ryrr5AAAAAAAAAAAAAA",
"AAAAAAAAAAAAA-rtrrpBZAAAAAAZNprrrurrryryururrurrrpjZAAAAAAAAAAAAAAAAAZCBbjffgxmNNj0=,ryuryrrrrrytrryrryrr1;:7rrrr,AAAAAAAAAAAAAA",
"AAAAAAAAAAAAA%rrrrycZAAAAAACburrrrurryrtrtrurrurrrupxZAAAAAAAAAAAAAAAAAZCCVVCZZZCBf,;rrrrrryrrrrrrrrrrrrr:55rrrrr=AAAAAAAAAAAAAA",
"AAAAAAAAAAAAAO0ryrrfCAAAAAAVgrrrrrrrrrrrrrrrrrrrrrrrrsmAAAAAAAAAAAAAAAAAAAAAAAAAACx0;rrrrrrrrrrrrrrrrrrr04u0rrrr0AAAAAAAAAAAAAAA",
"AAAAAAAAAAAAAA:rrrriBZAAAAZNprrrrrrrrrrrrrrrrrrrrrrrrrujZAAAAAAAAAAAAAAAAAAAAAAAAZNi;5rrrrrrrrwrrqrqrerr9ii0rrer1AAAAAAAAAAAAAAA",
"AAAAAAAAAAAAAA*rerrrjZAAAACxrrrrrrrrrrr0rrrwqrrerr0rrrrrsZAAAAAAAAAAAAAAAAAAAAAAAZVs:3rrerrewrrrrrrrrrrq0purrwrr-AAAAAAAAAAAAAAA",
"AAAAAAAAAAAAAAX1qrrrpCAAAABf0qrrwrrw0rr0wqrr0r0rrrrr0rrriCAAAAAAAAAAAAAAAAAAAAAAAAVg11rwrrrwq0rr0rwr0rrqrpr00rr3AAAAAAAAAAAAAAAA",
"AAAAAAAAAAAAAAA-rr0rrxZAAZBa3r0rrr0rrwrrer0rrr0r0r00r00ruNZAAAAAAAAAAAAAAAAAAAAAAACx4:r00r0rqrwqrqr0rq0rrrrqr0q:AAAAAAAAAAAAAAAA",
"AAAAAAAAAAAAAAA@5rr00pCAAZNp:4r00r0rr00rr0r0q0rqr0wrwwwrtmZAAAAAAAAAAAAAAAAAAAAAAAZmr:00qw0qr00r0r0rr0r00r0r0r5AAAAAAAAAAAAAAAAA",
"AAAAAAAAAAAAAAAA-q0rrrxZAZBa;-2000r0r0r00r0r0rr0r00r0r00umCAAAAAAAAAAAAAAAAAAAAAAAZNi;500rqq0r0000000q004000r0:AAAAAAAAAAAAAAAAA",
"AAAAAAAAAAAAAAAA@4r000pCAAVf3*-rr0er0r0r0r0q0e00r00qq000iNZAAAAAAAAAAAAAAAAAAAAAAAZBs:70q00000000wr0q0q55q0w05AAAAAAAAAAAAAAAAAA",
"AAAAAAAAAAAAAAAA -0w00rgZACNi:&;00000000000r00w00q00q000aBZAAAAAAAAAAAAAAAAAAAAAAAACf<7000w0r0000000000000000:AAAAAAAAAAAAAAAAAA",
"AAAAAAAAAAAAAAAAA@30000uCZZCxt;%;00000000000000000000000fBAAAAAAAAAAAAAAAAAAAAAAAAACg250000000000000000000004AAAAAAAAAAAAAAAAAAA",
"AAAAAAAAAAAAAAAAA =00000fCAZVjw;%;0000000000000000000000jCAAAAAAAAAAAAAAAAAAAAAAAAACg25000000000000000000000-AAAAAAAAAAAAAAAAAAA",
"AAAAAAAAAAAAAAAAAAo,0000rxZAZBg0-*100000000090900090080rxCAAAAAAAAAAAAAAAAAAAAAAAAACg34000000000006000500001AAAAAAAAAAAAAAAAAAAA",
"AAAAAAAAAAAAAAAAAA %00600pCAAZVf4==50500006000905000804tmZAAAAAAAAAAAAAAAAAAAAAAAAAVg2565808805000805050507*AAAAAAAAAAAAAAAAAAAA",
"AAAAAAAAAAAAAAAAAAA -00005aZAACNs1&:0705500050070500905aBZAAAAAAAAAAAAAAAAAAAAAAAAACg350050505050505005077;AAAAAAAAAAAAAAAAAAAAA",
"AAAAAAAAAAAAAAAAAAA +:55500fZAACmu;=3850005505050505995gCAAAAAAAAAAAAAAAAAAAAAAAAAAVg117988750887050588561@AAAAAAAAAAAAAAAAAAAAA",
"AAAAAAAAAAAAAAAAAAAA $50505rgZAZCj5*:550555050505079530bCAAAAAAAAAAAAAAAAAAAAAAAAAACj11058570850570599854%AAAAAAAAAAAAAAAAAAAAAA",
"AAAAAAAAAAAAAAAAAAAAA *88569rxZAZNa:-555500557555055>,aNZAAAAAAAAAAAAAAAAAAAAAAAAAACx4<50505558575595550-AAAAAAAAAAAAAAAAAAAAAAA",
"AAAAAAAAAAAAAAAAAAAAA  =50565rxZZCl6=26558555556565:=0xVAAAAAAAAAAAAAAAAAAAAAAAAAAACx7,5565556555565505-AAAAAAAAAAAAAAAAAAAAAAAA",
"AAAAAAAAAAAAAAAAAAAAAA +:58558rjZZMi-,556556655555,-4fNZAAAAAAAAAAAAAAAAAAAAAAAAAAACmq;455555555555555:@AAAAAAAAAAAAAAAAAAAAAAAA",
"AAAAAAAAAAAAAAAAAAAAAAA @:55555rlZBf,,555555555554:4fNCAAAAAAAAAAAAAAAAAAAAAAAAAAAAZNu;35555555555454,#AAAAAAAAAAAAAAAAAAAAAAAAA",
"AAAAAAAAAAAAAAAAAAAAAAAA @:45554rgVj2<5555555555511aNCAAAAAAAAAAAAAAAAAAAAAAAAAAAAAZNp;1555455545554:#AAAAAAAAAAAAAAAAAAAAAAAAAA",
"AAAAAAAAAAAAAAAAAAAAAAAAA @:445555ix51545454555451imCAAAAAAAAAAAAAAAAAAAAAAAAAAAAAAAVf>:45354545455:#AAAAAAAAAAAAAAAAAAAAAAAAAAA",
"AAAAAAAAAAAAAAAAAAAAAAAAA  @:444454w43445454433535gVAAAAAAAAAAAAAAAAAAAAAAAAAAAAAAAACj3-2453445444:#AAAAAAAAAAAAAAAAAAAAAAAAAAAA",
"AAAAAAAAAAAAAAAAAAAAAAAAAA  @;5444443344344434441iNCAAAAAAAAAAAAAAAAAAAAAAAAAAAAAAAAZmr-,33344334:#AAAAAAAAAAAAAAAAAAAAAAAAAAAAA",
"AAAAAAAAAAAAAAAAAAAAAAAAAAA  O=444434443334333423fVAAAAAAAAAAAAAAAAAAAAAAAAAAAAAAAAACNp,13333333=+AAAAAAAAAAAAAAAAAAAAAAAAAAAAAA",
"AAAAAAAAAAAAAAAAAAAAAAAAAAAA   *343324433333333<rbCAAAAAAAAAAAAAAAAAAAAAAAAAAAAAAAAACgw33333331* AAAAAAAAAAAAAAAAAAAAAAAAAAAAAAA",
"AAAAAAAAAAAAAAAAAAAAAAAAAAAAAA  #;332334232333:<dBZAAAAAAAAAAAAAAAAAAAAAAAAAAAAAAACxu51323223;$AAAAAAAAAAAAAAAAAAAAAAAAAAAAAAAAA",
"AAAAAAAAAAAAAAAAAAAAAAAAAAAAAAA  O*3243223322,-ymCAAAAAAAAAAAAAAAAAAAAAAAAAAAAAZCju522323222=+AAAAAAAAAAAAAAAAAAAAAAAAAAAAAAAAAA",
"AAAAAAAAAAAAAAAAAAAAAAAAAAAAAAAA   $;2222222312yxZAAAAAAAAAAAAAAAAAAAAAAAAAAAZmsr422232222;% AAAAAAAAAAAAAAAAAAAAAAAAAAAAAAAAAAA",
"AAAAAAAAAAAAAAAAAAAAAAAAAAAAAAAAA   o&,3222222225rsxVAAAAAAAAAAAAAAAAAAAAZBxsr5213312312>*o AAAAAAAAAAAAAAAAAAAAAAAAAAAAAAAAAAAA",
"AAAAAAAAAAAAAAAAAAAAAAAAAAAAAAAAAAA   O*>221222131230upjxNVVVZZZZZVVVNxjpy03112<211321,*+ AAAAAAAAAAAAAAAAAAAAAAAAAAAAAAAAAAAAAA",
"AAAAAAAAAAAAAAAAAAAAAAAAAAAAAAAAAAAA    O*:1<1111211111324660rrrrr06543121122<221211>*O  AAAAAAAAAAAAAAAAAAAAAAAAAAAAAAAAAAAAAAA",
"AAAAAAAAAAAAAAAAAAAAAAAAAAAAAAAAAAAAAA    O&;12<11211121111111<11<11111111<1<<1111;&O  AAAAAAAAAAAAAAAAAAAAAAAAAAAAAAAAAAAAAAAAA",
"AAAAAAAAAAAAAAAAAAAAAAAAAAAAAAAAAAAAAAAA    .$=:<<<1<<11<<<<<<11<<1<<1<<111<1<<:=$.  AAAAAAAAAAAAAAAAAAAAAAAAAAAAAAAAAAAAAAAAAAA",
"AAAAAAAAAAAAAAAAAAAAAAAAAAAAAAAAAAAAAAAAAA     o#&-,11111111111111111111,11,-&#o   AAAAAAAAAAAAAAAAAAAAAAAAAAAAAAAAAAAAAAAAAAAAA",
"AAAAAAAAAAAAAAAAAAAAAAAAAAAAAAAAAAAAAAAAAAAAA     .O#%-;:>,1,11,,,1,,>:;=&#O.   AAAAAAAAAAAAAAAAAAAAAAAAAAAAAAAAAAAAAAAAAAAAAAAA",
"AAAAAAAAAAAAAAAAAAAAAAAAAAAAAAAAAAAAAAAAAAAAAAA        .oO+#$$$$$$$$+Oo.      AAAAAAAAAAAAAAAAAAAAAAAAAAAAAAAAAAAAAAAAAAAAAAAAAA",
"AAAAAAAAAAAAAAAAAAAAAAAAAAAAAAAAAAAAAAAAAAAAAAAAAAA                       AAAAAAAAAAAAAAAAAAAAAAAAAAAAAAAAAAAAAAAAAAAAAAAAAAAAAA",
"AAAAAAAAAAAAAAAAAAAAAAAAAAAAAAAAAAAAAAAAAAAAAAAAAAAAAAAAA           AAAAAAAAAAAAAAAAAAAAAAAAAAAAAAAAAAAAAAAAAAAAAAAAAAAAAAAAAAAA",
"AAAAAAAAAAAAAAAAAAAAAAAAAAAAAAAAAAAAAAAAAAAAAAAAAAAAAAAAAAAAAAAAAAAAAAAAAAAAAAAAAAAAAAAAAAAAAAAAAAAAAAAAAAAAAAAAAAAAAAAAAAAAAAAA",
"AAAAAAAAAAAAAAAAAAAAAAAAAAAAAAAAAAAAAAAAAAAAAAAAAAAAAAAAAAAAAAAAAAAAAAAAAAAAAAAAAAAAAAAAAAAAAAAAAAAAAAAAAAAAAAAAAAAAAAAAAAAAAAAA",
"AAAAAAAAAAAAAAAAAAAAAAAAAAAAAAAAAAAAAAAAAAAAAAAAAAAAAAAAAAAAAAAAAAAAAAAAAAAAAAAAAAAAAAAAAAAAAAAAAAAAAAAAAAAAAAAAAAAAAAAAAAAAAAAA",
"AAAAAAAAAAAAAAAAAAAAAAAAAAAAAAAAAAAAAAAAAAAAAAAAAAAAAAAAAAAAAAAAAAAAAAAAAAAAAAAAAAAAAAAAAAAAAAAAAAAAAAAAAAAAAAAAAAAAAAAAAAAAAAAA",
"AAAAAAAAAAAAAAAAAAAAAAAAAAAAAAAAAAAAAAAAAAAAAAAAAAAAAAAAAAAAAAAAAAAAAAAAAAAAAAAAAAAAAAAAAAAAAAAAAAAAAAAAAAAAAAAAAAAAAAAAAAAAAAAA",
"AAAAAAAAAAAAAAAAAAAAAAAAAAAAAAAAAAAAAAAAAAAAAAAAAAAAAAAAAAAAAAAAAAAAAAAAAAAAAAAAAAAAAAAAAAAAAAAAAAAAAAAAAAAAAAAAAAAAAAAAAAAAAAAA",
"AAAAAAAAAAAAAAAAAAAAAAAAAAAAAAAAAAAAAAAAAAAAAAAAAAAAAAAAAAAAAAAAAAAAAAAAAAAAAAAAAAAAAAAAAAAAAAAAAAAAAAAAAAAAAAAAAAAAAAAAAAAAAAAA",
"AAAAAAAAAAAAAAAAAAAAAAAAAAAAAAAAAAAAAAAAAAAAAAAAAAAAAAAAAAAAAAAAAAAAAAAAAAAAAAAAAAAAAAAAAAAAAAAAAAAAAAAAAAAAAAAAAAAAAAAAAAAAAAAA",
"AAAAAAAAAAAAAAAAAAAAAAAAAAAAAAAAAAAAAAAAAAAAAAAAAAAAAAAAAAAAAAAAAAAAAAAAAAAAAAAAAAAAAAAAAAAAAAAAAAAAAAAAAAAAAAAAAAAAAAAAAAAAAAAA",
"AAAAAAAAAAAAAAAAAAAAAAAAAAAAAAAAAAAAAAAAAAAAAAAAAAAAAAAAAAAAAAAAAAAAAAAAAAAAAAAAAAAAAAAAAAAAAAAAAAAAAAAAAAAAAAAAAAAAAAAAAAAAAAAA"
};
