/* XPM */
static char *control_center2[] = {
/* columns rows colors chars-per-pixel */
"128 128 57 1 ",
"  c black",
". c #000709",
"X c #00090B",
"o c #000D11",
"O c #001218",
"+ c #001318",
"@ c #00151A",
"# c #00181D",
"$ c #00181F",
"% c #001D25",
"& c #002129",
"* c #00242E",
"= c #002833",
"- c #002C38",
"; c #002E3A",
": c #002F3A",
"> c #002E3B",
", c #002F3B",
"< c #00303C",
"1 c #00313F",
"2 c #003341",
"3 c #003948",
"4 c #003A49",
"5 c #003B4A",
"6 c #003D4E",
"7 c #003F51",
"8 c #004152",
"9 c #004153",
"0 c #004456",
"q c #004557",
"w c #004558",
"e c #00475A",
"r c #00485C",
"t c #00495C",
"y c #00485D",
"u c #00495D",
"i c #004A5F",
"p c #004C61",
"a c #004D61",
"s c #004C62",
"d c #004D62",
"f c #004E63",
"g c #005066",
"h c #005166",
"j c #005369",
"k c #00546B",
"l c #00566D",
"z c #005870",
"x c #005A72",
"c c #005C75",
"v c #005E78",
"b c #00607A",
"n c #00617C",
"m c #00647E",
"M c #00647F",
"N c #006580",
"B c None",
/* pixels */
"BBBBBBBBBBBBBBBBBBBBBBBBBBBBBBBBBBBBBBBBBBBBBBBBBBBBBBBBBBBBBBBBBBBBBBBBBBBBBBBBBBBBBBBBBBBBBBBBBBBBBBBBBBBBBBBBBBBBBBBBBBBBBBBB",
"BBBBBBBBBBBBBBBBBBBBBBBBBBBBBBBBBBBBBBBBBBBBBBBBBBBBBBBBBBBBBBBBBBBBBBBBBBBBBBBBBBBBBBBBBBBBBBBBBBBBBBBBBBBBBBBBBBBBBBBBBBBBBBBB",
"BBBBBBBBBBBBBBBBBBBBBBBBBBBBBBBBBBBBBBBBBBBBBBBBBBBBBBBBBBBBBBBBBBBBBBBBBBBBBBBBBBBBBBBBBBBBBBBBBBBBBBBBBBBBBBBBBBBBBBBBBBBBBBBB",
"BBBBBBBBBBBBBBBBBBBBBBBBBBBBBBBBBBBBBBBBBBBBBBBBBBBBBBBBBBBBBBBBBBBBBBBBBBBBBBBBBBBBBBBBBBBBBBBBBBBBBBBBBBBBBBBBBBBBBBBBBBBBBBBB",
"BBBBBBBBBBBBBBBBBBBBBBBBBBBBBBBBBBBBBBBBBBBBBBBBBBBBBBBBBBBBBBBBBBBBBBBBBBBBBBBBBBBBBBBBBBBBBBBBBBBBBBBBBBBBBBBBBBBBBBBBBBBBBBBB",
"BBBBBBBBBBBBBBBBBBBBBBBBBBBBBBBBBBBBBBBBBBBBBBBBBBBBBBBBBBBBBBBBBBBBBBBBBBBBBBBBBBBBBBBBBBBBBBBBBBBBBBBBBBBBBBBBBBBBBBBBBBBBBBBB",
"BBBBBBBBBBBBBBBBBBBBBBBBBBBBBBBBBBBBBBBBBBBBBBBBBBBBBBBBBBBBBBBBBBBBBBBBBBBBBBBBBBBBBBBBBBBBBBBBBBBBBBBBBBBBBBBBBBBBBBBBBBBBBBBB",
"BBBBBBBBBBBBBBBBBBBBBBBBBBBBBBBBBBBBBBBBBBBBBBBBBBBBBBBBBBBBBBBBBBBBBBBBBBBBBBBBBBBBBBBBBBBBBBBBBBBBBBBBBBBBBBBBBBBBBBBBBBBBBBBB",
"BBBBBBBBBBBBBBBBBBBBBBBBBBBBBBBBBBBBBBBBBBBBBBBBBBBBBBBBBBBBBBBBBBBBBBBBBBBBBBBBBBBBBBBBBBBBBBBBBBBBBBBBBBBBBBBBBBBBBBBBBBBBBBBB",
"BBBBBBBBBBBBBBBBBBBBBBBBBBBBBBBBBBBBBBBBBBBBBBBBBBBBBBBBBBBBBBBBBBBBBBBBBBBBBBBBBBBBBBBBBBBBBBBBBBBBBBBBBBBBBBBBBBBBBBBBBBBBBBBB",
"BBBBBBBBBBBBBBBBBBBBBBBBBBBBBBBBBBBBBBBBBBBBBBBBBBBBBBBBBBBBBBBBBBBBBBBBBBBBBBBBBBBBBBBBBBBBBBBBBBBBBBBBBBBBBBBBBBBBBBBBBBBBBBBB",
"BBBBBBBBBBBBBBBBBBBBBBBBBBBBBBBBBBBBBBBBBBBBBBBBBBBBBBBBBBBBBBBBBBBBBBBBBBBBBBBBBBBBBBBBBBBBBBBBBBBBBBBBBBBBBBBBBBBBBBBBBBBBBBBB",
"BBBBBBBBBBBBBBBBBBBBBBBBBBBBBBBBBBBBBBBBBBBBBBBBBBBBBBBBBBBBBBBBBBBBBBBBBBBBBBBBBBBBBBBBBBBBBBBBBBBBBBBBBBBBBBBBBBBBBBBBBBBBBBBB",
"BBBBBBBBBBBBBBBBBBBBBBBBBBBBBBBBBBBBBBBBBBBBBBBBBBBBBBBBBBBBBBBBBBBBBBBBBBBBBBBBBBBBBBBBBBBBBBBBBBBBBBBBBBBBBBBBBBBBBBBBBBBBBBBB",
"BBBBBBBBBBBBBBBBBBBBBBBBBBBBBBBBBBBBBBBBBBBBBBBBBBBBBBBBBBBBBBBBBBBBBBBBBBBBBBBBBBBBBBBBBBBBBBBBBBBBBBBBBBBBBBBBBBBBBBBBBBBBBBBB",
"BBBBBBBBBBBBBBBBBBBBBBBBBBBBBBBBBBBBBBBBBBBBBBBBBBBBBBBBBBBBBBBBBBBBBBBBBBBBBBBBBBBBBBBBBBBBBBBBBBBBBBBBBBBBBBBBBBBBBBBBBBBBBBBB",
"BBBBBBBBBBBBBBBBBBBBBBBBBBBBBBBBBBBBBBBBBBBBBBBBBBBBBBBBBBBBBBBBBBBBBBBBBBBBBBBBBBBBBBBBBBBBBBBBBBBBBBBBBBBBBBBBBBBBBBBBBBBBBBBB",
"BBBBBBBBBBBBBBBBBBBBBBBBBBBBBBBBBBBBBBBBBBBBBBBBBBBBBBBBBBBBBBBBBBBBBBBBBBBBBBBBBBBBBBBBBBBBBBBBBBBBBBBBBBBBBBBBBBBBBBBBBBBBBBBB",
"BBBBBBBBBBBBBBBBBBBBBBBBBBBBBBBBBBBBBBBBBBBBBBBBBBBBBBBBBBBBBBBBBBBBBBBBBBBBBBBBBBBBBBBBBBBBBBBBBBBBBBBBBBBBBBBBBBBBBBBBBBBBBBBB",
"BBBBBBBBBBBBBBBBBBBBBBBBBBBBBBBBBBBBBBBBBBBBBBBBBBBBBBBBBBBBBBBBBBBBBBBBBBBBBBBBBBBBBBBBBBBBBBBBBBBBBBBBBBBBBBBBBBBBBBBBBBBBBBBB",
"BBBBBBBBBBBBBBBBBBBBBBBBBBBBBBBBBBBBBBBBBBBBBBBBBBBBBBBBBBBBBBBBBBBBBBBBBBBBBBBBBBBBBBBBBBBBBBBBBBBBBBBBBBBBBBBBBBBBBBBBBBBBBBBB",
"BBBBBBBBBBBBBBBBBBBBBBBBBBBBBBBBBBBBBBBBBBBBBBBBBBBBBBBBBBBBBBBBBBBBBBBBBBBBBBBBBBBBBBBBBBBBBBBBBBBBBBBBBBBBBBBBBBBBBBBBBBBBBBBB",
"BBBBBBBBBBBBBBBBBBBBBBnNNNNNNNNNNNNNBBBBBBBBBBBBBBBBBBBBBBNNNNNNNNNNNNNBBBBBBBBBBBBBBBBBBBBBBNNNNNNNNNNNNNNBBBBBBBBBBBBBBBBBBBBB",
"BBBBBBBBBBBBBBBBBBBBBBNNNNNNNNNNNNNNmBBBBBBBBBBBBBBBBBBBBNNNNNNNNNNNNNNNBBBBBBBBBBBBBBBBBBBBnNNNNNNNNNNNNNNBBBBBBBBBBBBBBBBBBBBB",
"BBBBBBBBBBBBBBBBBBBBBnNNNNNNNNNNNNNNNBBBBBBBBBBBBBBBBBBBBNNNNNNNNNNNNNNNmBBBBBBBBBBBBBBBBBBBmNNNNNNNNNNNNNNNBBBBBBBBBBBBBBBBBBBB",
"BBBBBBBBBBBBBBBBBBBBBnNNNNNNNNNNNNNNNBBBBBBBBBBBBBBBBBBBBNNNNNNNNNNNNNNNbBBBBBBBBBBBBBBBBBBBNNNNNNNNNNNNNNNnBBBBBBBBBBBBBBBBBBBB",
"BBBBBBBBBBBBBBBBBBBBBbNNNNNNNNNNNNMNMBBBBBBBBBBBBBBBBBBBBNmNNNNNNNNNNNMMbBBBBBBBBBBBBBBBBBBBnNNNNNNNNNNNNNnnBBBBBBBBBBBBBBBBBBBB",
"BBBBBBBBBBBBBBBBBBBBBvMMNNNNNNNNMNMMmBBBBBBBBBBBBBBBBBBBeNmNNMnNNNNNMMMmbBBBBBBBBBBBBBBBBBBBnNnmNNNNNNNNnNNnBBBBBBBBBBBBBBBBBBBB",
"BBBBBBBBBBBBBBBBBBBBBvnMnNnMNNNNMMmMNBBBBBBBBBBBBBBBBBBB8mnmmmnmNNmnmmmmcBBBBBBBBBBBBBBBBBBBnnNmnNnNMmMMNnNnBBBBBBBBBBBBBBBBBBBB",
"BBBBBBBBBBBBBBBBBBBBBcnNNnNNNNNnMMmnMBBBBBBBBBBBBBBBBBBB7nmnmnmmNNmmmnmMxBBBBBBBBBBBBBBBBBBBnmnNNnNnMnmnnmnnBBBBBBBBBBBBBBBBBBBB",
"BBBBBBBBBBBBBBBBBBBBBxnmnnMnmnnnnnnMnBBBBBBBBBBBBBBBBBBB6mnmnnnmmmnmnmnMxBBBBBBBBBBBBBBBBBBBbnnnnnnNmnnnnmnvBBBBBBBBBBBBBBBBBBBB",
"BBBBBBBBBBBBBBBBBBBBBxnnMnnnnMnnmnnnnBBBBBBBBBBBBBBBBBBB5nnnnnnnmnnnnnnnxBBBBBBBBBBBBBBBBBBBbnnnnnnnnMnnnnnbBBBBBBBBBBBBBBBBBBBB",
"BBBBBBBBBBBBBBBBBBBBBxnnnnnnnnnnnnnnbBBBBBBBBBBBBBBBBBBB5nnnnnnnnnnnnnnnxBBBBBBBBBBBBBBBBBBBbnnnnnnnnnnnnnnvBBBBBBBBBBBBBBBBBBBB",
"BBBBBBBBBBBBBBBBBBBBBxnnnnnnnnnnnnnnnBBBBBBBBBBBBBBBBBBB8nnnnnnnnnnnnnnblBBBBBBBBBBBBBBBBBBBvnbnnnnbnbbnnnbcBBBBBBBBBBBBBBBBBBBB",
"BBBBBBBBBBBBBBBBBBBBBznnnnnnbnnnnnnnbBBBBBBBBBBBBnnbbvcxxnnbnnnnnnnnbnnnbvbbnnnvBBBBBBBBBBBBvnnnnnbnnnnnnbbvBBBBBBBBBBBBBBBBBBBB",
"BBBBBBBBBBBBBBBBBBBBBznbbbnbnnvnbbnbbBBBBBBBBBBvvnbnnbnbnbnbbnvnncncnbnbbnnbnbbnbbBBBBBBBBBBvbbnnnnbbbbbbbncBBBBBBBBBBBBBBBBBBBB",
"BBBBBBBBBBBBBBBBBBBBBzbbbbbbnvnbbbnbcBBBBBBBBBBbbbbnbbbbbbnvnvvnnnncnvnnbbbbbbbbbbBBBBBBBBBBvbbbnnnnbbbbbbbcBBBBBBBBBBBBBBBBBBBB",
"BBBBBBBBBBBBBBBBBBBBBlbbbbbvvbvncbvnnBBBBBBBBBzbbbbvbbbbbbbbvnnvcnnnbbvbbbvbvbbbbbvBBBBBBBBBcbbbvvvvbbnvbbbxBBBBBBBBBBBBBBBBBBBB",
"BBBBBBBBBBBBBBBBBBBBBzvbvbvbnvnvncnvcBBBBBBBBBzbbvvbbbbbvvbbvnvnbncnbbvbvnbvbbbbvbcBBBBBBBBBvvbvvvnvvnvvbbbcBBBBBBBBBBBBBBBBBBBB",
"BBBBBBBBBBBBBBBBBBBBBlbbvbvbvvvvcncnvBBBBBBBBBjvvbvvvvvbvbvvvvvvccbcvbvvvvbvvvvvvbxBBBBBBBBBcvvvvvvvvvbvvvbxBBBBBBBBBBBBBBBBBBBB",
"BBBBBBBBBBBBBBBBBBBBBzbvvbvvbvvbvvvvvBBBBBBBBBhbvvvvvvvxi5<,:,,,<<<;<<4ixvvvbvvvvvzBBBBBBBBBcvvvvvvvvvvvvvvxBBBBBBBBBBBBBBBBBBBB",
"BBBBBBBBBBBBBBBBBBBBBlvvvvvvcvvvvvvvxBBBBBBBBBfvvvvvvvg=                =fvvvvvvvvzBBBBBBBBBcvvvvvvvvvvvcvvxBBBBBBBBBBBBBBBBBBBB",
"BBBBBBBBBBBBBBBBBBBBBkvcvvvvvvvcvvvvvBBBBBBBBBivvvvvvv<                  <vvvvvvvvlBBBBBBBBBxvvvbvcvvcvvvcvzBBBBBBBBBBBBBBBBBBBB",
"BBBBBBBBBBBBBBBBBBBBBlvvvccvvcvvvcvbxBBBBBBBBBivvccvvfXBBBBBBBBBBBBBBBB  XivcvxvvcjBBBBBBBBBxvvccvcvvvxvcvvzBBBBBBBBBBBBBBBBBBBB",
"BBBBBBBBBBBBBBBBBBBBBkccccccccccxvvccBBBBBBBBBivvvccxyBBBBBBBBBBBBBBBBBB  evvxvvxvjBBBBBBBBBxvccccvcvxvvvcvzBBBBBBBBBBBBBBBBBBBB",
"BBBBBBBBBBBBBBBBBBBBBkcvcccccccvvxvxxBBBBBBBBBixxvccvfBBBBBBBBBBBBBBBBBBB ixvvxxvvjBBBBBBBBBxccvccccxvxvccczBBBBBBBBBBBBBBBBBBBB",
"BBBBBBBBBBBBBBBBBBBBBlcxcccvccccxvxvxBBBBBBBBBixxcxvxzBBBBBBBBBBBBBBBBBBB%lxxxxvxvjBBBBBBBBBxcvxccccvvxxccczBBBBBBBBBBBBBBBBBBBB",
"BBBBBBBBBBBBBBBBBBBBBkccxccxxcccxxcxxBBBBBBBBBicvxcxcxgBBBBBBBBBBBBBBBBBBexvxcvxxxjBBBBBBBBBzxxcccxcxxxvxcxlBBBBBBBBBBBBBBBBBBBB",
"BBBBBBBBBBBBBBBBBBBBBjxxxcccxcxxccccxBBBBBBBBBtxxcxcxxclBBBBBBBBBBBBBBBBfxxvxcxxxxjBBBBBBBBBzxxcxcxccxxxxxxzBBBBBBBBBBBBBBBBBBBB",
"BBBBBBBBBBBBBBBBBBBBBjvxxxxxcxcxxxxczBBBBBBBBBtxxxxvxcxxxxxxxxxxxxxxxxxxxxxxxxxcxxjBBBBBBBBBzxxxxxxxxcxxxxxlBBBBBBBBBBBBBBBBBBBB",
"BBBBBBBBBBBBBBBBBBBBBjxxxxxxxxxxxxxxxBBBBBBBBByxxxxxxxxxxxxxxxxxxxxxxxxxxxxxxxxxxxjBBBBBBBBBzxxxxxxxxxxxxxxlBBBBBBBBBBBBBBBBBBBB",
"BBBBBBBBBBBBBBBBBBBBBjxxxxxxxxxxxxxxzBBBBBBBBByxxxxxxxxxxxxxxxxxxxxxxxxxxxxxxxxxxxgBBBBBBBBBzxxxxxxxxxxxxxxlBBBBBBBBBBBBBBBBBBBB",
"BBBBBBBBBBBBBBBBBBBBBgxxxxzxxxxxzxxzzBBBBBBBBB0xxxxxxxxxxxzxxxxzxxxxxzzxxxxxxxxzxzfBBBBBBBBBzxxzxxxzxxzxxxxkBBBBBBBBBBBBBBBBBBBB",
"BBBBBBBBBBBBBBBBBBBBBjzzxzzxzzzxxxzzzBBBBBBBBB-lzzzzxxzzzxxzzxzxxzzzzxxzzzzxxzzxxzBBBBBBBBBBlzxzxzzxzzxzxxzlBBBBBBBBBBBBBBBBBBBB",
"BBBBBBBBBBBBBBBBBBBBBhzzzzxzzzzzzzzzzBBBBBBBBBB5zzzzzxzzzzzzzzzzzzzzzzzxzzzzzzzzx0BBBBBBBBBBlzzzzxzzzzzxzzzjBBBBBBBBBBBBBBBBBBBB",
"BBBBBBBBBBBBBBBBBBBBBgzzzzzzzzzzzzzzzBBBBBBBBBB -efddifdgzzzzzzzzzzzzzzzkddddfft2BBBBBBBBBBBlzzzzzzzzzzzzzzkBBBBBBBBBBBBBBBBBBBB",
"BBBBBBBBBBBBBBBBBBBBBgzzzzzlzzlzzzzzlBBBBBBBBBBB XXXXXXX1zzzzlzzlzlzzzlz8.XXXXXXBBBBBBBBBBBBklzlzlzzlzlzzzljBBBBBBBBBBBBBBBBBBBB",
"BBBBBBBBBBBBBBBBBBBBBfzllzzzzlzlzlzllBBBBBBBBBBBB       -lzllzlzlzlzzlzz8     BBBBBBBBBBBBBBkzlzzllzzlzllzzjBBBBBBBBBBBBBBBBBBBB",
"BBBBBBBBBBBBBBBBBBBBBgzllzlllzzlzzlllBBBBBBBBBBBBBBBB   -lllzllzzlzlllll0 BBBBBBBBBBBBBBBBBBkzlllzlllzllllljBBBBBBBBBBBBBBBBBBBB",
"BBBBBBBBBBBBBBBBBBBBBflllllllllllllllBBBBBBBBBBBBBBBBBB -zllllllllllllll0BBBBBBBBBBBBBBBBBBBjlllllllllllllljBBBBBBBBBBBBBBBBBBBB",
"BBBBBBBBBBBBBBBBBBBBBfllllllllllllllkBBBBBBBBBBBBBBBBBBB<lllllllllllllllyBBBBBBBBBBBBBBBBBBBjzllllllllllllljBBBBBBBBBBBBBBBBBBBB",
"BBBBBBBBBBBBBBBBBBB54hllllklkllllklljiBBBBBBBBBBBBBBBBBB<llllklllllklllliBBBBBBBBBBBBBBBBBBBjllllljllllkllljBBBBBBBBBBBBBBBBBBBB",
"BBBBBBBBBBBBjllkllkjlljlkklllklkkllklljllljlljBBBBBBBBBB1kkkklkjklklljjliBBBBBBBBBBBBBBBBBBBjjljjlllklklljkjBBBBBBBBBBBBBBBBBBBB",
"BBBBBBBBBBBBljjljlkljlljlkkkjljlkkkkjlljjlljjlBBBBBBBBBB1kklkkklkkkkljlliBBBBBBBBBBBBBBBBBBBjlklljjlkkkkkljjBBBBBBBBBBBBBBBBBBBB",
"BBBBBBBBBBBjkjljlkjljlkkjlkkljkkjlkljlkjljkjkkjBBBBBBBBB2jjljkljkkjljljliBBBBBBBBBBBBBBBBBBBjjjjljjljkjlljkjBBBBBBBBBBBBBBBBBBBB",
"BBBBBBBBBBBjkljljkkjjljkjkjkjljlkkjkljkljljljjlBBBBBBBBB2ljklkjkjkjjljkjiBBBBBBBBBBBBBBBBBBBjjjlkjljjkjjjkjgBBBBBBBBBBBBBBBBBBBB",
"BBBBBBBBBBBjjjjjjjjlljjkljjkjkjjjjjjjjjkjlljljjBBBBBBBBB1jkjjjjjjlkjljjjiBBBBBBBBBBBBBBBBBBBjjjjjjkkjlkjjjjgBBBBBBBBBBBBBBBBBBBB",
"BBBBBBBBBBBjjkjjjkjjjguyyyyytyyrtiyjjjjjjjjjjjjBBBBBBBBB1jjkjjjjjjkjjjjjiBBBBBBBBBBBBBBBBBBBjjjjjkjjjjkjjjjfBBBBBBBBBBBBBBBBBBBB",
"BBBBBBBBBBBjjjjjjjji<@X............$<yjjjjjjjjgBBBBBBBBB1jjjjjjjjjjjjjjjiBBBBBBBBBBBBBBBBBBBhjjjjjjjjjjjjjjfBBBBBBBBBBBBBBBBBBBB",
"BBBBBBBBBBBgjjjjjji%                 %ijjjjjjjgBBBBBBBBB1jjjjjjjjjgjjjjjiBBBBBBBBBBBBBBBBBBBgjhjjhjjjjjjjjjfBBBBBBBBBBBBBBBBBBBB",
"BBBBBBBBBBBgjhjjgj5  BBBBBBBBBBBBB    3hjjjhjjjBBBBBBBBB<jjhjhjjjjgjhjghiBBBBBBBBBBBBBBBBBBBgjhjjgjjjjjhjjjfBBBBBBBBBBBBBBBBBBBB",
"BBBBBBBBBBBfhjhhjg&BBBBBBBBBBBBBBBBB  %fghgjhggBBBBBBBBB1hjhjhhhjghjjghjiBBBBBBBBBBBBBBBBBBBfhjgjhhgghgjhhgfBBBBBBBBBBBBBBBBBBBB",
"BBBBBBBBBBBgghhhgf%BBBBBBBBBBBBBBBBBBB$fhhhjhhgBBBBBBBBB<hhjghhhhhhhhhhhiBBBBBBBBBBBBgffitq0hhhggggghhhhhhhgtagffggBBBBBBBBBBBBB",
"BBBBBBBBBBBfjhhggg2BBBBBBBBBBBBBBBBBBB=ghhhhhhgBBBBBBBBB<hhhghhhhhghhghgyBBBBBBBBBBghghhjhgghgggggggghgggggghhgghgghgBBBBBBBBBBB",
"BBBBBBBBBBBfggggggeBBBBBBBBBBBBBBBBBBB0ghgfgggfBBBBBBBBB<gggghggggghggggyBBBBBBBBBaggggfgghhfhggghfhfgfghhfgfhfgggfggBBBBBBBBBBB",
"BBBBBBBBBBBafgfgfgfqBBBBBBBBBBBBBBBBB5fggfggggaBBBBBBBBB<gfgfgfgfgfgfggfeBBBBBBBBBgfgffgfgfhfgfggfhfgfggghffgfgggfgfgfBBBBBBBBBB",
"BBBBBBBBBBBdfffffgfffiBBBBBBBBBBBBBeigffgffggfgBBBBBBBBB<fgffgfffgffgfgfyBBBBBBBBBhgfgfffgfgfgfgffgfgfgfffgffgffffgfffBBBBBBBBBB",
"BBBBBBBBBBBffgfffffffffgffgffgffgfffgffffffffffBBBBBBBBB<fffffffffffffffeBBBBBBBB5gfffffffffffffffffffffffffffffffffgfBBBBBBBBBB",
"BBBBBBBBBBBaffffffffffffffffffffffffafffffffffiBBBBBBBBB<fffffffffffffffeBBBBBBBB2fffffffffe844444444444460ffffffffffiBBBBBBBBBB",
"BBBBBBBBBBBifffpffffsfafffiffffffaafffffffiffafBBBBBBBBB-fdfpfffafffffifeBBBBBBBB1ffafffaa3@X             .=8afffafffiBBBBBBBBBB",
"BBBBBBBBBBBeffdffpffpffdffdfffdsipfdffapfpifffiBBBBBBBBB<fdfffpfaffaffifeBBBBBBBB1ffifffi5                  &isfafaffiBBBBBBBBBB",
"BBBBBBBBBBB1ifsdsfpafifiiffiifsfffadifdfifffda5BBBBBBBBB;addififaaaaiffaeBBBBBBBB<dsfifii* BBBBBBBBBBBBBB    4pspafipiBBBBBBBBBB",
"BBBBBBBBBBBB1ydffapffiffffifififffadiffsffiiy4BBBBBBBBBB>siafsssapaadfiaeBBBBBBBB<ifsfid0XBBBBBBBBBBBBBBBBB  -ififpiaiBBBBBBBBBB",
"BBBBBBBBBBBB @******=eifiifififfiifiy<****==$BBBBBBBBBBB-aaaififddifiiddqBBBBBBBB-fiiifieBBBBBBBBBBBBBBBBBBB -fidippiiBBBBBBBBBB",
"BBBBBBBBBBBBB       .0idisifiiiiififr@     BBBBBBBBBBBBB-ffiifdiiiiffaif0BBBBBBBB;fififii-BBBBBBBBBBBBBBBBBBB4ifififiiBBBBBBBBBB",
"BBBBBBBBBBBBBBB     .0iiiiiffifiiiifi@   BBBBBBBBBBBBBBB-iidiiifffiiiiii0BBBBBBBB-iiiipii0BBBBBBBBBBBBBBBBBB=iiiiiifiyBBBBBBBBBB",
"BBBBBBBBBBBBBBBBBBB .0iiipiiiiiiiiiiy#BBBBBBBBBBBBBBBBBB-iiiiiiiiipiiiii0BBBBBBBB-ifiiiiii0BBBBBBBBBBBBBBBB20iiiiiiiieBBBBBBBBBB",
"BBBBBBBBBBBBBBBBBBBB.9iiiiiiiiiiiiiiy%BBBBBBBBBBBBBBBBBB;iiiiiiiiiiiiiii0BBBBBBBB-iiiiiiiiiityyytiuutyryyeyiiiiiiiiiieBBBBBBBBBB",
"BBBBBBBBBBBBBBBBBBBBB0iiiitiiiiitiiiyBBBBBBBBBBBBBBBBBBB-iiiiiiiiitiiiti0BBBBBBBB-iiiiiitiititiiiiiiiitiiitiititiiiiieBBBBBBBBBB",
"BBBBBBBBBBBBBBBBBBBBB0tiitiiititiitiyBBBBBBBBBBBBBBBBBBB-itttttiiiiytiiy0BBBBBBBB-iititiiyyiiitiyitiriiritiyyiitttyiyeBBBBBBBBBB",
"BBBBBBBBBBBBBBBBBBBBB0yttiitritiritiyBBBBBBBBBBBBBBBBBBB-ytiitttttyiytti0BBBBBBBB-uittttyirtttttytttttyyirttytitytttyeBBBBBBBBBB",
"BBBBBBBBBBBBBBBBBBBBB0yyyytryyttyytyyBBBBBBBBBBBBBBBBBBB-yyyirttrtyyitrt8BBBBBBBB$0yyittyttyttttyrtrittyttrttyyyiytrt6BBBBBBBBBB",
"BBBBBBBBBBBBBBBBBBBBB9ttyytytyttytyyeBBBBBBBBBBBBBBBBBBB=yyryyeyrytyettt9BBBBBBBBB1yyyyyyyyyyyyyytrtyyyyyyyrryyyyttt0BBBBBBBBBBB",
"BBBBBBBBBBBBBBBBBBBBB9yteyteyteyeyteyBBBBBBBBBBBBBBBBBBB-yyeyetyyyyrerey8BBBBBBBBBB-70q0qqq0teytytetyeteeyey0q0000e4BBBBBBBBBBBB",
"BBBBBBBBBBBBBBBBBBBBB9yeereeeeetereeeBBBBBBBBBBBBBBBBBBB=teeeyeeeeyeetet8BBBBBBBBBB o@@@+@@*qeyeeeyeeteeyee7$@@@@@@BBBBBBBBBBBBB",
"BBBBBBBBBBBBBBBBBBBBB9eeeeeeeeyeeeeeeBBBBBBBBBBBBBBBBBBB-eeeeeeeeeeeeeee8BBBBBBBBBBB       +0eeeeeeeeeeeeee7.     BBBBBBBBBBBBBB",
"BBBBBBBBBBBBBBBBBBBBB8eeeeeeeeeeeeeewBBBBBBBBBBBBBBBBBBB-eeeeeeeeeeeeeee8BBBBBBBBBBBBBB    @0eeeeeeeeeeeeee7.  BBBBBBBBBBBBBBBBB",
"BBBBBBBBBBBBBBBBBBBBB7eeewewqeeweeeweBBBBBBBBBBBBBBBBBBB=eeqqeeeweweee0e7BBBBBBBBBBBBBBBBB @0e0eqeqeeqeq0ee7BBBBBBBBBBBBBBBBBBBB",
"BBBBBBBBBBBBBBBBBBBBB8ewweeeeeeee0qe0BBBBBBBBBBBBBBBBBBB=eweeeeqewew0eeq7BBBBBBBBBBBBBBBBBB@0q0eqqeqew0ewee7BBBBBBBBBBBBBBBBBBBB",
"BBBBBBBBBBBBBBBBBBBBB70eew0e0we0e0ee0BBBBBBBBBBBBBBBBBBB=0ee0e0e0ee0eqew7BBBBBBBBBBBBBBBBBB@0eeeeqqe0ewqew07BBBBBBBBBBBBBBBBBBBB",
"BBBBBBBBBBBBBBBBBBBBB7e00ee0w0e0ee00eBBBBBBBBBBBBBBBBBBB=eq0qewqee0ee0ee7BBBBBBBBBBBBBBBBBB$00wweee0q0wwqqe8BBBBBBBBBBBBBBBBBBBB",
"BBBBBBBBBBBBBBBBBBBBB70ee00e0ee0000e0BBBBBBBBBBBBBBBBBBB=w0e00qq00000e005BBBBBBBBBBBBBBBBBB$0w0w000e0e0www00BBBBBBBBBBBBBBBBBBBB",
"BBBBBBBBBBBBBBBBBBBBB5qq0000e0000e000BBBBBBBBBBBBBBBBBBB=0e00wq00q0w00006BBBBBBBBBBBBBBBBBB$900000w0000ew009BBBBBBBBBBBBBBBBBBBB",
"BBBBBBBBBBBBBBBBBBBBB7000000000000000BBBBBBBBBBBBBBBBBBB=0000000000000007BBBBBBBBBBBBBBBBBBB0000000000000008BBBBBBBBBBBBBBBBBBBB",
"BBBBBBBBBBBBBBBBBBBBB3000000000000008BBBBBBBBBBBBBBBBBBB*0000000000000004BBBBBBBBBBBBBBBBBBB7000000000900005BBBBBBBBBBBBBBBBBBBB",
"BBBBBBBBBBBBBBBBBBBBB*900000090000002BBBBBBBBBBBBBBBBBBBB390900900900906BBBBBBBBBBBBBBBBBBBB-090000000009001BBBBBBBBBBBBBBBBBBBB",
"BBBBBBBBBBBBBBBBBBBBBB-7000900900081BBBBBBBBBBBBBBBBBBBBB$2090000090004BBBBBBBBBBBBBBBBBBBBBB-8009890900071BBBBBBBBBBBBBBBBBBBBB",
"BBBBBBBBBBBBBBBBBBBBBB O&&&&&&&&&&%BBBBBBBBBBBBBBBBBBBBBBB.%&&&&&&&&&&BBBBBBBBBBBBBBBBBBBBBBB #&&&&&&&&&&#BBBBBBBBBBBBBBBBBBBBBB",
"BBBBBBBBBBBBBBBBBBBBBBB          BBBBBBBBBBBBBBBBBBBBBBBBB           BBBBBBBBBBBBBBBBBBBBBBBBB          BBBBBBBBBBBBBBBBBBBBBBBB",
"BBBBBBBBBBBBBBBBBBBBBBBBB      BBBBBBBBBBBBBBBBBBBBBBBBBBBBB       BBBBBBBBBBBBBBBBBBBBBBBBBBBBB      BBBBBBBBBBBBBBBBBBBBBBBBBB",
"BBBBBBBBBBBBBBBBBBBBBBBBBBBBBBBBBBBBBBBBBBBBBBBBBBBBBBBBBBBBBBBBBBBBBBBBBBBBBBBBBBBBBBBBBBBBBBBBBBBBBBBBBBBBBBBBBBBBBBBBBBBBBBBB",
"BBBBBBBBBBBBBBBBBBBBBBBBBBBBBBBBBBBBBBBBBBBBBBBBBBBBBBBBBBBBBBBBBBBBBBBBBBBBBBBBBBBBBBBBBBBBBBBBBBBBBBBBBBBBBBBBBBBBBBBBBBBBBBBB",
"BBBBBBBBBBBBBBBBBBBBBBBBBBBBBBBBBBBBBBBBBBBBBBBBBBBBBBBBBBBBBBBBBBBBBBBBBBBBBBBBBBBBBBBBBBBBBBBBBBBBBBBBBBBBBBBBBBBBBBBBBBBBBBBB",
"BBBBBBBBBBBBBBBBBBBBBBBBBBBBBBBBBBBBBBBBBBBBBBBBBBBBBBBBBBBBBBBBBBBBBBBBBBBBBBBBBBBBBBBBBBBBBBBBBBBBBBBBBBBBBBBBBBBBBBBBBBBBBBBB",
"BBBBBBBBBBBBBBBBBBBBBBBBBBBBBBBBBBBBBBBBBBBBBBBBBBBBBBBBBBBBBBBBBBBBBBBBBBBBBBBBBBBBBBBBBBBBBBBBBBBBBBBBBBBBBBBBBBBBBBBBBBBBBBBB",
"BBBBBBBBBBBBBBBBBBBBBBBBBBBBBBBBBBBBBBBBBBBBBBBBBBBBBBBBBBBBBBBBBBBBBBBBBBBBBBBBBBBBBBBBBBBBBBBBBBBBBBBBBBBBBBBBBBBBBBBBBBBBBBBB",
"BBBBBBBBBBBBBBBBBBBBBBBBBBBBBBBBBBBBBBBBBBBBBBBBBBBBBBBBBBBBBBBBBBBBBBBBBBBBBBBBBBBBBBBBBBBBBBBBBBBBBBBBBBBBBBBBBBBBBBBBBBBBBBBB",
"BBBBBBBBBBBBBBBBBBBBBBBBBBBBBBBBBBBBBBBBBBBBBBBBBBBBBBBBBBBBBBBBBBBBBBBBBBBBBBBBBBBBBBBBBBBBBBBBBBBBBBBBBBBBBBBBBBBBBBBBBBBBBBBB",
"BBBBBBBBBBBBBBBBBBBBBBBBBBBBBBBBBBBBBBBBBBBBBBBBBBBBBBBBBBBBBBBBBBBBBBBBBBBBBBBBBBBBBBBBBBBBBBBBBBBBBBBBBBBBBBBBBBBBBBBBBBBBBBBB",
"BBBBBBBBBBBBBBBBBBBBBBBBBBBBBBBBBBBBBBBBBBBBBBBBBBBBBBBBBBBBBBBBBBBBBBBBBBBBBBBBBBBBBBBBBBBBBBBBBBBBBBBBBBBBBBBBBBBBBBBBBBBBBBBB",
"BBBBBBBBBBBBBBBBBBBBBBBBBBBBBBBBBBBBBBBBBBBBBBBBBBBBBBBBBBBBBBBBBBBBBBBBBBBBBBBBBBBBBBBBBBBBBBBBBBBBBBBBBBBBBBBBBBBBBBBBBBBBBBBB",
"BBBBBBBBBBBBBBBBBBBBBBBBBBBBBBBBBBBBBBBBBBBBBBBBBBBBBBBBBBBBBBBBBBBBBBBBBBBBBBBBBBBBBBBBBBBBBBBBBBBBBBBBBBBBBBBBBBBBBBBBBBBBBBBB",
"BBBBBBBBBBBBBBBBBBBBBBBBBBBBBBBBBBBBBBBBBBBBBBBBBBBBBBBBBBBBBBBBBBBBBBBBBBBBBBBBBBBBBBBBBBBBBBBBBBBBBBBBBBBBBBBBBBBBBBBBBBBBBBBB",
"BBBBBBBBBBBBBBBBBBBBBBBBBBBBBBBBBBBBBBBBBBBBBBBBBBBBBBBBBBBBBBBBBBBBBBBBBBBBBBBBBBBBBBBBBBBBBBBBBBBBBBBBBBBBBBBBBBBBBBBBBBBBBBBB",
"BBBBBBBBBBBBBBBBBBBBBBBBBBBBBBBBBBBBBBBBBBBBBBBBBBBBBBBBBBBBBBBBBBBBBBBBBBBBBBBBBBBBBBBBBBBBBBBBBBBBBBBBBBBBBBBBBBBBBBBBBBBBBBBB",
"BBBBBBBBBBBBBBBBBBBBBBBBBBBBBBBBBBBBBBBBBBBBBBBBBBBBBBBBBBBBBBBBBBBBBBBBBBBBBBBBBBBBBBBBBBBBBBBBBBBBBBBBBBBBBBBBBBBBBBBBBBBBBBBB",
"BBBBBBBBBBBBBBBBBBBBBBBBBBBBBBBBBBBBBBBBBBBBBBBBBBBBBBBBBBBBBBBBBBBBBBBBBBBBBBBBBBBBBBBBBBBBBBBBBBBBBBBBBBBBBBBBBBBBBBBBBBBBBBBB",
"BBBBBBBBBBBBBBBBBBBBBBBBBBBBBBBBBBBBBBBBBBBBBBBBBBBBBBBBBBBBBBBBBBBBBBBBBBBBBBBBBBBBBBBBBBBBBBBBBBBBBBBBBBBBBBBBBBBBBBBBBBBBBBBB"
};
