/* XPM */
static char *ccc_large[] = {
/* columns rows colors chars-per-pixel */
"24 24 31 1 ",
"  c #000031683EAF",
". c #00003AA04A7A",
"X c #00003F9F50C8",
"o c #0000410B52A1",
"O c #00004276545E",
"+ c #0000437755B7",
"@ c #00004583584B",
"# c #0000487F5C1D",
"$ c #00004B345F94",
"% c #00004C9B615D",
"& c #00004D756276",
"* c #00004EC06418",
"= c #00004FB6654F",
"- c #00005172674A",
"; c #0000528E68AA",
": c #000052D368DF",
"> c #00005348699D",
", c #000054BB6B6E",
"< c #000054FF6C15",
"1 c #000057B06F73",
"2 c #000058697072",
"3 c #000059AF71FB",
"4 c #00005ABA7337",
"5 c #00005C0574ED",
"6 c #00005DE77757",
"7 c #00005E807805",
"8 c #00005EFC78AC",
"9 c #000061547B82",
"0 c #0000623F7CD3",
"q c #0000642D7F58",
"w c None",
/* pixels */
"wwwwwwwwwwwwwwwwwwwwwwww",
"wwwwwwwwwwwwwwwwwwwwwwww",
"wwwwwwwwwwwwwwwwwwwwwwww",
"wwwwwwwwwwwwwwwwwwwwwwww",
"wwwwwwwwwwwwwwwwwwwwwwww",
"wwwwwwwwwwwwwwwwwwwwwwww",
"wwwwwwwwwwwwwwwwwwwwwwww",
"wwwwwwwwwqqwwqqqqqqwwwww",
"wwwwwwww909960099008wwww",
"wwwwwww68886wX#87%@w565w",
"wwwwww555554www35www153w",
"wwwww113-<21www12www>1<w",
"wwww<<<: %<,www<<www-<>w",
"www-;-&#w=:-www--www*-=w",
"ww==*$w&$%=&www==www%&&w",
"ww%&$ww.w#%%www%%www#%$w",
"ww++wwwwwo+wwwwO+wwww+@w",
"wwwwwwwwwwwwwwwwwwwwwwww",
"wwwwwwwwwwwwwwwwwwwwwwww",
"wwwwwwwwwwwwwwwwwwwwwwww",
"wwwwwwwwwwwwwwwwwwwwwwww",
"wwwwwwwwwwwwwwwwwwwwwwww",
"wwwwwwwwwwwwwwwwwwwwwwww",
"wwwwwwwwwwwwwwwwwwwwwwww"
};
