/* XPM */
static char *file_roller[] = {
/* columns rows colors chars-per-pixel */
"24 24 32 1 ",
"  c #000057466ED8",
". c #000058BA70A5",
"X c #00005A5F7298",
"o c #00005D35763E",
"O c #00005DCD7734",
"+ c #00005E7277F8",
"@ c #00005EF878AB",
"# c #00005FEB79DF",
"$ c #000060667A6B",
"% c #0000621E7C7A",
"& c #000063627E4D",
"* c #000064207EF7",
"= c #000064C08009",
"- c #000065C28141",
"; c #000066A98274",
": c #0000679B83A8",
"> c #0000681A8444",
", c #000069918629",
"< c #00006A1486B3",
"1 c #00006B8A88AB",
"2 c #00006C1688B9",
"3 c #00006C7B89DC",
"4 c #00006DE18ADE",
"5 c #00006DCE8B8B",
"6 c #00006F838D47",
"7 c #000071408FEC",
"8 c #000071B89085",
"9 c #0000738A92D5",
"0 c #0000751294C7",
"q c #0000757C954E",
"w c #0000777097C9",
"e c None",
/* pixels */
"eeeeeeeeeeeeeeeeeeeeeeee",
"eeeeeeeeee777789eeeeeeee",
"eeeeeeee57577539qqqeeeee",
"eeeee333555<<5990qqqweee",
"ee333333<><589qqqqwqqwwe",
"75<;=;;><7999qqqqqwwww08",
"7773>@O<889999qqwwww95,,",
"3357783=1899qqqww07,;-;;",
"314555653389qqq83;&&&&=-",
"<,113333333885;&$%$&$&&=",
">>,<<<,,><<<&@@@@@@@$$$&",
"-->>>>>>>>>;$OO+OO@@##$$",
"-=;>>>>>;>>;@OOOOOO@$@@$",
"=->>,>>>>>;>$OOOO@@@@@#$",
"==->,,>>>;>;@oOO@@#@@$@$",
";;;>>>,>>>>;@ooO@#@#@#$$",
"e->>>>><>>:;#OO@@#$$$@Oe",
"eee><2<>>:::@O@#$$$#@eee",
"eeeee>332<>;$@$%%$O eeee",
"eeeeee=2442<%$&$@Xeeeeee",
"eeeeeeee=364*%#.eeeeeeee",
"eeeeeeeeee<4%.eeeeeeeeee",
"eeeeeeeeeeeeeeeeeeeeeeee",
"eeeeeeeeeeeeeeeeeeeeeeee"
};
