/* XPM */
static char *opera[] = {
/* columns rows colors chars-per-pixel */
"24 24 38 1 ",
"  c #0000181F1EA4",
". c #00001C71242B",
"X c #00001D0624ED",
"o c #00001E8926CE",
"O c #00001EA426F3",
"+ c #000024E42ED9",
"@ c #0000271431B8",
"# c #000030103D30",
"$ c #000035DC4497",
"% c #0000390F4888",
"& c #00003B094B09",
"* c #00003E1E4EFD",
"= c #00003F2D5073",
"- c #0000434B5587",
"; c #000046165919",
": c #000047765ABF",
"> c #00004A545E79",
", c #00004CA46161",
"< c #00004E346366",
"1 c #00004EEF6450",
"2 c #000050F366EA",
"3 c #0000532769A4",
"4 c #0000556A6C8D",
"5 c #0000570C6EA2",
"6 c #00005821700F",
"7 c #0000598971C1",
"8 c #00005C0F74DA",
"9 c #00005C867577",
"0 c #00005CEB7604",
"q c #00005E3A77B4",
"w c #00005EF078B7",
"e c #000060157A23",
"r c #000060D27B2F",
"t c #000063C87ED1",
"y c #0000640D7F20",
"u c #000067498332",
"i c #000068AD850D",
"p c None",
/* pixels */
"pppppppppppppppppppppppp",
"pppppppppppppppppppppppp",
"pppppppppppppppppppppppp",
"pppppppppiiiiiiupppppppp",
"pppppppyyu7*%3yuyppppppp",
"pppppptyyepppp4yttpppppp",
"ppppprrrr8pppp;wrrrppppp",
"pppp0wwwqpppppp8wwwwpppp",
"pppp89088pppppp50080pppp",
"pppp78787pppppp47877pppp",
"ppp356665pppppp356555ppp",
"ppp354444pppppp<54443ppp",
"ppp133333pppppp,33333ppp",
"ppp:13323pppppp,13311ppp",
"pppp<<1<<pppppp,<<<<pppp",
"pppp:<,,,pppppp>,,,,pppp",
"pppp&>,>>pppppp>>>>;pppp",
"ppppp=>:::ppppp:::;ppppp",
"ppppp+&:;;pppp-;;-pppppp",
"ppppppo%--------*ppppppp",
"pppppppp@$*==&%#pppppppp",
"pppppppppp XO.pppppppppp",
"pppppppppppppppppppppppp",
"pppppppppppppppppppppppp"
};
