/* XPM */
static char *picasa[] = {
/* columns rows colors chars-per-pixel */
"24 24 46 1 ",
"  c #00001A72219A",
". c #00001C5E240F",
"X c #000024B62E8F",
"o c #00002B923763",
"O c #00002EAF3B55",
"+ c #000030573D6E",
"@ c #000032F940D4",
"# c #0000362444D0",
"$ c #0000383F4779",
"% c #00003A4C4A14",
"& c #00003BAA4BD0",
"* c #00003D5C4DF8",
"= c #00003FCC5113",
"- c #0000403E51E1",
"; c #0000413252C6",
": c #000041A4538A",
"> c #0000439A55E3",
", c #000044F85796",
"< c #000046B459E2",
"1 c #000047A25B39",
"2 c #000049705D64",
"3 c #00004BA7605F",
"4 c #00004C856187",
"5 c #00004EBB6429",
"6 c #00004F5364CE",
"7 c #000050656622",
"8 c #0000523C6876",
"9 c #0000531C69B4",
"0 c #000054966B78",
"q c #000056406D96",
"w c #000056D86E5E",
"e c #000058AF70C7",
"r c #00005A19726F",
"t c #00005A90731C",
"y c #00005B8E7452",
"u c #00005DD7773C",
"i c #00005F497947",
"p c #000061D87C56",
"a c #0000620D7CA1",
"s c #000063527E30",
"d c #000064577F77",
"f c #000066488200",
"g c #000067DE83FB",
"h c #0000693485B5",
"j c #000069818614",
"k c None",
/* pixels */
"kkkkkkkkkkkkkkkkkkkkkkkk",
"kkkkkkkkkkjjjjkkkkkkkkkk",
"kkkkkkkkksjjjjjhkkkkkkkk",
"kkkkkdffk$ufgfffkskkkkkk",
"kkkksddddk@wddddkudskkkk",
"kkkkpsaapsko9sspktppkkkk",
"kkkiiiiiiiukk5iikriiikkk",
"kkyuuuuiu9kkkk2ukwuuuukk",
"kkryyyyr3kkkkkk3kqyyyrkk",
"kkrrwrq3kkkkkkkkk9errekk",
"kkwwwq1kkkkkkkkkk6wwqwkk",
"kk9q6kkkkkkkkkkkk50q90kk",
"kk85kkkkkkkkkkkkk48888kk",
"kk2kk56kkkkkkkkkk26766kk",
"kkkk553kkkkkkkkkk14333kk",
"kkk3332kkkkkkkkkkkXXXkkk",
"kk-1221kk<1111<1kk:;kkkk",
"kkk*<<<k<<<<<<<<<<<<,kkk",
"kkkk*,>k,,,,,,,,,,,:kkkk",
"kkkkX%;k::::::::::*kkkkk",
"kkkkkkkk--=-=---*#kkkkkk",
"kkkkkkkkO#%&&%#+kkkkkkkk",
"kkkkkkkkkk ...kkkkkkkkkk",
"kkkkkkkkkkkkkkkkkkkkkkkk"
};
