/* XPM */
static char *python[] = {
/* columns rows colors chars-per-pixel */
"24 24 39 1 ",
"  c #00003506434B",
". c #000037474642",
"X c #0000389047FE",
"o c #000039F249AD",
"O c #00003C344C7B",
"+ c #00003E674F41",
"@ c #0000408351FF",
"# c #000041D25376",
"$ c #000043575587",
"% c #000044E8578D",
"& c #000046145915",
"* c #000047885AD9",
"= c #000048E45C9C",
"- c #000049AC5DAC",
"; c #00004C1D60D2",
": c #00004C85616E",
"> c #00004D406262",
", c #00004D1B6F06",
"< c #00004FF365A9",
"1 c #000052106849",
"2 c #000052BA6924",
"3 c #000056276D7C",
"4 c #000057F16FDC",
"5 c #0000510F7082",
"6 c #0000518D7769",
"7 c #0000587D7070",
"8 c #00005AA97339",
"9 c #00005BD17705",
"0 c #00005BEC74DC",
"q c #00005C48755A",
"w c #00005E2F77B1",
"e c #000056297C39",
"r c #00005E85781E",
"t c #000060967AC3",
"y c #000061DC7C56",
"u c #0000645B7F87",
"i c #000063C9859E",
"p c #000068FC8561",
"a c None",
/* pixels */
"aaaaaaaaaaaaaaaaaaaaaaaa",
"aaaaaaaaaaaaaaaaaaaaaaaa",
"aaaaaaaaaaaaaaaaaaaaaaaa",
"aaaaaaaaaaaaaaaaaaaaaaaa",
"aaaaaaaaaaaaaaaaaaaaaaaa",
"aaaaaaaaaaaaaaaaaaaaaaaa",
"aaapputtyyywryuaaaaaaaaa",
"aaaur8ryyuytqaa70taaaaaa",
"aartrrw874r839iaaa79aaaa",
"aa871aaaa47aa,e65aa17aaa",
"aaaaaaaaa33aaaaaaaaa-2aa",
"aa1aaaaaa<11aaaaaaaaa;aa",
"a:><>aaaa&->::aaaaaaaa:a",
"a*---=aaaa#&#$$&aaaaaa%a",
"a$$&$&$#a$$@aaaO+@#####a",
"a+@@@@@@++aaaaaaaa ooOaa",
"aOOOOOoXaaaaaaaaaaaaaaaa",
"aX..aaaaaaaaaaaaaaaaaaaa",
"aaaaaaaaaaaaaaaaaaaaaaaa",
"aaaaaaaaaaaaaaaaaaaaaaaa",
"aaaaaaaaaaaaaaaaaaaaaaaa",
"aaaaaaaaaaaaaaaaaaaaaaaa",
"aaaaaaaaaaaaaaaaaaaaaaaa",
"aaaaaaaaaaaaaaaaaaaaaaaa"
};
