/* XPM */
static char *uextras[] = {
/* columns rows colors chars-per-pixel */
"24 24 38 1 ",
"  c #00002634309E",
". c #000029393470",
"X c #00002B1636CF",
"o c #00002E793B1B",
"O c #00003408423C",
"+ c #0000360B44A7",
"@ c #000038AB47D8",
"# c #00003AFD4B27",
"$ c #00003C504CB5",
"% c #00003ECE5000",
"& c #0000432E555D",
"* c #00004413568B",
"= c #000045865880",
"- c #000046D75A11",
"; c #000048AD5C52",
": c #00004AB85EFA",
"> c #00004B395FA6",
", c #00004D296225",
"< c #00004EED640B",
"1 c #0000504C6612",
"2 c #0000518C6773",
"3 c #000052CA6915",
"4 c #000054046B0C",
"5 c #000056716DDE",
"6 c #0000586B7042",
"7 c #000058FD7105",
"8 c #00005AB77356",
"9 c #00005B477455",
"0 c #00005C4C7537",
"q c #00005CD2765B",
"w c #00005EC878E1",
"e c #000061287B8C",
"r c #0000635F7E48",
"t c #000065DF8191",
"y c #000065ED8179",
"u c #000067A483AF",
"i c #000067F8841F",
"p c None",
/* pixels */
"pppppppppppppppppppppppp",
"pppppppppppppppppppppppp",
"pppppppppppppppppppppppp",
"ppppiiiupppppppiiipppppp",
"pppptyyypppppppyyypppppp",
"pppprrryppppppprrrpppppp",
"ppppeeeepppppppeeepppppp",
"ppppwwwppppppppwwwpppppp",
"ppppqqqpppqiippqqqpppppp",
"pppp8899pppquyp989pppppp",
"pppp6676eeperep667pppppp",
"pppp555pp9wwwpp555pppppp",
"pppp444ppp2909p444pppppp",
"pppp2222ppp*37p222pppppp",
"pppp<11<ppppp44111pppppp",
"pppp;,,,ppppp=22,,pppppp",
"ppppp:>:pppppp&1,:pppppp",
"ppppp*;:;ppppp$=>:pppppp",
"pppppo&-=;;==;*#*;;ppppp",
"pppppp $*=====&OX&*ppppp",
"pppppppp oOOOo.pp#%$pppp",
"pppppppppppppppppp+@pppp",
"pppppppppppppppppppppppp",
"pppppppppppppppppppppppp"
};
