<?xml version="1.0" encoding="UTF-8" standalone="no"?>
<!-- Created with Inkscape (http://www.inkscape.org/) -->

<svg
   xmlns:dc="http://purl.org/dc/elements/1.1/"
   xmlns:cc="http://creativecommons.org/ns#"
   xmlns:rdf="http://www.w3.org/1999/02/22-rdf-syntax-ns#"
   xmlns:svg="http://www.w3.org/2000/svg"
   xmlns="http://www.w3.org/2000/svg"
   xmlns:xlink="http://www.w3.org/1999/xlink"
   xmlns:sodipodi="http://sodipodi.sourceforge.net/DTD/sodipodi-0.dtd"
   xmlns:inkscape="http://www.inkscape.org/namespaces/inkscape"
   width="112"
   height="28"
   id="svg4428"
   version="1.1"
   inkscape:version="0.48.4 r9939"
   sodipodi:docname="restore.svg">
  <defs
     id="defs4430">
    <linearGradient
       id="linearGradient3868">
      <stop
         style="stop-color:#5a5a5a;stop-opacity:1;"
         offset="0"
         id="stop3870" />
      <stop
         style="stop-color:#646464;stop-opacity:1;"
         offset="1"
         id="stop3872" />
    </linearGradient>
    <linearGradient
       id="linearGradient3813">
      <stop
         style="stop-color:#666666;stop-opacity:1;"
         offset="0"
         id="stop3815" />
      <stop
         style="stop-color:#636363;stop-opacity:1;"
         offset="1"
         id="stop3817" />
    </linearGradient>
    <linearGradient
       id="linearGradient3787">
      <stop
         style="stop-color:#e5e5df;stop-opacity:1;"
         offset="0"
         id="stop3789" />
      <stop
         style="stop-color:#dadad4;stop-opacity:1;"
         offset="1"
         id="stop3791" />
    </linearGradient>
    <linearGradient
       id="linearGradient3806-3-5-6">
      <stop
         style="stop-color:#303030;stop-opacity:1;"
         offset="0"
         id="stop3808-6-9-1" />
      <stop
         style="stop-color:#232323;stop-opacity:1;"
         offset="1"
         id="stop3810-4-6-3" />
    </linearGradient>
    <linearGradient
       inkscape:collect="always"
       xlink:href="#linearGradient3787"
       id="linearGradient3793"
       x1="40"
       y1="1044.3622"
       x2="40"
       y2="1032.3622"
       gradientUnits="userSpaceOnUse" />
    <linearGradient
       inkscape:collect="always"
       xlink:href="#linearGradient3787"
       id="linearGradient3828"
       gradientUnits="userSpaceOnUse"
       x1="40"
       y1="1044.3622"
       x2="40"
       y2="1032.3622"
       gradientTransform="matrix(1.1666666,0,0,1.0769231,-6.5,-80.335554)" />
    <linearGradient
       inkscape:collect="always"
       xlink:href="#linearGradient3787-8"
       id="linearGradient3835"
       gradientUnits="userSpaceOnUse"
       gradientTransform="matrix(1.1666666,0,0,1.0769231,-35.5,-1105.6978)"
       x1="40"
       y1="1044.3622"
       x2="40"
       y2="1032.3622" />
    <linearGradient
       inkscape:collect="always"
       xlink:href="#linearGradient3787-8"
       id="linearGradient3835-4"
       gradientUnits="userSpaceOnUse"
       gradientTransform="matrix(1.1666666,0,0,1.0769231,-35.5,-1105.6978)"
       x1="40"
       y1="1044.3622"
       x2="40"
       y2="1032.3622" />
    <linearGradient
       id="linearGradient3787-8">
      <stop
         style="stop-color:#f5f5ee;stop-opacity:1;"
         offset="0"
         id="stop3789-2" />
      <stop
         style="stop-color:#e6e6df;stop-opacity:1;"
         offset="1"
         id="stop3791-6" />
    </linearGradient>
    <linearGradient
       inkscape:collect="always"
       xlink:href="#linearGradient3787-8"
       id="linearGradient3835-3"
       gradientUnits="userSpaceOnUse"
       gradientTransform="matrix(1.1666666,0,0,1.0769231,-35.5,-1105.6978)"
       x1="40"
       y1="1044.3622"
       x2="40"
       y2="1032.3622" />
    <linearGradient
       id="linearGradient3787-7">
      <stop
         style="stop-color:#f5f5ee;stop-opacity:1;"
         offset="0"
         id="stop3789-3" />
      <stop
         style="stop-color:#e6e6e0;stop-opacity:1;"
         offset="1"
         id="stop3791-3" />
    </linearGradient>
    <linearGradient
       inkscape:collect="always"
       xlink:href="#linearGradient3787"
       id="linearGradient3807"
       x1="11"
       y1="15.75"
       x2="11"
       y2="8.25"
       gradientUnits="userSpaceOnUse" />
    <linearGradient
       inkscape:collect="always"
       xlink:href="#linearGradient3813"
       id="linearGradient3819"
       x1="29.5"
       y1="15.2"
       x2="29.5"
       y2="8.8000002"
       gradientUnits="userSpaceOnUse" />
    <linearGradient
       inkscape:collect="always"
       xlink:href="#linearGradient4231"
       id="linearGradient3807-1"
       x1="10"
       y1="7.0000038"
       x2="10"
       y2="15.888954"
       gradientUnits="userSpaceOnUse" />
    <linearGradient
       id="linearGradient4231">
      <stop
         id="stop4233"
         offset="0"
         style="stop-color:#e7e7e1;stop-opacity:1;" />
      <stop
         id="stop4239"
         offset="1"
         style="stop-color:#dadad3;stop-opacity:1;" />
    </linearGradient>
    <linearGradient
       inkscape:collect="always"
       xlink:href="#linearGradient4231-1"
       id="linearGradient3807-1-1"
       x1="10"
       y1="15.888976"
       x2="10"
       y2="7.0000262"
       gradientUnits="userSpaceOnUse" />
    <linearGradient
       id="linearGradient4231-1">
      <stop
         id="stop4233-6"
         offset="0"
         style="stop-color:#e5e5de;stop-opacity:1;" />
      <stop
         id="stop4239-7"
         offset="1"
         style="stop-color:#dadad3;stop-opacity:1;" />
    </linearGradient>
    <linearGradient
       id="linearGradient4363">
      <stop
         style="stop-color:#979791;stop-opacity:1;"
         offset="0"
         id="stop4365" />
      <stop
         style="stop-color:#dadad4;stop-opacity:0;"
         offset="1"
         id="stop4367" />
    </linearGradient>
    <linearGradient
       id="linearGradient4363-7">
      <stop
         style="stop-color:#f5f5ef;stop-opacity:1;"
         offset="0"
         id="stop4365-9" />
      <stop
         style="stop-color:#dadad4;stop-opacity:0;"
         offset="1"
         id="stop4367-8" />
    </linearGradient>
    <linearGradient
       inkscape:collect="always"
       xlink:href="#linearGradient4231-7"
       id="linearGradient4361"
       gradientUnits="userSpaceOnUse"
       gradientTransform="matrix(1.1875,0,0,1,-41.25,0)"
       x1="248.63158"
       y1="79"
       x2="248.63158"
       y2="58" />
    <linearGradient
       id="linearGradient4231-7">
      <stop
         id="stop4233-4"
         offset="0"
         style="stop-color:#e6e6df;stop-opacity:1;" />
      <stop
         id="stop4239-8"
         offset="1"
         style="stop-color:#d1d1ca;stop-opacity:1;" />
    </linearGradient>
    <linearGradient
       inkscape:collect="always"
       xlink:href="#linearGradient4231-7"
       id="linearGradient3127"
       gradientUnits="userSpaceOnUse"
       gradientTransform="matrix(1.1875,0,0,1,-262.25,-55.99998)"
       x1="248.63158"
       y1="79"
       x2="248.63158"
       y2="58" />
    <linearGradient
       inkscape:collect="always"
       xlink:href="#linearGradient4231-7"
       id="linearGradient3154"
       gradientUnits="userSpaceOnUse"
       gradientTransform="matrix(1.1875,0,0,1,-262.25,-55.99998)"
       x1="248.63158"
       y1="79"
       x2="248.63158"
       y2="58" />
    <linearGradient
       inkscape:collect="always"
       xlink:href="#linearGradient4231-7"
       id="linearGradient3159"
       gradientUnits="userSpaceOnUse"
       gradientTransform="matrix(1.1875,0,0,1,-249.25,-54.99998)"
       x1="248.63158"
       y1="79"
       x2="248.63158"
       y2="58" />
    <linearGradient
       inkscape:collect="always"
       xlink:href="#linearGradient4231-7-9"
       id="linearGradient3159-0"
       gradientUnits="userSpaceOnUse"
       gradientTransform="matrix(1.1875,0,0,1,-262.25,-55.99998)"
       x1="248.63158"
       y1="79"
       x2="248.63158"
       y2="58" />
    <linearGradient
       id="linearGradient4231-7-9">
      <stop
         id="stop4233-4-2"
         offset="0"
         style="stop-color:#e6e6df;stop-opacity:1;" />
      <stop
         id="stop4239-8-9"
         offset="1"
         style="stop-color:#d1d1ca;stop-opacity:1;" />
    </linearGradient>
    <linearGradient
       id="linearGradient4231-5">
      <stop
         id="stop4233-41"
         offset="0"
         style="stop-color:#e5e5de;stop-opacity:1;" />
      <stop
         id="stop4239-73"
         offset="1"
         style="stop-color:#dadad3;stop-opacity:1;" />
    </linearGradient>
    <linearGradient
       inkscape:collect="always"
       xlink:href="#linearGradient4231-7-7"
       id="linearGradient3159-1"
       gradientUnits="userSpaceOnUse"
       gradientTransform="matrix(1.1875,0,0,1,-262.25,-55.99998)"
       x1="248.63158"
       y1="79"
       x2="248.63158"
       y2="58" />
    <linearGradient
       id="linearGradient4231-7-7">
      <stop
         id="stop4233-4-7"
         offset="0"
         style="stop-color:#e6e6df;stop-opacity:1;" />
      <stop
         id="stop4239-8-2"
         offset="1"
         style="stop-color:#d1d1ca;stop-opacity:1;" />
    </linearGradient>
    <linearGradient
       inkscape:collect="always"
       xlink:href="#linearGradient4231-73"
       id="linearGradient3807-1-7"
       x1="10"
       y1="15.888976"
       x2="10"
       y2="7.0000262"
       gradientUnits="userSpaceOnUse" />
    <linearGradient
       id="linearGradient4231-73">
      <stop
         id="stop4233-1"
         offset="0"
         style="stop-color:#e5e5de;stop-opacity:1;" />
      <stop
         id="stop4239-85"
         offset="1"
         style="stop-color:#dadad3;stop-opacity:1;" />
    </linearGradient>
  </defs>
  <sodipodi:namedview
     id="base"
     pagecolor="#bdc3c7"
     bordercolor="#666666"
     borderopacity="1.0"
     inkscape:pageopacity="1"
     inkscape:pageshadow="2"
     inkscape:zoom="1"
     inkscape:cx="69.218337"
     inkscape:cy="2.8089221"
     inkscape:document-units="px"
     inkscape:current-layer="layer1"
     showgrid="false"
     inkscape:snap-bbox="true"
     inkscape:window-width="1437"
     inkscape:window-height="783"
     inkscape:window-x="110"
     inkscape:window-y="183"
     inkscape:window-maximized="0"
     showborder="false"
     inkscape:showpageshadow="false"
     showguides="true"
     inkscape:guide-bbox="true">
    <inkscape:grid
       type="xygrid"
       id="grid4436"
       empspacing="5"
       visible="true"
       enabled="true"
       snapvisiblegridlinesonly="true" />
  </sodipodi:namedview>
  <metadata
     id="metadata4433">
    <rdf:RDF>
      <cc:Work
         rdf:about="">
        <dc:format>image/svg+xml</dc:format>
        <dc:type
           rdf:resource="http://purl.org/dc/dcmitype/StillImage" />
        <dc:title />
      </cc:Work>
    </rdf:RDF>
  </metadata>
  <g
     inkscape:label="Layer 1"
     inkscape:groupmode="layer"
     id="layer1"
     transform="translate(0,-1024.3622)">
    <rect
       style="opacity:1;fill:#bdc3c7;fill-opacity:1;stroke:none"
       id="rect3866"
       width="112"
       height="28"
       x="0"
       y="1024.3622" />
    <g
       id="active-center"
       inkscape:label="#g3842"
       transform="translate(3,-3)">
      <path
         style="fill:#ecf0f1;fill-opacity:1;stroke:none;opacity:1"
         d="m 12.5,1033.3622 c -1.173604,0 -2.282416,0.2409 -3.2993421,0.671 -1.016926,0.4302 -1.9430724,1.0484 -2.7121711,1.8175 -0.7690987,0.7691 -1.3873108,1.6952 -1.8174342,2.7122 C 4.2409292,1039.5798 4,1040.6886 4,1041.8622 c 0,1.1736 0.2409292,2.2824 0.6710526,3.2993 0.4301234,1.017 1.0483355,1.9431 1.8174342,2.7122 0.7690987,0.7691 1.6952451,1.3873 2.7121711,1.8175 1.0169261,0.4301 2.1257381,0.671 3.2993421,0.671 1.173604,0 2.282416,-0.2409 3.299342,-0.671 1.016926,-0.4302 1.943073,-1.0484 2.712172,-1.8175 0.769097,-0.7691 1.38731,-1.6952 1.817434,-2.7122 C 20.75907,1044.1446 21,1043.0358 21,1041.8622 c 0,-1.1736 -0.24093,-2.2824 -0.671052,-3.2993 -0.430124,-1.017 -1.048337,-1.9431 -1.817434,-2.7122 -0.769099,-0.7691 -1.695246,-1.3873 -2.712172,-1.8175 -1.016926,-0.4301 -2.125738,-0.671 -3.299342,-0.671 z"
         id="path3835"
         inkscape:connector-curvature="0" />
      <path
         style="fill:#2c3e50;fill-opacity:1;stroke:none"
         d="M 12 11 L 12 12 L 12 13 L 12 18 L 13 18 L 18 18 L 19 18 L 19 12 L 19 11 L 13 11 L 12 11 z M 13 12 L 18 12 L 18 17 L 13 17 L 13 12 z "
         transform="translate(-3,1027.3622)"
         id="rect3818" />
    </g>
    <g
       id="hover-center"
       inkscape:label="#g3842"
       transform="translate(29,-3)">
      <path
         style="fill:#2ecc71;fill-opacity:1;stroke:none"
         d="m 12.5,1033.3622 c -1.173605,0 -2.297063,0.2528 -3.313988,0.683 -1.0169262,0.4301 -1.9377466,1.0272 -2.7068452,1.7963 -0.7690986,0.769 -1.3660076,1.6897 -1.7961312,2.7066 C 4.2529122,1039.565 4,1040.6886 4,1041.8622 c 0,1.1736 0.2529122,2.2972 0.6830356,3.3141 0.4301236,1.0169 1.0270326,1.9376 1.7961312,2.7066 0.7690986,0.7691 1.689919,1.3661 2.7068452,1.7963 1.016925,0.4301 2.140383,0.683 3.313988,0.683 1.173605,0 2.297064,-0.2529 3.313989,-0.683 1.016926,-0.4302 1.937744,-1.0272 2.706843,-1.7963 0.769099,-0.769 1.36601,-1.6897 1.796133,-2.7066 C 20.747089,1044.1594 21,1043.0358 21,1041.8622 c 0,-1.1736 -0.252911,-2.2972 -0.683035,-3.3141 -0.430123,-1.0169 -1.027034,-1.9376 -1.796133,-2.7066 -0.769099,-0.7691 -1.689917,-1.3662 -2.706844,-1.7963 -1.016924,-0.4302 -2.140383,-0.683 -3.313988,-0.683 z"
         id="path3055-8"
         inkscape:connector-curvature="0" />
      <path
         style="fill:#2c3e50;fill-opacity:1;stroke:none"
         d="M 38 11 L 38 12 L 38 13 L 38 17 L 38 18 L 39 18 L 44 18 L 45 18 L 45 17 L 45 16 L 45 12 L 45 11 L 44 11 L 39 11 L 38 11 z M 39 12 L 44 12 L 44 17 L 39 17 L 39 12 z "
         transform="translate(-29,1027.3622)"
         id="rect3818-4" />
    </g>
    <g
       id="pressed-center"
       inkscape:label="#g3842"
       transform="translate(55,-3)">
      <path
         style="fill:#95a5a6;fill-opacity:1;stroke:none"
         d="m 12.5,1033.3622 c -1.173604,0 -2.282416,0.2409 -3.2993421,0.671 -1.016926,0.4302 -1.9430724,1.0484 -2.7121711,1.8175 -0.7690987,0.7691 -1.3873108,1.6952 -1.8174342,2.7122 C 4.2409292,1039.5798 4,1040.6886 4,1041.8622 c 0,1.1736 0.2409292,2.2824 0.6710526,3.2993 0.4301234,1.017 1.0483355,1.9431 1.8174342,2.7122 0.7690987,0.7691 1.6952451,1.3873 2.7121711,1.8175 1.0169261,0.4301 2.1257381,0.671 3.2993421,0.671 1.173604,0 2.282416,-0.2409 3.299342,-0.671 1.016926,-0.4302 1.943073,-1.0484 2.712172,-1.8175 0.769097,-0.7691 1.38731,-1.6952 1.817434,-2.7122 C 20.75907,1044.1446 21,1043.0358 21,1041.8622 c 0,-1.1736 -0.24093,-2.2824 -0.671052,-3.2993 -0.430124,-1.017 -1.048337,-1.9431 -1.817434,-2.7122 -0.769099,-0.7691 -1.695246,-1.3873 -2.712172,-1.8175 -1.016926,-0.4301 -2.125738,-0.671 -3.299342,-0.671 z"
         id="path3835-3-6"
         inkscape:connector-curvature="0" />
      <path
         style="fill:#2c3e50;fill-opacity:1;stroke:none"
         d="M 64 11 L 64 12 L 64 13 L 64 17 L 64 18 L 65 18 L 70 18 L 71 18 L 71 17 L 71 16 L 71 12 L 71 11 L 70 11 L 65 11 L 64 11 z M 65 12 L 70 12 L 70 17 L 65 17 L 65 12 z "
         transform="translate(-55,1027.3622)"
         id="rect3818-4-3" />
    </g>
    <g
       id="deactivated-center"
       inkscape:label="#g3842"
       transform="translate(16,19)">
      <path
         style="fill:#ecf0f1;fill-opacity:1;stroke:none"
         d="m 12.5,1033.3622 c -1.173605,0 -2.297063,0.2528 -3.313988,0.683 -1.0169262,0.4301 -1.9377466,1.0272 -2.7068452,1.7963 -0.7690986,0.769 -1.3660076,1.6897 -1.7961312,2.7066 C 4.2529122,1039.565 4,1040.6886 4,1041.8622 c 0,1.1736 0.2529122,2.2972 0.6830356,3.3141 0.4301236,1.0169 1.0270326,1.9376 1.7961312,2.7066 0.7690986,0.7691 1.689919,1.3661 2.7068452,1.7963 1.016925,0.4301 2.140383,0.683 3.313988,0.683 1.173605,0 2.297064,-0.2529 3.313989,-0.683 1.016926,-0.4302 1.937745,-1.0272 2.706843,-1.7963 0.769096,-0.769 1.366008,-1.6897 1.796134,-2.7066 C 20.747088,1044.1594 21,1043.0358 21,1041.8622 c 0,-1.1736 -0.252912,-2.2972 -0.683034,-3.3141 -0.430126,-1.0169 -1.027038,-1.9376 -1.796134,-2.7066 -0.769099,-0.7691 -1.689917,-1.3662 -2.706843,-1.7963 -1.016925,-0.4302 -2.140384,-0.683 -3.313989,-0.683 z"
         id="path3055-8-8-0-7"
         inkscape:connector-curvature="0" />
      <path
         inkscape:connector-curvature="0"
         style="fill:#bdc3c7;fill-opacity:1;stroke:none"
         d="m 90,11 0,1 0,1 0,4 0,1 1,0 5,0 1,0 0,-1 0,-1 0,-4 0,-1 -1,0 -5,0 -1,0 z m 1,1 5,0 0,5 -5,0 0,-5 z"
         transform="translate(-81,1027.3622)"
         id="rect3818-4-3-2-3" />
    </g>
    <g
       id="inactive-center"
       inkscape:label="#g3900">
      <g
         transform="translate(81,-3)"
         inkscape:label="#g3842"
         id="b"
         style="fill:#ecf0f1;fill-opacity:1">
        <path
           inkscape:connector-curvature="0"
           id="path3055-8-8-0"
           d="m 12.5,1033.3622 c -1.173605,0 -2.297063,0.2528 -3.313988,0.683 -1.0169262,0.4301 -1.9377466,1.0272 -2.7068452,1.7963 -0.7690986,0.769 -1.3660076,1.6897 -1.7961312,2.7066 C 4.2529122,1039.565 4,1040.6886 4,1041.8622 c 0,1.1736 0.2529122,2.2972 0.6830356,3.3141 0.4301236,1.0169 1.0270326,1.9376 1.7961312,2.7066 0.7690986,0.7691 1.689919,1.3661 2.7068452,1.7963 1.016925,0.4301 2.140383,0.683 3.313988,0.683 1.173605,0 2.297064,-0.2529 3.313989,-0.683 1.016926,-0.4302 1.937745,-1.0272 2.706843,-1.7963 0.769096,-0.769 1.366008,-1.6897 1.796134,-2.7066 C 20.747088,1044.1594 21,1043.0358 21,1041.8622 c 0,-1.1736 -0.252912,-2.2972 -0.683034,-3.3141 -0.430126,-1.0169 -1.027038,-1.9376 -1.796134,-2.7066 -0.769099,-0.7691 -1.689917,-1.3662 -2.706843,-1.7963 -1.016925,-0.4302 -2.140384,-0.683 -3.313989,-0.683 z"
           style="fill:#ecf0f1;fill-opacity:1;stroke:none;opacity:1" />
        <path
           id="rect3818-4-3-2"
           transform="translate(-81,1027.3622)"
           d="M 90 11 L 90 12 L 90 13 L 90 17 L 90 18 L 91 18 L 96 18 L 97 18 L 97 17 L 97 16 L 97 12 L 97 11 L 96 11 L 91 11 L 90 11 z M 91 12 L 96 12 L 96 17 L 91 17 L 91 12 z "
           style="fill:#ecf0f1;fill-opacity:1;stroke:none" />
      </g>
      <path
         id="rect3818-4-3-21"
         d="m 90,1035.3622 0,1 0,1 0,4 0,1 1,0 5,0 1,0 0,-1 0,-1 0,-4 0,-1 -1,0 -5,0 -1,0 z m 1,1 5,0 0,5 -5,0 0,-5 z"
         style="fill:#95a5a6;fill-opacity:1;stroke:none"
         inkscape:connector-curvature="0" />
    </g>
  </g>
</svg>
