/* XPM */
static char * bottom_right_inactive_xpm[] = {
"20 20 3 1",
" 	c None",
".	c #1E1E1E",
"+	c #888888",
"...................+",
"...................+",
"...................+",
"...................+",
"...................+",
"...................+",
"...................+",
"...................+",
"...................+",
"...................+",
"...................+",
"...................+",
"...................+",
"...................+",
"...................+",
"...................+",
"...................+",
"...................+",
"...................+",
"++++++++++++++++++++"};
