/* XPM */
static char * bottom_active_xpm[] = {
"20 2 3 1",
" 	c None",
".	c #1E1E1E",
"+	c #888888",
"....................",
"++++++++++++++++++++"};
