/* XPM */
static char * close_prelight_xpm[] = {
"22 26 68 1",
" 	c None",
".	c #888888",
"+	c #1E1E1E",
"@	c #1C1C1C",
"#	c #121311",
"$	c #0B0D0A",
"%	c #080A07",
"&	c #171716",
"*	c #0C0B08",
"=	c #331912",
"-	c #4E2118",
";	c #59241A",
">	c #321911",
",	c #130E09",
"'	c #512118",
")	c #56261D",
"!	c #4F281D",
"~	c #4C291D",
"{	c #53271C",
"]	c #49291E",
"^	c #432B1F",
"/	c #402D20",
"(	c #0C0C08",
"_	c #1C1C1B",
":	c #DD4F4D",
"<	c #904038",
"[	c #393223",
"}	c #321810",
"|	c #0C0D0A",
"1	c #4F2118",
"2	c #FE5656",
"3	c #8E453C",
"4	c #090A07",
"5	c #58241A",
"6	c #212120",
"7	c #59251A",
"8	c #090B07",
"9	c #242522",
"0	c #0D0F0B",
"a	c #0D0F0C",
"b	c #252723",
"c	c #191B16",
"d	c #2E3028",
"e	c #0D0D09",
"f	c #2E3228",
"g	c #212221",
"h	c #2C2F29",
"i	c #262A22",
"j	c #282C23",
"k	c #2B2F28",
"l	c #353930",
"m	c #2B2F27",
"n	c #0E0E09",
"o	c #4E2018",
"p	c #2B3027",
"q	c #343930",
"r	c #1E1E1D",
"s	c #33372E",
"t	c #3D4436",
"u	c #252920",
"v	c #121710",
"w	c #0A0D08",
"x	c #32362E",
"y	c #242623",
"z	c #363A32",
"A	c #41473B",
"B	c #464E3F",
"C	c #242523",
"......................",
"++++++++++++++++++++++",
"++++++++++++++++++++++",
"++++++++++++++++++++++",
"++++++++++++++++++++++",
"++++++@#$%%$#@++++++++",
"+++++&*=-;;->*&+++++++",
"++++&,')!~~!)',&++++++",
"+++@*'{]^//^]{'(_+++++",
"+++#=)]:<[[<:])}#+++++",
"+++|1!^<2332<^!-$+++++",
"+++45~/[3223[/~54+++++",
"++645~/[3223[/~786++++",
"++901!^<2332<^!-a9++++",
"++bc>)]:<[[<:])}cb++++",
"++6d*'{]^//^]{'efg++++",
"+++hi,')!~~!)',jk+++++",
"++++lmn}-55o}npqr+++++",
"+++++stuvwwvutx+++++++",
"++++++yzABBAzC++++++++",
"++++++++++++++++++++++",
"++++++++++++++++++++++",
"++++++++++++++++++++++",
"++++++++++++++++++++++",
"++++++++++++++++++++++",
"++++++++++++++++++++++"};
