/* XPM */
static char * close_pressed_xpm[] = {
"22 26 73 1",
" 	c None",
".	c #888888",
"+	c #1E1E1E",
"@	c #1C1C1C",
"#	c #121311",
"$	c #0B0D0A",
"%	c #080A07",
"&	c #171716",
"*	c #0A0B08",
"=	c #0E1210",
"-	c #121619",
";	c #13191D",
">	c #090C08",
",	c #121719",
"'	c #14191D",
")	c #13181C",
"!	c #131719",
"~	c #12181B",
"{	c #12171A",
"]	c #111619",
"^	c #0B0C08",
"/	c #1C1C1B",
"(	c #652C2E",
"_	c #261B1E",
":	c #101417",
"<	c #0E1110",
"[	c #0C0D0A",
"}	c #131619",
"|	c #D24A4B",
"1	c #D94C4C",
"2	c #25181B",
"3	c #D1494A",
"4	c #121618",
"5	c #090A07",
"6	c #261A1D",
"7	c #212120",
"8	c #3B1F21",
"9	c #FE5656",
"0	c #131A1C",
"a	c #090B07",
"b	c #242522",
"c	c #0D0F0B",
"d	c #0D0F0C",
"e	c #252723",
"f	c #191B16",
"g	c #DA4C4D",
"h	c #2E3028",
"i	c #662E2F",
"j	c #271D20",
"k	c #090D09",
"l	c #2E3228",
"m	c #212221",
"n	c #2C2F29",
"o	c #262A22",
"p	c #282C23",
"q	c #2B2F28",
"r	c #353930",
"s	c #2B2F27",
"t	c #0A0E09",
"u	c #2B3027",
"v	c #343930",
"w	c #1E1E1D",
"x	c #33372E",
"y	c #3D4436",
"z	c #252920",
"A	c #121710",
"B	c #0A0D08",
"C	c #32362E",
"D	c #242623",
"E	c #363A32",
"F	c #41473B",
"G	c #464E3F",
"H	c #242523",
"......................",
"++++++++++++++++++++++",
"++++++++++++++++++++++",
"++++++++++++++++++++++",
"++++++++++++++++++++++",
"++++++@#$%%$#@++++++++",
"+++++&*=-;;-=*&+++++++",
"++++&>,'))))'!>&++++++",
"+++@*,;~{]]{~;!^/+++++",
"+++#='~(_::_(~'<#+++++",
"+++[}){|12213{)4$+++++",
"+++5;)]611116]);5+++++",
"++75;)]:8998:])0a7++++",
"++bc}){_1111_{)4db++++",
"++ef='~|g66g3~'<fe++++",
"++7h*!;ij]]ji;!klm++++",
"+++no>!'))))'!>pq+++++",
"++++rst<4;;4<tuvw+++++",
"+++++xyzABBAzyC+++++++",
"++++++DEFGGFEH++++++++",
"++++++++++++++++++++++",
"++++++++++++++++++++++",
"++++++++++++++++++++++",
"++++++++++++++++++++++",
"++++++++++++++++++++++",
"++++++++++++++++++++++"};
