/* XPM */
static char * hide_inactive_xpm[] = {
"22 26 73 1",
" 	c None",
".	c #888888",
"+	c #1E1E1E",
"@	c #1C1C1C",
"#	c #121311",
"$	c #0B0D0A",
"%	c #080A07",
"&	c #171716",
"*	c #0A0B08",
"=	c #151810",
"-	c #1F2419",
";	c #242A1D",
">	c #14180F",
",	c #0B0D08",
"'	c #1F2519",
")	c #272D20",
"!	c #292F21",
"~	c #293021",
"{	c #202519",
"]	c #282E20",
"^	c #2A3122",
"/	c #2C3324",
"(	c #2D3424",
"_	c #0B0C08",
":	c #1C1C1B",
"<	c #2F3626",
"[	c #313827",
"}	c #0C0D0A",
"|	c #535C51",
"1	c #434B3D",
"2	c #343C2A",
"3	c #1F2418",
"4	c #090A07",
"5	c #485042",
"6	c #616A5F",
"7	c #485141",
"8	c #212120",
"9	c #4A5446",
"0	c #636C62",
"a	c #242B1C",
"b	c #090B07",
"c	c #242522",
"d	c #0D0F0B",
"e	c #323A29",
"f	c #0D0F0C",
"g	c #252723",
"h	c #191B16",
"i	c #2E3028",
"j	c #0A0D09",
"k	c #2E3228",
"l	c #212221",
"m	c #2C2F29",
"n	c #262A22",
"o	c #282C23",
"p	c #2B2F28",
"q	c #353930",
"r	c #2B2F27",
"s	c #0B0E09",
"t	c #1F2318",
"u	c #2B3027",
"v	c #343930",
"w	c #1E1E1D",
"x	c #33372E",
"y	c #3D4436",
"z	c #252920",
"A	c #121710",
"B	c #0A0D08",
"C	c #32362E",
"D	c #242623",
"E	c #363A32",
"F	c #41473B",
"G	c #464E3F",
"H	c #242523",
"......................",
"++++++++++++++++++++++",
"++++++++++++++++++++++",
"++++++++++++++++++++++",
"++++++++++++++++++++++",
"++++++@#$%%$#@++++++++",
"+++++&*=-;;->*&+++++++",
"++++&,')!~~!){,&++++++",
"+++@*']^/((/^]{_:+++++",
"+++#=)^(<[[<(^)>#+++++",
"+++}-!/|1221|/!3$+++++",
"+++4;~(567765(~;4+++++",
"++84;~([9009[(~ab8++++",
"++cd-!/<e99e</!3fc++++",
"++gh>)^(<[[<(^)>hg++++",
"++8i*{]^/((/^]{jkl++++",
"+++mn,{)!~~!){,op+++++",
"++++qrs>3;;t>suvw+++++",
"+++++xyzABBAzyC+++++++",
"++++++DEFGGFEH++++++++",
"++++++++++++++++++++++",
"++++++++++++++++++++++",
"++++++++++++++++++++++",
"++++++++++++++++++++++",
"++++++++++++++++++++++",
"++++++++++++++++++++++"};
