/* XPM */
static char * hide_pressed_xpm[] = {
"22 26 66 1",
" 	c None",
".	c #888888",
"+	c #1E1E1E",
"@	c #1C1C1C",
"#	c #121311",
"$	c #0B0D0A",
"%	c #080A07",
"&	c #171716",
"*	c #090B08",
"=	c #0D100E",
"-	c #101415",
";	c #121619",
">	c #101516",
",	c #13171A",
"'	c #14181A",
")	c #111516",
"!	c #13181A",
"~	c #15181A",
"{	c #090C08",
"]	c #1C1C1B",
"^	c #16191A",
"/	c #17191A",
"(	c #0C0D0A",
"_	c #3F5626",
":	c #20261C",
"<	c #18191A",
"[	c #090A07",
"}	c #89C73D",
"|	c #85C03C",
"1	c #22271D",
"2	c #89C63D",
"3	c #212120",
"4	c #283320",
"5	c #8ECE3E",
"6	c #121719",
"7	c #090B07",
"8	c #242522",
"9	c #0D0F0B",
"0	c #0D0F0C",
"a	c #252723",
"b	c #191B16",
"c	c #2E3028",
"d	c #090D09",
"e	c #2E3228",
"f	c #212221",
"g	c #2C2F29",
"h	c #262A22",
"i	c #282C23",
"j	c #2B2F28",
"k	c #353930",
"l	c #2B2F27",
"m	c #0A0E09",
"n	c #2B3027",
"o	c #343930",
"p	c #1E1E1D",
"q	c #33372E",
"r	c #3D4436",
"s	c #252920",
"t	c #121710",
"u	c #0A0D08",
"v	c #32362E",
"w	c #242623",
"x	c #363A32",
"y	c #41473B",
"z	c #464E3F",
"A	c #242523",
"......................",
"++++++++++++++++++++++",
"++++++++++++++++++++++",
"++++++++++++++++++++++",
"++++++++++++++++++++++",
"++++++@#$%%$#@++++++++",
"+++++&*=-;;-=*&+++++++",
"++++&*>,'''',)*&++++++",
"+++@*>!'~~~~'!){]+++++",
"+++#=,'~^//^~',=#+++++",
"+++(-'~_:<<:_~'-$+++++",
"+++[;'~}|11|2~';[+++++",
"++3[;'~45||54~'673++++",
"++89-'~^4554^~'-08++++",
"++ab=,'~^44^~',=ba++++",
"++3c*)!'~~~~'!)def++++",
"+++gh*),'''',)*ij+++++",
"++++klm=-;;-=mnop+++++",
"+++++qrstuutsrv+++++++",
"++++++wxyzzyxA++++++++",
"++++++++++++++++++++++",
"++++++++++++++++++++++",
"++++++++++++++++++++++",
"++++++++++++++++++++++",
"++++++++++++++++++++++",
"++++++++++++++++++++++"};
