/* XPM */
static char * maximize_active_xpm[] = {
"22 26 72 1",
" 	c None",
".	c #888888",
"+	c #1E1E1E",
"@	c #1C1C1C",
"#	c #121311",
"$	c #0B0D0A",
"%	c #080A07",
"&	c #171716",
"*	c #0A0B08",
"=	c #151810",
"-	c #1F2419",
";	c #242A1D",
">	c #14180F",
",	c #0B0D08",
"'	c #1F2519",
")	c #272D20",
"!	c #292F21",
"~	c #293021",
"{	c #202519",
"]	c #282E20",
"^	c #2A3122",
"/	c #2C3324",
"(	c #2D3424",
"_	c #0B0C08",
":	c #1C1C1B",
"<	c #2F3626",
"[	c #313827",
"}	c #0C0D0A",
"|	c #323A29",
"1	c #75807A",
"2	c #1F2418",
"3	c #090A07",
"4	c #C8D6DD",
"5	c #212120",
"6	c #737E77",
"7	c #77817B",
"8	c #242B1C",
"9	c #090B07",
"0	c #242522",
"a	c #0D0F0B",
"b	c #AEBBBE",
"c	c #737F78",
"d	c #343C2A",
"e	c #0D0F0C",
"f	c #252723",
"g	c #191B16",
"h	c #2E3028",
"i	c #0A0D09",
"j	c #2E3228",
"k	c #212221",
"l	c #2C2F29",
"m	c #262A22",
"n	c #282C23",
"o	c #2B2F28",
"p	c #353930",
"q	c #2B2F27",
"r	c #0B0E09",
"s	c #1F2318",
"t	c #2B3027",
"u	c #343930",
"v	c #1E1E1D",
"w	c #33372E",
"x	c #3D4436",
"y	c #252920",
"z	c #121710",
"A	c #0A0D08",
"B	c #32362E",
"C	c #242623",
"D	c #363A32",
"E	c #41473B",
"F	c #464E3F",
"G	c #242523",
"......................",
"++++++++++++++++++++++",
"++++++++++++++++++++++",
"++++++++++++++++++++++",
"++++++++++++++++++++++",
"++++++@#$%%$#@++++++++",
"+++++&*=-;;->*&+++++++",
"++++&,')!~~!){,&++++++",
"+++@*']^/((/^]{_:+++++",
"+++#=)^(<[[<(^)>#+++++",
"+++}-!/<|11|</!2$+++++",
"+++3;~([1441[(~;3+++++",
"++53;~(647746(~895++++",
"++0a-!/bcddcb/!2e0++++",
"++fg>)^(<[[<(^)>gf++++",
"++5h*{]^/((/^]{ijk++++",
"+++lm,{)!~~!){,no+++++",
"++++pqr>2;;s>rtuv+++++",
"+++++wxyzAAzyxB+++++++",
"++++++CDEFFEDG++++++++",
"++++++++++++++++++++++",
"++++++++++++++++++++++",
"++++++++++++++++++++++",
"++++++++++++++++++++++",
"++++++++++++++++++++++",
"++++++++++++++++++++++"};
