/* XPM */
static char * maximize_pressed_xpm[] = {
"22 26 64 1",
" 	c None",
".	c #888888",
"+	c #1E1E1E",
"@	c #1C1C1C",
"#	c #121311",
"$	c #0B0D0A",
"%	c #080A07",
"&	c #171716",
"*	c #090B08",
"=	c #0D100E",
"-	c #101415",
";	c #121619",
">	c #101516",
",	c #13171A",
"'	c #14181A",
")	c #111516",
"!	c #13181A",
"~	c #15181A",
"{	c #090C08",
"]	c #1C1C1B",
"^	c #16191A",
"/	c #17191A",
"(	c #0C0D0A",
"_	c #252D1E",
":	c #090A07",
"<	c #8AC83D",
"[	c #212120",
"}	c #242D1E",
"|	c #121719",
"1	c #090B07",
"2	c #242522",
"3	c #0D0F0B",
"4	c #85C13C",
"5	c #84C03C",
"6	c #0D0F0C",
"7	c #252723",
"8	c #191B16",
"9	c #466229",
"0	c #222C1E",
"a	c #2E3028",
"b	c #090D09",
"c	c #2E3228",
"d	c #212221",
"e	c #2C2F29",
"f	c #262A22",
"g	c #282C23",
"h	c #2B2F28",
"i	c #353930",
"j	c #2B2F27",
"k	c #0A0E09",
"l	c #2B3027",
"m	c #343930",
"n	c #1E1E1D",
"o	c #33372E",
"p	c #3D4436",
"q	c #252920",
"r	c #121710",
"s	c #0A0D08",
"t	c #32362E",
"u	c #242623",
"v	c #363A32",
"w	c #41473B",
"x	c #464E3F",
"y	c #242523",
"......................",
"++++++++++++++++++++++",
"++++++++++++++++++++++",
"++++++++++++++++++++++",
"++++++++++++++++++++++",
"++++++@#$%%$#@++++++++",
"+++++&*=-;;-=*&+++++++",
"++++&*>,'''',)*&++++++",
"+++@*>!'~~~~'!){]+++++",
"+++#=,'~^//^~',=#+++++",
"+++(-'~^/__/^~'-$+++++",
"+++:;'~/_<<_/~';:+++++",
"++[:;'~}<<<<}~'|1[++++",
"++23-'~4<__<5~'-62++++",
"++78=,'90//09',=87++++",
"++[a*)!'~~~~'!)bcd++++",
"+++ef*),'''',)*gh+++++",
"++++ijk=-;;-=klmn+++++",
"+++++opqrssrqpt+++++++",
"++++++uvwxxwvy++++++++",
"++++++++++++++++++++++",
"++++++++++++++++++++++",
"++++++++++++++++++++++",
"++++++++++++++++++++++",
"++++++++++++++++++++++",
"++++++++++++++++++++++"};
