/* XPM */
static char * top_left_active_xpm[] = {
"5 26 3 1",
" 	c None",
".	c #888888",
"+	c #1E1E1E",
"  ...",
" .+++",
".++++",
".++++",
".++++",
".++++",
".++++",
".++++",
".++++",
".++++",
".++++",
".++++",
".++++",
".++++",
".++++",
".++++",
".++++",
".++++",
".++++",
".++++",
".++++",
".++++",
".++++",
".++++",
".++++",
".++++"};
