/* XPM */
static char * hide_pressed_xpm[] = {
"22 26 65 1",
" 	c None",
".	c #1E1E1E",
"+	c #1C1C1C",
"@	c #121311",
"#	c #0B0D0A",
"$	c #080A07",
"%	c #171716",
"&	c #090B08",
"*	c #0D100E",
"=	c #101415",
"-	c #121619",
";	c #101516",
">	c #13171A",
",	c #14181A",
"'	c #111516",
")	c #13181A",
"!	c #15181A",
"~	c #090C08",
"{	c #1C1C1B",
"]	c #16191A",
"^	c #17191A",
"/	c #0C0D0A",
"(	c #3F5626",
"_	c #20261C",
":	c #18191A",
"<	c #090A07",
"[	c #89C73D",
"}	c #85C03C",
"|	c #22271D",
"1	c #89C63D",
"2	c #212120",
"3	c #283320",
"4	c #8ECE3E",
"5	c #121719",
"6	c #090B07",
"7	c #242522",
"8	c #0D0F0B",
"9	c #0D0F0C",
"0	c #252723",
"a	c #191B16",
"b	c #2E3028",
"c	c #090D09",
"d	c #2E3228",
"e	c #212221",
"f	c #2C2F29",
"g	c #262A22",
"h	c #282C23",
"i	c #2B2F28",
"j	c #353930",
"k	c #2B2F27",
"l	c #0A0E09",
"m	c #2B3027",
"n	c #343930",
"o	c #1E1E1D",
"p	c #33372E",
"q	c #3D4436",
"r	c #252920",
"s	c #121710",
"t	c #0A0D08",
"u	c #32362E",
"v	c #242623",
"w	c #363A32",
"x	c #41473B",
"y	c #464E3F",
"z	c #242523",
"......................",
"......................",
"......................",
"......................",
"......................",
"......+@#$$#@+........",
".....%&*=--=*&%.......",
"....%&;>,,,,>'&%......",
"...+&;),!!!!,)'~{.....",
"...@*>,!]^^]!,>*@.....",
".../=,!(_::_(!,=#.....",
"...<-,![}||}1!,-<.....",
"..2<-,!34}}43!,562....",
"..78=,!]3443]!,=97....",
"..0a*>,!]33]!,>*a0....",
"..2b&'),!!!!,)'cde....",
"...fg&'>,,,,>'&hi.....",
"....jkl*=--=*lmno.....",
".....pqrsttsrqu.......",
"......vwxyyxwz........",
"......................",
"......................",
"......................",
"......................",
"......................",
"......................"};
