/* XPM */
static char * maximize_pressed_xpm[] = {
"22 26 63 1",
" 	c None",
".	c #1E1E1E",
"+	c #1C1C1C",
"@	c #121311",
"#	c #0B0D0A",
"$	c #080A07",
"%	c #171716",
"&	c #090B08",
"*	c #0D100E",
"=	c #101415",
"-	c #121619",
";	c #101516",
">	c #13171A",
",	c #14181A",
"'	c #111516",
")	c #13181A",
"!	c #15181A",
"~	c #090C08",
"{	c #1C1C1B",
"]	c #16191A",
"^	c #17191A",
"/	c #0C0D0A",
"(	c #252D1E",
"_	c #090A07",
":	c #8AC83D",
"<	c #212120",
"[	c #242D1E",
"}	c #121719",
"|	c #090B07",
"1	c #242522",
"2	c #0D0F0B",
"3	c #85C13C",
"4	c #84C03C",
"5	c #0D0F0C",
"6	c #252723",
"7	c #191B16",
"8	c #466229",
"9	c #222C1E",
"0	c #2E3028",
"a	c #090D09",
"b	c #2E3228",
"c	c #212221",
"d	c #2C2F29",
"e	c #262A22",
"f	c #282C23",
"g	c #2B2F28",
"h	c #353930",
"i	c #2B2F27",
"j	c #0A0E09",
"k	c #2B3027",
"l	c #343930",
"m	c #1E1E1D",
"n	c #33372E",
"o	c #3D4436",
"p	c #252920",
"q	c #121710",
"r	c #0A0D08",
"s	c #32362E",
"t	c #242623",
"u	c #363A32",
"v	c #41473B",
"w	c #464E3F",
"x	c #242523",
"......................",
"......................",
"......................",
"......................",
"......................",
"......+@#$$#@+........",
".....%&*=--=*&%.......",
"....%&;>,,,,>'&%......",
"...+&;),!!!!,)'~{.....",
"...@*>,!]^^]!,>*@.....",
".../=,!]^((^]!,=#.....",
"..._-,!^(::(^!,-_.....",
"..<_-,![::::[!,}|<....",
"..12=,!3:((:4!,=51....",
"..67*>,89^^98,>*76....",
"..<0&'),!!!!,)'abc....",
"...de&'>,,,,>'&fg.....",
"....hij*=--=*jklm.....",
".....nopqrrqpos.......",
"......tuvwwvux........",
"......................",
"......................",
"......................",
"......................",
"......................",
"......................"};
