/* XPM */
static char * maximize_active_xpm[] = {
"22 26 71 1",
" 	c None",
".	c #1E1E1E",
"+	c #1C1C1C",
"@	c #121311",
"#	c #0B0D0A",
"$	c #080A07",
"%	c #171716",
"&	c #0A0B08",
"*	c #151810",
"=	c #1F2419",
"-	c #242A1D",
";	c #14180F",
">	c #0B0D08",
",	c #1F2519",
"'	c #272D20",
")	c #292F21",
"!	c #293021",
"~	c #202519",
"{	c #282E20",
"]	c #2A3122",
"^	c #2C3324",
"/	c #2D3424",
"(	c #0B0C08",
"_	c #1C1C1B",
":	c #2F3626",
"<	c #313827",
"[	c #0C0D0A",
"}	c #323A29",
"|	c #75807A",
"1	c #1F2418",
"2	c #090A07",
"3	c #C8D6DD",
"4	c #212120",
"5	c #737E77",
"6	c #77817B",
"7	c #242B1C",
"8	c #090B07",
"9	c #242522",
"0	c #0D0F0B",
"a	c #AEBBBE",
"b	c #737F78",
"c	c #343C2A",
"d	c #0D0F0C",
"e	c #252723",
"f	c #191B16",
"g	c #2E3028",
"h	c #0A0D09",
"i	c #2E3228",
"j	c #212221",
"k	c #2C2F29",
"l	c #262A22",
"m	c #282C23",
"n	c #2B2F28",
"o	c #353930",
"p	c #2B2F27",
"q	c #0B0E09",
"r	c #1F2318",
"s	c #2B3027",
"t	c #343930",
"u	c #1E1E1D",
"v	c #33372E",
"w	c #3D4436",
"x	c #252920",
"y	c #121710",
"z	c #0A0D08",
"A	c #32362E",
"B	c #242623",
"C	c #363A32",
"D	c #41473B",
"E	c #464E3F",
"F	c #242523",
"......................",
"......................",
"......................",
"......................",
"......................",
"......+@#$$#@+........",
".....%&*=--=;&%.......",
"....%>,')!!)'~>%......",
"...+&,{]^//^]{~(_.....",
"...@*']/:<<:/]';@.....",
"...[=)^:}||}:^)1#.....",
"...2-!/<|33|</!-2.....",
"..42-!/536635/!784....",
"..90=)^abccba^)1d9....",
"..ef;']/:<<:/]';fe....",
"..4g&~{]^//^]{~hij....",
"...kl>~')!!)'~>mn.....",
"....opq;1--r;qstu.....",
".....vwxyzzyxwA.......",
"......BCDEEDCF........",
"......................",
"......................",
"......................",
"......................",
"......................",
"......................"};
