/* XPM */
static char *bluefish[] = {
/* columns rows colors chars-per-pixel */
"24 24 44 1 ",
"  c #0000182D1EA8",
". c #00001E6C26A9",
"X c #000021DB2B0F",
"o c #0000244C2E2D",
"O c #000024F72EFE",
"+ c #000029A8351C",
"@ c #00002DA73A43",
"# c #00002F4A3C23",
"$ c #000030073D2A",
"% c #00003279403C",
"& c #0000354C439F",
"* c #0000388647D5",
"= c #000039DA4983",
"- c #00003BB54BD9",
"; c #00003D874E85",
": c #0000402951E7",
"> c #0000419B5394",
", c #00004383563E",
"< c #0000453A5808",
"1 c #000048A25C3D",
"2 c #000049FE5DF7",
"3 c #00004AB85EF1",
"4 c #00004B245F8F",
"5 c #00004C7D6145",
"6 c #00004CD861A1",
"7 c #00004D52624F",
"8 c #00004EBD642D",
"9 c #0000504D6619",
"0 c #000051456750",
"q c #000052DE694B",
"w c #0000560F6D4A",
"e c #00005853704D",
"r c #0000592B714C",
"t c #00005B8C744F",
"y c #00005C0574F4",
"u c #00005D5B76BF",
"i c #00005E1677A9",
"p c #00005F3F7912",
"a c #000061337B61",
"s c #000062137C95",
"d c #0000643D7F62",
"f c #0000675E834A",
"g c #000068FB8574",
"h c None",
/* pixels */
"hhhhhhhhhhhhhhhhhhhhhhhh",
"hhhhhhhhhhhhhhhhhhhhhhhh",
"hhhhhhhhhhhhhhhhhhhhhhhh",
"hhhhhhhhhhhhhhhhhhhhhhhh",
"hhhhhhhhhhhhhhhggghhhhhh",
"hhhhhhhhhhhgfffggfffhhhh",
"hhhhhhhhhddddddddddshhhh",
"hhhhhhhasssssaaaaaaphhhh",
"hhhhhhipppppppupupuhhhhh",
"hhhhhhyyuyttttttttrhhhhh",
"hhhhhrrrrrrreeeeeeeheeeh",
"hhhhwwwewwwwwwwwwwqwwq0h",
"hh55qwqqqqqqqqqq0qq000hh",
"hhh.=809090999999955999h",
"hhhhh#177777775657;X*13h",
"hhhhhho-15422222222hhhhh",
"hhhhhhhhO;1<1<1<1<<hhhhh",
"hhhhhhhhh+:=$>,,,,,hhhhh",
"hhhhhhhhhh@;%$:>>>:hhhhh",
"hhhhhhhhhhhX&hO%==*hhhhh",
"hhhhhhhhhhhhhhhh hhhhhhh",
"hhhhhhhhhhhhhhhhhhhhhhhh",
"hhhhhhhhhhhhhhhhhhhhhhhh",
"hhhhhhhhhhhhhhhhhhhhhhhh"
};
