/* XPM */
static char *DC__[] = {
/* columns rows colors chars-per-pixel */
"24 24 43 1 ",
"  c #000023A22D2E",
". c #000025912FB7",
"X c #00002B5A36FB",
"o c #00002D8339C1",
"O c #00002FDB3CC3",
"+ c #000032654007",
"@ c #000034DB4322",
"# c #0000365744F4",
"$ c #0000384E4776",
"% c #00003B144B16",
"& c #00003D634DF4",
"* c #00003DCA4E82",
"= c #0000408E5205",
"- c #00004149530C",
"; c #0000434B557F",
": c #000044BE5769",
"> c #000045785857",
", c #000046C359F2",
"< c #000048065BA8",
"1 c #000049385D0E",
"2 c #00004C3460DF",
"3 c #00004D1D61F9",
"4 c #00004F766507",
"5 c #000050806654",
"6 c #0000512E671D",
"7 c #000052DB694D",
"8 c #000053F76ABB",
"9 c #000055466C53",
"0 c #000056AF6E5A",
"q c #000057566F13",
"w c #0000595F7187",
"e c #00005B8A745C",
"r c #00005D9076EB",
"t c #00005E2377B2",
"y c #00005EF678A6",
"u c #000061D37C42",
"i c #0000625A7D0C",
"p c #0000657480E0",
"a c #000065B4813F",
"s c #000066888247",
"d c #000067B183D0",
"f c #000068FC8577",
"g c None",
/* pixels */
"gggggggggggggggggggggggg",
"gggggggggffffffggggggggg",
"gggggggsfsfdfdfssggggggg",
"ggggggasppspppappppggggg",
"ggggiii8=&1riiipipiigggg",
"gggguu6gggg+wiuuyyuuuggg",
"gggyyrgggggg;t91;,4ryggg",
"gggrrgggggggg3=&&&&<ergg",
"ggweegggggggg&&*****4egg",
"ggwwwgggggggg&******<wgg",
"gg0qqqgggggg-******&;9qg",
"gg99999ggggg%%******,88g",
"gg688786ggggg &****&187g",
"gg56664gggggggo%%%%;45gg",
"gg24443ggggggg$*&&,343gg",
"gg;3332ggggggg<3223222gg",
"ggg,221ggggggg1121121ggg",
"ggg@,11<gggggg<111<<;ggg",
"gggg@,<,,gggg,,,,<,;gggg",
"gggggO;:,;>;;>;;;;=ggggg",
"gggggg.$=;;;;;;;*#gggggg",
"gggggggg O#$%$+Xgggggggg",
"gggggggggggggggggggggggg",
"gggggggggggggggggggggggg"
};
