/* XPM */
static char *gcolor2[] = {
/* columns rows colors chars-per-pixel */
"24 24 41 1 ",
"  c #00001CD824A8",
". c #000023A12D43",
"X c #0000245C2E2A",
"o c #0000278D3246",
"O c #000029003420",
"+ c #00002B52371E",
"@ c #00002CDB3902",
"# c #00002F303BF8",
"$ c #000031753ED1",
"% c #00003521437C",
"& c #00003656450E",
"* c #000038BB4811",
"= c #00003AB04A9B",
"- c #00003BD54C0D",
"; c #00003DAF4E6A",
": c #0000408451FD",
"> c #000041C9539F",
", c #00004357558F",
"< c #000044DA5779",
"1 c #000046AB59CE",
"2 c #000048275BC4",
"3 c #000049D85DDB",
"4 c #00004BAA6017",
"5 c #00004E8963D3",
"6 c #00004F09646E",
"7 c #0000518D679D",
"8 c #000052E96961",
"9 c #000053E36A9A",
"0 c #000055E96D22",
"q c #000057266ECE",
"w c #000059707198",
"e c #00005B1773C2",
"r c #00005CA375AA",
"t c #00005E8A7830",
"y c #000060757A6D",
"u c #000062DC7DA0",
"i c #000064287F3A",
"p c #0000679A8383",
"a c #0000693E854A",
"s c #00006A1686D0",
"d c None",
/* pixels */
"dddddddddddddddddddddddd",
"dddddddddddssddddddddddd",
"ddddddddapy4<eaadddddddd",
"ddddddpiw3dddd-9updddddd",
"dddduy9>dddddddd%4rudddd",
"ddtuq-dddddddddddd+5uydd",
"ddwewrddddddddddddd0rtdd",
"ddq4$7rddddddddddrw2<edd",
"ddqedd;0rddddddew7dd0wdd",
"ddqqddd+2qwdddw9<ddd0qdd",
"dd00ddddd&5qq93ddddd79dd",
"dd59dddddd.<7;dddddd89dd",
"dd36ddddddd;6ddddddd66dd",
"dd26ddddddd<5ddddddd55dd",
"ddd5ddddddd>4ddddddd4ddd",
"ddd24dddddd:3dddddd33ddd",
"dddO:3ddddd;2ddddd21-ddd",
"dddd &1dddd-1dddd1>ddddd",
"dddddd@:1dd=<dd<<;dddddd",
"ddddddd.*,d*:d>:%ddddddd",
"ddddddddd#;;::=ddddddddd",
"ddddddddddX=-%dddddddddd",
"ddddddddddddoddddddddddd",
"dddddddddddddddddddddddd"
};
