/* XPM */
static char *terminal[] = {
/* columns rows colors chars-per-pixel */
"24 24 39 1 ",
"  c #000020892954",
". c #000022F12C77",
"X c #0000243D2E15",
"o c #000026053056",
"O c #00002B91376C",
"+ c #00002F9F3C84",
"@ c #0000301C3D22",
"# c #0000320A3F96",
"$ c #000038AE47FF",
"% c #00003CE54D7A",
"& c #00003EF34FAC",
"* c #0000412452D2",
"= c #0000414E52F8",
"- c #00004204540B",
"; c #00004325558E",
": c #0000459D5885",
"> c #0000482C5B85",
", c #000048E25CE6",
"< c #000049B45DE3",
"1 c #00004B235F8C",
"2 c #00004C7C615A",
"3 c #00004D976299",
"4 c #00004F20647C",
"5 c #000050BA6696",
"6 c #0000510F667C",
"7 c #0000514A675B",
"8 c #0000534269E3",
"9 c #000055C76D48",
"0 c #000057916F31",
"q c #000058EC70EE",
"w c #00005AD27374",
"e c #00005E0E777D",
"r c #00005E867811",
"t c #000061047B41",
"y c #000063317E0C",
"u c #000065E3817E",
"i c #0000665D8215",
"p c #0000686A84B2",
"a c None",
/* pixels */
"aaaaaaaaaaaaaaaaaaaaaaaa",
"aaaaaaaaaaaaaaaaaaaaaaaa",
"aaaaaaaaaaaaaaaaaaaaaaaa",
"aaaaaaaaaaaaaaaaaaaaaaaa",
"aappiiiuuiiiiiuiiuiippaa",
"ari8#++++@++@++@+@+@5iaa",
"awyaaaaaaaaaaaaaaaaa3yaa",
"aqtaatyaaaaaaaaaaaaa8raa",
"a0raa=10eeaaaaaaaaaa7eaa",
"a8waaaa$qwaaaaaaaaaa4waa",
"a7qaaqq82:aaaaaaaaaa30aa",
"a40aa<%+aaaaaaaaaaaa29aa",
"a38aaaaaaaaaaaaaaaaa<8aa",
"a<7aaaaaaaaaaaaaaaaa:6aa",
"a>4aaaaaaaaaaaaaaaaa;4aa",
"a:3aaaaaaaaaaaaaaaaa-2aa",
"a;<aaaaaaaaaa::::>>a*,aa",
"a=>aaaaaaaaaaa   Xaa%:aa",
"a&;;aaaaaaaaaaaaaaaa*;aa",
"a$=--=-===******==**=*aa",
"aa.ooooooooooooooooooOaa",
"aaaaaaaaaaaaaaaaaaaaaaaa",
"aaaaaaaaaaaaaaaaaaaaaaaa",
"aaaaaaaaaaaaaaaaaaaaaaaa"
};
