/* XPM */
static char *baobab[] = {
/* columns rows colors chars-per-pixel */
"24 24 60 1 ",
"  c #00000C250F74",
". c #00000A8A133D",
"X c #00000E5A1242",
"o c #00000F55137E",
"O c #00000D8C16EA",
"+ c #000010D91569",
"@ c #000015511B16",
"# c #000018D41F8D",
"$ c #00000956252D",
"% c #00001D752570",
"& c #000015233B71",
"* c #000017823A58",
"= c #000023742D0E",
"- c #00000FB14ADF",
"; c #0000105C4D76",
": c #0000124153C3",
"> c #000018595A24",
", c #00003CD14D6A",
"< c #00003A9453A4",
"1 c #00003F355063",
"2 c #00003D0C5D0C",
"3 c #00003C525E10",
"4 c #000015C1615C",
"5 c #00001F426A1D",
"6 c #00003C65614E",
"7 c #000040BC5260",
"8 c #00004129541E",
"9 c #0000410E55AB",
"0 c #000042135406",
"q c #00004131568B",
"w c #000044FE57AE",
"e c #0000472A5A6F",
"r c #000048D65C90",
"t c #000049BC5DB5",
"y c #00004ACE5F11",
"u c #00004C0C60A4",
"i c #00004DAC62B7",
"p c #00004F04646D",
"a c #00005161676E",
"s c #0000526068AF",
"d c #000054716B52",
"f c #000054D56BD1",
"g c #000056016D50",
"h c #000056A56E1D",
"j c #000057B16F71",
"k c #0000588D7089",
"l c #00005A15727D",
"z c #00005A8F7315",
"x c #00005B2B73DB",
"c c #00005D7D76CF",
"v c #00005EFC78B6",
"b c #000061D17C4F",
"n c #000062ED7DB8",
"m c #000065AC8136",
"M c #0000679383A0",
"N c #000068F58562",
"B c #000069E48692",
"V c #00006C5F89B8",
"C c #00006DE08BA3",
"Z c None",
/* pixels */
"ZZZZZZZZZZZZZZZZZZZZZZZZ",
"ZZZZZZZZZZZZZZZZZZZZZZZZ",
"ZZZZCCCCVVVBNMNMmmnnZZZZ",
"ZZZZCCVVVBNNNMMmmnnbZZZZ",
"ZZZVVVBBNNMMmmnnnbvccZZZ",
"ZZZBBBNMMMmnnnbbvccxlZZZ",
"ZZZBBMMMmmnbvvvcxxlljZZZ",
"ZZZMmmnbbvcjjlljjjgddZZZ",
"ZZmnccxxljjjlljdggadaZZZ",
"ZZnbxlkjjgddaaappppppiZZ",
"ZZbbxllhgdddaappipiiiuZZ",
"ZZvvccxlggdaaapppiiuttZZ",
"ZZcxzljjggddsapiiutteeZZ",
"ZxlljggfdaappiuyteeeewwZ",
"Zjjjgddappiiuutreewwww0Z",
"Zggddaapiiutteeewwww070Z",
"Zddapiiiutteeeew0000877Z",
"aappiiutteeewww00089qq8,",
"Zeeeeewww0007771112q63<Z",
"Z=#@++oXoooXooXXXO$-4:*Z",
"Z%@oXX    XXXX   .$;5>&Z",
"ZZZZZZZZZZZZZZZZZZZZZZZZ",
"ZZZZZZZZZZZZZZZZZZZZZZZZ",
"ZZZZZZZZZZZZZZZZZZZZZZZZ"
};
