/* XPM */
static char *browser[] = {
/* columns rows colors chars-per-pixel */
"24 24 39 1 ",
"  c #000014CE1A69",
". c #0000167B1C91",
"X c #000020DE29CD",
"o c #000023282CAF",
"O c #00002912343C",
"+ c #00002B55371B",
"@ c #00002D1E397F",
"# c #00002F803C6D",
"$ c #00003C5A4CB3",
"% c #00003F30504F",
"& c #0000428C5491",
"* c #0000453657FA",
"= c #000045C758B6",
"- c #000046D059FE",
"; c #000048E25CA1",
": c #00004ACD5F0A",
"> c #00004BB46035",
", c #00004E8263B8",
"< c #0000502765DC",
"1 c #000051736786",
"2 c #0000527468C9",
"3 c #0000534869DA",
"4 c #000056386D94",
"5 c #000056886DFE",
"6 c #000058387022",
"7 c #00005A227293",
"8 c #00005B0E73B3",
"9 c #00005C837595",
"0 c #00005DE67752",
"q c #00005F667942",
"w c #000060237A2F",
"e c #000061277B57",
"r c #000063457E1D",
"t c #000064BA7FF2",
"y c #000066E382D1",
"u c #00006845847A",
"i c #000069908621",
"p c #000069FE86B0",
"a c None",
/* pixels */
"aaaaaaaaaaaaaaaaaaaaaaaa",
"aaaaaaaaaaaaaaaaaaaaaaaa",
"aaaaaaaaaipiiuaaaaaaaaaa",
"aaaaaaayt6eii718taaaaaaa",
"aaaaaat41,7q40q40taaaaaa",
"aaaaar78rt667yiq3qraaaaa",
"aaaaeeqrraaaa9647qewaaaa",
"aaa0qqq01raaaaq8qqqqqaaa",
"aaa00073eaaaar4>>3809aaa",
"aa67764aaaaaa8386,187aaa",
"aa64><aaaaaaa876773536aa",
"aa14qaaaaaaaw444441>44aa",
"aa,;,qaaaaaa7234333,,3aa",
"aa>01,330aaa6;:>1111><aa",
"aa=8a6,<17aaa4<>,<<>:aaa",
"aaa<i1,>,,7aaaa8>,>,>aaa",
"aaa%q1=>>>6aaaaq>>::-aaa",
"aaaa=e>;;:7aaaaa:;:*aaaa",
"aaaaO;4==,aaaaaa:=&aaaaa",
"aaaaao$==0aaaaaa;$aaaaaa",
"aaaaaa.+$:,43>-%#aaaaaaa",
"aaaaaaaa XO@#+oaaaaaaaaa",
"aaaaaaaaaaaaaaaaaaaaaaaa",
"aaaaaaaaaaaaaaaaaaaaaaaa"
};
