/* XPM */
static char *cmake[] = {
/* columns rows colors chars-per-pixel */
"24 24 29 1 ",
"  c #0000115C1610",
". c #000036D745AC",
"X c #000038C3481E",
"o c #00003FA250DB",
"O c #0000407451E8",
"+ c #0000426E5469",
"@ c #0000439755E7",
"# c #0000460558FA",
"$ c #000048355BC2",
"% c #0000492B5CF3",
"& c #00004AE85F11",
"* c #00004C5060DE",
"= c #00004DF462B0",
"- c #00004FAF6510",
"; c #000052136840",
": c #000054776B53",
"> c #000055CC6D05",
", c #000056746DE0",
"< c #000056A26E36",
"1 c #000058727084",
"2 c #000059F07251",
"3 c #00005B0D73B8",
"4 c #00005D7676C6",
"5 c #00005F8E796F",
"6 c #0000616B7BCE",
"7 c #000061FB7C84",
"8 c #0000662681D0",
"9 c #000068CA852B",
"0 c None",
/* pixels */
"000000000000000000000000",
"000000000000000000000000",
"000000000008900000000000",
"000000000008800000000000",
"000000000078880000000000",
"000000000067770000000000",
"000000000555555000000000",
"000000000444444000000000",
"000000002333323300000000",
"000000001212121200000000",
"0000000>>><>>1,,>0000000",
"0000000::::>::::>0000000",
"000000;;;;;;+*:;;;000000",
"000000-----$0&----000000",
"00000====*#00%=====00000",
"00000%**%0000%***&*00000",
"0000$%%%$0000@%%%%$$0000",
"0000##$##$##0@#$$#$$0000",
"000@@@@@@@@@@@#@@@#@@000",
"000+++++++++@++++++++000",
"00oOOOOOOOOOOOOOOOOO+O00",
"00...................X00",
"000 00000000000000000000",
"000000000000000000000000"
};
