/* XPM */
static char *dia_menu[] = {
/* columns rows colors chars-per-pixel */
"24 24 82 1 ",
"  c #00001A42217F",
". c #00001AC521E8",
"X c #00001BE22372",
"o c #0000272E213F",
"O c #0000249E2E91",
"+ c #0000336125C7",
"@ c #000027F132CD",
"# c #0000290E3428",
"$ c #000029AB34D3",
"% c #000030F73E28",
"& c #000052DB2CE4",
"* c #000040FD367E",
"= c #000054D83D01",
"- c #000034BB42EB",
"; c #0000381C471D",
": c #00003A8A4A38",
"> c #00003BEB4C1E",
", c #00003E6D4F28",
"< c #00003F7950AE",
"1 c #00004A13479F",
"2 c #00004EB349FB",
"3 c #000056344C30",
"4 c #000040C25254",
"5 c #000042615458",
"6 c #0000438E55CD",
"7 c #0000441F569B",
"8 c #0000452B56DD",
"9 c #00004ED24FE3",
"0 c #00004DBA5755",
"q c #0000451F581D",
"w c #000046745983",
"e c #000047745AF6",
"r c #000049A75928",
"t c #000048BC5C81",
"y c #000049BB5DAB",
"u c #00004A945ED5",
"i c #00004AF05F43",
"p c #0000571852C6",
"a c #00005A8555A5",
"s c #000055005A3D",
"d c #000058755DCA",
"f c #000059185DF7",
"g c #00005B555FD4",
"h c #00004BE7606A",
"j c #00004C8D615B",
"k c #00004E8663CB",
"l c #00004EDB6429",
"z c #00004FAC6528",
"x c #00004FF86594",
"c c #00005322687A",
"v c #000052AD6908",
"b c #0000531869CB",
"n c #000053656A02",
"m c #0000545F6B8C",
"M c #000055F26D1B",
"N c #000056A86E15",
"B c #000057A56F6A",
"V c #00005C3A68BE",
"C c #0000589E6C9B",
"Z c #0000586E7095",
"A c #000058FA7130",
"S c #00005B3E6FFD",
"D c #00005A057269",
"F c #00005B2673E2",
"G c #00005D107649",
"H c #00005E1177B2",
"J c #000064207052",
"K c #000060E47652",
"L c #00006585775A",
"P c #0000635879CC",
"I c #0000606F7A99",
"U c #000063637BDB",
"Y c #000061E87C55",
"T c #000062DA7DA5",
"R c #0000664E7DAD",
"E c #000065A07FD8",
"W c #000065EA81A0",
"Q c #000065C7822A",
"! c #000066808224",
"~ c #0000676584A4",
"^ c #0000688C8602",
"/ c None",
/* pixels */
"////////////////////////",
"////&///////////////////",
"///=JLLa////////////////",
"//U3R~^gf~!!!!//////////",
"/TEpPEQdV!!!W!EEEE//////",
"/nc2KTTs0mnnnBFITTYY////",
"///+199*o///#/O%7ZIII///",
"////rSC/////H////@eGHG//",
"////nGF////DF//////wFF//",
"////vAA////ADA//////kDA/",
"////kBB///MNMB//////wMB/",
"////jnn///mi>mm//////nn/",
"////inv//zv//hv//////bb/",
"////tzz//zk//5zz////lxl/",
"////wkk/kkkkkklk////jki/",
"////7hu7>>>>>>>>q//iiy//",
"////5ue//////////eeue4//",
"////6ee8///////eeee71///",
"/5w7w77ww77wqw7ww5://///",
"/,,<565<<,,,,,>;%@//////",
"//XX-<,$ X .X.//////////",
"/////;;/////////////////",
"////////////////////////",
"////////////////////////"
};
