/* XPM */
static char *google_earth[] = {
/* columns rows colors chars-per-pixel */
"24 24 45 1 ",
"  c #00001BDA236F",
". c #00001EA226F2",
"X c #000022592BA8",
"o c #000022D42C3F",
"O c #0000282B331A",
"+ c #000029DD3539",
"@ c #00002B3436E3",
"# c #00002C843893",
"$ c #00002E653AF8",
"% c #000031AA3F16",
"& c #000032193FAB",
"* c #0000359C4402",
"= c #0000365E4507",
"- c #000038D24815",
"; c #00003ADC4ABE",
": c #00003C214C69",
"> c #00003DCD4E73",
", c #000040995219",
"< c #0000425E5466",
"1 c #000043FD565F",
"2 c #00004574584C",
"3 c #000048B95C73",
"4 c #00004A205E3C",
"5 c #00004C2860C6",
"6 c #00004E7B63B5",
"7 c #00004F806509",
"8 c #000050BB6683",
"9 c #000051B567DE",
"0 c #0000529A6915",
"q c #000053DA6A98",
"w c #0000543F6B0A",
"e c #000055E46D2D",
"r c #000057276ECB",
"t c #0000586F7040",
"y c #000058F370F1",
"u c #00005AB97339",
"i c #00005B0F73BF",
"p c #00005C78757E",
"a c #00005E847843",
"s c #000061967BF6",
"d c #000063077DC4",
"f c #0000659B8116",
"g c #0000678C839F",
"h c #0000688584D4",
"j c None",
/* pixels */
"jjjjjjjjjjjjjjjjjjjjjjjj",
"jjjjjjjjjjjjjjjjjjjjjjjj",
"jjjjjjjjjhhhjjjjjjjjjjjj",
"jjjjjjddfhhgggjjjjjjjjjj",
"jjjjjjj&&2pgffffjjjjjjjj",
"jjjjjjjjjj+7dddddjjjjjjj",
"jjjjjjjjjjjj3sssdsjjjjjj",
"jjjjaaajjjjjj1aaaajjjjjj",
"jjjpappppjjjjj,ipppjjjjj",
"jjyiiiiiiiujjjj:riiyjjjj",
"jjryyytyyyyrjjjj&9yyyrjj",
"jjrrrrrrrrrrrejjj+2erejj",
"jjweeeqeeqqeeeqjjjj*49jj",
"jj7q9qq99q0099q99jjjjjjj",
"jj47799897799778777jjjjj",
"jj>*@;367766666666666jjj",
"jjjjjj.%,466555555554jjj",
"jjjjjjjjjO&>1344432<jjjj",
"jjjjjjjjjjjj o+++OXjjjjj",
"jjjjjjjj2jjjjjjjjjjjjjjj",
"jjjjjjj:<111111<,jjjjjjj",
"jjjjjjjjo$=--=%#jjjjjjjj",
"jjjjjjjjjjjjjjjjjjjjjjjj",
"jjjjjjjjjjjjjjjjjjjjjjjj"
};
