/* XPM */
static char *graveman[] = {
/* columns rows colors chars-per-pixel */
"24 24 53 1 ",
"  c #00001A8021A1",
". c #0000214E2A52",
"X c #0000222D2B5D",
"o c #000025602F9C",
"O c #00002647309B",
"+ c #0000273031B8",
"@ c #000029453449",
"# c #0000298A34C1",
"$ c #000030993DAC",
"% c #000032B14050",
"& c #0000356A43E3",
"* c #00003677452D",
"= c #000038CD4823",
"- c #00003A484A0C",
"; c #00003D0B4DA0",
": c #00003E204EE1",
"> c #00003F4B5071",
", c #0000408C51B5",
"< c #0000419F5351",
"1 c #000042C85496",
"2 c #000042FD5515",
"3 c #000043E255E7",
"4 c #00004488570C",
"5 c #0000457A5801",
"6 c #000046225918",
"7 c #0000477A5A90",
"8 c #000049105C80",
"9 c #00004A885ECB",
"0 c #00004B955FAC",
"q c #00004C7360DB",
"w c #00004E8163BE",
"e c #0000500065A2",
"r c #000050BD66AB",
"t c #000051AF67CC",
"y c #0000527F68D1",
"u c #000053E76A9C",
"i c #000054D46BD6",
"p c #000057E56FD8",
"a c #000059407159",
"s c #00005A5E72DC",
"d c #00005B74743C",
"f c #00005BF574CE",
"g c #00005DD17745",
"h c #00005F977977",
"j c #0000609D7AB9",
"k c #000063917E81",
"l c #000064B27FEF",
"z c #000065F981A5",
"x c #000066F482C6",
"c c #0000688B84A9",
"v c #000069C38671",
"b c #000069FA86B8",
"n c None",
/* pixels */
"nnnnnnnnnnnnnnnnnnnnnnnn",
"nnnnnnnnnvbcvvvvnnnnnnnn",
"nnnnnnnccvbbbvvccxnnnnnn",
"nnnnnlxxxjprwrglxzxnnnnn",
"nnnnklljw*nn>nO-illknnnn",
"nnnjjkd6nnnnjnnnn7jkjnnn",
"nnnhjgnnnnnhnnnnnn9hjhnn",
"nndggtnnnnfgnnnnnnnuggnn",
"nnsdpnnnnnddannnnnn6ddnn",
"nnaaunnnnpaaaaannnnniaan",
"nuppnnnnu9ippppnunnntpin",
"nwiunnnunn%4uiunnunntiun",
"nqtunnttnnnn:uwnneyneytn",
"nneennweennn2qnnweeqween",
"nnwwwn4wwwnn8nnwww4nwwqn",
"nn7qqnn9qqnq7n7qw7n9q9nn",
"nn-999n88:509nn,97n997nn",
"nnn:7778:$6777<.27776nnn",
"nnnn,6662,66664=2655,nnn",
"nnnn#:4442424412331>nnnn",
"nnnnnX&,22,2,2<2,:*nnnnn",
"nnnnnnno%;:>,:;=$nnnnnnn",
"nnnnnnnnn .+@o.nnnnnnnnn",
"nnnnnnnnnnnnnnnnnnnnnnnn"
};
