/* XPM */
static char *kxsldbg[] = {
/* columns rows colors chars-per-pixel */
"24 24 39 1 ",
"  c #000021342A39",
". c #00002751320F",
"X c #00002DF03A7E",
"o c #00002F133BD7",
"O c #000036DD45BA",
"+ c #000038FC48B4",
"@ c #0000398D492A",
"# c #00003B7B4BA1",
"$ c #00003BA04BCD",
"% c #00003F3B505C",
"& c #00003FF05148",
"* c #0000431B5552",
"= c #000046BD59E4",
"- c #0000473D5A7E",
"; c #000048465BD2",
": c #00004AC95F05",
"> c #00004BB76035",
", c #00004D0B61F2",
"< c #00004E7F63E4",
"1 c #00004F6164D7",
"2 c #0000517867AB",
"3 c #000052D46962",
"4 c #0000546D6B95",
"5 c #000056DB6E6B",
"6 c #000057FC6FB9",
"7 c #0000589F70A2",
"8 c #00005AE67398",
"9 c #00005B7E744B",
"0 c #00005C03750F",
"q c #00005E077771",
"w c #00005F7C794C",
"e c #000061BC7C31",
"r c #000063B27EAC",
"t c #000064647F9B",
"y c #0000662781D7",
"u c #00006741835B",
"i c #0000684A84D8",
"p c #00006ADB8810",
"a c None",
/* pixels */
"aaaaaaaaaaaaaaaaaaaaaaaa",
"aaaaaaaaaaaaaaaaaaaaaaaa",
"aaaaaaaaaaaaaaaaaaaaaaaa",
"aaaaaaaappaaaaaaaaaaaaaa",
"aaaaaaayuyyaaaaaaaaaaaaa",
"aaaarrrrrrrrrraaaaaaaaaa",
"aaaaawwwq9wwwqaaaaaaaaaa",
"aaaa6906%X%699aaaaaaaaaa",
"aaa6676aaaa,666aaaaaaaaa",
"aaa3433aaaaa3332aaaaaaaa",
"aaa+:12aaaa111;aaaaaaaaa",
"aaaa&,>>aa:>>>aaaaaaaaaa",
"aaaaa;;;;;-;;=aaaaaaaaaa",
"aaaa%*&*****&*aaaaaaaaaa",
"aaaaaXa.#*@. aaaaiiaaaaa",
"aaaaaaaaoOaaaaerrttrraaa",
"aaaaaaaaaaaaaa7wq66wqaaa",
"aaaaaaaaaaaaaa682aa365aa",
"aaaaaaaaaaaaa<33aaa132aa",
"aaaaaaaaaaaaaa-,,aa>,=aa",
"aaaaaaaaaaaaaa*;;;=;;aaa",
"aaaaaaaaaaaaaa$$#*&##aaa",
"aaaaaaaaaaaaaaaaaO+aaaaa",
"aaaaaaaaaaaaaaaaaaaaaaaa"
};
