<?xml version="1.0" encoding="UTF-8" standalone="no"?>
<svg
   xmlns:dc="http://purl.org/dc/elements/1.1/"
   xmlns:cc="http://creativecommons.org/ns#"
   xmlns:rdf="http://www.w3.org/1999/02/22-rdf-syntax-ns#"
   xmlns:svg="http://www.w3.org/2000/svg"
   xmlns="http://www.w3.org/2000/svg"
   xmlns:xlink="http://www.w3.org/1999/xlink"
   xmlns:sodipodi="http://sodipodi.sourceforge.net/DTD/sodipodi-0.dtd"
   xmlns:inkscape="http://www.inkscape.org/namespaces/inkscape"
   viewBox="0 0 17 57"
   id="svg2"
   version="1.1"
   inkscape:version="0.48.4 r9939"
   width="100%"
   height="100%"
   sodipodi:docname="lineedit.svg">
  <title
     id="title2995">Tilain</title>
  <metadata
     id="metadata34">
    <rdf:RDF>
      <cc:Work
         rdf:about="">
        <dc:format>image/svg+xml</dc:format>
        <dc:type
           rdf:resource="http://purl.org/dc/dcmitype/StillImage" />
        <dc:title>Tilain</dc:title>
        <cc:license
           rdf:resource="" />
      </cc:Work>
    </rdf:RDF>
  </metadata>
  <sodipodi:namedview
     pagecolor="#ffffff"
     bordercolor="#666666"
     borderopacity="1"
     objecttolerance="10"
     gridtolerance="10"
     guidetolerance="10"
     inkscape:pageopacity="0"
     inkscape:pageshadow="2"
     inkscape:window-width="1920"
     inkscape:window-height="1029"
     id="namedview32"
     showgrid="true"
     inkscape:zoom="29.500002"
     inkscape:cx="9.3377711"
     inkscape:cy="14.021159"
     inkscape:window-x="0"
     inkscape:window-y="24"
     inkscape:window-maximized="1"
     inkscape:current-layer="svg2">
    <inkscape:grid
       type="xygrid"
       id="grid3869" />
  </sodipodi:namedview>
  <defs
     id="defs4">
    <radialGradient
       inkscape:collect="always"
       xlink:href="#linearGradient8734-2-5"
       id="radialGradient4087"
       gradientUnits="userSpaceOnUse"
       gradientTransform="matrix(0.06792404,-1.5772391e-7,0,0.2845765,242.35364,65.72604)"
       cx="355.5"
       cy="231.10249"
       fx="355.5"
       fy="231.10249"
       r="70" />
    <linearGradient
       id="linearGradient8734-2-5"
       inkscape:collect="always">
      <stop
         id="stop8736-8-4"
         offset="0"
         style="stop-color:#ffffff;stop-opacity:1;" />
      <stop
         id="stop8738-9-1"
         offset="1"
         style="stop-color:#ffffff;stop-opacity:0;" />
    </linearGradient>
    <radialGradient
       inkscape:collect="always"
       xlink:href="#linearGradient8734-2-5"
       id="radialGradient4655-3"
       gradientUnits="userSpaceOnUse"
       gradientTransform="matrix(0.06792404,-1.5772391e-7,0,0.2845765,242.35364,65.72604)"
       cx="355.5"
       cy="231.10249"
       fx="355.5"
       fy="231.10249"
       r="70" />
    <radialGradient
       inkscape:collect="always"
       xlink:href="#linearGradient8734-2"
       id="radialGradient4655"
       gradientUnits="userSpaceOnUse"
       gradientTransform="matrix(0.06792404,-1.5772391e-7,0,0.2845765,242.35364,65.72604)"
       cx="355.5"
       cy="231.10249"
       fx="355.5"
       fy="231.10249"
       r="70" />
    <linearGradient
       id="linearGradient8734-2"
       inkscape:collect="always">
      <stop
         id="stop8736-8"
         offset="0"
         style="stop-color:#ffffff;stop-opacity:1;" />
      <stop
         id="stop8738-9"
         offset="1"
         style="stop-color:#ffffff;stop-opacity:0;" />
    </linearGradient>
  </defs>
  <rect
     style="fill:#ff00a8;fill-opacity:1;fill-rule:nonzero;stroke:none"
     id="hint-focus-over-base"
     width="4"
     height="4"
     x="-6"
     y="3.9999971"
     rx="0"
     ry="4" />
  <g
     transform="translate(-258,-66.000002)"
     id="hover-center"
     style="opacity:0">
    <path
       inkscape:connector-curvature="0"
       style="opacity:1;fill:#000000;fill-opacity:1;fill-rule:nonzero;stroke:none"
       d="m 264,112 0,5 5,0 0,-5 -5,0 z"
       id="path4035" />
  </g>
  <g
     transform="translate(-259,-67.000002)"
     id="hover-topleft">
    <path
       sodipodi:nodetypes="ccccc"
       inkscape:connector-curvature="0"
       id="path4039"
       transform="translate(259,106)"
       d="M 1,2 1,6 5,6 5,2 z"
       style="fill:#e5e5e5;fill-opacity:1;fill-rule:nonzero;stroke:none" />
    <path
       style="fill:#000000;fill-opacity:0;fill-rule:nonzero;stroke:none"
       d="m 259,107 0,5 1,0 0,-4 4,0 0,-1 z"
       id="path4041"
       inkscape:connector-curvature="0"
       sodipodi:nodetypes="ccccccc" />
    <path
       style="fill:#cccccc;fill-opacity:1;fill-rule:nonzero;stroke:none"
       d="M 1,2 1,6 2,6 2,3 5,3 5,2 z"
       transform="translate(259,106)"
       id="path3917"
       inkscape:connector-curvature="0"
       sodipodi:nodetypes="ccccccc" />
  </g>
  <g
     transform="translate(-259,-66.000002)"
     id="hover-left">
    <path
       inkscape:connector-curvature="0"
       style="fill:#000000;fill-opacity:0;fill-rule:nonzero;stroke:none"
       d="m 259,112 0,5 1,0 0,-5 -1,0 z"
       id="path4045" />
    <path
       inkscape:connector-curvature="0"
       style="fill:#e5e5e5;fill-opacity:1;fill-rule:nonzero;stroke:none"
       d="m 260,112 0,5 4,0 0,-5 -4,0 z"
       id="path4047" />
    <path
       id="path3915"
       d="m 260,112 0,5 1,0 0,-5 z"
       style="fill:#cccccc;fill-opacity:1;fill-rule:nonzero;stroke:none"
       inkscape:connector-curvature="0"
       sodipodi:nodetypes="ccccc" />
  </g>
  <g
     transform="translate(-258,-67.000002)"
     id="hover-top">
    <path
       inkscape:connector-curvature="0"
       style="fill:#e5e5e5;fill-opacity:1;fill-rule:nonzero;stroke:none"
       d="m 264,108 0,4 5,0 0,-4 -5,0 z"
       id="path4051" />
    <path
       inkscape:connector-curvature="0"
       style="fill:url(#radialGradient4087);fill-opacity:1;fill-rule:nonzero;stroke:none"
       d="m 264,107 0,1 5,0 0,-1 -5,0 z"
       id="path4053" />
    <path
       style="fill:#000000;fill-opacity:0;fill-rule:nonzero;stroke:none"
       d="m 264,107 0,1 5,0 0,-1 z"
       id="path4055"
       inkscape:connector-curvature="0"
       sodipodi:nodetypes="ccccc" />
    <path
       id="path3919"
       d="m 264,108 0,1 5,0 0,-1 z"
       style="fill:#cccccc;fill-opacity:1;fill-rule:nonzero;stroke:none"
       inkscape:connector-curvature="0"
       sodipodi:nodetypes="ccccc" />
  </g>
  <g
     transform="translate(-259,-65.000002)"
     id="hover-bottomleft">
    <path
       style="fill:#000000;fill-opacity:0;fill-rule:nonzero;stroke:none"
       d="m 259,117 0,5 5,0 0,-1 -4,0 0,-4 z"
       id="path4059"
       inkscape:connector-curvature="0"
       sodipodi:nodetypes="ccccccc" />
    <path
       style="fill:#e5e5e5;fill-opacity:1;fill-rule:nonzero;stroke:none"
       d="m 260,117 0,4 4,0 0,-4 z"
       id="path4061"
       sodipodi:nodetypes="ccccc"
       inkscape:connector-curvature="0" />
    <path
       inkscape:connector-curvature="0"
       sodipodi:nodetypes="ccccccc"
       id="path3913"
       d="m 260,117 0,4 4,0 0,-1 -3,0 0,-3 z"
       style="fill:#cccccc;fill-opacity:1;fill-rule:nonzero;stroke:none" />
  </g>
  <g
     transform="translate(-258,-65.000002)"
     id="hover-bottom">
    <path
       inkscape:connector-curvature="0"
       style="fill:#000000;fill-opacity:0;fill-rule:nonzero;stroke:none"
       d="m 264,121 0,1 5,0 0,-1 -5,0 z"
       id="path4065" />
    <path
       inkscape:connector-curvature="0"
       style="fill:#e5e5e5;fill-opacity:1;fill-rule:nonzero;stroke:none"
       d="m 264,117 0,4 5,0 0,-4 -5,0 z"
       id="path4067" />
    <path
       id="path3911"
       d="m 264,120 0,1 5,0 0,-1 z"
       style="fill:#cccccc;fill-opacity:1;fill-rule:nonzero;stroke:none"
       inkscape:connector-curvature="0"
       sodipodi:nodetypes="ccccc" />
  </g>
  <g
     transform="translate(-257,-67.000002)"
     id="hover-topright">
    <path
       style="fill:#e5e5e5;fill-opacity:1;fill-rule:nonzero;stroke:none"
       d="m 269,108 0,4 4,0 0,-4 z"
       id="path4071"
       sodipodi:nodetypes="ccccc"
       inkscape:connector-curvature="0" />
    <path
       style="fill:#000000;fill-opacity:0;fill-rule:nonzero;stroke:none"
       d="m 269,107 0,1 4,0 0,4 1,0 0,-5 z"
       id="path4073"
       inkscape:connector-curvature="0"
       sodipodi:nodetypes="ccccccc" />
    <path
       inkscape:connector-curvature="0"
       sodipodi:nodetypes="ccccccc"
       id="path3905"
       d="m 269,108 0,1 3,0 0,3 1,0 0,-4 z"
       style="fill:#cccccc;fill-opacity:1;fill-rule:nonzero;stroke:none" />
  </g>
  <g
     transform="translate(-257,-66.000002)"
     id="hover-right">
    <path
       inkscape:connector-curvature="0"
       style="fill:#000000;fill-opacity:0;fill-rule:nonzero;stroke:none"
       d="m 273,112 0,5 1,0 0,-5 -1,0 z"
       id="path4077" />
    <path
       inkscape:connector-curvature="0"
       style="fill:#e5e5e5;fill-opacity:1;fill-rule:nonzero;stroke:none"
       d="m 269,112 0,5 4,0 0,-5 -4,0 z"
       id="path4079" />
    <path
       id="path3907"
       d="m 272,112 0,5 1,0 0,-5 z"
       style="fill:#cccccc;fill-opacity:1;fill-rule:nonzero;stroke:none"
       inkscape:connector-curvature="0"
       sodipodi:nodetypes="ccccc" />
  </g>
  <g
     transform="translate(-257,-65.000002)"
     id="hover-bottomright">
    <path
       style="fill:#000000;fill-opacity:0;fill-rule:nonzero;stroke:none"
       d="m 273,117 0,4 -4,0 0,1 5,0 0,-5 z"
       id="path4083"
       inkscape:connector-curvature="0"
       sodipodi:nodetypes="ccccccc" />
    <path
       style="fill:#e5e5e5;fill-opacity:1;fill-rule:nonzero;stroke:none"
       d="m 269,117 0,4 4,0 0,-4 z"
       id="path4085"
       sodipodi:nodetypes="ccccc"
       inkscape:connector-curvature="0" />
    <path
       inkscape:connector-curvature="0"
       sodipodi:nodetypes="ccccccc"
       id="path3909"
       d="m 269,120 0,1 4,0 0,-4 -1,0 0,3 z"
       style="fill:#cccccc;fill-opacity:1;fill-rule:nonzero;stroke:none" />
  </g>
  <rect
     style="fill:#ff00a8;fill-opacity:1;fill-rule:nonzero;stroke:none"
     id="hover-hint-top-margin"
     width="2.9999847"
     height="1"
     x="7"
     y="39.999996" />
  <rect
     y="46.999996"
     x="0"
     height="3"
     width="1"
     id="hover-hint-left-margin"
     style="fill:#ff00a8;fill-opacity:1;fill-rule:nonzero;stroke:none" />
  <rect
     style="fill:#ff00a8;fill-opacity:1;fill-rule:nonzero;stroke:none"
     id="hover-hint-right-margin"
     width="1"
     height="3"
     x="16"
     y="46.999996" />
  <rect
     y="56"
     x="7"
     height="1"
     width="2.9999924"
     id="hover-hint-bottom-margin"
     style="fill:#ff00a8;fill-opacity:1;fill-rule:nonzero;stroke:none" />
  <g
     id="focus-center"
     transform="translate(-258,-86.000002)">
    <path
       id="rect8669-7-9"
       d="m 264,112 0,5 5,0 0,-5 -5,0 z"
       style="opacity:0;fill:#ffbcff;fill-opacity:1;fill-rule:nonzero;stroke:none"
       inkscape:connector-curvature="0" />
  </g>
  <g
     id="focus-topleft"
     transform="translate(-259,-87.000002)">
    <path
       style="fill:#e5e5e5;fill-opacity:1;fill-rule:nonzero;stroke:none"
       d="M 1,2 1,6 5,6 5,2 z"
       transform="translate(259,106)"
       id="path4447-3-3"
       inkscape:connector-curvature="0"
       sodipodi:nodetypes="ccccc" />
    <path
       sodipodi:nodetypes="ccccccc"
       inkscape:connector-curvature="0"
       id="path4451-6-5"
       d="m 259,107 0,5 1,0 0,-4 4,0 0,-1 z"
       style="fill:#cccccc;fill-opacity:0;fill-rule:nonzero;stroke:none" />
    <path
       sodipodi:nodetypes="ccccccc"
       inkscape:connector-curvature="0"
       id="path3889"
       transform="translate(259,106)"
       d="M 1,2 1,6 2,6 2,3 5,3 5,2 z"
       style="fill:#cccccc;fill-opacity:1;fill-rule:nonzero;stroke:none" />
  </g>
  <g
     id="focus-left"
     transform="translate(-259,-86.000002)">
    <path
       id="path4493-1-6"
       d="m 259,112 0,5 1,0 0,-5 -1,0 z"
       style="fill:#cccccc;fill-opacity:0;fill-rule:nonzero;stroke:none"
       inkscape:connector-curvature="0" />
    <path
       id="path4489-2-9"
       d="m 260,112 0,5 4,0 0,-5 z"
       style="fill:#e5e5e5;fill-opacity:1;fill-rule:nonzero;stroke:none"
       inkscape:connector-curvature="0"
       sodipodi:nodetypes="ccccc" />
    <path
       sodipodi:nodetypes="ccccc"
       inkscape:connector-curvature="0"
       style="fill:#cccccc;fill-opacity:1;fill-rule:nonzero;stroke:none"
       d="m 260,112 0,5 1,0 0,-5 z"
       id="path3895" />
  </g>
  <g
     id="focus-top"
     transform="translate(-258,-87.000002)">
    <path
       id="path4543-9-1"
       d="m 264,108 0,4 5,0 0,-4 -5,0 z"
       style="fill:#e5e5e5;fill-opacity:1;fill-rule:nonzero;stroke:none"
       inkscape:connector-curvature="0" />
    <path
       id="path4545-3-9"
       d="m 264,107 0,1 5,0 0,-1 -5,0 z"
       style="fill:url(#radialGradient4655-3);fill-opacity:1;fill-rule:nonzero;stroke:none"
       inkscape:connector-curvature="0" />
    <path
       sodipodi:nodetypes="ccccc"
       inkscape:connector-curvature="0"
       id="path4547-1-8"
       d="m 264,107 0,1 5,0 0,-1 z"
       style="fill:#cccccc;fill-opacity:0;fill-rule:nonzero;stroke:none" />
    <path
       inkscape:connector-curvature="0"
       style="fill:#cccccc;fill-opacity:1;fill-rule:nonzero;stroke:none"
       d="m 264,108 0,1 5,0 0,-1 z"
       id="path3891"
       sodipodi:nodetypes="ccccc" />
  </g>
  <g
     id="focus-bottomleft"
     transform="translate(-259,-85.000002)">
    <path
       sodipodi:nodetypes="ccccccc"
       inkscape:connector-curvature="0"
       id="path4470-9-8"
       d="m 259,117 0,5 5,0 0,-1 -4,0 0,-4 z"
       style="fill:#cccccc;fill-opacity:0;fill-rule:nonzero;stroke:none" />
    <path
       inkscape:connector-curvature="0"
       sodipodi:nodetypes="ccccc"
       id="path4468-4-7"
       d="m 260,117 0,4 4,0 0,-4 z"
       style="fill:#e5e5e5;fill-opacity:1;fill-rule:nonzero;stroke:none" />
    <path
       style="fill:#cccccc;fill-opacity:1;fill-rule:nonzero;stroke:none"
       d="m 260,117 0,4 4,0 0,-1 -3,0 0,-3 z"
       id="path3903"
       sodipodi:nodetypes="ccccccc"
       inkscape:connector-curvature="0" />
  </g>
  <g
     id="focus-bottom"
     transform="translate(-258,-85.000002)">
    <path
       id="path4520-9"
       d="m 264,121 0,1 5,0 0,-1 -5,0 z"
       style="fill:#cccccc;fill-opacity:0;fill-rule:nonzero;stroke:none"
       inkscape:connector-curvature="0" />
    <path
       id="path4516-7-1"
       d="m 264,117 0,4 5,0 0,-4 -5,0 z"
       style="fill:#e5e5e5;fill-opacity:1;fill-rule:nonzero;stroke:none"
       inkscape:connector-curvature="0" />
    <path
       inkscape:connector-curvature="0"
       style="fill:#cccccc;fill-opacity:1;fill-rule:nonzero;stroke:none"
       d="m 264,120 0,1 5,0 0,-1 z"
       id="path3901"
       sodipodi:nodetypes="ccccc" />
  </g>
  <g
     id="focus-topright"
     transform="translate(-257,-87.000002)">
    <path
       inkscape:connector-curvature="0"
       sodipodi:nodetypes="ccccc"
       id="path4426-3"
       d="m 269,108 0,4 4,0 0,-4 z"
       style="fill:#e5e5e5;fill-opacity:1;fill-rule:nonzero;stroke:none" />
    <path
       sodipodi:nodetypes="ccccccc"
       inkscape:connector-curvature="0"
       id="path4430-0"
       d="m 269,107 0,1 4,0 0,4 1,0 0,-5 z"
       style="fill:#cccccc;fill-opacity:0;fill-rule:nonzero;stroke:none" />
    <path
       style="fill:#cccccc;fill-opacity:1;fill-rule:nonzero;stroke:none"
       d="m 269,108 0,1 3,0 0,3 1,0 0,-4 z"
       id="path3893"
       sodipodi:nodetypes="ccccccc"
       inkscape:connector-curvature="0" />
  </g>
  <g
     id="focus-right"
     transform="translate(-257,-86.000002)">
    <path
       id="path4574-8"
       d="m 273,112 0,5 1,0 0,-5 -1,0 z"
       style="fill:#cccccc;fill-opacity:0;fill-rule:nonzero;stroke:none"
       inkscape:connector-curvature="0" />
    <path
       id="path4570-2"
       d="m 269,112 0,5 4,0 0,-5 -4,0 z"
       style="fill:#e5e5e5;fill-opacity:1;fill-rule:nonzero;stroke:none"
       inkscape:connector-curvature="0" />
    <path
       inkscape:connector-curvature="0"
       style="fill:#cccccc;fill-opacity:1;fill-rule:nonzero;stroke:none"
       d="m 272,112 0,5 1,0 0,-5 z"
       id="path3897"
       sodipodi:nodetypes="ccccc" />
  </g>
  <g
     id="focus-bottomright"
     transform="translate(-257,-85.000002)">
    <path
       sodipodi:nodetypes="ccccccc"
       inkscape:connector-curvature="0"
       id="path4404-4-9"
       d="m 273,117 0,4 -4,0 0,1 5,0 0,-5 z"
       style="fill:#cccccc;fill-opacity:0;fill-rule:nonzero;stroke:none" />
    <path
       inkscape:connector-curvature="0"
       sodipodi:nodetypes="ccccc"
       id="path4400-5-0"
       d="m 269,117 0,4 4,0 0,-4 z"
       style="fill:#e5e5e5;fill-opacity:1;fill-rule:nonzero;stroke:none" />
    <path
       style="fill:#cccccc;fill-opacity:1;fill-rule:nonzero;stroke:none"
       d="m 272,120 -3,0 0,1 4,0 0,-4 -1,0 z"
       id="path3899"
       sodipodi:nodetypes="ccccccc"
       inkscape:connector-curvature="0" />
  </g>
  <rect
     y="19.999996"
     x="7"
     height="1"
     width="3"
     id="focus-hint-top-margin"
     style="fill:#ff00a8;fill-opacity:1;fill-rule:nonzero;stroke:none" />
  <rect
     style="fill:#ff00a8;fill-opacity:1;fill-rule:nonzero;stroke:none"
     id="focus-hint-bottom-margin"
     width="3.0000038"
     height="1"
     x="7"
     y="35.999996" />
  <rect
     style="fill:#ff00a8;fill-opacity:1;fill-rule:nonzero;stroke:none"
     id="focus-hint-left-margin"
     width="1"
     height="3"
     x="0"
     y="26.999996" />
  <rect
     y="26.999996"
     x="16"
     height="3"
     width="1"
     id="focus-hint-right-margin"
     style="fill:#ff00a8;fill-opacity:1;fill-rule:nonzero;stroke:none" />
  <g
     id="base-center"
     transform="translate(-258,-106)">
    <path
       id="rect8669-7"
       d="m 264,112 0,5 5,0 0,-5 -5,0 z"
       style="fill:#ffffff;fill-opacity:1;fill-rule:nonzero;stroke:none"
       inkscape:connector-curvature="0" />
  </g>
  <g
     id="base-topleft"
     transform="translate(-259,-107)">
    <path
       style="fill:#ffffff;fill-opacity:1;fill-rule:nonzero;stroke:none"
       d="M 1,2 1,6 5,6 5,2 z"
       transform="translate(259,106)"
       id="path4447-3"
       inkscape:connector-curvature="0"
       sodipodi:nodetypes="ccccc" />
    <path
       sodipodi:nodetypes="ccccccc"
       inkscape:connector-curvature="0"
       id="path4451-6"
       d="m 259,107 0,5 1,0 0,-4 4,0 0,-1 z"
       style="fill:#cccccc;fill-opacity:1;fill-rule:nonzero;stroke:none" />
  </g>
  <g
     id="base-left"
     transform="translate(-259,-106)">
    <path
       id="path4493-1"
       d="m 259,112 0,5 1,0 0,-5 -1,0 z"
       style="fill:#cccccc;fill-opacity:1;fill-rule:nonzero;stroke:none"
       inkscape:connector-curvature="0" />
    <path
       id="path4489-2"
       d="m 260,112 0,5 4,0 0,-5 -4,0 z"
       style="fill:#ffffff;fill-opacity:1;fill-rule:nonzero;stroke:none"
       inkscape:connector-curvature="0" />
  </g>
  <g
     id="base-top"
     transform="translate(-258,-107)">
    <path
       id="path4543-9"
       d="m 264,108 0,4 5,0 0,-4 -5,0 z"
       style="fill:#ffffff;fill-opacity:1;fill-rule:nonzero;stroke:none"
       inkscape:connector-curvature="0" />
    <path
       id="path4545-3"
       d="m 264,107 0,1 5,0 0,-1 -5,0 z"
       style="fill:url(#radialGradient4655);fill-opacity:1;fill-rule:nonzero;stroke:none"
       inkscape:connector-curvature="0" />
    <path
       sodipodi:nodetypes="ccccc"
       inkscape:connector-curvature="0"
       id="path4547-1"
       d="m 264,107 0,1 5,0 0,-1 z"
       style="fill:#cccccc;fill-opacity:1;fill-rule:nonzero;stroke:none" />
  </g>
  <g
     id="base-bottomleft"
     transform="translate(-259,-105)">
    <path
       sodipodi:nodetypes="ccccccc"
       inkscape:connector-curvature="0"
       id="path4470-9"
       d="m 259,117 0,5 5,0 0,-1 -4,0 0,-4 z"
       style="fill:#cccccc;fill-opacity:1;fill-rule:nonzero;stroke:none" />
    <path
       inkscape:connector-curvature="0"
       sodipodi:nodetypes="ccccc"
       id="path4468-4"
       d="m 260,117 0,4 4,0 0,-4 z"
       style="fill:#ffffff;fill-opacity:1;fill-rule:nonzero;stroke:none" />
  </g>
  <g
     id="base-bottom"
     transform="translate(-258,-105)">
    <path
       id="path4520"
       d="m 264,121 0,1 5,0 0,-1 -5,0 z"
       style="fill:#cccccc;fill-opacity:1;fill-rule:nonzero;stroke:none"
       inkscape:connector-curvature="0" />
    <path
       id="path4516-7"
       d="m 264,117 0,4 5,0 0,-4 -5,0 z"
       style="fill:#ffffff;fill-opacity:1;fill-rule:nonzero;stroke:none"
       inkscape:connector-curvature="0" />
  </g>
  <g
     id="base-topright"
     transform="translate(-257,-107)">
    <path
       inkscape:connector-curvature="0"
       sodipodi:nodetypes="ccccc"
       id="path4426"
       d="m 269,108 0,4 4,0 0,-4 z"
       style="fill:#ffffff;fill-opacity:1;fill-rule:nonzero;stroke:none" />
    <path
       sodipodi:nodetypes="ccccccc"
       inkscape:connector-curvature="0"
       id="path4430"
       d="m 269,107 0,1 4,0 0,4 1,0 0,-5 z"
       style="fill:#cccccc;fill-opacity:1;fill-rule:nonzero;stroke:none" />
  </g>
  <g
     id="base-right"
     transform="translate(-257,-106)">
    <path
       id="path4574"
       d="m 273,112 0,5 1,0 0,-5 -1,0 z"
       style="fill:#cccccc;fill-opacity:1;fill-rule:nonzero;stroke:none"
       inkscape:connector-curvature="0" />
    <path
       id="path4570"
       d="m 269,112 0,5 4,0 0,-5 -4,0 z"
       style="fill:#ffffff;fill-opacity:1;fill-rule:nonzero;stroke:none"
       inkscape:connector-curvature="0" />
  </g>
  <g
     id="base-bottomright"
     transform="translate(-257,-105)">
    <path
       sodipodi:nodetypes="ccccccc"
       inkscape:connector-curvature="0"
       id="path4404-4"
       d="m 273,117 0,4 -4,0 0,1 5,0 0,-5 z"
       style="fill:#cccccc;fill-opacity:1;fill-rule:nonzero;stroke:none" />
    <path
       inkscape:connector-curvature="0"
       sodipodi:nodetypes="ccccc"
       id="path4400-5"
       d="m 269,117 0,4 4,0 0,-4 z"
       style="fill:#ffffff;fill-opacity:1;fill-rule:nonzero;stroke:none" />
  </g>
  <rect
     y="6.9999971"
     x="0"
     height="3"
     width="4"
     id="base-hint-left-margin"
     style="fill:#ff00a8;fill-opacity:1;fill-rule:nonzero;stroke:none" />
  <rect
     style="fill:#ff00a8;fill-opacity:1;fill-rule:nonzero;stroke:none"
     id="base-hint-top-margin"
     width="3"
     height="4"
     x="7"
     y="-2.8610229e-06" />
  <rect
     y="12.999996"
     x="7"
     height="4"
     width="3"
     id="base-hint-bottom-margin"
     style="fill:#ff00a8;fill-opacity:1;fill-rule:nonzero;stroke:none" />
  <rect
     style="fill:#ff00a8;fill-opacity:1;fill-rule:nonzero;stroke:none"
     id="base-hint-right-margin"
     width="4"
     height="3"
     x="13"
     y="6.9999971" />
</svg>
