#define close_width 15
#define close_height 15
static char close_bits[] = {
  0x00, 0x00, 0xFE, 0x3F, 0xFE, 0x3F, 0x06, 0x30, 0x06, 0x30, 0x06, 0x30, 
  0x06, 0x30, 0x06, 0x30, 0x06, 0x30, 0x06, 0x30, 0x06, 0x30, 0x06, 0x30, 
  0xFE, 0x3F, 0xFE, 0x3F, 0x00, 0x00, };
