/* XPM */
static char *bluefish[] = {
/* columns rows colors chars-per-pixel */
"128 128 57 1 ",
"  c #000001",
". c #000507",
"X c #00090C",
"o c #000D11",
"O c #001115",
"+ c #00151B",
"@ c #00171D",
"# c #00181F",
"$ c #001D25",
"% c #00212A",
"& c #00242E",
"* c #002934",
"= c #002C38",
"- c #00303C",
"; c #003341",
": c #003544",
"> c #003847",
", c #003C4C",
"< c #003D4D",
"1 c #003D4E",
"2 c #003F51",
"3 c #004152",
"4 c #004153",
"5 c #004355",
"6 c #004557",
"7 c #004558",
"8 c #00475A",
"9 c #00485C",
"0 c #00495C",
"q c #00485D",
"w c #004B5F",
"e c #004C61",
"r c #004D61",
"t c #004C62",
"y c #004F64",
"u c #005066",
"i c #005166",
"p c #005369",
"a c #00546B",
"s c #00566D",
"d c #005870",
"f c #005A72",
"g c #005C75",
"h c #005E77",
"j c #006079",
"k c #00607A",
"l c #00617C",
"z c #00637F",
"x c #00647E",
"c c #00647F",
"v c #006581",
"b c #006783",
"n c #006784",
"m c #006883",
"M c #006884",
"N c #006985",
"B c None",
/* pixels */
"BBBBBBBBBBBBBBBBBBBBBBBBBBBBBBBBBBBBBBBBBBBBBBBBBBBBBBBBBBBBBBBBBBBBBBBBBBBBBBBBBBBBBBBBBBBBBBBBBBBBBBBBBBBBBBBBBBBBBBBBBBBBBBBB",
"BBBBBBBBBBBBBBBBBBBBBBBBBBBBBBBBBBBBBBBBBBBBBBBBBBBBBBBBBBBBBBBBBBBBBBBBBBBBBBBBBBBBBBBBBBBBBBBBBBBBBBBBBBBBBBBBBBBBBBBBBBBBBBBB",
"BBBBBBBBBBBBBBBBBBBBBBBBBBBBBBBBBBBBBBBBBBBBBBBBBBBBBBBBBBBBBBBBBBBBBBBBBBBBBBBBBBBBBBBBBBBBBBBBBBBBBBBBBBBBBBBBBBBBBBBBBBBBBBBB",
"BBBBBBBBBBBBBBBBBBBBBBBBBBBBBBBBBBBBBBBBBBBBBBBBBBBBBBBBBBBBBBBBBBBBBBBBBBBBBBBBBBBBBBBBBBBBBBBBBBBBBBBBBBBBBBBBBBBBBBBBBBBBBBBB",
"BBBBBBBBBBBBBBBBBBBBBBBBBBBBBBBBBBBBBBBBBBBBBBBBBBBBBBBBBBBBBBBBBBBBBBBBBBBBBBBBBBBBBBBBBBBBBBBBBBBBBBBBBBBBBBBBBBBBBBBBBBBBBBBB",
"BBBBBBBBBBBBBBBBBBBBBBBBBBBBBBBBBBBBBBBBBBBBBBBBBBBBBBBBBBBBBBBBBBBBBBBBBBBBBBBBBBBBBBBBBBBBBBBBBBBBBBBBBBBBBBBBBBBBBBBBBBBBBBBB",
"BBBBBBBBBBBBBBBBBBBBBBBBBBBBBBBBBBBBBBBBBBBBBBBBBBBBBBBBBBBBBBBBBBBBBBBBBBBBBBBBBBBBBBBBBBBBBBBBBBBBBBBBBBBBBBBBBBBBBBBBBBBBBBBB",
"BBBBBBBBBBBBBBBBBBBBBBBBBBBBBBBBBBBBBBBBBBBBBBBBBBBBBBBBBBBBBBBBBBBBBBBBBBBBBBBBBBBBBBBBBBBBBBBBBBBBBBBBBBBBBBBBBBBBBBBBBBBBBBBB",
"BBBBBBBBBBBBBBBBBBBBBBBBBBBBBBBBBBBBBBBBBBBBBBBBBBBBBBBBBBBBBBBBBBBBBBBBBBBBBBBBBBBBBBBBBBBBBBBBBBBBBBBBBBBBBBBBBBBBBBBBBBBBBBBB",
"BBBBBBBBBBBBBBBBBBBBBBBBBBBBBBBBBBBBBBBBBBBBBBBBBBBBBBBBBBBBBBBBBBBBBBBBBBBBBBBBBBBBBBBBBBBBBBBBBBBBBBBBBBBBBBBBBBBBBBBBBBBBBBBB",
"BBBBBBBBBBBBBBBBBBBBBBBBBBBBBBBBBBBBBBBBBBBBBBBBBBBBBBBBBBBBBBBBBBBBBBBBBBBBBBBBBBBBBBBBBBBBBBBBBBBBBBBBBBBBBBBBBBBBBBBBBBBBBBBB",
"BBBBBBBBBBBBBBBBBBBBBBBBBBBBBBBBBBBBBBBBBBBBBBBBBBBBBBBBBBBBBBBBBBBBBBBBBBBBBBBBBBBBBBBBBBBBBBBBBBBBBBBBBBBBBBBBBBBBBBBBBBBBBBBB",
"BBBBBBBBBBBBBBBBBBBBBBBBBBBBBBBBBBBBBBBBBBBBBBBBBBBBBBBBBBBBBBBBBBBBBBBBBBBBBBBBBBBBBBBBBBBBBBBBBBBBBBBBBBBBBBBBBBBBBBBBBBBBBBBB",
"BBBBBBBBBBBBBBBBBBBBBBBBBBBBBBBBBBBBBBBBBBBBBBBBBBBBBBBBBBBBBBBBBBBBBBBBBBBBBBBBBBBBBBBBBBBBBBBBBBBBBBBBBBBBBBBBBBBBBBBBBBBBBBBB",
"BBBBBBBBBBBBBBBBBBBBBBBBBBBBBBBBBBBBBBBBBBBBBBBBBBBBBBBBBBBBBBBBBBBBBBBBBBBBBBBBBBBBBBBBBBBBBBBBBBBBBBBBBBBBBBBBBBBBBBBBBBBBBBBB",
"BBBBBBBBBBBBBBBBBBBBBBBBBBBBBBBBBBBBBBBBBBBBBBBBBBBBBBBBBBBBBBBBBBBBBBBBBBBBBBBBBBBBBBBBBBBBBBBBBBBBBBBBBBBBBBBBBBBBBBBBBBBBBBBB",
"BBBBBBBBBBBBBBBBBBBBBBBBBBBBBBBBBBBBBBBBBBBBBBBBBBBBBBBBBBBBBBBBBBBBBBBBBBBBBBBBBBBBBBBBBBBBBBBBBBBBBBBBBBBBBBBBBBBBBBBBBBBBBBBB",
"BBBBBBBBBBBBBBBBBBBBBBBBBBBBBBBBBBBBBBBBBBBBBBBBBBBBBBBBBBBBBBBBBBBBBBBBBBBBBBBBBBBBBBBBBBBBBBBBBBBBBBBBBBBBBBBBBBBBBBBBBBBBBBBB",
"BBBBBBBBBBBBBBBBBBBBBBBBBBBBBBBBBBBBBBBBBBBBBBBBBBBBBBBBBBBBBBBBBBBBBBBBBBBBBBBBBBBBBBBBBBBBBBBBBBBBBBBBBBBBBBBBBBBBBBBBBBBBBBBB",
"BBBBBBBBBBBBBBBBBBBBBBBBBBBBBBBBBBBBBBBBBBBBBBBBBBBBBBBBBBBBBBBBBBBBBBBBBBBBBBBBBBBBBBBBBBBBBBBBBBBBBBBBBBBBBBBBBBBBBBBBBBBBBBBB",
"BBBBBBBBBBBBBBBBBBBBBBBBBBBBBBBBBBBBBBBBBBBBBBBBBBBBBBBBBBBBBBBBBBBBBBBBBBBBBBBBBBBBBBBBBBBBBBBBBBBBBBBBBBBBBBBBBBBBBBBBBBBBBBBB",
"BBBBBBBBBBBBBBBBBBBBBBBBBBBBBBBBBBBBBBBBBBBBBBBBBBBBBBBBBBBBBBBBBBBBBBBBBBBBBBBBBBBBBBBBBBBBBBBBBBBBBBBBBBBBBBBBBBBBBBBBBBBBBBBB",
"BBBBBBBBBBBBBBBBBBBBBBBBBBBBBBBBBBBBBBBBBBBBBBBBBBBBBBBBBBBBBBBBBBBBBBBBBBBBBBBBBBBBBBBBBBBBBBBBBBBBBBBBBBBBBBBBBBBBBBBBBBBBBBBB",
"BBBBBBBBBBBBBBBBBBBBBBBBBBBBBBBBBBBBBBBBBBBBBBBBBBBBBBBBBBBBBBBBBBBBBBBBBBBBBBBBBBBBBBBBBBBBBBBBBBBBBBBBBBBBBBBBBBBBBBBBBBBBBBBB",
"BBBBBBBBBBBBBBBBBBBBBBBBBBBBBBBBBBBBBBBBBBBBBBBBBBBBBBBBBBBBBBBBBBBBBBBBBBBNNNNNNNNNNNNNNNNNNNNNNNNNNBBBBBBBBBBBBBBBBBBBBBBBBBBB",
"BBBBBBBBBBBBBBBBBBBBBBBBBBBBBBBBBBBBBBBBBBBBBBBBBBBBBBBBBBBBBBBBBBBBBnNNNNNNNNNNNNNNNNNNNNNNNNNNNNNNNNBBBBBBBBBBBBBBBBBBBBBBBBBB",
"BBBBBBBBBBBBBBBBBBBBBBBBBBBBBBBBBBBBBBBBBBBBBBBBBBBBBBBBBBBBBBBBBmnNNNNNNNNNNNNNNNNNNNNNNNNNNNnnNNNNNNnBBBBBBBBBBBBBBBBBBBBBBBBB",
"BBBBBBBBBBBBBBBBBBBBBBBBBBBBBBBBBBBBBBBBBBBBBBBBBBBBBBBBBBBBBBmnnNNNNnNnNNNNNnNNNNNNNnNnNNNNNnnnNnnnmnmNBBBBBBBBBBBBBBBBBBBBBBBB",
"BBBBBBBBBBBBBBBBBBBBBBBBBBBBBBBBBBBBBBBBBBBBBBBBBBBBBBBBBBBmmNnnnnnnnNnnNNnnnnnnNNnnnnMmNNmmvnmbvMvMmnmmvBBBBBBBBBBBBBBBBBBBBBBB",
"BBBBBBBBBBBBBBBBBBBBBBBBBBBBBBBBBBBBBBBBBBBBBBBBBBBBBBBBvvnnmnnnnnvmmnmMmMmnmmnnNNvmmnMnNNmmvmmmnmnnmvvmvBBBBBBBBBBBBBBBBBBBBBBB",
"BBBBBBBBBBBBBBBBBBBBBBBBBBBBBBBBBBBBBBBBBBBBBBBBBBBBBBvmnmvmvmvnmmvmmmmMmvMmvmvmNmvmvmvvNmmvmvmvvvnvvnvvmvBBBBBBBBBBBBBBBBBBBBBB",
"BBBBBBBBBBBBBBBBBBBBBBBBBBBBBBBBBBBBBBBBBBBBBBBBBBBBvmvvvnvMvvvvmvmvvvvvvvvvvvvvnmvvvvvmNmvvvvvvvvvvvvvvmNBBBBBBBBBBBBBBBBBBBBBB",
"BBBBBBBBBBBBBBBBBBBBBBBBBBBBBBBBBBBBBBBBBBBBBBBBBBvvvvvvvvvvvvvvvvvvvvvvvvvvvvvvvvvvvvvvvvvvvvvvvvvvvvvzvllBBBBBBBBBBBBBBBBBBBBB",
"BBBBBBBBBBBBBBBBBBBBBBBBBBBBBBBBBBBBBBBBBBBBBBBBlvvvvvvvvvvvvvvvvvvvvvvvvvxvvzvvvzvvcvvvvvvvxvzvvvlvcvlvvzlBBBBBBBBBBBBBBBBBBBBB",
"BBBBBBBBBBBBBBBBBBBBBBBBBBBBBBBBBBBBBBBBBBBBBBjvvvvxvvvvvvvvvzvvvxvllvlvlvvvlvvvlvvxvlvclcvllvvlcvlvvlvlvvjBBBBBBBBBBBBBBBBBBBBB",
"BBBBBBBBBBBBBBBBBBBBBBBBBBBBBBBBBBBBBBBBBBBBBllvlvxvlvlvlzvcvvlvxxvlvzvzvllvzxlvlvxvlvlvcczlvlxvzzvllvlvlvjBBBBBBBBBBBBBBBBBBBBB",
"BBBBBBBBBBBBBBBBBBBBBBBBBBBBBBBBBBBBBBBBBBBklvvlvlvvvzzvvlvlvlclxxlvvlvvlvlvvzlclvlxvlllllvlxlvllzlzlvllvlkBBBBBBBBBBBBBBBBBBBBB",
"BBBBBBBBBBBBBBBBBBBBBBBBBBBBBBBBBBBBBBBBBBjcvllvzzlxlzlzlclvvlxclxzllxllzllllzlzxlllxllvlclllxllllzlclclllaBBBBBBBBBBBBBBBBBBBBB",
"BBBBBBBBBBBBBBBBBBBBBBBBBBBBBBBBBBBBBBBBBjlxlxlllzxlllzlllllllzllxlllzllxlllllllxlllllllxllllllllzllllllljBBBBBBBBBBBBBBBBBBBBBB",
"BBBBBBBBBBBBBBBBBBBBBBBBBBBBBBBBBBBBBBBhlzzllzllllllxllllxlzlllllllllllllllllllllllllllllllljllljllljlljjfBBBBBBBBBBBBBBBBBBBBBB",
"BBBBBBBBBBBBBBBBBBBBBBBBBBBBBBBBBBBBBBjllllllllllllllllllllllljllllllllljllljljljljljllljljljljjjjljjjjjjyBBBBBBBBBBBBBBBBBBBBBB",
"BBBBBBBBBBBBBBBBBBBBBBBBBBBBBBBBBBBBBkljjljlljkllljlljjljljljjljjjjlkkkkjjjjljljljjjjjkkjjjjkkjjjljkjjjjaBBBBBBBBBBBBBBBBBBBBBBB",
"BBBBBBBBBBBBBBBBBBBBBBBBBBBBBBBBBBBBkjjjlljljllkljjjjlkklkjjjjkjjjjjjjkjjjjjjjjjkjjkjkjjjjkkkkkkkkkkkkkh>BBBBBBBBBBBBBBBBBBBBBBB",
"BBBBBBBBBBBBBBBBBBBBBBBBBBBBBBBBBBBhjkjjjjkjkjkkjjjjkjkkkkjjkjkkjjjkkkkkkkkjkkkkjjkkkkkkjhhkkkkhkkkkkhkuBBBBBBBBBBBBBBBBBBBBBBBB",
"BBBBBBBBBBBBBBBBBBBBBBBBBBBBBBBBBBfkjkkjjjhkkkkkjkkjkkkhkkkkhkkkkkkhkkkkkkhkhkhkhkhhhhkhkhkhkhhhhhkhhkh;BBBBBBBBBBBBBBBBBBBBBBBB",
"BBBBBBBBBBBBBBBBBBBBBBBBBBBBBBBBBBhkkhhjkhjkkkhhjhhhhhhkkhhhkhhhhhhhkhhhhhhhhhhhhhhhhhhhhhhhhhhhhhhhhhsBBBBBBBBBBBBBBBBBBBBBBBBB",
"BBBBBBBBBBBBBBBBBBBBBBBBBBBBBBBBBfhkhkhhhhhhkhhhhhhhhhhhhhhhhhhhhhhhhhhhhhhhhhhhhhhhhhhhhhghhhhhhghhgh0BBBBBBBBBBBBBBBBBBBBBBBBB",
"BBBBBBBBBBBBBBBBBBBBBBBBBBBBBBBBahhhhhhhhhhhhhhhhhhhhhhhhhhhhhhhhhhhghhghghhghhghhhhghghhfhhgghhghfhgf>BBBBBBBBBBBBBBBBBBBBBBBBB",
"BBBBBBBBBBBBBBBBBBBBBBBBBBBBBBBBfhhhhhhghhhhhhhhhfhhhhfhhghhghhgghghhghghfhhghghhhghfhhhfhfhhfhffhfhhsBBBBBBBBBBBBBBBBBBBBBBBBBB",
"BBBBBBBBBBBBBBBBBBBBBBBBBBBBBBBphhhhfhfhfhhfhfghhhfhghfhghgghfghgghfhffhfhfhfhhfggfhhffhhfhffhfhhfhffpBBBBBBBBBBBBBBBBBBBBBBBBBB",
"BBBBBBBBBBBBBBBBBBBBBBBBBBBBBBBfgfhfghhfhghfhhhhfhfhgghgggghfhfffhfgfhfghghgggfghfhffhfffhffhffgfffhh9BBBBBBBBBBBBBBBBBBBBBBBBBB",
"BBBBBBBBBBBBBBBBBBBBBBBBBBBBBBphfhfhfgfhfhfhffffgfhfgfgfggfffgfhhfgfhfgfffffffgffffffffgffgfffgfgffff5BBBBBBBBBBfffffffBBBBBBBBB",
"BBBBBBBBBBBBBBBBBBBBBBBBBBBBBBfgfhgfghffffgggffffgffgffgfffggfffffffffffffffffffffffffffffffffffffffsBBBBBBBBBBsffffffffBBBBBBBB",
"BBBBBBBBBBBBBBBBBBBBBBBBBBBBBdffffffffgfffffffffffffffffffffffffffffffffffffffffffffffffffffffffffffsBBBBBBBBsffffffddfsdBBBBBBB",
"BBBBBBBBBBBBBBBBBBBBBBBBBBBBpffffffffffffffffffffffffffffffffffdfffffffffffdfffffffffdffffffdffsffdfsBBBBBBBdfdfdsfddsffsBBBBBBB",
"BBBBBBBBBBBBBBBBBBBBBBBBBBBpfffdfffdfffffdffffffffdfffffffsffffdfdsfffsfsfffsdffsfdsfdsffssfddsfssfspBBBBBafsfsdsfsfsfsffBBBBBBB",
"BBBBBBBBBBBBBBBBBBBBBBBBBBpffdfffdfdfffdffsfffdfffdddfsfddfsffsfffsffdddfddfsfsffsffsffsfssffssfdffswBBBBssfssfssssfsfdssBBBBBBB",
"BBBBBBBBBBBBBBBBBBBBBBBBBusdffsfdffdsfsfsffssfdddddddffssfsfsffsssdfsfsffsdddsssddssdssfssfssfsdsssdp5wpsssssdsdsfsssssspBBBBBBB",
"BBBBBBBBBBBBBBBBBBBBBBBBadfddsddsfssfssfddsfsdfssfsdfsdssdsfdsdssfsssssssdsdsfdsdsssssdsssfssssssssdsssssssssssssssssssswBBBBBBB",
"BBBBBBBBBBBBBBBBBBBBBBBpssdsddsssssfdsdssdssfssssdsssssssssssdssssfssdssssssssssssssssssssssssssssssssssssssssssssssssss5BBBBBBB",
"BBBBBBBBBBBBBBBBBBBBBBsssdssssssfssssdsssdssssssssssssssssssssssssssssssssssssssssssssssssssssasssasssssspssssssssasssspBBBBBBBB",
"BBBBBBBBBBBBBBBBBBBBssssssssssssssssssssssssssssssssssssssssssssssssssassspssssssspssassssasssspspssssspsssapaasssspspp0BBBBBBBB",
"BBBBBBBBBBBBBBBBBpsassssssssssssssssssssssssssssssassspssasaassassasssssasassspssaaspsspspasspsspspssapsspasspsppspspsp3BBBBBBBB",
"BBBBBBBBBspspsspsssssassssssssassapssapssapssapsssspassasspsaaaappsppsppspsappsppspaappspsppspppapsppsppaappapppspppsppBBBBBBBBB",
"BBBBBBBBspassspsasassasaassasspspspsaaaassaspsaspspsspaapapspspssspaspaapsapaspapaapsppspspppapappppappppppppapppppappuBBBBBBBBB",
"BBBBBBBppsapppsspspspspapapsppasspsppspsppapaappapaapsppspsppappppappppappapppppppppppapppappppaapppppapppppppppppppppuBBBBBBBBB",
"BBBBBBBByyyypppaspsppaaaappppapppppsapppppappappppappppppppapppppappppppppppppppppppppppppppppppppppppppppppppppppppppuBBBBBBBBB",
"BBBBBBBBBBBB=,8upppappppapspppppapppsppppaappppppppppppppppapppppppppppppppppppppppppppppppppipppppuupppppipppipuppppiyBBBBBBBBB",
"BBBBBBBBBBBBBBB$;8uppppppppppppppppppipppppppppppppppippppppppipppppippipippppupppipippipipipipipiiiupipipiiipuiuuiiipiBBBBBBBBB",
"BBBBBBBBBBBBBBB  o=8upppppppppuppppppppippippuippppppppuppuuippiupipiuipipiippiuiiiiiiiiuiiiiiiiupiiuuuuiiuuuuiuuuyuiii8BBBBBBBB",
"BBBBBBBBBBBBBBBB   +>wippipupuippiuipiupupipipiiiiuuiiiiiiuiiiiiuiiiiiiuiuiiiuuiiiuuuuuuuuuyuuyiuuiuyuuyiiyuuyuuuuyuuuyrBBBBBBBB",
"BBBBBBBBBBBBBBBBBB  .$2yupuuupiiuupiiiuiuiiupiiiiiiuuuuuuuuuuuuiuuuuuuuuuuyiyuuyiyyuyuuyuuyuuuyuyyuuyyuyyuyyuyyyyyyuyyyyBBBBBBBB",
"BBBBBBBBBBBBBBBBBBB   o=wiuuuyiiuuiuuiyiuuuiiuyiuuyuuuyiuuyuuyiiyuyuuuyyyyyyyuyyyyuyuyyuyuyyuyyuuyyyyuyyyyyyyyyyyyyyyyyywBBBBBBB",
"BBBBBBBBBBBBBBBBBBBBB   *5uuyuyuuyiyyuyuyuyyyyuyyyuyyyyyyyyyuyyyyuyyyyyyyyyyyyyyyyyyyyyyyyyyyyyyyyyyyyyyyyyyyyyyyyyryytyyBBBBBBB",
"BBBBBBBBBBBBBBBBBBBBBBB  +<uyyyiyyyuyyyiyyyyyyyyyyyyyyyyyyyuyyyyyyyyyyyyyyyyyyyyyyyyyyyyyyyyryywyyr5>69yyywyryyryryyytyeyBBBBBBB",
"BBBBBBBBBBBBBBBBBBBBBBBB  +>wuyyyyyyyyyyyyyyyyyyyyyyyyyyyyyyyyyrryyryryyyyryyryyyryyywyeywywyrytrry> O+-50yttytyrrwyttywwBBBBBBB",
"BBBBBBBBBBBBBBBBBBBBBBBBB   =8yyyywyyyryyyryyyyyyyyyyryrytrwtyryrryryryeyyyrrrryyytwyywyeywyrywywyy>    o%,wrtywrywrywyyw5BBBBBB",
"BBBBBBBBBBBBBBBBBBBBBBBBBBB  #2yweyyryyrtyywwywytrwyeryrywtytrtrryywwywywwwyrrwwwtwywwrrwrewtrrtwwr>      X*5wrwwwywwtwwwBBBBBBB",
"BBBBBBBBBBBBBBBBBBBBBBBBBBBB  +;0ywyyywretwytrywwyywywwwwywywyttwywtrrrrwrywrwrwywwywtywwywewtwtwrw,BBBBB   +-5wwwwwwwww9BBBBBBB",
"BBBBBBBBBBBBBBBBBBBBBBBBBBBBB   =qywwweeywtwywwtwwwwwyweywwtwwtwwwewwrwwtwwwwwywwwwwwwwwwwwwrwwwwwr5BBBBBBB   +-9wwwww05BBBBBBBB",
"BBBBBBBBBBBBBBBBBBBBBBBBBBBBBBB  &2wwtwewewwwtwwwwtwwtwwwtwwwtwwwtwwwwwwwwwwwwwwwwwwwwwwwwwwwwwwwwwqBBBBBBBBB   %>9721-BBBBBBBBB",
"BBBBBBBBBBBBBBBBBBBBBBBBBBBBBBBB  +-qwwwwwwwwwwwwwwwwwwwwwwwwwwwwwww0wwwwwww0wwwwwwwwwwwww0wwq0w0w00BBBBBBBBBB   X$#XXBBBBBBBBBB",
"BBBBBBBBBBBBBBBBBBBBBBBBBBBBBBBBB   =5w0wwwwwwwwwwwwww0wwwwwww0w0w0wwww00ww0wwwwqww0qwq0wqqwq0w00w0qBBBBBBBBBBBBB   BBBBBBBBBBBB",
"BBBBBBBBBBBBBBBBBBBBBBBBBBBBBBBBBBB  O-90w0w0w0ww0w00www0w000w000w0wqqw0w0qqqqq0q00qq00q0qqq0q000q00,BBBBBBBBBBBBBBBBBBBBBBBBBBB",
"BBBBBBBBBBBBBBBBBBBBBBBBBBBBBBBBBBBB   &>80q0w0wqqq0qqqq00qq00qq0qqqqqqqqq0089990000q009099q0q89q9995BBBBBBBBBBBBBBBBBBBBBBBBBBB",
"BBBBBBBBBBBBBBBBBBBBBBBBBBBBBBBBBBBBBB  .=,80qqq99000009qqqqqq0qqq0q999990099989989000899088898999885BBBBBBBBBBBBBBBBBBBBBBBBBBB",
"BBBBBBBBBBBBBBBBBBBBBBBBBBBBBBBBBBBBBBB   .%>58q09909989q98899889998898808898898889888980888888888888BBBBBBBBBBBBBBBBBBBBBBBBBBB",
"BBBBBBBBBBBBBBBBBBBBBBBBBBBBBBBBBBBBBBBBB   .#=>88888899899898898888888888888888888888888888888888888BBBBBBBBBBBBBBBBBBBBBBBBBBB",
"BBBBBBBBBBBBBBBBBBBBBBBBBBBBBBBBBBBBBBBBBBB    X-98888958888888888888888888688888888888888878588788582BBBBBBBBBBBBBBBBBBBBBBBBBB",
"BBBBBBBBBBBBBBBBBBBBBBBBBBBBBBBBBBBBBBBBBBBBB   +2888882,488878888858758886888587877685867588887878782BBBBBBBBBBBBBBBBBBBBBBBBBB",
"BBBBBBBBBBBBBBBBBBBBBBBBBBBBBBBBBBBBBBBBBBBBBBB  &5878775,;>578758858887788586887878588888858578785885BBBBBBBBBBBBBBBBBBBBBBBBBB",
"BBBBBBBBBBBBBBBBBBBBBBBBBBBBBBBBBBBBBBBBBBBBBBBB .-5785887,&&>2888585858777676557775855555587757577655BBBBBBBBBBBBBBBBBBBBBBBBBB",
"BBBBBBBBBBBBBBBBBBBBBBBBBBBBBBBBBBBBBBBBBBBBBBBBB o>57575854;%#*>15585855565855857775758555556556555561BBBBBBBBBBBBBBBBBBBBBBBBB",
"BBBBBBBBBBBBBBBBBBBBBBBBBBBBBBBBBBBBBBBBBBBBBBBBBB $258655855,&.Xo%*>5658555556555555565575555555555552BBBBBBBBBBBBBBBBBBBBBBBBB",
"BBBBBBBBBBBBBBBBBBBBBBBBBBBBBBBBBBBBBBBBBBBBBBBBBBB.=5575555555-$.  O>555555555555555555555555555555552BBBBBBBBBBBBBBBBBBBBBBBBB",
"BBBBBBBBBBBBBBBBBBBBBBBBBBBBBBBBBBBBBBBBBBBBBBBBBBBB.=55555555552=O  *555555555555555555555555555555552BBBBBBBBBBBBBBBBBBBBBBBBB",
"BBBBBBBBBBBBBBBBBBBBBBBBBBBBBBBBBBBBBBBBBBBBBBBBBBBB o>55555555555>O #,53554555553453535525552553553552BBBBBBBBBBBBBBBBBBBBBBBBB",
"BBBBBBBBBBBBBBBBBBBBBBBBBBBBBBBBBBBBBBBBBBBBBBBBBBBBB #>45445255252#B *55535252535452523552555255252242BBBBBBBBBBBBBBBBBBBBBBBBB",
"BBBBBBBBBBBBBBBBBBBBBBBBBBBBBBBBBBBBBBBBBBBBBBBBBBBBBB #>5354442522&BBo;2353255225525233223222322535522BBBBBBBBBBBBBBBBBBBBBBBBB",
"BBBBBBBBBBBBBBBBBBBBBBBBBBBBBBBBBBBBBBBBBBBBBBBBBBBBBBB #>222525234;BB #>22322222222523352252422222222>BBBBBBBBBBBBBBBBBBBBBBBBB",
"BBBBBBBBBBBBBBBBBBBBBBBBBBBBBBBBBBBBBBBBBBBBBBBBBBBBBBBB #>24222423>BBB @;2422252242222222222222222222-BBBBBBBBBBBBBBBBBBBBBBBBB",
"BBBBBBBBBBBBBBBBBBBBBBBBBBBBBBBBBBBBBBBBBBBBBBBBBBBBBBBBB O*14222222*BBB @-22222222222222222222222222>BBBBBBBBBBBBBBBBBBBBBBBBBB",
"BBBBBBBBBBBBBBBBBBBBBBBBBBBBBBBBBBBBBBBBBBBBBBBBBBBBBBBBBB .$>222222,BBBB .&>22221222212222212222222<=BBBBBBBBBBBBBBBBBBBBBBBBBB",
"BBBBBBBBBBBBBBBBBBBBBBBBBBBBBBBBBBBBBBBBBBBBBBBBBBBBBBBBBBB  O&>,2222-BBBB  +->2222212<2<11222,12,,2:BBBBBBBBBBBBBBBBBBBBBBBBBBB",
"BBBBBBBBBBBBBBBBBBBBBBBBBBBBBBBBBBBBBBBBBBBBBBBBBBBBBBBBBBBB   O$-,,,,BBBBB  .O&;12,22,2,2,2,2,2,,2;$BBBBBBBBBBBBBBBBBBBBBBBBBBB",
"BBBBBBBBBBBBBBBBBBBBBBBBBBBBBBBBBBBBBBBBBBBBBBBBBBBBBBBBBBBBBB   B+&;>;BBBBBB   o%->,,2,2,2,2,222,;#BBBBBBBBBBBBBBBBBBBBBBBBBBBB",
"BBBBBBBBBBBBBBBBBBBBBBBBBBBBBBBBBBBBBBBBBBBBBBBBBBBBBBBBBBBBBBBBBBBBBBBBBBBBBBB   .O%->,2222,,2>;%oBBBBBBBBBBBBBBBBBBBBBBBBBBBBB",
"BBBBBBBBBBBBBBBBBBBBBBBBBBBBBBBBBBBBBBBBBBBBBBBBBBBBBBBBBBBBBBBBBBBBBBBBBBBBBBBBB    .O%&&->;*&+XBBBBBBBBBBBBBBBBBBBBBBBBBBBBBBB",
"BBBBBBBBBBBBBBBBBBBBBBBBBBBBBBBBBBBBBBBBBBBBBBBBBBBBBBBBBBBBBBBBBBBBBBBBBBBBBBBBBBBB      .XX   BBBBBBBBBBBBBBBBBBBBBBBBBBBBBBBB",
"BBBBBBBBBBBBBBBBBBBBBBBBBBBBBBBBBBBBBBBBBBBBBBBBBBBBBBBBBBBBBBBBBBBBBBBBBBBBBBBBBBBBBBB      BBBBBBBBBBBBBBBBBBBBBBBBBBBBBBBBBBB",
"BBBBBBBBBBBBBBBBBBBBBBBBBBBBBBBBBBBBBBBBBBBBBBBBBBBBBBBBBBBBBBBBBBBBBBBBBBBBBBBBBBBBBBBBBBBBBBBBBBBBBBBBBBBBBBBBBBBBBBBBBBBBBBBB",
"BBBBBBBBBBBBBBBBBBBBBBBBBBBBBBBBBBBBBBBBBBBBBBBBBBBBBBBBBBBBBBBBBBBBBBBBBBBBBBBBBBBBBBBBBBBBBBBBBBBBBBBBBBBBBBBBBBBBBBBBBBBBBBBB",
"BBBBBBBBBBBBBBBBBBBBBBBBBBBBBBBBBBBBBBBBBBBBBBBBBBBBBBBBBBBBBBBBBBBBBBBBBBBBBBBBBBBBBBBBBBBBBBBBBBBBBBBBBBBBBBBBBBBBBBBBBBBBBBBB",
"BBBBBBBBBBBBBBBBBBBBBBBBBBBBBBBBBBBBBBBBBBBBBBBBBBBBBBBBBBBBBBBBBBBBBBBBBBBBBBBBBBBBBBBBBBBBBBBBBBBBBBBBBBBBBBBBBBBBBBBBBBBBBBBB",
"BBBBBBBBBBBBBBBBBBBBBBBBBBBBBBBBBBBBBBBBBBBBBBBBBBBBBBBBBBBBBBBBBBBBBBBBBBBBBBBBBBBBBBBBBBBBBBBBBBBBBBBBBBBBBBBBBBBBBBBBBBBBBBBB",
"BBBBBBBBBBBBBBBBBBBBBBBBBBBBBBBBBBBBBBBBBBBBBBBBBBBBBBBBBBBBBBBBBBBBBBBBBBBBBBBBBBBBBBBBBBBBBBBBBBBBBBBBBBBBBBBBBBBBBBBBBBBBBBBB",
"BBBBBBBBBBBBBBBBBBBBBBBBBBBBBBBBBBBBBBBBBBBBBBBBBBBBBBBBBBBBBBBBBBBBBBBBBBBBBBBBBBBBBBBBBBBBBBBBBBBBBBBBBBBBBBBBBBBBBBBBBBBBBBBB",
"BBBBBBBBBBBBBBBBBBBBBBBBBBBBBBBBBBBBBBBBBBBBBBBBBBBBBBBBBBBBBBBBBBBBBBBBBBBBBBBBBBBBBBBBBBBBBBBBBBBBBBBBBBBBBBBBBBBBBBBBBBBBBBBB",
"BBBBBBBBBBBBBBBBBBBBBBBBBBBBBBBBBBBBBBBBBBBBBBBBBBBBBBBBBBBBBBBBBBBBBBBBBBBBBBBBBBBBBBBBBBBBBBBBBBBBBBBBBBBBBBBBBBBBBBBBBBBBBBBB",
"BBBBBBBBBBBBBBBBBBBBBBBBBBBBBBBBBBBBBBBBBBBBBBBBBBBBBBBBBBBBBBBBBBBBBBBBBBBBBBBBBBBBBBBBBBBBBBBBBBBBBBBBBBBBBBBBBBBBBBBBBBBBBBBB",
"BBBBBBBBBBBBBBBBBBBBBBBBBBBBBBBBBBBBBBBBBBBBBBBBBBBBBBBBBBBBBBBBBBBBBBBBBBBBBBBBBBBBBBBBBBBBBBBBBBBBBBBBBBBBBBBBBBBBBBBBBBBBBBBB",
"BBBBBBBBBBBBBBBBBBBBBBBBBBBBBBBBBBBBBBBBBBBBBBBBBBBBBBBBBBBBBBBBBBBBBBBBBBBBBBBBBBBBBBBBBBBBBBBBBBBBBBBBBBBBBBBBBBBBBBBBBBBBBBBB",
"BBBBBBBBBBBBBBBBBBBBBBBBBBBBBBBBBBBBBBBBBBBBBBBBBBBBBBBBBBBBBBBBBBBBBBBBBBBBBBBBBBBBBBBBBBBBBBBBBBBBBBBBBBBBBBBBBBBBBBBBBBBBBBBB",
"BBBBBBBBBBBBBBBBBBBBBBBBBBBBBBBBBBBBBBBBBBBBBBBBBBBBBBBBBBBBBBBBBBBBBBBBBBBBBBBBBBBBBBBBBBBBBBBBBBBBBBBBBBBBBBBBBBBBBBBBBBBBBBBB",
"BBBBBBBBBBBBBBBBBBBBBBBBBBBBBBBBBBBBBBBBBBBBBBBBBBBBBBBBBBBBBBBBBBBBBBBBBBBBBBBBBBBBBBBBBBBBBBBBBBBBBBBBBBBBBBBBBBBBBBBBBBBBBBBB",
"BBBBBBBBBBBBBBBBBBBBBBBBBBBBBBBBBBBBBBBBBBBBBBBBBBBBBBBBBBBBBBBBBBBBBBBBBBBBBBBBBBBBBBBBBBBBBBBBBBBBBBBBBBBBBBBBBBBBBBBBBBBBBBBB",
"BBBBBBBBBBBBBBBBBBBBBBBBBBBBBBBBBBBBBBBBBBBBBBBBBBBBBBBBBBBBBBBBBBBBBBBBBBBBBBBBBBBBBBBBBBBBBBBBBBBBBBBBBBBBBBBBBBBBBBBBBBBBBBBB",
"BBBBBBBBBBBBBBBBBBBBBBBBBBBBBBBBBBBBBBBBBBBBBBBBBBBBBBBBBBBBBBBBBBBBBBBBBBBBBBBBBBBBBBBBBBBBBBBBBBBBBBBBBBBBBBBBBBBBBBBBBBBBBBBB"
};
