/* XPM */
static char *ccc_large[] = {
/* columns rows colors chars-per-pixel */
"128 128 48 1 ",
"  c black",
". c #000507",
"X c #00090B",
"o c #000C0F",
"O c #001115",
"+ c #00151B",
"@ c #001920",
"# c #001C23",
"$ c #002029",
"% c #00242E",
"& c #002731",
"* c #002C38",
"= c #002D39",
"- c #00303D",
"; c #003442",
": c #003643",
"> c #003847",
", c #003949",
"< c #003C4C",
"1 c #003F50",
"2 c #004355",
"3 c #00485B",
"4 c #00485C",
"5 c #00495C",
"6 c #00495D",
"7 c #004B5F",
"8 c #004C61",
"9 c #004D61",
"0 c #004C62",
"q c #004D62",
"w c #004F64",
"e c #005066",
"r c #005166",
"t c #005368",
"y c #00546B",
"u c #00566D",
"i c #005870",
"p c #005A72",
"a c #005C75",
"s c #005E78",
"d c #006079",
"f c #00607A",
"g c #00627C",
"h c #00637E",
"j c #00637F",
"k c #00647E",
"l c #00647F",
"z c None",
/* pixels */
"zzzzzzzzzzzzzzzzzzzzzzzzzzzzzzzzzzzzzzzzzzzzzzzzzzzzzzzzzzzzzzzzzzzzzzzzzzzzzzzzzzzzzzzzzzzzzzzzzzzzzzzzzzzzzzzzzzzzzzzzzzzzzzzz",
"zzzzzzzzzzzzzzzzzzzzzzzzzzzzzzzzzzzzzzzzzzzzzzzzzzzzzzzzzzzzzzzzzzzzzzzzzzzzzzzzzzzzzzzzzzzzzzzzzzzzzzzzzzzzzzzzzzzzzzzzzzzzzzzz",
"zzzzzzzzzzzzzzzzzzzzzzzzzzzzzzzzzzzzzzzzzzzzzzzzzzzzzzzzzzzzzzzzzzzzzzzzzzzzzzzzzzzzzzzzzzzzzzzzzzzzzzzzzzzzzzzzzzzzzzzzzzzzzzzz",
"zzzzzzzzzzzzzzzzzzzzzzzzzzzzzzzzzzzzzzzzzzzzzzzzzzzzzzzzzzzzzzzzzzzzzzzzzzzzzzzzzzzzzzzzzzzzzzzzzzzzzzzzzzzzzzzzzzzzzzzzzzzzzzzz",
"zzzzzzzzzzzzzzzzzzzzzzzzzzzzzzzzzzzzzzzzzzzzzzzzzzzzzzzzzzzzzzzzzzzzzzzzzzzzzzzzzzzzzzzzzzzzzzzzzzzzzzzzzzzzzzzzzzzzzzzzzzzzzzzz",
"zzzzzzzzzzzzzzzzzzzzzzzzzzzzzzzzzzzzzzzzzzzzzzzzzzzzzzzzzzzzzzzzzzzzzzzzzzzzzzzzzzzzzzzzzzzzzzzzzzzzzzzzzzzzzzzzzzzzzzzzzzzzzzzz",
"zzzzzzzzzzzzzzzzzzzzzzzzzzzzzzzzzzzzzzzzzzzzzzzzzzzzzzzzzzzzzzzzzzzzzzzzzzzzzzzzzzzzzzzzzzzzzzzzzzzzzzzzzzzzzzzzzzzzzzzzzzzzzzzz",
"zzzzzzzzzzzzzzzzzzzzzzzzzzzzzzzzzzzzzzzzzzzzzzzzzzzzzzzzzzzzzzzzzzzzzzzzzzzzzzzzzzzzzzzzzzzzzzzzzzzzzzzzzzzzzzzzzzzzzzzzzzzzzzzz",
"zzzzzzzzzzzzzzzzzzzzzzzzzzzzzzzzzzzzzzzzzzzzzzzzzzzzzzzzzzzzzzzzzzzzzzzzzzzzzzzzzzzzzzzzzzzzzzzzzzzzzzzzzzzzzzzzzzzzzzzzzzzzzzzz",
"zzzzzzzzzzzzzzzzzzzzzzzzzzzzzzzzzzzzzzzzzzzzzzzzzzzzzzzzzzzzzzzzzzzzzzzzzzzzzzzzzzzzzzzzzzzzzzzzzzzzzzzzzzzzzzzzzzzzzzzzzzzzzzzz",
"zzzzzzzzzzzzzzzzzzzzzzzzzzzzzzzzzzzzzzzzzzzzzzzzzzzzzzzzzzzzzzzzzzzzzzzzzzzzzzzzzzzzzzzzzzzzzzzzzzzzzzzzzzzzzzzzzzzzzzzzzzzzzzzz",
"zzzzzzzzzzzzzzzzzzzzzzzzzzzzzzzzzzzzzzzzzzzzzzzzzzzzzzzzzzzzzzzzzzzzzzzzzzzzzzzzzzzzzzzzzzzzzzzzzzzzzzzzzzzzzzzzzzzzzzzzzzzzzzzz",
"zzzzzzzzzzzzzzzzzzzzzzzzzzzzzzzzzzzzzzzzzzzzzzzzzzzzzzzzzzzzzzzzzzzzzzzzzzzzzzzzzzzzzzzzzzzzzzzzzzzzzzzzzzzzzzzzzzzzzzzzzzzzzzzz",
"zzzzzzzzzzzzzzzzzzzzzzzzzzzzzzzzzzzzzzzzzzzzzzzzzzzzzzzzzzzzzzzzzzzzzzzzzzzzzzzzzzzzzzzzzzzzzzzzzzzzzzzzzzzzzzzzzzzzzzzzzzzzzzzz",
"zzzzzzzzzzzzzzzzzzzzzzzzzzzzzzzzzzzzzzzzzzzzzzzzzzzzzzzzzzzzzzzzzzzzzzzzzzzzzzzzzzzzzzzzzzzzzzzzzzzzzzzzzzzzzzzzzzzzzzzzzzzzzzzz",
"zzzzzzzzzzzzzzzzzzzzzzzzzzzzzzzzzzzzzzzzzzzzzzzzzzzzzzzzzzzzzzzzzzzzzzzzzzzzzzzzzzzzzzzzzzzzzzzzzzzzzzzzzzzzzzzzzzzzzzzzzzzzzzzz",
"zzzzzzzzzzzzzzzzzzzzzzzzzzzzzzzzzzzzzzzzzzzzzzzzzzzzzzzzzzzzzzzzzzzzzzzzzzzzzzzzzzzzzzzzzzzzzzzzzzzzzzzzzzzzzzzzzzzzzzzzzzzzzzzz",
"zzzzzzzzzzzzzzzzzzzzzzzzzzzzzzzzzzzzzzzzzzzzzzzzzzzzzzzzzzzzzzzzzzzzzzzzzzzzzzzzzzzzzzzzzzzzzzzzzzzzzzzzzzzzzzzzzzzzzzzzzzzzzzzz",
"zzzzzzzzzzzzzzzzzzzzzzzzzzzzzzzzzzzzzzzzzzzzzzzzzzzzzzzzzzzzzzzzzzzzzzzzzzzzzzzzzzzzzzzzzzzzzzzzzzzzzzzzzzzzzzzzzzzzzzzzzzzzzzzz",
"zzzzzzzzzzzzzzzzzzzzzzzzzzzzzzzzzzzzzzzzzzzzzzzzzzzzzzzzzzzzzzzzzzzzzzzzzzzzzzzzzzzzzzzzzzzzzzzzzzzzzzzzzzzzzzzzzzzzzzzzzzzzzzzz",
"zzzzzzzzzzzzzzzzzzzzzzzzzzzzzzzzzzzzzzzzzzzzzzzzzzzzzzzzzzzzzzzzzzzzzzzzzzzzzzzzzzzzzzzzzzzzzzzzzzzzzzzzzzzzzzzzzzzzzzzzzzzzzzzz",
"zzzzzzzzzzzzzzzzzzzzzzzzzzzzzzzzzzzzzzzzzzzzzzzzzzzzzzzzzzzzzzzzzzzzzzzzzzzzzzzzzzzzzzzzzzzzzzzzzzzzzzzzzzzzzzzzzzzzzzzzzzzzzzzz",
"zzzzzzzzzzzzzzzzzzzzzzzzzzzzzzzzzzzzzzzzzzzzzzzzzzzzzzzzzzzzzzzzzzzzzzzzzzzzzzzzzzzzzzzzzzzzzzzzzzzzzzzzzzzzzzzzzzzzzzzzzzzzzzzz",
"zzzzzzzzzzzzzzzzzzzzzzzzzzzzzzzzzzzzzzzzzzzzzzzzzzzzzzzzzzzzzzzzzzzzzzzzzzzzzzzzzzzzzzzzzzzzzzzzzzzzzzzzzzzzzzzzzzzzzzzzzzzzzzzz",
"zzzzzzzzzzzzzzzzzzzzzzzzzzzzzzzzzzzzzzzzzzzzzzzzzzzzzzzzzzzzzzzzzzzzzzzzzzzzzzzzzzzzzzzzzzzzzzzzzzzzzzzzzzzzzzzzzzzzzzzzzzzzzzzz",
"zzzzzzzzzzzzzzzzzzzzzzzzzzzzzzzzzzzzzzzzzzzzzzzzzzzzzzzzzzzzzzzzzzzzzzzzzzzzzzzzzzzzzzzzzzzzzzzzzzzzzzzzzzzzzzzzzzzzzzzzzzzzzzzz",
"zzzzzzzzzzzzzzzzzzzzzzzzzzzzzzzzzzzzzzzzzzzzzzzzzzzzzzzzzzzzzzzzzzzzzzzzzzzzzzzzzzzzzzzzzzzzzzzzzzzzzzzzzzzzzzzzzzzzzzzzzzzzzzzz",
"zzzzzzzzzzzzzzzzzzzzzzzzzzzzzzzzzzzzzzzzzzzzzzzzzzzzzzzzzzzzzzzzzzzzzzzzzzzzzzzzzzzzzzzzzzzzzzzzzzzzzzzzzzzzzzzzzzzzzzzzzzzzzzzz",
"zzzzzzzzzzzzzzzzzzzzzzzzzzzzzzzzzzzzzzzzzzzzzzzzzzzzzzzzzzzzzzzzzzzzzzzzzzzzzzzzzzzzzzzzzzzzzzzzzzzzzzzzzzzzzzzzzzzzzzzzzzzzzzzz",
"zzzzzzzzzzzzzzzzzzzzzzzzzzzzzzzzzzzzzzzzzzzzzzzzzzzzzzzzzzzzzzzzzzzzzzzzzzzzzzzzzzzzzzzzzzzzzzzzzzzzzzzzzzzzzzzzzzzzzzzzzzzzzzzz",
"zzzzzzzzzzzzzzzzzzzzzzzzzzzzzzzzzzzzzzzzzzzzzzzzzzzzzzzzzzzzzzzzzzzzzzzzzzzzzzzzzzzzzzzzzzzzzzzzzzzzzzzzzzzzzzzzzzzzzzzzzzzzzzzz",
"zzzzzzzzzzzzzzzzzzzzzzzzzzzzzzzzzzzzzzzzzzzzzzzzzzzzzzzzzzzzzzzzzzzzzzzzzzzzzzzzzzzzzzzzzzzzzzzzzzzzzzzzzzzzzzzzzzzzzzzzzzzzzzzz",
"zzzzzzzzzzzzzzzzzzzzzzzzzzzzzzzzzzzzzzzzzzzzzzzzzzzzzzzzzzzzzzzzzzzzzzzzzzzzzzzzzzzzzzzzzzzzzzzzzzzzzzzzzzzzzzzzzzzzzzzzzzzzzzzz",
"zzzzzzzzzzzzzzzzzzzzzzzzzzzzzzzzzzzzzzzzzzzzzzzzzzzzzzzzzzzzzzzzzzzzzzzzzzzzzzzzzzzzzzzzzzzzzzzzzzzzzzzzzzzzzzzzzzzzzzzzzzzzzzzz",
"zzzzzzzzzzzzzzzzzzzzzzzzzzzzzzzzzzzzzzzzzzzzzzzzzzzzzzzzzzzzzzzzzzzzzzzzzzzzzzzzzzzzzzzzzzzzzzzzzzzzzzzzzzzzzzzzzzzzzzzzzzzzzzzz",
"zzzzzzzzzzzzzzzzzzzzzzzzzzzzzzzzzzzzzzzzzzzzzzzzzzzzzzzzzzzzzzzzzzzzzzzzzzzzzzzzzzzzzzzzzzzzzzzzzzzzzzzzzzzzzzzzzzzzzzzzzzzzzzzz",
"zzzzzzzzzzzzzzzzzzzzzzzzzzzzzzzzzzzzzzzzzzzzzzzzzzzzzzzzzzzzzzzzzzzzzzzzzzzzzzzzzzzzzzzzzzzzzzzzzzzzzzzzzzzzzzzzzzzzzzzzzzzzzzzz",
"zzzzzzzzzzzzzzzzzzzzzzzzzzzzzzzzzzzzzzzzzzzzzzzzzzzzzzzzzzzzzzzzzzzzzzzzzzzzzzzzzzzzzzzzzzzzzzzzzzzzzzzzzzzzzzzzzzzzzzzzzzzzzzzz",
"zzzzzzzzzzzzzzzzzzzzzzzzzzzzzzzzzzzzzzzzzzzzzzzzzzzzllllllzzzzzzzzzzzlllllllllllllllllllllllllllllllllzzzzzzzzzzzglllllzzzzzzzzz",
"zzzzzzzzzzzzzzzzzzzzzzzzzzzzzzzzzzzzzzzzzzzzzzzzzzzlllllllllzzzzzzzzllllllllllllllllllllllllllllllllllllzzzzzzzzlllgglljzzzzzzzz",
"zzzzzzzzzzzzzzzzzzzzzzzzzzzzzzzzzzzzzzzzzzzzzzzzzzllllllllllgzzzzzzlllllllllllllllklgklgkkkllklllllljlglzzzzzzzllizzzzpgkzzzzzzz",
"zzzzzzzzzzzzzzzzzzzzzzzzzzzzzzzzzzzzzzzzzzzzzzzzzgllkjllgljlkzzzzzgljklgkkglgjllllllllhlkkgllgglllghjjlkgzzzzzggrzzzzzzzggzzzzzz",
"zzzzzzzzzzzzzzzzzzzzzzzzzzzzzzzzzzzzzzzzzzzzzzzzgjgjgljllgljjdzzzzlgglglgkjgjlgglgkgglgkgkjggglllghgjjjggszzzzgpzzzzzzzzsgzzzzzz",
"zzzzzzzzzzzzzzzzzzzzzzzzzzzzzzzzzzzzzzzzzzzzzzzgjgjjlggglggjgdzzzsgljgggjggjgggkkkghjgggjggjgjggglgggggggszzzagwzzzzzzzzwdszzzzz",
"zzzzzzzzzzzzzzzzzzzzzzzzzzzzzzzzzzzzzzzzzzzzzzggggjggggggggggszzziggggggggggggggggggggggggggggggggggdggggszzzpgzzzzzzzzzzdizzzzz",
"zzzzzzzzzzzzzzzzzzzzzzzzzzzzzzzzzzzzzzzzzzzzzggggggggggggggggszzzrgggggggggdggfggdgggdggfgfggdgggdggdgggdpzzzpd7zzzzzzzz7dizzzzz",
"zzzzzzzzzzzzzzzzzzzzzzzzzzzzzzzzzzzzzzzzzzzzdgdggdgggggdggdggazzz,dgggdddgdgddgfdggfdgdddgdgdfgdddgdgfdddtzzzidpzzzzzzzziduzzzzz",
"zzzzzzzzzzzzzzzzzzzzzzzzzzzzzzzzzzzzzzzzzzzdddddfgdddffgdddddazzzziffddddgdfffdfffddfdgdfgdffddddgffffdfszzzzudftzzzzzz7fduzzzzz",
"zzzzzzzzzzzzzzzzzzzzzzzzzzzzzzzzzzzzzzzzzzsddddddgddfddfdddddpzzzz,sdddddfdffffsddsdddddfddfddsdsfdsddss7zzzzusssizzzzrsfsyzzzzz",
"zzzzzzzzzzzzzzzzzzzzzzzzzzzzzzzzzzzzzzzzzsdfffsfsfdsfssfsdfsfpzzzzz<psfssfsssdfdssfssfdsssffssfssfsssss3zzzzzussdsssspsssstzzzzz",
"zzzzzzzzzzzzzzzzzzzzzzzzzzzzzzzzzzzzzzzzssssssfssfsffssfsssssizzzzz.&wissssssssssssssssssssssssssssspe:zzzzzztsssssssssssstzzzzz",
"zzzzzzzzzzzzzzzzzzzzzzzzzzzzzzzzzzzzzzzsssssssssssssssssssssspzzzzzz .@%&&&&&-qssssssssssassp,%&&&&&#ozzzzzzztssssssssasssrzzzzz",
"zzzzzzzzzzzzzzzzzzzzzzzzzzzzzzzzzzzzzzssssssssssssssssssssssspzzzzzzz         *ssassassasssa<.      zzzzzzzzzrssspaspsasssezzzzz",
"zzzzzzzzzzzzzzzzzzzzzzzzzzzzzzzzzzzzzssasaassassasasassaasassizzzzzzzzzz      &psapsasasaaaa-    zzzzzzzzzzzzesppssaaaasppezzzzz",
"zzzzzzzzzzzzzzzzzzzzzzzzzzzzzzzzzzzzpspssssaapsaaasaasaaaaasauzzzzzzzzzzzzzzz &passsaaaaaaaa;zzzzzzzzzzzzzzzzepssaasaspaapwzzzzz",
"zzzzzzzzzzzzzzzzzzzzzzzzzzzzzzzzzzzpspspaapaaapspaaapapaspapaizzzzzzzzzzzzzzzz*papppapaaapap>zzzzzzzzzzzzzzzzepapppppppaapwzzzzz",
"zzzzzzzzzzzzzzzzzzzzzzzzzzzzzzzzzzpasppspsppaappaaaaapaapspapizzzzzzzzzzzzzzzz*ipapapaapapap<zzzzzzzzzzzzzzzzeppppppppppppwzzzzz",
"zzzzzzzzzzzzzzzzzzzzzzzzzzzzzzzzzipppaapppsppapapppppppppppppuzzzzzzzzzzzzzzzzzpppppppppppppzzzzzzzzzzzzzzzzzwppppppppppppwzzzzz",
"zzzzzzzzzzzzzzzzzzzzzzzzzzzzzzzzpppppppppppppppppppppppppppppuzzzzzzzzzzzzzzzzzipppppppppppizzzzzzzzzzzzzzzzzwiipppipppppiwzzzzz",
"zzzzzzzzzzzzzzzzzzzzzzzzzzzzzzzippppipppippiipppippipippippipuzzzzzzzzzzzzzzzzzpppiiiipiiipizzzzzzzzzzzzzzzzz8iipiipiiiiii7zzzzz",
"zzzzzzzzzzzzzzzzzzzzzzzzzzzzzzipiippiiiipiiipiiipipipipiippipuzzzzzzzzzzzzzzzzziiiipiiiiipiizzzzzzzzzzzzzzzzzwiiiiiiiiiiii7zzzzz",
"zzzzzzzzzzzzzzzzzzzzzzzzzzzzzuiipiiiiiiiiiiipiiiiiiiiiiiiiiiiyzzzzzzzzzzzzzzzzziuiiiiiiiiiiizzzzzzzzzzzzzzzzzquiiuuiiiuiuu7zzzzz",
"zzzzzzzzzzzzzzzzzzzzzzzzzzzzuiiiiiiiiiiiiiiiiuu7uuiiiiiuiuiiuyzzzzzzzzzzzzzzzzzuiiiuuiiiuiuuzzzzzzzzzzzzzzzzz7iuuiiuiuuiiu7zzzzz",
"zzzzzzzzzzzzzzzzzzzzzzzzzzzuiiuiiuiuiiuiiiuiiu:X<iiuuuuiuiuuitzzzzzzzzzzzzzzzzziuiuiuuuiuiuuzzzzzzzzzzzzzzzzz7uuuuuuuuuuuu7zzzzz",
"zzzzzzzzzzzzzzzzzzzzzzzzzzuuuuuuuuuuuuuuuuuuu;. ;uuuuuuuuuuuutzzzzzzzzzzzzzzzzzuuuuuuuuuyuuyzzzzzzzzzzzzzzzzz7uuuuuuuuuuuu7zzzzz",
"zzzzzzzzzzzzzzzzzzzzzzzzzuuuuuuuuuuuuuuuuuuu>.  ;uuuuuuuuuuuutzzzzzzzzzzzzzzzzzuuyuuuyuuuuyuzzzzzzzzzzzzzzzzz7tuuuutututtu7zzzzz",
"zzzzzzzzzzzzzzzzzzzzzzzzuuuyuuuuuuuyuuuuuyt;    ;uuyuyuuyyuuurzzzzzzzzzzzzzzzzzuuuyuyuyyuyyyzzzzzzzzzzzzzzzzz3tututuyuuyuu3zzzzz",
"zzzzzzzzzzzzzzzzzzzzzzztutyuyutuyuuyyyyuyt;zzzzz>tuyuttuuytuurzzzzzzzzzzzzzzzzztyyyyyyyyyyyyzzzzzzzzzzzzzzzzz7ututututtytt3zzzzz",
"zzzzzzzzzzzzzzzzzzzzzzuututuyyyyyuyyutuur;zzzzzz>tyyutyytutuuezzzzzzzzzzzzzzzzztyyyyyytuytyyzzzzzzzzzzzzzzzzz4tuttuttyutyt3zzzzz",
"zzzzzzzzzzzzzzzzzzzzzytyututyytutyyttutr-zzzzzzz,ttyyttytttttezzzzzzzzzzzzzzzzzttyttttttytttzzzzzzzzzzzzzzzzz3tttttttttttr3zzzzz",
"zzzzzzzzzzzzzzzzzzzztttutttttyyttyttttr-zzzzzzzz,ttytyyttttutezzzzzzzzzzzzzzzzztttttttttttttzzzzzzzzzzzzzzzzz3ttttttttrttt3zzzzz",
"zzzzzzzzzzzzzzzzzzztttttttttttttttttt7=zzzzzzzzz,tttttttttttrezzzzzzzzzzzzzzzzztttttttttttttzzzzzzzzzzzzzzzzz3rrttrttttttr3zzzzz",
"zzzzzzzzzzzzzzzzzztttttrtttttttttttt3$zzzzzzzzzz,ttrttttrttttezzzzzzzzzzzzzzzzzrrtrtrtrrttrrzzzzzzzzzzzzzzzzz3errrrerrrrrr3zzzzz",
"zzzzzzzzzzzzzzzzzrttrttttrrttrrtrtr3$zzz13zzzzzz,rrrrrrrrrrrewzzzzzzzzzzzzzzzzzrrrrtrrrerrrezzzzzzzzzzzzzzzzz3eerrrerrrerr2zzzzz",
"zzzzzzzzzzzzzzzzrrrrrreerrrrrrtrrr3$zz<errrwzzzz,rrrrrrrrrreewzzzzzzzzzzzzzzzzzeeerrreeeeeewzzzzzzzzzzzzzzzzz3eereeerreere2zzzzz",
"zzzzzzzzzzzzzzzerrrrreeeerrerreer3$zz,ererreezzz>eeeeeerweeee7zzzzzzzzzzzzzzzzzeeweeeeeeeeeezzzzzzzzzzzzzzzzz2wweeeweeweee2zzzzz",
"zzzzzzzzzzzzzzweeeeweeeeeeweeeee3$zzz7eeeewee7zz>ewweewewwewewzzzzzzzzzzzzzzzzzeewewwewwewwwzzzzzzzzzzzzzzzzz3wwwwwwwwwwww2zzzzz",
"zzzzzzzzzzzzzwwwwwweewwwwewewww2$zzzzwewwewwwwzz>wwwwwwwwwwww7zzzzzzzzzzzzzzzzzwwwwwwwwwwwwwzzzzzzzzzzzzzzzzz2wwwwwwwwwwww2zzzzz",
"zzzzzzzzzzzzwewwwwwwwwwwwwwwww3#zzzzzwwwwwwww7zz;wwwwwwwwwwww7zzzzzzzzzzzzzzzzzwwwwwwwww0ww0zzzzzzzzzzzzzzzzz2www8w8wwwwwq2zzzzz",
"zzzzzzzzzzzqwwwwwwwwwwwwwwwwq2#zzzzzz7wq7wwqw7zz;www9w8wwww7w7zzzzzzzzzzzzzzzzzw7wqqw7w7www7zzzzzzzzzzzzzzzzz2wq7w8w7w97w02zzzzz",
"zzzzzzzzzzwqww007www7ww0wqw72#zzzzzzz<ww7ww7w,zz;www0wwqww7w77zzzzzzzzzzzzzzzzzw7w7w87w7w0wwzzzzzzzzzzzzzzzzz17wqw770000871zzzzz",
"zzzzzzzzz70w7ww7wwqq999q7w82#zzzzzzzzz279qwq<zzz;070887w7qq777zzzzzzzzzzzzzzzzz7w7w77w7w7w77zzzzzzzzzzzzzzzzz2q7797w0778702zzzzz",
"zzzzzzzz30q8807w077w7w7w7w2@zzzzzzzzzzO-111*zzzz;07078787w7777zzzzzzzzzzzzzzzzz7707w7q797777zzzzzzzzzzzzzzzzz277w7777070772zzzzz",
"zzzzzzzz377q79778077078771@zzzzzzzzzzzz ...zzzzz;7777770777q77zzzzzzzzzzzzzzzzz7777777777777zzzzzzzzzzzzzzzzz17777777777771zzzzz",
"zzzzzzzz7777777q777777771zzzzzzzzzzzzzzzzzzzzzzz;7777777777773zzzzzzzzzzzzzzzzz7777777777777zzzzzzzzzzzzzzzzz17777777477771zzzzz",
"zzzzzzzz3777777777777771zzzzzzzzzzzzzzzzzzzzzzzz-7774777777733zzzzzzzzzzzzzzzzz3757577777737zzzzzzzzzzzzzzzzz17437574766371zzzzz",
"zzzzzzzz277337777557771zzzzzzzzzzzzzzzzzzzzzzzzz*5747575747772zzzzzzzzzzzzzzzzz2377747377373zzzzzzzzzzzzzzzzz>4457345444331zzzzz",
"zzzzzzzz;3757737737731zzzzzzzzzzzzzzzzzzzzzzzzzzz255554537333<zzzzzzzzzzzzzzzzz,333733333732zzzzzzzzzzzzzzzzz$343455555573zzzzzz",
"zzzzzzzzz23733737337<zzzzzzzzzzzzzzzzzzzzzzzzzzzz-73737353332zzzzzzzzzzzzzzzzzz#25333333333zzzzzzzzzzzzzzzzzzz>33334333331zzzzzz",
"zzzzzzzzz%333753333;zzzzzzzzzzzzzzzzzzzzzzzzzzzzzz;333333332zzzzzzzzzzzzzzzzzzzz&233333333,zzzzzzzzzzzzzzzzzzz+1333333331zzzzzzz",
"zzzzzzzzz #,333332-Xzzzzzzzzzzzzzzzzzzzzzzzzzzzzzzo-2333331%zzzzzzzzzzzzzzzzzzzz $<333231-zzzzzzzzzzzzzzzzzzzzzO;223322,zzzzzzzz",
"zzzzzzzzzz X@&&&%+zzzzzzzzzzzzzzzzzzzzzzzzzzzzzzzz  +%%&%$zzzzzzzzzzzzzzzzzzzzzzz o$%&&%Ozzzzzzzzzzzzzzzzzzzzzz  +%&&&#zzzzzzzzz",
"zzzzzzzzzzz      zzzzzzzzzzzzzzzzzzzzzzzzzzzzzzzzzz      zzzzzzzzzzzzzzzzzzzzzzzzz      zzzzzzzzzzzzzzzzzzzzzzzz      zzzzzzzzzz",
"zzzzzzzzzzzzzzzzzzzzzzzzzzzzzzzzzzzzzzzzzzzzzzzzzzzzzzzzzzzzzzzzzzzzzzzzzzzzzzzzzzzzzzzzzzzzzzzzzzzzzzzzzzzzzzzzzzzzzzzzzzzzzzzz",
"zzzzzzzzzzzzzzzzzzzzzzzzzzzzzzzzzzzzzzzzzzzzzzzzzzzzzzzzzzzzzzzzzzzzzzzzzzzzzzzzzzzzzzzzzzzzzzzzzzzzzzzzzzzzzzzzzzzzzzzzzzzzzzzz",
"zzzzzzzzzzzzzzzzzzzzzzzzzzzzzzzzzzzzzzzzzzzzzzzzzzzzzzzzzzzzzzzzzzzzzzzzzzzzzzzzzzzzzzzzzzzzzzzzzzzzzzzzzzzzzzzzzzzzzzzzzzzzzzzz",
"zzzzzzzzzzzzzzzzzzzzzzzzzzzzzzzzzzzzzzzzzzzzzzzzzzzzzzzzzzzzzzzzzzzzzzzzzzzzzzzzzzzzzzzzzzzzzzzzzzzzzzzzzzzzzzzzzzzzzzzzzzzzzzzz",
"zzzzzzzzzzzzzzzzzzzzzzzzzzzzzzzzzzzzzzzzzzzzzzzzzzzzzzzzzzzzzzzzzzzzzzzzzzzzzzzzzzzzzzzzzzzzzzzzzzzzzzzzzzzzzzzzzzzzzzzzzzzzzzzz",
"zzzzzzzzzzzzzzzzzzzzzzzzzzzzzzzzzzzzzzzzzzzzzzzzzzzzzzzzzzzzzzzzzzzzzzzzzzzzzzzzzzzzzzzzzzzzzzzzzzzzzzzzzzzzzzzzzzzzzzzzzzzzzzzz",
"zzzzzzzzzzzzzzzzzzzzzzzzzzzzzzzzzzzzzzzzzzzzzzzzzzzzzzzzzzzzzzzzzzzzzzzzzzzzzzzzzzzzzzzzzzzzzzzzzzzzzzzzzzzzzzzzzzzzzzzzzzzzzzzz",
"zzzzzzzzzzzzzzzzzzzzzzzzzzzzzzzzzzzzzzzzzzzzzzzzzzzzzzzzzzzzzzzzzzzzzzzzzzzzzzzzzzzzzzzzzzzzzzzzzzzzzzzzzzzzzzzzzzzzzzzzzzzzzzzz",
"zzzzzzzzzzzzzzzzzzzzzzzzzzzzzzzzzzzzzzzzzzzzzzzzzzzzzzzzzzzzzzzzzzzzzzzzzzzzzzzzzzzzzzzzzzzzzzzzzzzzzzzzzzzzzzzzzzzzzzzzzzzzzzzz",
"zzzzzzzzzzzzzzzzzzzzzzzzzzzzzzzzzzzzzzzzzzzzzzzzzzzzzzzzzzzzzzzzzzzzzzzzzzzzzzzzzzzzzzzzzzzzzzzzzzzzzzzzzzzzzzzzzzzzzzzzzzzzzzzz",
"zzzzzzzzzzzzzzzzzzzzzzzzzzzzzzzzzzzzzzzzzzzzzzzzzzzzzzzzzzzzzzzzzzzzzzzzzzzzzzzzzzzzzzzzzzzzzzzzzzzzzzzzzzzzzzzzzzzzzzzzzzzzzzzz",
"zzzzzzzzzzzzzzzzzzzzzzzzzzzzzzzzzzzzzzzzzzzzzzzzzzzzzzzzzzzzzzzzzzzzzzzzzzzzzzzzzzzzzzzzzzzzzzzzzzzzzzzzzzzzzzzzzzzzzzzzzzzzzzzz",
"zzzzzzzzzzzzzzzzzzzzzzzzzzzzzzzzzzzzzzzzzzzzzzzzzzzzzzzzzzzzzzzzzzzzzzzzzzzzzzzzzzzzzzzzzzzzzzzzzzzzzzzzzzzzzzzzzzzzzzzzzzzzzzzz",
"zzzzzzzzzzzzzzzzzzzzzzzzzzzzzzzzzzzzzzzzzzzzzzzzzzzzzzzzzzzzzzzzzzzzzzzzzzzzzzzzzzzzzzzzzzzzzzzzzzzzzzzzzzzzzzzzzzzzzzzzzzzzzzzz",
"zzzzzzzzzzzzzzzzzzzzzzzzzzzzzzzzzzzzzzzzzzzzzzzzzzzzzzzzzzzzzzzzzzzzzzzzzzzzzzzzzzzzzzzzzzzzzzzzzzzzzzzzzzzzzzzzzzzzzzzzzzzzzzzz",
"zzzzzzzzzzzzzzzzzzzzzzzzzzzzzzzzzzzzzzzzzzzzzzzzzzzzzzzzzzzzzzzzzzzzzzzzzzzzzzzzzzzzzzzzzzzzzzzzzzzzzzzzzzzzzzzzzzzzzzzzzzzzzzzz",
"zzzzzzzzzzzzzzzzzzzzzzzzzzzzzzzzzzzzzzzzzzzzzzzzzzzzzzzzzzzzzzzzzzzzzzzzzzzzzzzzzzzzzzzzzzzzzzzzzzzzzzzzzzzzzzzzzzzzzzzzzzzzzzzz",
"zzzzzzzzzzzzzzzzzzzzzzzzzzzzzzzzzzzzzzzzzzzzzzzzzzzzzzzzzzzzzzzzzzzzzzzzzzzzzzzzzzzzzzzzzzzzzzzzzzzzzzzzzzzzzzzzzzzzzzzzzzzzzzzz",
"zzzzzzzzzzzzzzzzzzzzzzzzzzzzzzzzzzzzzzzzzzzzzzzzzzzzzzzzzzzzzzzzzzzzzzzzzzzzzzzzzzzzzzzzzzzzzzzzzzzzzzzzzzzzzzzzzzzzzzzzzzzzzzzz",
"zzzzzzzzzzzzzzzzzzzzzzzzzzzzzzzzzzzzzzzzzzzzzzzzzzzzzzzzzzzzzzzzzzzzzzzzzzzzzzzzzzzzzzzzzzzzzzzzzzzzzzzzzzzzzzzzzzzzzzzzzzzzzzzz",
"zzzzzzzzzzzzzzzzzzzzzzzzzzzzzzzzzzzzzzzzzzzzzzzzzzzzzzzzzzzzzzzzzzzzzzzzzzzzzzzzzzzzzzzzzzzzzzzzzzzzzzzzzzzzzzzzzzzzzzzzzzzzzzzz",
"zzzzzzzzzzzzzzzzzzzzzzzzzzzzzzzzzzzzzzzzzzzzzzzzzzzzzzzzzzzzzzzzzzzzzzzzzzzzzzzzzzzzzzzzzzzzzzzzzzzzzzzzzzzzzzzzzzzzzzzzzzzzzzzz",
"zzzzzzzzzzzzzzzzzzzzzzzzzzzzzzzzzzzzzzzzzzzzzzzzzzzzzzzzzzzzzzzzzzzzzzzzzzzzzzzzzzzzzzzzzzzzzzzzzzzzzzzzzzzzzzzzzzzzzzzzzzzzzzzz",
"zzzzzzzzzzzzzzzzzzzzzzzzzzzzzzzzzzzzzzzzzzzzzzzzzzzzzzzzzzzzzzzzzzzzzzzzzzzzzzzzzzzzzzzzzzzzzzzzzzzzzzzzzzzzzzzzzzzzzzzzzzzzzzzz",
"zzzzzzzzzzzzzzzzzzzzzzzzzzzzzzzzzzzzzzzzzzzzzzzzzzzzzzzzzzzzzzzzzzzzzzzzzzzzzzzzzzzzzzzzzzzzzzzzzzzzzzzzzzzzzzzzzzzzzzzzzzzzzzzz",
"zzzzzzzzzzzzzzzzzzzzzzzzzzzzzzzzzzzzzzzzzzzzzzzzzzzzzzzzzzzzzzzzzzzzzzzzzzzzzzzzzzzzzzzzzzzzzzzzzzzzzzzzzzzzzzzzzzzzzzzzzzzzzzzz",
"zzzzzzzzzzzzzzzzzzzzzzzzzzzzzzzzzzzzzzzzzzzzzzzzzzzzzzzzzzzzzzzzzzzzzzzzzzzzzzzzzzzzzzzzzzzzzzzzzzzzzzzzzzzzzzzzzzzzzzzzzzzzzzzz",
"zzzzzzzzzzzzzzzzzzzzzzzzzzzzzzzzzzzzzzzzzzzzzzzzzzzzzzzzzzzzzzzzzzzzzzzzzzzzzzzzzzzzzzzzzzzzzzzzzzzzzzzzzzzzzzzzzzzzzzzzzzzzzzzz",
"zzzzzzzzzzzzzzzzzzzzzzzzzzzzzzzzzzzzzzzzzzzzzzzzzzzzzzzzzzzzzzzzzzzzzzzzzzzzzzzzzzzzzzzzzzzzzzzzzzzzzzzzzzzzzzzzzzzzzzzzzzzzzzzz",
"zzzzzzzzzzzzzzzzzzzzzzzzzzzzzzzzzzzzzzzzzzzzzzzzzzzzzzzzzzzzzzzzzzzzzzzzzzzzzzzzzzzzzzzzzzzzzzzzzzzzzzzzzzzzzzzzzzzzzzzzzzzzzzzz",
"zzzzzzzzzzzzzzzzzzzzzzzzzzzzzzzzzzzzzzzzzzzzzzzzzzzzzzzzzzzzzzzzzzzzzzzzzzzzzzzzzzzzzzzzzzzzzzzzzzzzzzzzzzzzzzzzzzzzzzzzzzzzzzzz",
"zzzzzzzzzzzzzzzzzzzzzzzzzzzzzzzzzzzzzzzzzzzzzzzzzzzzzzzzzzzzzzzzzzzzzzzzzzzzzzzzzzzzzzzzzzzzzzzzzzzzzzzzzzzzzzzzzzzzzzzzzzzzzzzz",
"zzzzzzzzzzzzzzzzzzzzzzzzzzzzzzzzzzzzzzzzzzzzzzzzzzzzzzzzzzzzzzzzzzzzzzzzzzzzzzzzzzzzzzzzzzzzzzzzzzzzzzzzzzzzzzzzzzzzzzzzzzzzzzzz",
"zzzzzzzzzzzzzzzzzzzzzzzzzzzzzzzzzzzzzzzzzzzzzzzzzzzzzzzzzzzzzzzzzzzzzzzzzzzzzzzzzzzzzzzzzzzzzzzzzzzzzzzzzzzzzzzzzzzzzzzzzzzzzzzz",
"zzzzzzzzzzzzzzzzzzzzzzzzzzzzzzzzzzzzzzzzzzzzzzzzzzzzzzzzzzzzzzzzzzzzzzzzzzzzzzzzzzzzzzzzzzzzzzzzzzzzzzzzzzzzzzzzzzzzzzzzzzzzzzzz"
};
