/* XPM */
static char *google_earth[] = {
/* columns rows colors chars-per-pixel */
"128 128 57 1 ",
"  c black",
". c #000607",
"X c #00090B",
"o c #000C10",
"O c #001217",
"+ c #00151B",
"@ c #001920",
"# c #001D25",
"$ c #002129",
"% c #00222B",
"& c #00242E",
"* c #002631",
"= c #002833",
"- c #002C38",
"; c #00303C",
": c #00313F",
"> c #00323F",
", c #003341",
"< c #003847",
"1 c #003C4C",
"2 c #004051",
"3 c #004152",
"4 c #004153",
"5 c #004355",
"6 c #004557",
"7 c #004558",
"8 c #00475A",
"9 c #00495C",
"0 c #00485D",
"q c #00495D",
"w c #004B5F",
"e c #004C61",
"r c #004D61",
"t c #004C62",
"y c #004D62",
"u c #004F64",
"i c #005066",
"p c #005166",
"a c #005369",
"s c #00546B",
"d c #00566E",
"f c #005870",
"g c #005A72",
"h c #005C75",
"j c #005E77",
"k c #006079",
"l c #00607A",
"z c #00627C",
"x c #00637F",
"c c #00647E",
"v c #00647F",
"b c #006681",
"n c #006783",
"m c #006784",
"M c #006883",
"N c #006884",
"B c None",
/* pixels */
"BBBBBBBBBBBBBBBBBBBBBBBBBBBBBBBBBBBBBBBBBBBBBBBBBBBBBBBBBBBBBBBBBBBBBBBBBBBBBBBBBBBBBBBBBBBBBBBBBBBBBBBBBBBBBBBBBBBBBBBBBBBBBBBB",
"BBBBBBBBBBBBBBBBBBBBBBBBBBBBBBBBBBBBBBBBBBBBBBBBBBBBBBBBBBBBBBBBBBBBBBBBBBBBBBBBBBBBBBBBBBBBBBBBBBBBBBBBBBBBBBBBBBBBBBBBBBBBBBBB",
"BBBBBBBBBBBBBBBBBBBBBBBBBBBBBBBBBBBBBBBBBBBBBBBBBBBBBBBBBBBBBBBBBBBBBBBBBBBBBBBBBBBBBBBBBBBBBBBBBBBBBBBBBBBBBBBBBBBBBBBBBBBBBBBB",
"BBBBBBBBBBBBBBBBBBBBBBBBBBBBBBBBBBBBBBBBBBBBBBBBBBBBBBBBBBBBBBBBBBBBBBBBBBBBBBBBBBBBBBBBBBBBBBBBBBBBBBBBBBBBBBBBBBBBBBBBBBBBBBBB",
"BBBBBBBBBBBBBBBBBBBBBBBBBBBBBBBBBBBBBBBBBBBBBBBBBBBBBBBBBBBBBBBBBBBBBBBBBBBBBBBBBBBBBBBBBBBBBBBBBBBBBBBBBBBBBBBBBBBBBBBBBBBBBBBB",
"BBBBBBBBBBBBBBBBBBBBBBBBBBBBBBBBBBBBBBBBBBBBBBBBBBBBBBBBBBBBBBBBBBBBBBBBBBBBBBBBBBBBBBBBBBBBBBBBBBBBBBBBBBBBBBBBBBBBBBBBBBBBBBBB",
"BBBBBBBBBBBBBBBBBBBBBBBBBBBBBBBBBBBBBBBBBBBBBBBBBBBBBBBBBBBBBBBBBBBBBBBBBBBBBBBBBBBBBBBBBBBBBBBBBBBBBBBBBBBBBBBBBBBBBBBBBBBBBBBB",
"BBBBBBBBBBBBBBBBBBBBBBBBBBBBBBBBBBBBBBBBBBBBBBBBBBBBBBBBBBBBBBBBBBBBBBBBBBBBBBBBBBBBBBBBBBBBBBBBBBBBBBBBBBBBBBBBBBBBBBBBBBBBBBBB",
"BBBBBBBBBBBBBBBBBBBBBBBBBBBBBBBBBBBBBBBBBBBBBBBBBBBBBBBBBBBBBBBBBBBBBBBBBBBBBBBBBBBBBBBBBBBBBBBBBBBBBBBBBBBBBBBBBBBBBBBBBBBBBBBB",
"BBBBBBBBBBBBBBBBBBBBBBBBBBBBBBBBBBBBBBBBBBBBBBBBBBBBBBBBBBBBBBBBBBBBBBBBBBBBBBBBBBBBBBBBBBBBBBBBBBBBBBBBBBBBBBBBBBBBBBBBBBBBBBBB",
"BBBBBBBBBBBBBBBBBBBBBBBBBBBBBBBBBBBBBBBBBBBBBBBBBBBBBBBBBBBBBBBBBBBBBBBBBBBBBBBBBBBBBBBBBBBBBBBBBBBBBBBBBBBBBBBBBBBBBBBBBBBBBBBB",
"BBBBBBBBBBBBBBBBBBBBBBBBBBBBBBBBBBBBBBBBBBBBBBBBBBBBBBBBBBBBBBBBBBBBBBBBBBBBBBBBBBBBBBBBBBBBBBBBBBBBBBBBBBBBBBBBBBBBBBBBBBBBBBBB",
"BBBBBBBBBBBBBBBBBBBBBBBBBBBBBBBBBBBBBBBBBBBBBBBBBBBBBBBBBBBBBBBBBBBBBBBBBBBBBBBBBBBBBBBBBBBBBBBBBBBBBBBBBBBBBBBBBBBBBBBBBBBBBBBB",
"BBBBBBBBBBBBBBBBBBBBBBBBBBBBBBBBBBBBBBBBBBBBBMNNNNNNNNNNNNNNNNNBBBBBBBBBBBBBBBBBBBBBBBBBBBBBBBBBBBBBBBBBBBBBBBBBBBBBBBBBBBBBBBBB",
"BBBBBBBBBBBBBBBBBBBBBBBBBBBBBBBBBBBBBBBBBBzbNNNNNNNNNNNNNNNNNNNNNNNbBBBBBBBBBBBBBBBBBBBBBBBBBBBBBBBBBBBBBBBBBBBBBBBBBBBBBBBBBBBB",
"BBBBBBBBBBBBBBBBBBBBBBBBBBBBBBBBBBBBBBBBkbNNNNNNNNNNNNNNNNNNNNNNNNNNNNNBBBBBBBBBBBBBBBBBBBBBBBBBBBBBBBBBBBBBBBBBBBBBBBBBBBBBBBBB",
"BBBBBBBBBBBBBBBBBBBBBBBBBBBBBBBBBBBBBBjbbNNNNNNNNNNNNNNNNNNNNNNNNNNNNNNbbBBBBBBBBBBBBBBBBBBBBBBBBBBBBBBBBBBBBBBBBBBBBBBBBBBBBBBB",
"BBBBBBBBBBBBBBBBBBBBBBBBBBBBBBBBBBBBzbNNNNNMNNbNNNbNNNbNbNNNbNmNNNmNbNNbNbcBBBBBBBBBBBBBBBBBBBBBBBBBBBBBBBBBBBBBBBBBBBBBBBBBBBBB",
"BBBBBBBBBBBBBBBBBBBBBBBBBBBBBBBBBBBzbNmNNNMNNMnMMbnMbNNmNbmbNbbNNbNmbMMbNNNbbBBBBBBBBBBBBBBBBBBBBBBBBBBBBBBBBBBBBBBBBBBBBBBBBBBB",
"BBBBBBBBBBBBBBBBBBBBBBBBBBBBBBBBBlbbNbmbbNbMbnnNNmnNbnbmmNNbNbnNbNbNNmbNbmbNbbzBBBBBBBBBBBBBBBBBBBBBBBBBBBBBBBBBBBBBBBBBBBBBBBBB",
"BBBBBBBBBBBBBBBBBBBBBBBBBBBBBBBBzbbNNbNbbNbMbNMbbNbmbNbNbmbmbbnMbnnbbnnbbbMbMbbvBBBBBBBBBBBBBBBBBBBBBBBBBBBBBBBBBBBBBBBBBBBBBBBB",
"BBBBBBBBBBBBBBBBBBBBBBBBBBBBBBBbbbbbbbbbbbbbbbbbbbbbbbbbbbbbbbbbbbbbbbbbbbbbbbbbbzBBBBBBBBBBBBBBBBBBBBBBBBBBBBBBBBBBBBBBBBBBBBBB",
"BBBBBBBBBBBBBBBBBBBBBBBBBBBBBjzzzldu83344228fjzbbbbbbbbbbbbbbbbbbbbbbbbbbbbbbbbbbbzBBBBBBBBBBBBBBBBBBBBBBBBBBBBBBBBBBBBBBBBBBBBB",
"BBBBBBBBBBBBBBBBBBBBBBBBBBBBBdaBBBBBB      .OO-1pzbbbbbbbbbbcbbbbbbbbbbbbbbbbbbbbbblBBBBBBBBBBBBBBBBBBBBBBBBBBBBBBBBBBBBBBBBBBBB",
"BBBBBBBBBBBBBBBBBBBBBBBBBBBBBBBBBBBBBBB         o&5fbbbbvbbbvbbbbbbcbxbbcbcbcbbbbbxbbBBBBBBBBBBBBBBBBBBBBBBBBBBBBBBBBBBBBBBBBBBB",
"BBBBBBBBBBBBBBBBBBBBBBBBBBBBBBBBBBBBBBBBBBBBB      #3fxxbczbbzcxbccbbcxxbxcxbczbzbbxzbBBBBBBBBBBBBBBBBBBBBBBBBBBBBBBBBBBBBBBBBBB",
"BBBBBBBBBBBBBBBBBBBBBBBBBBBBBBBBBBBBBBBBBBBBBBBBB    #4dvbbzbzbbbzccbxcczbcccbcccczbbczBBBBBBBBBBBBBBBBBBBBBBBBBBBBBBBBBBBBBBBBB",
"BBBBBBBBBBBBBBBBBBBBBBBBBBBBBBBBBBBBBBBBBBBBBBBBBBB    #wzzbzbxxzbvcxcccxcxcczbzxxxzzcbzBBBBBBBBBBBBBBBBBBBBBBBBBBBBBBBBBBBBBBBB",
"BBBBBBBBBBBBBBBBBBBBBBBBBBBBBBBBBBBBBBBBBBBBBBBBBBBBB   o<dzxxxxbzxxxxcxxxccxxxczbxczczczBBBBBBBBBBBBBBBBBBBBBBBBBBBBBBBBBBBBBBB",
"BBBBBBBBBBBBBBBBBBBBBBBBBBBBBBBBBBBBBBBBBBBBBBBBBBBBBBB   #uzxzxczxxxzczczzxczcxzzzbzcbzbzBBBBBBBBBBBBBBBBBBBBBBBBBBBBBBBBBBBBBB",
"BBBBBBBBBBBBBBBBBBBBBBBBBBBBBBBBBBBBBBBBBBBBBBBBBBBBBBBBB  @2jzzzxzxzczczxzxzxzxzczzzbzzzzzBBBBBBBBBBBBBBBBBBBBBBBBBBBBBBBBBBBBB",
"BBBBBBBBBBBBBBBBBBBBBBBBBBBBBBBBBBBBBBBBBBBBBBBBBBBBBBBBBB   <fzzzzzzzzzzzzzzzzzzzzzzzzzzzzjBBBBBBBBBBBBBBBBBBBBBBBBBBBBBBBBBBBB",
"BBBBBBBBBBBBBBBBBBBBBBBBBBBBBBBBBBBBBBBBBBBBBBBBBBBBBBBBBBBB  &uzzzzzzzzzzzzzzzzzzzzzzzzzzzzjBBBBBBBBBBBBBBBBBBBBBBBBBBBBBBBBBBB",
"BBBBBBBBBBBBBBBBBBBBBBBBBBBBBBBBBBBBBBBBBBBBBBBBBBBBBBBBBBBBB  #wkzzkzzzzkzzzzzzzzkzzkzzzklzkBBBBBBBBBBBBBBBBBBBBBBBBBBBBBBBBBBB",
"BBBBBBBBBBBBBBBBBBBBBBBBBBBBBBBBBBBBBBBBBBBBBBBBBBBBBBBBBBBBBB  @qzzzzzzzlzzlzzlkzzzkzzkkzzzzlBBBBBBBBBBBBBBBBBBBBBBBBBBBBBBBBBB",
"BBBBBBBBBBBBBBBBBBBBBBBBBBBBBBBBBBBBBBBBBBBBBBBBBBBBBBBBBBBBBBB  +9kllkzlzkzklzkklklzkzkzkklzkjBBBBBBBBBBBBBBBBBBBBBBBBBBBBBBBBB",
"BBBBBBBBBBBBBBBBBBBBBBBBBBBBBBBBBBBBBBBBBBBBBBBBBBBBBBBBBBBBBBBBB @8hzkklkkkkkkzkkkzkkzklkkkkkkfBBBBBBBBBBBBBBBBBBBBBBBBBBBBBBBB",
"BBBBBBBBBBBBBBBBBBBBBBBBBBBBBlkjBBBBBBBBBBBBBBBBBBBBBBBBBBBBBBBBBB X,fkkkklkkkkkllllkkkllllklkljBBBBBBBBBBBBBBBBBBBBBBBBBBBBBBBB",
"BBBBBBBBBBBBBBBBBBBBBBBBBfhllljkljjhBBBBBBBBBBBBBBBBBBBBBBBBBBBBBBB .,gklkllkkkkkkljkjklkkljkkjljBBBBBBBBBBBBBBBBBBBBBBBBBBBBBBB",
"BBBBBBBBBBBBBBBBBBBBBBBjllklllkkkllkllgBBBBBBBBBBBBBBBBBBBBBBBBBBBBB  ,fjkjlkjljljlkkjljljlkjllkldBBBBBBBBBBBBBBBBBBBBBBBBBBBBBB",
"BBBBBBBBBBBBBBBBBBBBBhjllklklllljlkjjlljjBBBBBBBBBBBBBBBBBBBBBBBBBBBB  ,fllljlkljjkljkjljljljkljljBBBBBBBBBBBBBBBBBBBBBBBBBBBBBB",
"BBBBBBBBBBBBBBBBBBBfjlljjjjkjjjlkkjkljjljlgBBBBBBBBBBBBBBBBBBBBBBBBBBB .,fjjjjjjkjjjjjjjjjjjjjjjjjgBBBBBBBBBBBBBBBBBBBBBBBBBBBBB",
"BBBBBBBBBBBBBBBBBBgjjjljjjjjjjjjjjjjjjjjjjlhfBBBBBBBBBBBBBBBBBBBBBBBBBB  ,dljjjjjjjjjjjjjjjjjjjjjjjgBBBBBBBBBBBBBBBBBBBBBBBBBBBB",
"BBBBBBBBBBBBBBBBBfjjjjjjjjjjjjjjjjjjjjjjjjjjljdBBBBBBBBBBBBBBBBBBBBBBBBB  ,fjjjhjjhjjhjjjjjjjjjhjjjjfBBBBBBBBBBBBBBBBBBBBBBBBBBB",
"BBBBBBBBBBBBBBBBfjjhhjjjjjjjjjjjjjjjjjhjjjjjjjghBBBBBBBBBBBBBBBBBBBBBBBBB  ,dhjjjjjjjhjhhjhjhjjhhhjhgBBBBBBBBBBBBBBBBBBBBBBBBBBB",
"BBBBBBBBBBBBBBBhhjjjjjhhjhjhjjgjhhjhjhjhhjgjhjjjhfBBBBBBBBBBBBBBBBBBBBBBBB  ,dhhhjghhjjhjhjghjgjjhhjjfBBBBBBBBBBBBBBBBBBBBBBBBBB",
"BBBBBBBBBBBBBigjhjjjhjhjhjhjjghjjjhhjhhjgjgjgjgjhhgBBBBBBBBBBBBBBBBBBBBBBBB  >dhhhjjjhhhjjjjhhjhghjhhjfBBBBBBBBBBBBBBBBBBBBBBBBB",
"BBBBBBBBBBBBBghjjjggjgjhhhhhjgjjggjhhhhhhhjhjhhhhhjgfBBBBBBBBBBBBBBBBBBBBBBB  %8hgghgjghghggjggjhhghhggaBBBBBBBBBBBBBBBBBBBBBBBB",
"BBBBBBBBBBBBdgjgjgjghjgjjgjgjghghhjgjjhghgjhgjhgjgjgjgBBBBBBBBBBBBBBBBBBBBBBB  +5hghghghgghgghhggjggghhgaBBBBBBBBBBBBBBBBBBBBBBB",
"BBBBBBBBBBBBdgghhhhgghggghghgjhghgghggghhhghhghgghghgggfBBBBBBBBBBBBBBBBBBBBBB  +7jghgjggjjghgghgghjhgghgaBBBBBBBBBBBBBBBBBBBBBB",
"BBBBBBBBBBBBghgggghjjgghhggggjgjgjghhghghghgghgjggjgjgggfBBBBBBBBBBBBBBBBBBBBBB  +7fgggggjgghgggghggggggggaBBBBBBBdfBBBBBBBBBBBB",
"BBBBBBBBBBB4gggjghggghggghghgggggggggghggggggggghggggghgggfBBBBBBBBBBBBBBBBBBBBBB O<sgghggggggggggghgggggggfBBBBBdggBBBBBBBBBBBB",
"BBBBBBBBBBBugggggggggggggggggggggggggggggggggggggggggggggggdBBBBBBBBBBBBBBBBBBBBBB .;agfgggggggggggggggggggggfasdgggBBBBBBBBBBBB",
"BBBBBBBBBBBagggggggggggggggggggggggggggggggggfgggggggfgggggffsBBBBBBBBBBBBBBBBBBBBB  ;ifgffggggggffggfgfgggffgfffgfgsBBBBBBBBBBB",
"BBBBBBBBBBBsgggggggfgfggfgfgggggfgggggggggggggggfggggfgfggfggfdBBBBBBBBBBBBBBBBBBBBB  $4ffggfgfggfgfggffgffgfgfgggfgdBBBBBBBBBBB",
"BBBBBBBBBB<fgffgfggfgggfggfgffffgfgfffgfffffgfgfgffgfgfgffggfgffBBBBBBBBBBBBBBBBBBBBB  +3ffffffffgfffffgffffgfffffffaBBBBBBBBBBB",
"BBBBBBBBBB<dfgfgfgffffggfgffffggffffgffgffffffgfffffffgffffffffgfdBBBBBBBBBBBBBBBBBBBB  o<afffffffffffffffffffffffffdBBBBBBBBBBB",
"BBBBBBBBBB<dffffffgfffffffffffffffgfffffffffffffffffffffffffdfffdfdBBBBBBBBBBBBBBBBBBBBB .;afffffffffdffffdfffdfdfffdBBBBBBBBBBB",
"BBBBBBBBBB8ffffffffffffffffffffffffffdffdffffdfffffffdfffffdffdfffdfdBBBBBBBBBBBBBBBBBBBB  =8dffffdffdfffffdffdffdfffBBBBBBBBBBB",
"BBBBBBBBBBpdfdfffdfdfdffdfdfdffdddfdfdfdffdfffdddfddfdfddfdfdffdfdfddsBBBBBBBBBBBBBBBBBBBB  O4adddfddfdddddddddffddddBBBBBBBBBBB",
"BBBBBBBBBBpddffdddfdfdddfdddfdfdfdfddfdfdddfddddfddddfddddddfdddddfddddaBBBBBBBBBBBBBBBBBBB  X-pdddddddfddddddddddddd4BBBBBBBBBB",
"BBBBBBBBBBudddddfdddfddddddffddddddddddddfddddddddddddddddddddddddddddddaBBBBBBBBBBBBBBBBBBBB  &5ddddddddddddddddddddwBBBBBBBBBB",
"BBBBBBBBBBudddddddddddddddddddddddddddddddddfdddddddddddddddddddddddddddddiBBBBBBBBBBBBBBBBBBB  o,pddddddddddddddsdddiBBBBBBBBBB",
"BBBBBBBBBBwdddddddddddddddddddddddddddddddddddddddddddddddddddddddddddaddddaBBBBBBBBBBBBBBBBBBB   &5addddsdsdsdsdddddaBBBBBBBBBB",
"BBBBBBBBBBwsdsadddddddddddddddddddddddddddddsddsadadsdddsddsdsddssdsdsdsdssdaiBBBBBBBBBBBBBBBBBBB  O,pdadadadddadddadpBBBBBBBBBB",
"BBBBBBBBBBwdadddadadadasadadadadadadadasadadddsdddddddasddadsdadsddssdaddsddsssBBBBBBBBBBBBBBBBBBB   %3isdsddassdaadswBBBBBBBBBB",
"BBBBBBBBBBwddsaddsssdadsdsdadadadadadadsdadaaddsaddsadddadadssdadsaddaadadsasddaiBBBBBBBBBBBBBBBBBBB  X-qaadaadddadaa4BBBBBBBBBB",
"BBBBBBBBBBqdssdddasdadaddsadadssadssadadadadaaasdaadaaassadadaadadaasadssaadaadadiiBBBBBBBBBBBBBBBBBB   @,qaadaaaadas<BBBBBBBBBB",
"BBBBBBBBBB8ddaaaadassaddadaddassssasaadaasadasssasasdaasadaasassaaasaddadaassdaasaspBBBBBBBBBBBBBBBBBBB   +,9iaaaasaa1BBBBBBBBBB",
"BBBBBBBBBB<aaddasadaadaaaaaaasasasdadaasdaaassasassaaasaaaasasaaassaaaaaasaaaaaasaaaaiBBBBBBBBBBBBBBBBBBB   +>8pasaaaBBBBBBBBBBB",
"BBBBBBBBBB-isasaasaasaasaaadsaaasaaaassasaassaaaasaadaasaaassaaaasasaaasaaasassaaaaasaauBBBBBBBBBBBBBBBBBBB   o$4qiaiBBBBBBBBBBB",
"BBBBBBBBBB;iaaaaaaaaaaaaaaaaaaaaaaaaaaaaaaaaaaaaaaaaaaaaaaaaaaaaaaaaaaaaaaaaaaaaaaaaaaaaiuBBBBBBBBBBBBBBBBBBB   .@;48BBBBBBBBBBB",
"BBBBBBBBBB&paaaaaaaaaaaaaiaaaaaaaaaiaapaaaaaaaaaaaaaaaaaaaaaaaaaaaaaaaaaaaaaaiaaaaaaapiaaapuBBBBBBBBBBBBBBBBBBB   BBBBBBBBBBBBBB",
"BBBBBBBBBBB8aaaaaaaaaaaaaaaaiaaaiaaaaaaaiaaipaaaaaiaaiiaiaaiiaiaaiaaaiiaiaaaiaiaaaiaiaaaaiaaiwBBBBBBBBBBBBBBBBBBBBBBBBBBBBBBBBBB",
"BBBBBBBBBBB5iaaaaaaaiaiaaaaiaaaaaiaaaipaaaaiaaiiiiapiaapiaaiiapapiaiiiiiiaiiaiaiaiiiaiaippaiiaptBBBBBBBBBBBBBBBBBBBBBBBBBBBBBBBB",
"BBBBBBBBBBB,iiiiiiiiiaipiaiiiiiiiaiapaipiiiipiapiaiaipapiiiiiapiiiiiiaiiiiiapiipiiiippppipiiiiiipuuBBBBBBBBBBBBBBBBBBBBBBBBBBBBB",
"BBBBBBBBBBB-piiiiiippiiaiiiiiiiiiiiiiiiiiiiiiiiiipppiiiiiiiiipppiiipppiipiiippipiiiiiiiippppuppippiutBBBBBBBBBBBBBBBBBBBBBBBBBBB",
"BBBBBBBBBBB@8iiiiiippippupiipppppppipppppppppiiippppppppupiipppppppppipppiiuppppupiipiuippuppppuupiuppueBBBBBBBBBBBBBBBBBBBBBBBB",
"BBBBBBBBBBBB3iiippppppppppupppuipppupppppupppppupuppppppppiuuppuppppipppppipuppuipuppuiipipuppppuiuiuupppuwwBBBBBBBBBBBBBBBBBBBB",
"BBBBBBBBBBBB;pupuppuppuppuppiupupuupuuppupuuppiuupupuuupupupuupuuuupuuuuuuuupuupuiuupuuuuuupuuuupupuupuuupupuuwuBBBBBBBBBBBBBBBB",
"BBBBBBBBBBBB#wppuupppupuuupuupupuuiuuupuupupuupuuuupuuuupuuuuuuuuuuuuuuuuuuuuuuuuuuupuuuuuuuuuuuuuuuuuuuuuuuuuuuuuwBBBBBBBBBBBBB",
"BBBBBBBBBBBBX3uuuuw54444tuuuuuuuuuuuuuuuuuuuuuuuuuuuuuuuuuuuuuuuuuuuuuuuuyuuuuuuuuuuuuuuuuuuuuuuuuuuuuuuuuuuuuuuuu8BBBBBBBBBBBBB",
"BBBBBBBBBBBBB;uuu2-X...X#;4wpuuutuuuuuuuuuuuuuuuuuuuuuuuuuuuuuuuuuyuuuuuuuuuuuuuuuuuuuutuurutuuuueuyuwuruwuuwuuuuuBBBBBBBBBBBBBB",
"BBBBBBBBBBBBB+5u<o       ..&<8wuuuuuuyuuueurtutuuuruuueuueuutuuuuuuuueueuutuuuwuuruwtutuwuuuuttttuuyuuuuuuwueuuwt8BBBBBBBBBBBBBB",
"BBBBBBBBBBBBBB18# BBBBB     .O-1wtuwuuuyururuueuyureueurwuuuruuwuwueeeuwuuwuururuwurywuuuuwueuruuwuuwuuwwuuwuywuw2BBBBBBBBBBBBBB",
"BBBBBBBBBBBBBB%-BBBBBBBBBBB    .%<8wuyyururuwuuwuwtuwuwurewuuwuweuwuwuwuwuuwwuwreuwutuuwwuuwewurwuuwuuwuuwwuwuur8BBBBBBBBBBBBBBB",
"BBBBBBBBBBBBBBBBBBBBBBBBBBBBB    .O;2quwwuuwwuwuuuuwrutyewewwwuuwutetwuwwtwurweewuuwwtwwuwwywureuwwwywwuwutwuwuw1BBBBBBBBBBBBBBB",
"BBBBBBBBBBBBBBBBBBBBBBBBBBBBBBBB    X%<8wwwuwwuwwewuwwttwuwuwuwwtwwuwuweuwewwueewwwwuwuwwwurwwwewwuwwuwwwwwurww5BBBBBBBBBBBBBBBB",
"BBBBBBBBBBBBBBBBBBBBBBBBBBBBBBBBBB    .+;5quwuwwtwttwuwtwuweewwewttweweewrwuwewwwwuwwwewetwewwewwwwwwwwwwwewwww<BBBBBBBBBBBBBBBB",
"BBBBBBBBBBBBBBBBBBBBBBBBBBBBBBBBBBBBB   .O%<8wwwwwwwwwtwwwwwwewwwwwwwwwwwwwwwwwewywwwewwwwwwewwwwwwwwytwwwwwww5BBBBBBBBBBBBBBBBB",
"BBBBBBBBBBBBBBBBBBBBBBBBBBBBBBBBBBBBBBB    .#-3qwwwwwwwwwwwwwwwwwwwtwwwwwwwwwwwwwwwwwwwwwwwwwwwwwwwwwwwwwwwwwq,BBBBBBBBBBBBBBBBB",
"BBBBBBBBBBBBBBBBBBBBBBBBBBBBBBBBBBBBBBBBBB    o$:38qqwwwwwwwwwwwwwwwwwwwwwqwwwwwwqwwqwwwwwww9wwwwwwwqwwwwwqww1BBBBBBBBBBBBBBBBBB",
"BBBBBBBBBBBBBBBBBBBBBBBBBBBBBBBBBBBBBBBBBBBB    .o%,38wwqwwwwwqwqww0wqw9wwwqww9wqww9w9w9qwwqwww00wqwwwwqwwqw8*BBBBBBBBBBBBBBBBBB",
"BBBBBBBBBBBBBBBBBBBBBBBBBBBBBBBBBBBBBBBBBBBBBBB    .O%,18qwqwqwqwqwwqww9wq0w99w9wqw9wqwq0w0w00wqq0wwqq9wqqw8,BBBBBBBBBBBBBBBBBBB",
"BBBBBBBBBBBBBBBBBBBBBBBBBBBBBBBBBBBBBBBBBBBBBBBBBB    .X#;1588qqqqwqw9qw09qww99wqqw90qq00w0q0qqw09qqqq09851;BBBBBBBBBBBBBBBBBBBB",
"BBBBBBBBBBBBBBBBBBBBBBBBBBBBBBBBBBBBBBBBBBBBBBBBBBBBB     .+$,1888qq00qq09qq00qqqw00990w0q099q9qw9qqq63<=+.BBBBBBBBBBBBBBBBBBBBB",
"BBBBBBBBBBBBBBBBBBBBBBBBBBBBBBBBBBBBBBBBBBBBBBBBBBBBBBBB      .+@-,<6688qq00q8qqqq0q890qq8q80qq8865<;#O. BBBBBBBBBBBBBBBBBBBBBBB",
"BBBBBBBBBBBBBBBBBBBBBBBBBBBBBBBBBBBBBBBBBBBBBBBBBBBBBBBBBBBB      ..++-,,<35658588899088866554,;*++    BBBBBBBBBBBBBBBBBBBBBBBBB",
"BBBBBBBBBBBBBBBBBBBBBBBBBBBBBBBBBBBBBBBBBBBBBBBBBBBBBBBBBBBBBBBB      .  .O++O@@#-,;,>,=#@+++O .    BBBBBBBBBBBBBBBBBBBBBBBBBBBB",
"BBBBBBBBBBBBBBBBBBBBBBBBBBBBBBBBBBBBBBBBBBBBBBBBBBBBBBBBBBBBBBBBBBBBB                           BBBBBBBBBBBBBBBBBBBBBBBBBBBBBBBB",
"BBBBBBBBBBBBBBBBBBBBBBBBBBBBBBBBBBBBBBBBBBBBBBBBBBBBBBBBBBBBBBBBBBBBBBBBBBBBBB           BBBBBBBBBBBBBBBBBBBBBBBBBBBBBBBBBBBBBBB",
"BBBBBBBBBBBBBBBBBBBBBBBBBBBBBBBBBBBBBBBBBBBBBBBBBBBBBBBBBBBBBBBBBBBBBBBBBBBBBBBBBBBBBBBBBBBBBBBBBBBBBBBBBBBBBBBBBBBBBBBBBBBBBBBB",
"BBBBBBBBBBBBBBBBBBBBBBBBBBBBBBBBBBBBBBBBBBBBBBBBBBBBBBBBBBBBBBBBBBBBBBBBBBBBBBBBBBBBBBBBBBBBBBBBBBBBBBBBBBBBBBBBBBBBBBBBBBBBBBBB",
"BBBBBBBBBBBBBBBBBBBBBBBBBBBBBBBBBBBBBBBBB38585853BBBBBBBBBBBBBBBBBBBBBBBBBBBBBBBBBBBBBBBBBBBBBBBBBBBBBBBBBBBBBBBBBBBBBBBBBBBBBBB",
"BBBBBBBBBBBBBBBBBBBBBBBBBBBBBBBBBBBBBBBB558786868573BBBBBBBBBBBBBBBBBBBBBBBBBBBBBBBBBBBBBBBBBBBBB4BBBBBBBBBBBBBBBBBBBBBBBBBBBBBB",
"BBBBBBBBBBBBBBBBBBBBBBBBBBBBBBBBBBBBBBBB5858585868588555BBBBBBBBBBBBBBBBBBBBBBBBBBBBBBBBBBBB24555BBBBBBBBBBBBBBBBBBBBBBBBBBBBBBB",
"BBBBBBBBBBBBBBBBBBBBBBBBBBBBBBBBBBBBBBB18757778557858558855343BBBBBBBBBBBBBBBBBBBBBBBBB423555664BBBBBBBBBBBBBBBBBBBBBBBBBBBBBBBB",
"BBBBBBBBBBBBBBBBBBBBBBBBBBBBBBBBBBBBBBB15785775885856565565885735553443333335444243573556656552BBBBBBBBBBBBBBBBBBBBBBBBBBBBBBBBB",
"BBBBBBBBBBBBBBBBBBBBBBBBBBBBBBBBBBBBBBB<85586565556565855566556775573655575557576655565557554;BBBBBBBBBBBBBBBBBBBBBBBBBBBBBBBBBB",
"BBBBBBBBBBBBBBBBBBBBBBBBBBBBBBBBBBBBBBB&455557575557655556555655555555655557555555555555554,BBBBBBBBBBBBBBBBBBBBBBBBBBBBBBBBBBBB",
"BBBBBBBBBBBBBBBBBBBBBBBBBBBBBBBBBBBBBBBB2555555555555555555555555555555555555555555555553<&BBBBBBBBBBBBBBBBBBBBBBBBBBBBBBBBBBBBB",
"BBBBBBBBBBBBBBBBBBBBBBBBBBBBBBBBBBBBBBBB;4553555555555555555555555555555555555535555534<$BBBBBBBBBBBBBBBBBBBBBBBBBBBBBBBBBBBBBBB",
"BBBBBBBBBBBBBBBBBBBBBBBBBBBBBBBBBBBBBBBBX#,235355555555555455353555355353553535533551,$BBBBBBBBBBBBBBBBBBBBBBBBBBBBBBBBBBBBBBBBB",
"BBBBBBBBBBBBBBBBBBBBBBBBBBBBBBBBBBBBBBBBB .@-<434345533343553533333533355353454442<-OXBBBBBBBBBBBBBBBBBBBBBBBBBBBBBBBBBBBBBBBBBB",
"BBBBBBBBBBBBBBBBBBBBBBBBBBBBBBBBBBBBBBBBBB   X#-<244333343535433333534344343442<-#X BBBBBBBBBBBBBBBBBBBBBBBBBBBBBBBBBBBBBBBBBBBB",
"BBBBBBBBBBBBBBBBBBBBBBBBBBBBBBBBBBBBBBBBBBB    .X@&,<1434333344453443334441<;%@X  BBBBBBBBBBBBBBBBBBBBBBBBBBBBBBBBBBBBBBBBBBBBBB",
"BBBBBBBBBBBBBBBBBBBBBBBBBBBBBBBBBBBBBBBBBBBBBB     .X+$$;<<<<<1221<<<<<-$$OX.   BBBBBBBBBBBBBBBBBBBBBBBBBBBBBBBBBBBBBBBBBBBBBBBB",
"BBBBBBBBBBBBBBBBBBBBBBBBBBBBBBBBBBBBBBBBBBBBBBBBB       .XXX.o+#@OXXXX..     BBBBBBBBBBBBBBBBBBBBBBBBBBBBBBBBBBBBBBBBBBBBBBBBBBB",
"BBBBBBBBBBBBBBBBBBBBBBBBBBBBBBBBBBBBBBBBBBBBBBBBBBBBBB                  BBBBBBBBBBBBBBBBBBBBBBBBBBBBBBBBBBBBBBBBBBBBBBBBBBBBBBBB",
"BBBBBBBBBBBBBBBBBBBBBBBBBBBBBBBBBBBBBBBBBBBBBBBBBBBBBBBBBBBBBBBBBBBBBBBBBBBBBBBBBBBBBBBBBBBBBBBBBBBBBBBBBBBBBBBBBBBBBBBBBBBBBBBB",
"BBBBBBBBBBBBBBBBBBBBBBBBBBBBBBBBBBBBBBBBBBBBBBBBBBBBBBBBBBBBBBBBBBBBBBBBBBBBBBBBBBBBBBBBBBBBBBBBBBBBBBBBBBBBBBBBBBBBBBBBBBBBBBBB",
"BBBBBBBBBBBBBBBBBBBBBBBBBBBBBBBBBBBBBBBBBBBBBBBBBBBBBBBBBBBBBBBBBBBBBBBBBBBBBBBBBBBBBBBBBBBBBBBBBBBBBBBBBBBBBBBBBBBBBBBBBBBBBBBB",
"BBBBBBBBBBBBBBBBBBBBBBBBBBBBBBBBBBBBBBBBBBBBBBBBBBBBBBBBBBBBBBBBBBBBBBBBBBBBBBBBBBBBBBBBBBBBBBBBBBBBBBBBBBBBBBBBBBBBBBBBBBBBBBBB",
"BBBBBBBBBBBBBBBBBBBBBBBBBBBBBBBBBBBBBBBBBBBBBBBBBBBBBBBBBBBBBBBBBBBBBBBBBBBBBBBBBBBBBBBBBBBBBBBBBBBBBBBBBBBBBBBBBBBBBBBBBBBBBBBB",
"BBBBBBBBBBBBBBBBBBBBBBBBBBBBBBBBBBBBBBBBBBBBBBBBBBBBBBBBBBBBBBBBBBBBBBBBBBBBBBBBBBBBBBBBBBBBBBBBBBBBBBBBBBBBBBBBBBBBBBBBBBBBBBBB",
"BBBBBBBBBBBBBBBBBBBBBBBBBBBBBBBBBBBBBBBBBBBBBBBBBBBBBBBBBBBBBBBBBBBBBBBBBBBBBBBBBBBBBBBBBBBBBBBBBBBBBBBBBBBBBBBBBBBBBBBBBBBBBBBB",
"BBBBBBBBBBBBBBBBBBBBBBBBBBBBBBBBBBBBBBBBBBBBBBBBBBBBBBBBBBBBBBBBBBBBBBBBBBBBBBBBBBBBBBBBBBBBBBBBBBBBBBBBBBBBBBBBBBBBBBBBBBBBBBBB",
"BBBBBBBBBBBBBBBBBBBBBBBBBBBBBBBBBBBBBBBBBBBBBBBBBBBBBBBBBBBBBBBBBBBBBBBBBBBBBBBBBBBBBBBBBBBBBBBBBBBBBBBBBBBBBBBBBBBBBBBBBBBBBBBB"
};
