/* XPM */
static char *terminal[] = {
/* columns rows colors chars-per-pixel */
"128 128 48 1 ",
"  c black",
". c #000709",
"X c #00090B",
"o c #000D11",
"O c #001116",
"+ c #001419",
"@ c #00181F",
"# c #001D25",
"$ c #002129",
"% c #00242E",
"& c #002833",
"* c #002B37",
"= c #00303C",
"- c #003442",
"; c #003544",
": c #003847",
"> c #00394A",
", c #003A4A",
"< c #003C4C",
"1 c #003D4D",
"2 c #003D4E",
"3 c #004052",
"4 c #004152",
"5 c #004153",
"6 c #004254",
"7 c #004557",
"8 c #00475A",
"9 c #00485D",
"0 c #004A5F",
"q c #004C61",
"w c #004C62",
"e c #004F64",
"r c #005165",
"t c #005369",
"y c #00546C",
"u c #00566E",
"i c #005A72",
"p c #005E78",
"a c #006079",
"s c #00607A",
"d c #00617C",
"f c #006681",
"g c #006783",
"h c #006784",
"j c #006883",
"k c #006884",
"l c #006985",
"z c None",
/* pixels */
"zzzzzzzzzzzzzzzzzzzzzzzzzzzzzzzzzzzzzzzzzzzzzzzzzzzzzzzzzzzzzzzzzzzzzzzzzzzzzzzzzzzzzzzzzzzzzzzzzzzzzzzzzzzzzzzzzzzzzzzzzzzzzzzz",
"zzzzzzzzzzzzzzzzzzzzzzzzzzzzzzzzzzzzzzzzzzzzzzzzzzzzzzzzzzzzzzzzzzzzzzzzzzzzzzzzzzzzzzzzzzzzzzzzzzzzzzzzzzzzzzzzzzzzzzzzzzzzzzzz",
"zzzzzzzzzzzzzzzzzzzzzzzzzzzzzzzzzzzzzzzzzzzzzzzzzzzzzzzzzzzzzzzzzzzzzzzzzzzzzzzzzzzzzzzzzzzzzzzzzzzzzzzzzzzzzzzzzzzzzzzzzzzzzzzz",
"zzzzzzzzzzzzzzzzzzzzzzzzzzzzzzzzzzzzzzzzzzzzzzzzzzzzzzzzzzzzzzzzzzzzzzzzzzzzzzzzzzzzzzzzzzzzzzzzzzzzzzzzzzzzzzzzzzzzzzzzzzzzzzzz",
"zzzzzzzzzzzzzzzzzzzzzzzzzzzzzzzzzzzzzzzzzzzzzzzzzzzzzzzzzzzzzzzzzzzzzzzzzzzzzzzzzzzzzzzzzzzzzzzzzzzzzzzzzzzzzzzzzzzzzzzzzzzzzzzz",
"zzzzzzzzzzzzzzzzzzzzzzzzzzzzzzzzzzzzzzzzzzzzzzzzzzzzzzzzzzzzzzzzzzzzzzzzzzzzzzzzzzzzzzzzzzzzzzzzzzzzzzzzzzzzzzzzzzzzzzzzzzzzzzzz",
"zzzzzzzzzzzzzzzzzzzzzzzzzzzzzzzzzzzzzzzzzzzzzzzzzzzzzzzzzzzzzzzzzzzzzzzzzzzzzzzzzzzzzzzzzzzzzzzzzzzzzzzzzzzzzzzzzzzzzzzzzzzzzzzz",
"zzzzzzzzzzzzzzzzzzzzzzzzzzzzzzzzzzzzzzzzzzzzzzzzzzzzzzzzzzzzzzzzzzzzzzzzzzzzzzzzzzzzzzzzzzzzzzzzzzzzzzzzzzzzzzzzzzzzzzzzzzzzzzzz",
"zzzzzzzzzzzzzzzzzzzzzzzzzzzzzzzzzzzzzzzzzzzzzzzzzzzzzzzzzzzzzzzzzzzzzzzzzzzzzzzzzzzzzzzzzzzzzzzzzzzzzzzzzzzzzzzzzzzzzzzzzzzzzzzz",
"zzzzzzzzzzzzzzzzzzzzzzzzzzzzzzzzzzzzzzzzzzzzzzzzzzzzzzzzzzzzzzzzzzzzzzzzzzzzzzzzzzzzzzzzzzzzzzzzzzzzzzzzzzzzzzzzzzzzzzzzzzzzzzzz",
"zzzzzzzzzzzzzzzzzzzzzzzzzzzzzzzzzzzzzzzzzzzzzzzzzzzzzzzzzzzzzzzzzzzzzzzzzzzzzzzzzzzzzzzzzzzzzzzzzzzzzzzzzzzzzzzzzzzzzzzzzzzzzzzz",
"zzzzzzzzzzzzzzzzzzzzzzzzzzzzzzzzzzzzzzzzzzzzzzzzzzzzzzzzzzzzzzzzzzzzzzzzzzzzzzzzzzzzzzzzzzzzzzzzzzzzzzzzzzzzzzzzzzzzzzzzzzzzzzzz",
"zzzzzzzzzzzzzzzzzzzzzzzzzzzzzzzzzzzzzzzzzzzzzzzzzzzzzzzzzzzzzzzzzzzzzzzzzzzzzzzzzzzzzzzzzzzzzzzzzzzzzzzzzzzzzzzzzzzzzzzzzzzzzzzz",
"zzzzzzzzzzzzzzzzzzzzzzzzzzzzzzzzzzzzzzzzzzzzzzzzzzzzzzzzzzzzzzzzzzzzzzzzzzzzzzzzzzzzzzzzzzzzzzzzzzzzzzzzzzzzzzzzzzzzzzzzzzzzzzzz",
"zzzzzzzzzzzzzzzzzzzzzzzzzzzzzzzzzzzzzzzzzzzzzzzzzzzzzzzzzzzzzzzzzzzzzzzzzzzzzzzzzzzzzzzzzzzzzzzzzzzzzzzzzzzzzzzzzzzzzzzzzzzzzzzz",
"zzzzzzzzzzzzzzzzzzzzzzzzzzzzzzzzzzzzzzzzzzzzzzzzzzzzzzzzzzzzzzzzzzzzzzzzzzzzzzzzzzzzzzzzzzzzzzzzzzzzzzzzzzzzzzzzzzzzzzzzzzzzzzzz",
"zzzzzzzzzzzzzzzzzzzzzzzzzzzzzzzzzzzzzzzzzzzzzzzzzzzzzzzzzzzzzzzzzzzzzzzzzzzzzzzzzzzzzzzzzzzzzzzzzzzzzzzzzzzzzzzzzzzzzzzzzzzzzzzz",
"zzzzzzzzzzzzzzzzzzzzzzzzzzzzzzzzzzzzzzzzzzzzzzzzzzzzzzzzzzzzzzzzzzzzzzzzzzzzzzzzzzzzzzzzzzzzzzzzzzzzzzzzzzzzzzzzzzzzzzzzzzzzzzzz",
"zzzzzzzzzzzzzzzzzzzzzzzzzzzzzzzzzzzzzzzzzzzzzzzzzzzzzzzzzzzzzzzzzzzzzzzzzzzzzzzzzzzzzzzzzzzzzzzzzzzzzzzzzzzzzzzzzzzzzzzzzzzzzzzz",
"zzzzzzzzzzzzzzzzzzzzzzzzzzzzzzzzzzzzzzzzzzzzzzzzzzzzzzzzzzzzzzzzzzzzzzzzzzzzzzzzzzzzzzzzzzzzzzzzzzzzzzzzzzzzzzzzzzzzzzzzzzzzzzzz",
"zzzzzzzzzzzzlllllllllllllllllllllllllllllllllllllllllllllllllllllllllllllllllllllllllllllllllllllllllllllllllllllllzzzzzzzzzzzzz",
"zzzzzzzzzzlllllllllllllllllllllllllllllllllllllllllllllllllllllllllllllllllllllllllllllllllllllllllllllllllllllllllllzzzzzzzzzzz",
"zzzzzzzzzlllllllllllllllllllllllllllllllllllllllllllllllllllllllllllllllllllllllllllllllllllllllllllllllllllllllllllllzzzzzzzzzz",
"zzzzzzzzdlllllllllllllllllllllllllllllllllllllllllllllllllllllllllllllllllllllllllllllllllllllkkllllllllllllllkllllllllzzzzzzzzz",
"zzzzzzzzgklllhlkllkklkkllllllllllljllhjklkkklllklllllllklkllklkkllllllkllkkllkllllllhklhkljlgjkkllkkkkkkkkkkkkkkkkkkkkkfzzzzzzzz",
"zzzzzzzzkkkkkkkkkkkkgglhlllllllhglgkkgggglkhgkkglllllklkkkgjhgggllllkkgkgggjjkgjllllggghghggggggllgggggggjggggjkggggkfhfzzzzzzzz",
"zzzzzzzrkkfgggggggggggggllllgfggkhgggggfgggggggfllllgggggggggfgflllljgggjjgggfggjjllggfgfgggggfglgggfgggffgggggffghgggffzzzzzzzz",
"zzzzzzz0ffggggfffgfgfggfllllffffdffffffffffdffffllllfdfffdfffffflllldffgfdfffdfffgllfdffffdffdffggfdfdfffffgffffffffffffzzzzzzzz",
"zzzzzzz8fgffffffffffu7,=****&***********&************************************************&**************-<8iffffffffffffzzzzzzzz",
"zzzzzzz7dfffffffffd<O                                                                                      #6fffffffffdfzzzzzzzz",
"zzzzzzz6ffffffffff6                                                                                         oefffffdffffzzzzzzzz",
"zzzzzzz5fdffdffdfa&zzzzzzzzzzzzzzzzzzzzzzzzzzzzzzzzzzzzzzzzzzzzzzzzzzzzzzzzzzzzzzzzzzzzzzzzzzzzzzzzzzzzzzzz  :dfddffdffkzzzzzzzz",
"zzzzzzz5fdfdffdffa#zzzzzzzzzzzzzzzzzzzzzzzzzzzzzzzzzzzzzzzzzzzzzzzzzzzzzzzzzzzzzzzzzzzzzzzzzzzzzzzzzzzzzzzzz =fdfdfdffdfzzzzzzzz",
"zzzzzzz3dffdfddfdazzzzzzzzzzzzzzzzzzzzzzzzzzzzzzzzzzzzzzzzzzzzzzzzzzzzzzzzzzzzzzzzzzzzzzzzzzzzzzzzzzzzzzzzzzz-dddfdfdfddzzzzzzzz",
"zzzzzzz3ddfffddffazzzzzzzzzzzzzzzzzzzzzzzzzzzzzzzzzzzzzzzzzzzzzzzzzzzzzzzzzzzzzzzzzzzzzzzzzzzzzzzzzzzzzzzzzzz-dfdfdfddddzzzzzzzz",
"zzzzzzz3dfdddfddddzzzzzzzzzzzzzzzzzzzzzzzzzzzzzzzzzzzzzzzzzzzzzzzzzzzzzzzzzzzzzzzzzzzzzzzzzzzzzzzzzzzzzzzzzzz;ddddddfdddzzzzzzzz",
"zzzzzzz3ddddddfdddzzzzzzzzzzzzzzzzzzzzzzzzzzzzzzzzzzzzzzzzzzzzzzzzzzzzzzzzzzzzzzzzzzzzzzzzzzzzzzzzzzzzzzzzzzz;ddddddddddzzzzzzzz",
"zzzzzzz3dddddddddazzzzzzzzzzzzzzzzzzzzzzzzzzzzzzzzzzzzzzzzzzzzzzzzzzzzzzzzzzzzzzzzzzzzzzzzzzzzzzzzzzzzzzzzzzz;ddddddddddzzzzzzzz",
"zzzzzzz3dddddddddazzzzzzzzasdddazzzzzzzzzzzzzzzzzzzzzzzzzzzzzzzzzzzzzzzzzzzzzzzzzzzzzzzzzzzzzzzzzzzzzzzzzzzzz:ddddddddaazzzzzzzz",
"zzzzzzz3dddddddddazzzzzzzzaddddddddzzzzzzzzzzzzzzzzzzzzzzzzzzzzzzzzzzzzzzzzzzzzzzzzzzzzzzzzzzzzzzzzzzzzzzzzzz:addddaddsazzzzzzzz",
"zzzzzzz3dddsdsdssazzzzzzzzassddsddsdsazzzzzzzzzzzzzzzzzzzzzzzzzzzzzzzzzzzzzzzzzzzzzzzzzzzzzzzzzzzzzzzzzzzzzzz:aadssssaaazzzzzzzz",
"zzzzzzz<aassaassapzzzzzzzzpdasssasssassaazzzzzzzzzzzzzzzzzzzzzzzzzzzzzzzzzzzzzzzzzzzzzzzzzzzzzzzzzzzzzzzzzzzz;aaasssaaapzzzzzzzz",
"zzzzzzz3aapaaaaaapzzzzzzzzisaaapaaapaassapapzzzzzzzzzzzzzzzzzzzzzzzzzzzzzzzzzzzzzzzzzzzzzzzzzzzzzzzzzzzzzzzzz;ppapappappzzzzzzzz",
"zzzzzzz1aaapppaaapzzzzzzzztapaaaapapaaspaapaaapzzzzzzzzzzzzzzzzzzzzzzzzzzzzzzzzzzzzzzzzzzzzzzzzzzzzzzzzzzzzzz;ppappsppapzzzzzzzz",
"zzzzzzz1pppppspaapzzzzzzzz=riapppppspppapapppappppzzzzzzzzzzzzzzzzzzzzzzzzzzzzzzzzzzzzzzzzzzzzzzzzzzzzzzzzzzz;ppppppppppzzzzzzzz",
"zzzzzzz<ppppppppppzzzzzzzzzo%<qipppppppppppppppppppppzzzzzzzzzzzzzzzzzzzzzzzzzzzzzzzzzzzzzzzzzzzzzzzzzzzzzzzz;pppppppppizzzzzzzz",
"zzzzzzz<ppppppppaizzzzzzzzzz  .#-8uipppppppppppppppppppzzzzzzzzzzzzzzzzzzzzzzzzzzzzzzzzzzzzzzzzzzzzzzzzzzzzzz;pppippppppzzzzzzzz",
"zzzzzzz,ppppippppizzzzzzzzzzz    .@*3riippppippppipppippzzzzzzzzzzzzzzzzzzzzzzzzzzzzzzzzzzzzzzzzzzzzzzzzzzzzz;ippppipipizzzzzzzz",
"zzzzzzz<pipppipppizzzzzzzzzzzzz      o%,0ipppppipppipppizzzzzzzzzzzzzzzzzzzzzzzzzzzzzzzzzzzzzzzzzzzzzzzzzzzzz;piipipipiizzzzzzzz",
"zzzzzzz<ipipipipiizzzzzzzzzzzzzzzzz     X#5ipipipipipipizzzzzzzzzzzzzzzzzzzzzzzzzzzzzzzzzzzzzzzzzzzzzzzzzzzzz;ippipipipizzzzzzzz",
"zzzzzzz,ipipppiipizzzzzzzzzzzzzzzzzzzz    &uiippiipppiiizzzzzzzzzzzzzzzzzzzzzzzzzzzzzzzzzzzzzzzzzzzzzzzzzzzzz;iiiiiiipiizzzzzzzz",
"zzzzzzz,ipiiiiipiizzzzzzzzzzzzzzzzzzzzzzO*8pipiiipiiiiipzzzzzzzzzzzzzzzzzzzzzzzzzzzzzzzzzzzzzzzzzzzzzzzzzzzzz-iipipiipiizzzzzzzz",
"zzzzzzz<iiiiiiiiiizzzzzzzzzzzzzzzzzzzz>8riiipiiiipiiiiiizzzzzzzzzzzzzzzzzzzzzzzzzzzzzzzzzzzzzzzzzzzzzzzzzzzzz-iiiiiiiiiizzzzzzzz",
"zzzzzzz,iiiiiiiiiizzzzzzzzzzzzzzzzz9tuiiiiiiiiiiiiiiipiuzzzzzzzzzzzzzzzzzzzzzzzzzzzzzzzzzzzzzzzzzzzzzzzzzzzzz-iiiiiiiiiizzzzzzzz",
"zzzzzzz,uiiiiiiiiizzzzzzzzzzzzzzuuiiiiiiiiiiiiiiiiiiiiy6zzzzzzzzzzzzzzzzzzzzzzzzzzzzzzzzzzzzzzzzzzzzzzzzzzzzz-uiiiiiiiiizzzzzzzz",
"zzzzzzz>iiiiiiiiiuzzzzzzzzzzzuuiiiiuiiiiiiuiiiiiiiur7;zzzzzzzzzzzzzzzzzzzzzzzzzzzzzzzzzzzzzzzzzzzzzzzzzzzzzzz-iiuiuiuiuuzzzzzzzz",
"zzzzzzz:iiuiiiuiiuzzzzzzzzziiiuiiuiiuiiiuiuiiiuur6*+.zzzzzzzzzzzzzzzzzzzzzzzzzzzzzzzzzzzzzzzzzzzzzzzzzzzzzzzz-uiiuiuuiuizzzzzzzz",
"zzzzzzz:uiiuuiiuuuzzzzzzzzuiiuiuuiiuiiuiiuuiue3&+  zzzzzzzzzzzzzzzzzzzzzzzzzzzzzzzzzzzzzzzzzzzzzzzzzzzzzzzzzz-uiuiuiiuiuzzzzzzzz",
"zzzzzzz:uiuiiuuiiuzzzzzzzzuuuiuiuiuuiuiuuue3*o   zzzzzzzzzzzzzzzzzzzzzzzzzzzzzzzzzzzzzzzzzzzzzzzzzzzzzzzzzzzz-uuuuiuuuuuzzzzzzzz",
"zzzzzzz:uuuuuiuuuuzzzzzzzzuuuiuuuuuiuuyq<%o   zzzzzzzzzzzzzzzzzzzzzzzzzzzzzzzzzzzzzzzzzzzzzzzzzzzzzzzzzzzzzzz=uuiuuuuuuuzzzzzzzz",
"zzzzzzz:uuuuuuuuuuzzzzzzzzyuuuuuuuuy9,&o   zzzzzzzzzzzzzzzzzzzzzzzzzzzzzzzzzzzzzzzzzzzzzzzzzzzzzzzzzzzzzzzzzz=uuuuuuuuuyzzzzzzzz",
"zzzzzzz:uuuuuuuuuyzzzzzzzz0uuuuuy0:$X   zzzzzzzzzzzzzzzzzzzzzzzzzzzzzzzzzzzzzzzzzzzzzzzzzzzzzzzzzzzzzzzzzzzzz=yuuuuyuuuyzzzzzzzz",
"zzzzzzz;uuuuuyuuuyzzzzzzzz*9yr8;$o   zzzzzzzzzzzzzzzzzzzzzzzzzzzzzzzzzzzzzzzzzzzzzzzzzzzzzzzzzzzzzzzzzzzzzzzz-uuuuuyuyuyzzzzzzzz",
"zzzzzzz:uuyyuuyuytzzzzzzzzzO@@X   zzzzzzzzzzzzzzzzzzzzzzzzzzzzzzzzzzzzzzzzzzzzzzzzzzzzzzzzzzzzzzzzzzzzzzzzzzz=tyyyuyyuyyzzzzzzzz",
"zzzzzzz;utuuyyyyutzzzzzzzzzzz zzzzzzzzzzzzzzzzzzzzzzzzzzzzzzzzzzzzzzzzzzzzzzzzzzzzzzzzzzzzzzzzzzzzzzzzzzzzzzz=tyyuyytuttzzzzzzzz",
"zzzzzzz:tuttyyyyyyzzzzzzzzzzzzzzzzzzzzzzzzzzzzzzzzzzzzzzzzzzzzzzzzzzzzzzzzzzzzzzzzzzzzzzzzzzzzzzzzzzzzzzzzzzz=ytyyytututzzzzzzzz",
"zzzzzzz;tutuuuyyyrzzzzzzzzzzzzzzzzzzzzzzzzzzzzzzzzzzzzzzzzzzzzzzzzzzzzzzzzzzzzzzzzzzzzzzzzzzzzzzzzzzzzzzzzzzz=yyuttututtzzzzzzzz",
"zzzzzzz:ttutttytttzzzzzzzzzzzzzzzzzzzzzzzzzzzzzzzzzzzzzzzzzzzzzzzzzzzzzzzzzzzzzzzzzzzzzzzzzzzzzzzzzzzzzzzzzzz=tyttttttttzzzzzzzz",
"zzzzzzz;tttutttyytzzzzzzzzzzzzzzzzzzzzzzzzzzzzzzzzzzzzzzzzzzzzzzzzzzzzzzzzzzzzzzzzzzzzzzzzzzzzzzzzzzzzzzzzzzz=ttttttttttzzzzzzzz",
"zzzzzzz;tttttttttrzzzzzzzzzzzzzzzzzzzzzzzzzzzzzzzzzzzzzzzzzzzzzzzzzzzzzzzzzzzzzzzzzzzzzzzzzzzzzzzzzzzzzzzzzzz=ttttttttttzzzzzzzz",
"zzzzzzz-ttttttttyrzzzzzzzzzzzzzzzzzzzzzzzzzzzzzzzzzzzzzzzzzzzzzzzzzzzzzzzzzzzzzzzzzzzzzzzzzzzzzzzzzzzzzzzzzzz=rttrttttrrzzzzzzzz",
"zzzzzzz-tettrttrrrzzzzzzzzzzzzzzzzzzzzzzzzzzzzzzzzzzzzzzzzzzzzzzzzzzzzzzzzzzzzzzzzzzzzzzzzzzzzzzzzzzzzzzzzzzz*rrrtrrrttrzzzzzzzz",
"zzzzzzz;trttettttezzzzzzzzzzzzzzzzzzzzzzzzzzzzzzzzzzzzzzzzzzzzzzzzzzzzzzzzzzzzzzzzzzzzzzzzzzzzzzzzzzzzzzzzzzz=rretrtrtrtzzzzzzzz",
"zzzzzzz;etettrrterzzzzzzzzzzzzzzzzzzzzzzzzzzzzzzzzzzzzzzzzzzzzzzzzzzzzzzzzzzzzzzzzzzzzzzzzzzzzzzzzzzzzzzzzzzz*rrtrrrrrrezzzzzzzz",
"zzzzzzz-rrrreteetezzzzzzzzzzzzzzzzzzzzzzzzzzzzzzzzzzzzzzzzzzzzzzzzzzzzzzzzzzzzzzzzzzzzzzzzzzzzzzzzzzzzzzzzzzz=ereerrrreezzzzzzzz",
"zzzzzzz-errrereteezzzzzzzzzzzzzzzzzzzzzzzzzzzzzzzzzzzzzzzzzzzzzzzzzzzzzzzzzzzzzzzzzzzzzzzzzzzzzzzzzzzzzzzzzzz*eeeeereeeezzzzzzzz",
"zzzzzzz-eereereerqzzzzzzzzzzzzzzzzzzzzzzzzzzzzzzzzzzzzzzzzzzzzzzzzzzzzzzzzzzzzzzzzzzzzzzzzzzzzzzzzzzzzzzzzzzz=eeeeeeeeeqzzzzzzzz",
"zzzzzzz=eeeeeeeeeezzzzzzzzzzzzzzzzzzzzzzzzzzzzzzzzzzzzzzzzzzzzzzzzzzzzzzzzzzzzzzzzzzzzzzzzzzzzzzzzzzzzzzzzzzz*weeeeeeeeezzzzzzzz",
"zzzzzzz-eeeeeeeee0zzzzzzzzzzzzzzzzzzzzzzzzzzzzzzzzzzzzzzzzzzzzzzzzzzzzzzzzzzzzzzzzzzzzzzzzzzzzzzzzzzzzzzzzzzz*eeqeeeeqeezzzzzzzz",
"zzzzzzz=qeqeqeeeeqzzzzzzzzzzzzzzzzzzzzzzzzzzzzzzzzzzzzzzzzzzzzzzzzzzzzzzzzzzzzzzzzzzzzzzzzzzzzzzzzzzzzzzzzzzz*weeeqqeqqqzzzzzzzz",
"zzzzzzz-e0ee0ewqqwzzzzzzzzzzzzzzzzzzzzzzzzzzzzzzzzzzzzzzzzzzzzzzzzzzzzzzzzzzzzzzzzzzzzzzzzzzzzzzzzzzzzzzzzzzz*wwqqqqqqqqzzzzzzzz",
"zzzzzzz=0e0eew0ee0zzzzzzzzzzzzzzzzzzzzzzzzzzzzzzzzzzzzzzzzzzzzzzzzzzzzzzzzzzzzzzzzzzzzzzzzzzzzzzzzzzzzzzzzzzz*0wqqqqwwqqzzzzzzzz",
"zzzzzzz=q0eewqqww0zzzzzzzzzzzzzzzzzzzzzzzzzzzzzzzzzzzzzzzzzzzzzzzzzzzzzzzzzzzzzzzzzzzzzzzzzzzzzzzzzzzzzzzzzzz*0wqwwqw0wwzzzzzzzz",
"zzzzzzz-0e00ww0ww0zzzzzzzzzzzzzzzzzzzzzzzzzzzzzzzzzzzzzzzzzzzzzzzzzzzzzzzzzzzzzzzzzzzzzzzzzzzzzzzzzzzzzzzzzzz*0w00q00w00zzzzzzzz",
"zzzzzzz=0qq000w0w0zzzzzzzzzzzzzzzzzzzzzzzzzzzzzzzzzzzzzzzzzzzzzzzzzzzz900000w0000000w00q00000000000zzzzzzzzzz*00q0000q00zzzzzzzz",
"zzzzzzz=000q0wq009zzzzzzzzzzzzzzzzzzzzzzzzzzzzzzzzzzzzzzzzzzzzzzzzzzzz00000000000000000000000000000zzzzzzzzzz*9000000009zzzzzzzz",
"zzzzzzz=9000000009zzzzzzzzzzzzzzzzzzzzzzzzzzzzzzzzzzzzzzzzzzzzzzzzzzz500000009000000900000000000900zzzzzzzzzz*8000900009zzzzzzzz",
"zzzzzzz=9009000909zzzzzzzzzzzzzzzzzzzzzzzzzzzzzzzzzzzzzzzzzzzzzzzzzzz309909909909009009090909099009zzzzzzzzzz&9090099999zzzzzzzz",
"zzzzzzz=9099090998zzzzzzzzzzzzzzzzzzzzzzzzzzzzzzzzzzzzzzzzzzzzzzzzzzz,99999999999808999999909999999zzzzzzzzzz&9999999098zzzzzzzz",
"zzzzzzz=9999800898zzzzzzzzzzzzzzzzzzzzzzzzzzzzzzzzzzzzzzzzzzzzzzzzzzz;99999999989990999899999999998zzzzzzzzzz*8099998988zzzzzzzz",
"zzzzzzz*8999808998zzzzzzzzzzzzzzzzzzzzzzzzzzzzzzzzzzzzzzzzzzzzzzzzzzz%88999889998998989998989898998zzzzzzzzzz&8898998988zzzzzzzz",
"zzzzzzz=8999889888zzzzzzzzzzzzzzzzzzzzzzzzzzzzzzzzzzzzzzzzzzzzzzzzzzzz&,1111111111111111111111133<=zzzzzzzzzz&8898888888zzzzzzzz",
"zzzzzzz=8888888988zzzzzzzzzzzzzzzzzzzzzzzzzzzzzzzzzzzzzzzzzzzzzzzzzzzzz......X....X.......X....Xzzzzzzzzzzzzz&7888888888zzzzzzzz",
"zzzzzzz=8888888887zzzzzzzzzzzzzzzzzzzzzzzzzzzzzzzzzzzzzzzzzzzzzzzzzzzzzz                       zzzzzzzzzzzzzz&7888888877zzzzzzzz",
"zzzzzzz=7888888887zzzzzzzzzzzzzzzzzzzzzzzzzzzzzzzzzzzzzzzzzzzzzzzzzzzzzzzzzzzzzzzzzzzzzzzzzzzzzzzzzzzzzzzzzzz&7878778787zzzzzzzz",
"zzzzzzz*7778787887zzzzzzzzzzzzzzzzzzzzzzzzzzzzzzzzzzzzzzzzzzzzzzzzzzzzzzzzzzzzzzzzzzzzzzzzzzzzzzzzzzzzzzzzzzz&7777877877zzzzzzzz",
"zzzzzzz*7778778787zzzzzzzzzzzzzzzzzzzzzzzzzzzzzzzzzzzzzzzzzzzzzzzzzzzzzzzzzzzzzzzzzzzzzzzzzzzzzzzzzzzzzzzzzzz&7777777777zzzzzzzz",
"zzzzzzz*7777777776zzzzzzzzzzzzzzzzzzzzzzzzzzzzzzzzzzzzzzzzzzzzzzzzzzzzzzzzzzzzzzzzzzzzzzzzzzzzzzzzzzzzzzzzzzz=7777777776zzzzzzzz",
"zzzzzzz=77777767773zzzzzzzzzzzzzzzzzzzzzzzzzzzzzzzzzzzzzzzzzzzzzzzzzzzzzzzzzzzzzzzzzzzzzzzzzzzzzzzzzzzzzzzzzz<7767677777zzzzzzzz",
"zzzzzzz*677677766773zzzzzzzzzzzzzzzzzzzzzzzzzzzzzzzzzzzzzzzzzzzzzzzzzzzzzzzzzzzzzzzzzzzzzzzzzzzzzzzzzzzzzzzz,77577666766zzzzzzzz",
"zzzzzzz*6767766776676666666666665665556666566666666666666666666666666666665665666666645666565666666665565535666766766666zzzzzzzz",
"zzzzzzz*6776676776766666676676666776776666676666666676666666766666766666666666666666666666666666666667576666676666667666zzzzzzzz",
"zzzzzzz*6666666666666676666766666666566666666666676666666666566666566666666666656666666666666666666666666666666666666665zzzzzzzz",
"zzzzzzz%5666666666666666666666666656666465666565555656655646565556656654656665645665665465666655565665655665655566655655zzzzzzzz",
"zzzzzzzz154555665655655556656665555666445444655555555554455555545444455555555544554444445554454554455554455555555555556,zzzzzzzz",
"zzzzzzzz&36555555655555555555355445545434353555555555355435543555553535434555553555353355555553355555355535443455333552zzzzzzzzz",
"zzzzzzzz.*355353454344535533633353343353333355333353333333533333333333333333533333333333333333333353333333533333333352*zzzzzzzzz",
"zzzzzzzzz %:33333535333353353333333333333333333333333333333333333333333333333333333333333333333333333333333333333333;$zzzzzzzzzz",
"zzzzzzzzzz o%=:::,::::,:::,,:::::::::>::::,::::::::::,::::::::,:::,:::::::::::,:::>:::::::::::,::::::,::::::::,::;=$ozzzzzzzzzzz",
"zzzzzzzzzzz   XXXXXXXXXXXXXXXXXXXXXXXXXXXXXXXXXXXXXXXXXXXXXXXXXXXXXXXXXXXXXXXXXXXXXXXXXXXXXXXXXXXXXXXXXXXXXXXXXXXX zzzzzzzzzzzzz",
"zzzzzzzzzzzz                                                                                                     zzzzzzzzzzzzzzz",
"zzzzzzzzzzzzzzzzzzzzzzzzzzzzzzzzzzzzzzzzzzzzzzzzzzzzzzzzzzzzzzzzzzzzzzzzzzzzzzzzzzzzzzzzzzzzzzzzzzzzzzzzzzzzzzzzzzzzzzzzzzzzzzzz",
"zzzzzzzzzzzzzzzzzzzzzzzzzzzzzzzzzzzzzzzzzzzzzzzzzzzzzzzzzzzzzzzzzzzzzzzzzzzzzzzzzzzzzzzzzzzzzzzzzzzzzzzzzzzzzzzzzzzzzzzzzzzzzzzz",
"zzzzzzzzzzzzzzzzzzzzzzzzzzzzzzzzzzzzzzzzzzzzzzzzzzzzzzzzzzzzzzzzzzzzzzzzzzzzzzzzzzzzzzzzzzzzzzzzzzzzzzzzzzzzzzzzzzzzzzzzzzzzzzzz",
"zzzzzzzzzzzzzzzzzzzzzzzzzzzzzzzzzzzzzzzzzzzzzzzzzzzzzzzzzzzzzzzzzzzzzzzzzzzzzzzzzzzzzzzzzzzzzzzzzzzzzzzzzzzzzzzzzzzzzzzzzzzzzzzz",
"zzzzzzzzzzzzzzzzzzzzzzzzzzzzzzzzzzzzzzzzzzzzzzzzzzzzzzzzzzzzzzzzzzzzzzzzzzzzzzzzzzzzzzzzzzzzzzzzzzzzzzzzzzzzzzzzzzzzzzzzzzzzzzzz",
"zzzzzzzzzzzzzzzzzzzzzzzzzzzzzzzzzzzzzzzzzzzzzzzzzzzzzzzzzzzzzzzzzzzzzzzzzzzzzzzzzzzzzzzzzzzzzzzzzzzzzzzzzzzzzzzzzzzzzzzzzzzzzzzz",
"zzzzzzzzzzzzzzzzzzzzzzzzzzzzzzzzzzzzzzzzzzzzzzzzzzzzzzzzzzzzzzzzzzzzzzzzzzzzzzzzzzzzzzzzzzzzzzzzzzzzzzzzzzzzzzzzzzzzzzzzzzzzzzzz",
"zzzzzzzzzzzzzzzzzzzzzzzzzzzzzzzzzzzzzzzzzzzzzzzzzzzzzzzzzzzzzzzzzzzzzzzzzzzzzzzzzzzzzzzzzzzzzzzzzzzzzzzzzzzzzzzzzzzzzzzzzzzzzzzz",
"zzzzzzzzzzzzzzzzzzzzzzzzzzzzzzzzzzzzzzzzzzzzzzzzzzzzzzzzzzzzzzzzzzzzzzzzzzzzzzzzzzzzzzzzzzzzzzzzzzzzzzzzzzzzzzzzzzzzzzzzzzzzzzzz",
"zzzzzzzzzzzzzzzzzzzzzzzzzzzzzzzzzzzzzzzzzzzzzzzzzzzzzzzzzzzzzzzzzzzzzzzzzzzzzzzzzzzzzzzzzzzzzzzzzzzzzzzzzzzzzzzzzzzzzzzzzzzzzzzz",
"zzzzzzzzzzzzzzzzzzzzzzzzzzzzzzzzzzzzzzzzzzzzzzzzzzzzzzzzzzzzzzzzzzzzzzzzzzzzzzzzzzzzzzzzzzzzzzzzzzzzzzzzzzzzzzzzzzzzzzzzzzzzzzzz",
"zzzzzzzzzzzzzzzzzzzzzzzzzzzzzzzzzzzzzzzzzzzzzzzzzzzzzzzzzzzzzzzzzzzzzzzzzzzzzzzzzzzzzzzzzzzzzzzzzzzzzzzzzzzzzzzzzzzzzzzzzzzzzzzz",
"zzzzzzzzzzzzzzzzzzzzzzzzzzzzzzzzzzzzzzzzzzzzzzzzzzzzzzzzzzzzzzzzzzzzzzzzzzzzzzzzzzzzzzzzzzzzzzzzzzzzzzzzzzzzzzzzzzzzzzzzzzzzzzzz",
"zzzzzzzzzzzzzzzzzzzzzzzzzzzzzzzzzzzzzzzzzzzzzzzzzzzzzzzzzzzzzzzzzzzzzzzzzzzzzzzzzzzzzzzzzzzzzzzzzzzzzzzzzzzzzzzzzzzzzzzzzzzzzzzz",
"zzzzzzzzzzzzzzzzzzzzzzzzzzzzzzzzzzzzzzzzzzzzzzzzzzzzzzzzzzzzzzzzzzzzzzzzzzzzzzzzzzzzzzzzzzzzzzzzzzzzzzzzzzzzzzzzzzzzzzzzzzzzzzzz",
"zzzzzzzzzzzzzzzzzzzzzzzzzzzzzzzzzzzzzzzzzzzzzzzzzzzzzzzzzzzzzzzzzzzzzzzzzzzzzzzzzzzzzzzzzzzzzzzzzzzzzzzzzzzzzzzzzzzzzzzzzzzzzzzz",
"zzzzzzzzzzzzzzzzzzzzzzzzzzzzzzzzzzzzzzzzzzzzzzzzzzzzzzzzzzzzzzzzzzzzzzzzzzzzzzzzzzzzzzzzzzzzzzzzzzzzzzzzzzzzzzzzzzzzzzzzzzzzzzzz"
};
