/* XPM */
static char *uextras[] = {
/* columns rows colors chars-per-pixel */
"128 128 57 1 ",
"  c black",
". c #000709",
"X c #000A0C",
"o c #000E12",
"O c #001217",
"+ c #001419",
"@ c #00181F",
"# c #001D25",
"$ c #002029",
"% c #00242E",
"& c #002730",
"* c #002833",
"= c #002C38",
"- c #002E3A",
"; c #00303C",
": c #00313F",
"> c #003442",
", c #003846",
"< c #003A49",
"1 c #003C4C",
"2 c #003D4D",
"3 c #003F51",
"4 c #004153",
"5 c #004355",
"6 c #004558",
"7 c #00475A",
"8 c #00485C",
"9 c #00495C",
"0 c #00485D",
"q c #00495D",
"w c #004B5F",
"e c #004C61",
"r c #004D61",
"t c #004C62",
"y c #004D62",
"u c #004F64",
"i c #005166",
"p c #005268",
"a c #00546B",
"s c #00566E",
"d c #005870",
"f c #005A73",
"g c #005B74",
"h c #005C75",
"j c #005E78",
"k c #006079",
"l c #00607A",
"z c #00617C",
"x c #00637E",
"c c #00637F",
"v c #00647E",
"b c #006681",
"n c #006784",
"m c #006883",
"M c #006884",
"N c #006985",
"B c None",
/* pixels */
"BBBBBBBBBBBBBBBBBBBBBBBBBBBBBBBBBBBBBBBBBBBBBBBBBBBBBBBBBBBBBBBBBBBBBBBBBBBBBBBBBBBBBBBBBBBBBBBBBBBBBBBBBBBBBBBBBBBBBBBBBBBBBBBB",
"BBBBBBBBBBBBBBBBBBBBBBBBBBBBBBBBBBBBBBBBBBBBBBBBBBBBBBBBBBBBBBBBBBBBBBBBBBBBBBBBBBBBBBBBBBBBBBBBBBBBBBBBBBBBBBBBBBBBBBBBBBBBBBBB",
"BBBBBBBBBBBBBBBBBBBBBBBBBBBBBBBBBBBBBBBBBBBBBBBBBBBBBBBBBBBBBBBBBBBBBBBBBBBBBBBBBBBBBBBBBBBBBBBBBBBBBBBBBBBBBBBBBBBBBBBBBBBBBBBB",
"BBBBBBBBBBBBBBBBBBBBBBBBBBBBBBBBBBBBBBBBBBBBBBBBBBBBBBBBBBBBBBBBBBBBBBBBBBBBBBBBBBBBBBBBBBBBBBBBBBBBBBBBBBBBBBBBBBBBBBBBBBBBBBBB",
"BBBBBBBBBBBBBBBBBBBBBBBBBBBBBBBBBBBBBBBBBBBBBBBBBBBBBBBBBBBBBBBBBBBBBBBBBBBBBBBBBBBBBBBBBBBBBBBBBBBBBBBBBBBBBBBBBBBBBBBBBBBBBBBB",
"BBBBBBBBBBBBBBBBBBBBBBBBBBBBBBBBBBBBBBBBBBBBBBBBBBBBBBBBBBBBBBBBBBBBBBBBBBBBBBBBBBBBBBBBBBBBBBBBBBBBBBBBBBBBBBBBBBBBBBBBBBBBBBBB",
"BBBBBBBBBBBBBBBBBBBBBBBBBBBBBBBBBBBBBBBBBBBBBBBBBBBBBBBBBBBBBBBBBBBBBBBBBBBBBBBBBBBBBBBBBBBBBBBBBBBBBBBBBBBBBBBBBBBBBBBBBBBBBBBB",
"BBBBBBBBBBBBBBBBBBBBBBBBBBBBBBBBBBBBBBBBBBBBBBBBBBBBBBBBBBBBBBBBBBBBBBBBBBBBBBBBBBBBBBBBBBBBBBBBBBBBBBBBBBBBBBBBBBBBBBBBBBBBBBBB",
"BBBBBBBBBBBBBBBBBBBBBBBBBBBBBBBBBBBBBBBBBBBBBBBBBBBBBBBBBBBBBBBBBBBBBBBBBBBBBBBBBBBBBBBBBBBBBBBBBBBBBBBBBBBBBBBBBBBBBBBBBBBBBBBB",
"BBBBBBBBBBBBBBBBBBBBBBBBBBBBBBBBBBBBBBBBBBBBBBBBBBBBBBBBBBBBBBBBBBBBBBBBBBBBBBBBBBBBBBBBBBBBBBBBBBBBBBBBBBBBBBBBBBBBBBBBBBBBBBBB",
"BBBBBBBBBBBBBBBBBBBBBBBBBBBBBBBBBBBBBBBBBBBBBBBBBBBBBBBBBBBBBBBBBBBBBBBBBBBBBBBBBBBBBBBBBBBBBBBBBBBBBBBBBBBBBBBBBBBBBBBBBBBBBBBB",
"BBBBBBBBBBBBBBBBBBBBBBBBBBBBBBBBBBBBBBBBBBBBBBBBBBBBBBBBBBBBBBBBBBBBBBBBBBBBBBBBBBBBBBBBBBBBBBBBBBBBBBBBBBBBBBBBBBBBBBBBBBBBBBBB",
"BBBBBBBBBBBBBBBBBBBBBBBBBBBBBBBBBBBBBBBBBBBBBBBBBBBBBBBBBBBBBBBBBBBBBBBBBBBBBBBBBBBBBBBBBBBBBBBBBBBBBBBBBBBBBBBBBBBBBBBBBBBBBBBB",
"BBBBBBBBBBBBBBBBBBBBBBBBBBBBBBBBBBBBBBBBBBBBBBBBBBBBBBBBBBBBBBBBBBBBBBBBBBBBBBBBBBBBBBBBBBBBBBBBBBBBBBBBBBBBBBBBBBBBBBBBBBBBBBBB",
"BBBBBBBBBBBBBBBBBBBBBBBBNNNNNNNNNNNNNNNmBBBBBBBBBBBBBBBBBBBBBBBBBBBBBBBBBBBBBBBBBmNNNNNNNNNNNNNNNBBBBBBBBBBBBBBBBBBBBBBBBBBBBBBB",
"BBBBBBBBBBBBBBBBBBBBBBBBNNNNNNNNNNNNNNNNBBBBBBBBBBBBBBBBBBBBBBBBBBBBBBBBBBBBBBBBBNNNNNNNNNNNNNNNNBBBBBBBBBBBBBBBBBBBBBBBBBBBBBBB",
"BBBBBBBBBBBBBBBBBBBBBBBBNNNNNNnNNNMNNNnNBBBBBBBBBBBBBBBBBBBBBBBBBBBBBBBBBBBBBBBBBNNNNmNNNNNNNnNNNBBBBBBBBBBBBBBBBBBBBBBBBBBBBBBB",
"BBBBBBBBBBBBBBBBBBBBBBBBNNnnnNNnNNmNMNnmBBBBBBBBBBBBBBBBBBBBBBBBBBBBBBBBBBBBBBBBBnnNNnmmnnMMNnmnNBBBBBBBBBBBBBBBBBBBBBBBBBBBBBBB",
"BBBBBBBBBBBBBBBBBBBBBBBBNmnnnnnnnnnnMMnmBBBBBBBBBBBBBBBBBBBBBBBBBBBBBBBBBBBBBBBBBnnnnnmmnnnnnnnmMBBBBBBBBBBBBBBBBBBBBBBBBBBBBBBB",
"BBBBBBBBBBBBBBBBBBBBBBBBmmmmmmmMMMnnmmmmBBBBBBBBBBBBBBBBBBBBBBBBBBBBBBBBBBBBBBBBBnmmmmmmmmMnmmmmmBBBBBBBBBBBBBBBBBBBBBBBBBBBBBBB",
"BBBBBBBBBBBBBBBBBBBBBBBBbmbmmbmbMbMnmbmbBBBBBBBBBBBBBBBBBBBBBBBBBBBBBBBBBBBBBBBBBmmbmmbmbMmnmMMMmBBBBBBBBBBBBBBBBBBBBBBBBBBBBBBB",
"BBBBBBBBBBBBBBBBBBBBBBBBbnbnbmbMbMbbbmbbBBBBBBBBBBBBBBBBBBBBBBBBBBBBBBBBBBBBBBBBBbbmbmbbMbbbbbbbbBBBBBBBBBBBBBBBBBBBBBBBBBBBBBBB",
"BBBBBBBBBBBBBBBBBBBBBBBBbnbbbbbbbbbbbbbbBBBBBBBBBBBBBBBBBBBBBBBBBBBBBBBBBBBBBBBBBmbbbbbbbbbbbbbbmBBBBBBBBBBBBBBBBBBBBBBBBBBBBBBB",
"BBBBBBBBBBBBBBBBBBBBBBBBbbbbbbbbbbbbbbbbBBBBBBBBBBBBBBBBBBBBBBBBBBBBBBBBBBBBBBBBBbbbbbbbbbbbbbbbbBBBBBBBBBBBBBBBBBBBBBBBBBBBBBBB",
"BBBBBBBBBBBBBBBBBBBBBBBBbbbcbxbbbvbbcbbbBBBBBBBBBBBBBBBBBBBBBBBBBBBBBBBBBBBBBBBBBbbbbbccbbvbvbbbbBBBBBBBBBBBBBBBBBBBBBBBBBBBBBBB",
"BBBBBBBBBBBBBBBBBBBBBBBBbcbbbbbxbbbbbcbvBBBBBBBBBBBBBBBBBBBBBBBBBBBBBBBBBBBBBBBBBbbzbbbbcbvbbbccbBBBBBBBBBBBBBBBBBBBBBBBBBBBBBBB",
"BBBBBBBBBBBBBBBBBBBBBBBBcbcxbbvbbvbbzbzbBBBBBBBBBBBBBBBBBBBBBBBBBBBBBBBBBBBBBBBBBbbxzbbzcbvbbvcbzBBBBBBBBBBBBBBBBBBBBBBBBBBBBBBB",
"BBBBBBBBBBBBBBBBBBBBBBBBccxbzzbzxbzzbcbvBBBBBBBBBBBBBBBBBBBBBBBBBBBBBBBBBBBBBBBBBcbzbzbbzvccvvcvbBBBBBBBBBBBBBBBBBBBBBBBBBBBBBBB",
"BBBBBBBBBBBBBBBBBBBBBBBBzvbzvvczbzbbxxxxBBBBBBBBBBBBBBBBBBBBBBBBBBBBBBBBBBBBBBBBBzbzvcvcvvvvvvvczBBBBBBBBBBBBBBBBBBBBBBBBBBBBBBB",
"BBBBBBBBBBBBBBBBBBBBBBBBbvzbzczbzvzzxxxxBBBBBBBBBBBBBBBBBBBBBBBBBBBBBBBBBBBBBBBBBzvzvzzbzczczczcbBBBBBBBBBBBBBBBBBBBBBBBBBBBBBBB",
"BBBBBBBBBBBBBBBBBBBBBBBBzzzzzczxvzzczzNbBBBBBBBBBBBBBBBBBBBBBBBBBBBBBBBBBBBBBBBBBzzvzbzzzzcczczzzBBBBBBBBBBBBBBBBBBBBBBBBBBBBBBB",
"BBBBBBBBBBBBBBBBBBBBBBBBvzzzbzzzxzzzxzNNBBBBBBBBBBBBBBBBBBBBBBBBBBBBBBBBBBBBBBBBBzczzzzzczzzzczczBBBBBBBBBBBBBBBBBBBBBBBBBBBBBBB",
"BBBBBBBBBBBBBBBBBBBBBBBBzzzzzzzzzzzzzzzzBBBBBBBBBBBBBBBBBBBBBBBBBBBBBBBBBBBBBBBBBzzzzzzzzzzzzzzzzBBBBBBBBBBBBBBBBBBBBBBBBBBBBBBB",
"BBBBBBBBBBBBBBBBBBBBBBBBzzzzzzzzzzzzzzzzBBBBBBBBBBBBBBBBBBBBBBBBBBBBBBBBBBBBBBBBBzzzzzzzzzzzzzzzzBBBBBBBBBBBBBBBBBBBBBBBBBBBBBBB",
"BBBBBBBBBBBBBBBBBBBBBBBBzzzzzzkzzzzzzzzzBBBBBBBBBBBBBBBBBBBBBBBBBBBBBBBBBBBBBBBBBzzzzjzzzzzzzzzjzBBBBBBBBBBBBBBBBBBBBBBBBBBBBBBB",
"BBBBBBBBBBBBBBBBBBBBBBBBzjzzjzkzzjzljzkzBBBBBBBBBBBBBBBBBBBBBBBBBBBBBBBBBBBBBBBBBjzjzzkzzjjzlzzkzBBBBBBBBBBBBBBBBBBBBBBBBBBBBBBB",
"BBBBBBBBBBBBBBBBBBBBBBBBjzkkzjzkjzzjzjkjBBBBBBBBBBBBBBBBBBBBBBBBBBBBBBBBBBBBBBBBBjzjzkzzlzlzkzjzzBBBBBBBBBBBBBBBBBBBBBBBBBBBBBBB",
"BBBBBBBBBBBBBBBBBBBBBBBBzjzjjzklzjzjjzzjBBBBBBBBBBBBBBBBBBBBBBBBBBBBBBBBBBBBBBBBBzjzjzjjkjjjkzlljBBBBBBBBBBBBBBBBBBBBBBBBBBBBBBB",
"BBBBBBBBBBBBBBBBBBBBBBBBjjzzzzjjjzjlkzjzBBBBBBBBBBBBBBBBBBBBBBBBBBBBBBBBBBBBBBBBBzkjkjzkzjzjljjlkBBBBBBBBBBBBBBBBBBBBBBBBBBBBBBB",
"BBBBBBBBBBBBBBBBBBBBBBBBjzjjjjjzjkjljljjBBBBBBBBBBBBBBBBBBBBBBBBBBBBBBBBBBBBBBBBBjjlkjjjjkkjkjkjjBBBBBBBBBBBBBBBBBBBBBBBBBBBBBBB",
"BBBBBBBBBBBBBBBBBBBBBBBBjjjjjjjjjjjjjjjjBBBBBBBBBBBBBBBBBBBBBBBBBBBBBBBBBBBBBBBBBjjjjjjjjjjjjljjjBBBBBBBBBBBBBBBBBBBBBBBBBBBBBBB",
"BBBBBBBBBBBBBBBBBBBBBBBBjjjjjjjjjjjjjjjjBBBBBBBBBBBNNNNNNNNNNNBBBBBBBBBBBBBBBBBBBjjjjjjjjjjjjjjjjBBBBBBBBBBBBBBBBBBBBBBBBBBBBBBB",
"BBBBBBBBBBBBBBBBBBBBBBBBjjjjjjjjjjjjjjjhBBBBBBBBBBNNNNNNNNNNNNNNNBBBBBBBBBBBBBBBBjjjjjjjjjjjjjjjjBBBBBBBBBBBBBBBBBBBBBBBBBBBBBBB",
"BBBBBBBBBBBBBBBBBBBBBBBBjjjjjjjjjjjjjjjjBBBBBBBBBBNNNNNNNNNNNNNNNNNBBBBBBBBBBBBBBjjjjjjjjjhjjjjjjBBBBBBBBBBBBBBBBBBBBBBBBBBBBBBB",
"BBBBBBBBBBBBBBBBBBBBBBBBjjhjjhjjjhjhhjhjBBBBBBBBBBB2NNNNNNNNNNNNNNNNNBBBBBBBBBBBBjgjjjfjjjhjjjhjjBBBBBBBBBBBBBBBBBBBBBBBBBBBBBBB",
"BBBBBBBBBBBBBBBBBBBBBBBBjhjfhjhfhjjhjjhhBBBBBBBBBBB BfNNNNNNnNNNNNNnNNBBBBBBBBBBBhhjfjjfhjhhfhhjjBBBBBBBBBBBBBBBBBBBBBBBBBBBBBBB",
"BBBBBBBBBBBBBBBBBBBBBBBBjfgjhhhhfjfjjfjgBBBBBBBBBBBB  >NNNNNnnmmNMnnmNmBBBBBBBBBBhjfhhhjjfhhjfjffBBBBBBBBBBBBBBBBBBBBBBBBBBBBBBB",
"BBBBBBBBBBBBBBBBBBBBBBBBfjffhhhhjghffjffBBBBBBBBBBBBBB.BsNNNMnbmmmmmmnMzBBBBBBBBBfhhfjfffjfjfhfjhBBBBBBBBBBBBBBBBBBBBBBBBBBBBBBB",
"BBBBBBBBBBBBBBBBBBBBBBBBhfhhfhhhffhfjfjfBBBBBBBBBBBBBBBB =MmmmmmmmbmmmbbBBBBBBBBBfhhhfjffhfjfhfffBBBBBBBBBBBBBBBBBBBBBBBBBBBBBBB",
"BBBBBBBBBBBBBBBBBBBBBBBBfhfffffhhffhffffBBBBBBBBBBBBBBBBB B,bbbbbbbbbbbbBBBBBBBBBfffhfffhffffffhfBBBBBBBBBBBBBBBBBBBBBBBBBBBBBBB",
"BBBBBBBBBBBBBBBBBBBBBBBBffffffffffffffffBBBBBBBBBBBBBBBBBBB >bbbbbbbbbbvjBBBBBBBBffffffffffffffffBBBBBBBBBBBBBBBBBBBBBBBBBBBBBBB",
"BBBBBBBBBBBBBBBBBBBBBBBBffffffffffffffffBBBBBBBBBBBBBBBBBBBB#bbxcbbccbbbbBBBBBBBBffffffffffffffffBBBBBBBBBBBBBBBBBBBBBBBBBBBBBBB",
"BBBBBBBBBBBBBBBBBBBBBBBBfffffffffffffffdBBBBbzBBBBBBBBBBBBBBBbbbcvbvvbbbbBBBBBBBBffffdfdffffdffffBBBBBBBBBBBBBBBBBBBBBBBBBBBBBBB",
"BBBBBBBBBBBBBBBBBBBBBBBBdfdfdfdfddfdfffdBBBBzbzzBBBBBBBBBBBBBzzxcvcbczzbzBBBBBBBBdfdfffffffddfdffBBBBBBBBBBBBBBBBBBBBBBBBBBBBBBB",
"BBBBBBBBBBBBBBBBBBBBBBBBfdfddffdfddfddddBBBBzbbzzBBBBBBBBBBBpzzxzzvzzczzzBBBBBBBBfdddddfdfdfdddffBBBBBBBBBBBBBBBBBBBBBBBBBBBBBBB",
"BBBBBBBBBBBBBBBBBBBBBBBBdddddddddddfdfddBBBBzzczxzzBBBBBBBBBzxzzzczczczczBBBBBBBBddfdddddddddfdddBBBBBBBBBBBBBBBBBBBBBBBBBBBBBBB",
"BBBBBBBBBBBBBBBBBBBBBBBBddddddsddddddsddBBBBwzzzzzzzjBBBBBBdzzzzzzzzzzzzdBBBBBBBBddddddddsddsddddBBBBBBBBBBBBBBBBBBBBBBBBBBBBBBB",
"BBBBBBBBBBBBBBBBBBBBBBBBddsddddsdddsdddsBBBBBzzzzzzzlzBBBBBzzzzzzlzzzzzzBBBBBBBBBddsdsdsdddsddsddBBBBBBBBBBBBBBBBBBBBBBBBBBBBBBB",
"BBBBBBBBBBBBBBBBBBBBBBBBsddsdssdddssdsssBBBBBlzlzzzzzljzjkzjjzlzzjkzjzljBBBBBBBBBdsdsdsdsdsdssdsdBBBBBBBBBBBBBBBBBBBBBBBBBBBBBBB",
"BBBBBBBBBBBBBBBBBBBBBBBBdsdssdsssssdssdsBBBBBBjzjjzjkkzjzzjzzzjkjzzjzlzzBBBBBBBBBsssssdsssdsdssssBBBBBBBBBBBBBBBBBBBBBBBBBBBBBBB",
"BBBBBBBBBBBBBBBBBBBBBBBBssssssssssssssssBBBBBB,jlkzjkjjzjlzjlkjzlzjjjzjjBBBBBBBBBsssssssssssssssdBBBBBBBBBBBBBBBBBBBBBBBBBBBBBBB",
"BBBBBBBBBBBBBBBBBBBBBBBBssssssssssssssssBBBBBBBjjjjjjlzjjjjljjljjjjkjjjpBBBBBBBBBssssssssssssssssBBBBBBBBBBBBBBBBBBBBBBBBBBBBBBB",
"BBBBBBBBBBBBBBBBBBBBBBBBasasasssasssssssBBBBBBBBjjjjjjjjjjjjjjjjjjjjjjjpBBBBBBBBBsasasssassssssssBBBBBBBBBBBBBBBBBBBBBBBBBBBBBBB",
"BBBBBBBBBBBBBBBBBBBBBBBBassasaaasaaaaapsBBBBBBBBB1jjjjjjjjjjjjjjjjjjjjjsBBBBBBBBBpssspaassaaspspsBBBBBBBBBBBBBBBBBBBBBBBBBBBBBBB",
"BBBBBBBBBBBBBBBBBBBBBBBBaaaaaaaapspspsssBBBBBBBBB ;jjjhjjjjjhjjjjjjjjhjhBBBBBBBBBsaasppsasspsspspBBBBBBBBBBBBBBBBBBBBBBBBBBBBBBB",
"BBBBBBBBBBBBBBBBBBBBBBBBapaaaaaaspsaaapaBBBBBBBBBB BfhhhfjfjgjfjjfjfhhhhBBBBBBBBBpaapaspappspaspsBBBBBBBBBBBBBBBBBBBBBBBBBBBBBBB",
"BBBBBBBBBBBBBBBBBBBBBBBBaapaaaaapsaapsapBBBBBBBBBBB B;fjfjjffjjffjfhhhhhBBBBBBBBBaaasspsapspaapspBBBBBBBBBBBBBBBBBBBBBBBBBBBBBBB",
"BBBBBBBBBBBBBBBBBBBBBBBBapaaaaaapppspppaBBBBBBBBBBBBB B5fffhfffhffhfhffffBBBBBBBBppappapppsppapppBBBBBBBBBBBBBBBBBBBBBBBBBBBBBBB",
"BBBBBBBBBBBBBBBBBBBBBBBBpapaapappspppappBBBBBBBBBBBBBBB *fffffffffffffffffBBBBBBBaaaapapapppsppspBBBBBBBBBBBBBBBBBBBBBBBBBBBBBBB",
"BBBBBBBBBBBBBBBBBBBBBBBBppppppppppppppppBBBBBBBBBBBBBBBB B;fffffffffffffffdBBBBBBiaipppppppppppppBBBBBBBBBBBBBBBBBBBBBBBBBBBBBBB",
"BBBBBBBBBBBBBBBBBBBBBBBBppppipppppppppppBBBBBBBBBBBBBBBBBB BufffffffdfffdfdBBBBBBapppppppppppppppBBBBBBBBBBBBBBBBBBBBBBBBBBBBBBB",
"BBBBBBBBBBBBBBBBBBBBBBBBpipppppiippppippBBBBBBBBBBBBBBBBBBB B=dfffddfdddfdfdBBBBBppipippppipippipBBBBBBBBBBBBBBBBBBBBBBBBBBBBBBB",
"BBBBBBBBBBBBBBBBBBBBBBBBpiaipippipppippiBBBBBBBBBBBBBBBBBBBBB B4ddddddddddddsBBBBaiaiipiipiiippppBBBBBBBBBBBBBBBBBBBBBBBBBBBBBBB",
"BBBBBBBBBBBBBBBBBBBBBBBBiiiipiiipiiiiiiiBBBBBBBBBBBBBBBBBBBBBBB %sddsddddssddpBBBiiiiiipiiiipiiiiBBBBBBBBBBBBBBBBBBBBBBBBBBBBBBB",
"BBBBBBBBBBBBBBBBBBBBBBBBiiiipupuiiiiiiiiBBBBBBBBBBBBBBBBBBBBBBBB &sssdssssdssdtBBiiiiiiiiiiiiiiiiBBBBBBBBBBBBBBBBBBBBBBBBBBBBBBB",
"BBBBBBBBBBBBBBBBBBBBBBBBiuiiupupiiiiuiiiBBBBBBBBBBBBBBBBBBBBBBBBB ;ssssssssssss56uuiiuiiiiiiiiiiiBBBBBBBBBBBBBBBBBBBBBBBBBBBBBBB",
"BBBBBBBBBBBBBBBBBBBBBBBBiiiiiiuuupiuipuu9BBBBBBBBBBBBBBBBBBBBBBBBB 4ssssssassaspituiupuiuiiiuiiiiBBBBBBBBBBBBBBBBBBBBBBBBBBBBBBB",
"BBBBBBBBBBBBBBBBBBBBBBBBuiuuuiuuuuupuuiu9BBBBBBBBBBBBBBBBBBBBBBBBBBBpsasspssasssauyuuuiuiyuuuuuuuBBBBBBBBBBBBBBBBBBBBBBBBBBBBBBB",
"BBBBBBBBBBBBBBBBBBBBBBBBuuuuuuuuuuuuuuuu9BBBBBBBBBBBBBBBBBBBBBBBBBBBBasspssasppsaautuuuiuuuuuuuuuBBBBBBBBBBBBBBBBBBBBBBBBBBBBBBB",
"BBBBBBBBBBBBBBBBBBBBBBBBuuuuuutuuuuuuuuuuBBBBBBBBBBBBBBBBBBBBBBBBBBBB*ppappspsppaaattuyuuuuuuuuuuBBBBBBBBBBBBBBBBBBBBBBBBBBBBBBB",
"BBBBBBBBBBBBBBBBBBBBBBB#uutuuuuuuuuyuuuuuBBBBBBBBBBBBBBBBBBBBBBBBBBBB :paapaapapapppttuyuuuuuuruuBBBBBBBBBBBBBBBBBBBBBBBBBBBBBBB",
"BBBBBBBBBBBBBBBBBBBBBBBBuutuuututuyuuuwuuBBBBBBBBBBBBBBBBBBBBBBBBBBBBBBpppppppppppppittuurwueuuuuBBBBBBBBBBBBBBBBBBBBBBBBBBBBBBB",
"BBBBBBBBBBBBBBBBBBBBBBBBtutuuwwuuyyuuruye7BBBBBBBBBBBBBBBBBBBBBBBBBBBBBBipppppppppppputtuuuwruwutBBBBBBBBBBBBBBBBBBBBBBBBBBBBBBB",
"BBBBBBBBBBBBBBBBBBBBBBBB4wuwuwuuttttyytyt9BBBBBBBBBBBBBBBBBBBBBBBBBBBBBB%ipppipipiipiiu9wrtuwuuw7BBBBBBBBBBBBBBBBBBBBBBBBBBBBBBB",
"BBBBBBBBBBBBBBBBBBBBBBBB3wuwrwuwttttttttwuBBBBBBBBBBBBBBBBBBBBBBBBBBBBBB =iiiiiiiiiiiiitwtuutttt4BBBBBBBBBBBBBBBBBBBBBBBBBBBBBBB",
"BBBBBBBBBBBBBBBBBBBBBBBB=wwuwuwtttqtwtwtwwBBBBBBBBBBBBBBBBBBBBBBBBBBBBBBB 1iiiiiiiiiiiiuww9wwwttBBBBBBBBBBBBBBBBBBBBBBBBBBBBBBBB",
"BBBBBBBBBBBBBBBBBBBBBBBB@wewwwwytttttwttuw0BBBBBBBBBBBBBBBBBBBBBBBBBBBBBBBBwiiuuuiiuuiuiu9wwywwwBBBBBBBBBBBBBBBBBBBBBBBBBBBBBBBB",
"BBBBBBBBBBBBBBBBBBBBBBBBBwwwwrywttqtwwwwwwwBBBBBBBBBBBBBBBBBBBBBBBBBBBBBBBB#wuuuuuuiuuuuuuwwwwwwBBBBBBBBBBBBBBBBBBBBBBBBBBBBBBBB",
"BBBBBBBBBBBBBBBBBBBBBBBBB1wwwwwwwwwwwwwwwww7BBBBBBBBBBBBBBBBBBBBBBBBBBBBBBB %wuuuuuyuuuuuuw99ww4BBBBBBBBBBBBBBBBBBBBBBBBBBBBBBBB",
"BBBBBBBBBBBBBBBBBBBBBBBBB=wwwwwwwwwwwwwwwwwwBBBBBBBBBBBBBBBBBBBBBBBBBBBBBBBBo<uutuuuuutuwuuw0wwBBBBBBBBBBBBBBBBBBBBBBBBBBBBBBBBB",
"BBBBBBBBBBBBBBBBBBBBBBBBBB090w9ww0w90wwwwwww9BBBBBBBBBBBBBBBBBBBBBBBBBBBBBBB%;wtutttutyuuuuw979BBBBBBBBBBBBBBBBBBBBBBBBBBBBBBBBB",
"BBBBBBBBBBBBBBBBBBBBBBBBBB10w0w0w9w9009w9999w6BBBBBBBBBBBBBBBBBBBBBBBBBBBBB;:*,wtuytttttwtwut91BBBBBBBBBBBBBBBBBBBBBBBBBBBBBBBBB",
"BBBBBBBBBBBBBBBBBBBBBBBBBB%09w9w0000999999999w7BBBBBBBBBBBBBBBBBBBBBBBBBBB451;%,tttttwtwwwuwew,BBBBBBBBBBBBBBBBBBBBBBBBBBBBBBBBB",
"BBBBBBBBBBBBBBBBBBBBBBBBBB 199q900990099w9999900BBBBBBBBBBBBBBBBBBBBBBBBB7874<=%>t0ttwwtrwwwww5BBBBBBBBBBBBBBBBBBBBBBBBBBBBBBBBB",
"BBBBBBBBBBBBBBBBBBBBBBBBBBB%7780700890990707007077BBBBBBBBBBBBBBBBBBBBB7907074,*$3ttwwwwwwwwwww5BBBBBBBBBBBBBBBBBBBBBBBBBBBBBBBB",
"BBBBBBBBBBBBBBBBBBBBBBBBBBB 10709897q7070089797099777BBBBBBBBBBBBBBB77707997752>*>70qwwqw9wwww9w7BBBBBBBBBBBBBBBBBBBBBBBBBBBBBBB",
"BBBBBBBBBBBBBBBBBBBBBBBBBBBBB777777797979797777q7q7q77077BBBBBBB6667799978977751:%>7w9w9w9999w9907BBBBBBBBBBBBBBBBBBBBBBBBBBBBBB",
"BBBBBBBBBBBBBBBBBBBBBBBBBBBB =07777977777707777777777777779977779799776777777763<-%>09990w99999997BBBBBBBBBBBBBBBBBBBBBBBBBBBBBB",
"BBBBBBBBBBBBBBBBBBBBBBBBBBBBB ;77777777777777777777777777777777777777777777777763,=$,09900909099990BBBBBBBBBBBBBBBBBBBBBBBBBBBBB",
"BBBBBBBBBBBBBBBBBBBBBBBBBBBBB O767777777777777777777777777677777767767777776777652>*;777077807780777BBBBBBBBBBBBBBBBBBBBBBBBBBBB",
"BBBBBBBBBBBBBBBBBBBBBBBBBBBBBB $767767667767577776677676667767667766666766767766641;%>777777777777777BBBBBBBBBBBBBBBBBBBBBBBBBBB",
"BBBBBBBBBBBBBBBBBBBBBBBBBBBBBBB $56667677577765767677767666767666667667667766767654<=%:777777777777776BBBBBBBBBBBBBBBBBBBBBBBBBB",
"BBBBBBBBBBBBBBBBBBBBBBBBBBBBBBB  $66667765755777667657576666766666666666666666666552>=#*477777767777776BBBBBBBBBBBBBBBBBBBBBBBBB",
"BBBBBBBBBBBBBBBBBBBBBBBBBBBBBBBB  $56656575765555655757566666666666666665666566666551;o =56776665757557BBBBBBBBBBBBBBBBBBBBBBBBB",
"BBBBBBBBBBBBBBBBBBBBBBBBBBBBBBBBB  o*77565565665665665665665666556565665665665665655*X  X156656567577565BBBBBBBBBBBBBBBBBBBBBBBB",
"BBBBBBBBBBBBBBBBBBBBBBBBBBBBBBBBBB   %555655555555555555555555555555555555555555555* BB  @455665555555565BBBBBBBBBBBBBBBBBBBBBBB",
"BBBBBBBBBBBBBBBBBBBBBBBBBBBBBBBBBBB   o*55555555555555555555555555555555555555555=o BBBBB $555555555555555BBBBBBBBBBBBBBBBBBBBBB",
"BBBBBBBBBBBBBBBBBBBBBBBBBBBBBBBBBBBBB   B>5455555555554555554555555555554555555>B BBBBBBBB -555554555555554BBBBBBBBBBBBBBBBBBBBB",
"BBBBBBBBBBBBBBBBBBBBBBBBBBBBBBBBBBBBBB    o%>55545555455455545455555545555544%O  BBBBBBBBBBB444454454444454BBBBBBBBBBBBBBBBBBBBB",
"BBBBBBBBBBBBBBBBBBBBBBBBBBBBBBBBBBBBBBBB     o%>4445455454544555444555534>%oB  BBBBBBBBBBBBBB44454444;-44444BBBBBBBBBBBBBBBBBBBB",
"BBBBBBBBBBBBBBBBBBBBBBBBBBBBBBBBBBBBBBBBBB      .+$;>>4444444444444>>:$O.    BBBBBBBBBBBBBBBB#444444$  B3444BBBBBBBBBBBBBBBBBBBB",
"BBBBBBBBBBBBBBBBBBBBBBBBBBBBBBBBBBBBBBBBBBBBB         .............        BBBBBBBBBBBBBBBBBB %44443BBB B433BBBBBBBBBBBBBBBBBBBB",
"BBBBBBBBBBBBBBBBBBBBBBBBBBBBBBBBBBBBBBBBBBBBBBBB                       BBBBBBBBBBBBBBBBBBBBBBBB>3433BBBBB333BBBBBBBBBBBBBBBBBBBB",
"BBBBBBBBBBBBBBBBBBBBBBBBBBBBBBBBBBBBBBBBBBBBBBBBBBBBBBB         BBBBBBBBBBBBBBBBBBBBBBBBBBBBBBBB2333;BBB3333BBBBBBBBBBBBBBBBBBBB",
"BBBBBBBBBBBBBBBBBBBBBBBBBBBBBBBBBBBBBBBBBBBBBBBBBBBBBBBBBBBBBBBBBBBBBBBBBBBBBBBBBBBBBBBBBBBBBBBBB3333213323BBBBBBBBBBBBBBBBBBBBB",
"BBBBBBBBBBBBBBBBBBBBBBBBBBBBBBBBBBBBBBBBBBBBBBBBBBBBBBBBBBBBBBBBBBBBBBBBBBBBBBBBBBBBBBBBBBBBBBBBB#21333322BBBBBBBBBBBBBBBBBBBBBB",
"BBBBBBBBBBBBBBBBBBBBBBBBBBBBBBBBBBBBBBBBBBBBBBBBBBBBBBBBBBBBBBBBBBBBBBBBBBBBBBBBBBBBBBBBBBBBBBBBB B;1311-BBBBBBBBBBBBBBBBBBBBBBB",
"BBBBBBBBBBBBBBBBBBBBBBBBBBBBBBBBBBBBBBBBBBBBBBBBBBBBBBBBBBBBBBBBBBBBBBBBBBBBBBBBBBBBBBBBBBBBBBBBBBB X++BBBBBBBBBBBBBBBBBBBBBBBBB",
"BBBBBBBBBBBBBBBBBBBBBBBBBBBBBBBBBBBBBBBBBBBBBBBBBBBBBBBBBBBBBBBBBBBBBBBBBBBBBBBBBBBBBBBBBBBBBBBBBBBBBBBBBBBBBBBBBBBBBBBBBBBBBBBB",
"BBBBBBBBBBBBBBBBBBBBBBBBBBBBBBBBBBBBBBBBBBBBBBBBBBBBBBBBBBBBBBBBBBBBBBBBBBBBBBBBBBBBBBBBBBBBBBBBBBBBBBBBBBBBBBBBBBBBBBBBBBBBBBBB",
"BBBBBBBBBBBBBBBBBBBBBBBBBBBBBBBBBBBBBBBBBBBBBBBBBBBBBBBBBBBBBBBBBBBBBBBBBBBBBBBBBBBBBBBBBBBBBBBBBBBBBBBBBBBBBBBBBBBBBBBBBBBBBBBB",
"BBBBBBBBBBBBBBBBBBBBBBBBBBBBBBBBBBBBBBBBBBBBBBBBBBBBBBBBBBBBBBBBBBBBBBBBBBBBBBBBBBBBBBBBBBBBBBBBBBBBBBBBBBBBBBBBBBBBBBBBBBBBBBBB",
"BBBBBBBBBBBBBBBBBBBBBBBBBBBBBBBBBBBBBBBBBBBBBBBBBBBBBBBBBBBBBBBBBBBBBBBBBBBBBBBBBBBBBBBBBBBBBBBBBBBBBBBBBBBBBBBBBBBBBBBBBBBBBBBB",
"BBBBBBBBBBBBBBBBBBBBBBBBBBBBBBBBBBBBBBBBBBBBBBBBBBBBBBBBBBBBBBBBBBBBBBBBBBBBBBBBBBBBBBBBBBBBBBBBBBBBBBBBBBBBBBBBBBBBBBBBBBBBBBBB",
"BBBBBBBBBBBBBBBBBBBBBBBBBBBBBBBBBBBBBBBBBBBBBBBBBBBBBBBBBBBBBBBBBBBBBBBBBBBBBBBBBBBBBBBBBBBBBBBBBBBBBBBBBBBBBBBBBBBBBBBBBBBBBBBB",
"BBBBBBBBBBBBBBBBBBBBBBBBBBBBBBBBBBBBBBBBBBBBBBBBBBBBBBBBBBBBBBBBBBBBBBBBBBBBBBBBBBBBBBBBBBBBBBBBBBBBBBBBBBBBBBBBBBBBBBBBBBBBBBBB",
"BBBBBBBBBBBBBBBBBBBBBBBBBBBBBBBBBBBBBBBBBBBBBBBBBBBBBBBBBBBBBBBBBBBBBBBBBBBBBBBBBBBBBBBBBBBBBBBBBBBBBBBBBBBBBBBBBBBBBBBBBBBBBBBB",
"BBBBBBBBBBBBBBBBBBBBBBBBBBBBBBBBBBBBBBBBBBBBBBBBBBBBBBBBBBBBBBBBBBBBBBBBBBBBBBBBBBBBBBBBBBBBBBBBBBBBBBBBBBBBBBBBBBBBBBBBBBBBBBBB"
};
