<?xml version="1.0" encoding="UTF-8" standalone="no"?>
<svg
   xmlns:dc="http://purl.org/dc/elements/1.1/"
   xmlns:cc="http://creativecommons.org/ns#"
   xmlns:rdf="http://www.w3.org/1999/02/22-rdf-syntax-ns#"
   xmlns:svg="http://www.w3.org/2000/svg"
   xmlns="http://www.w3.org/2000/svg"
   xmlns:sodipodi="http://sodipodi.sourceforge.net/DTD/sodipodi-0.dtd"
   xmlns:inkscape="http://www.inkscape.org/namespaces/inkscape"
   viewBox="0 0 1039 393"
   id="svg2"
   version="1.1"
   inkscape:version="0.48.4 r9939"
   width="100%"
   height="100%"
   sodipodi:docname="calendar.svgz">
  <title
     id="title2995">Tilain</title>
  <metadata
     id="metadata34">
    <rdf:RDF>
      <cc:Work
         rdf:about="">
        <dc:format>image/svg+xml</dc:format>
        <dc:type
           rdf:resource="http://purl.org/dc/dcmitype/StillImage" />
        <dc:title>Tilain</dc:title>
        <cc:license
           rdf:resource="" />
      </cc:Work>
    </rdf:RDF>
  </metadata>
  <sodipodi:namedview
     pagecolor="#ffffff"
     bordercolor="#666666"
     borderopacity="1"
     objecttolerance="10"
     gridtolerance="10"
     guidetolerance="10"
     inkscape:pageopacity="0"
     inkscape:pageshadow="2"
     inkscape:window-width="1920"
     inkscape:window-height="1027"
     id="namedview32"
     showgrid="false"
     inkscape:zoom="1.3037282"
     inkscape:cx="-337.71522"
     inkscape:cy="158.25498"
     inkscape:window-x="0"
     inkscape:window-y="26"
     inkscape:window-maximized="1"
     inkscape:current-layer="svg2" />
  <defs
     id="defs4" />
  <rect
     y="254.99998"
     x="23.999952"
     height="11.999996"
     width="178.00005"
     id="weekDayHeader"
     style="opacity:0;fill:#ffffff;fill-opacity:1;stroke:none"
     inkscape:label="#weekDayHeader" />
  <rect
     y="287"
     x="0"
     height="106.00001"
     width="18"
     id="weeksColumn"
     style="opacity:0;fill:#ffffff;fill-opacity:1;stroke:none" />
  <g
     transform="translate(-73.337119,138.05681)"
     id="red">
    <rect
       transform="translate(-484.66288,-12.38055)"
       y="207.32373"
       x="663"
       height="21"
       width="21"
       id="rect3816"
       style="opacity:0;fill:#ffffff;fill-opacity:1;stroke:none" />
    <path
       inkscape:connector-curvature="0"
       style="fill:#f57900;fill-opacity:1;stroke:none"
       d="m 664,208.3125 0,19 19,0 0,-19 -19,0 z m 1,1 17,0 0,17 -17,0 0,-17 z"
       transform="translate(-484.66288,-12.38055)"
       id="path3822" />
  </g>
  <g
     transform="translate(-73.337119,138.05681)"
     id="today">
    <rect
       y="194.94318"
       x="152.33711"
       height="21"
       width="21"
       id="rect3808"
       style="opacity:0;fill:#ffffff;fill-opacity:1;stroke:none" />
    <path
       inkscape:connector-curvature="0"
       style="fill:#43b1f6;fill-opacity:1;stroke:none"
       d="m 638,208.3125 0,19 19,0 0,-19 -19,0 z m 1,1 17,0 0,17 -17,0 0,-17 z"
       transform="translate(-484.66288,-12.38055)"
       id="path3814" />
  </g>
  <g
     id="green"
     transform="matrix(1.05,0,0,1,-79.753979,138.05681)">
    <rect
       transform="translate(-484.66288,-12.38055)"
       y="207.32373"
       x="613"
       height="21"
       width="20"
       id="rect3800"
       style="opacity:0;fill:#ffffff;fill-opacity:1;stroke:none" />
    <path
       inkscape:connector-curvature="0"
       style="fill:#12ab61;fill-opacity:1;stroke:none"
       d="m 614,208.3125 0,19 19,0 0,-19 -19,0 z m 1,1 17,0 0,17 -17,0 0,-17 z"
       transform="matrix(0.95238095,0,0,1,-455.4724,-12.38055)"
       id="path3806" />
  </g>
  <rect
     style="opacity:0;fill:#ffffff;fill-opacity:1;stroke:none"
     id="active"
     width="18"
     height="18"
     x="95.999992"
     y="287" />
  <rect
     y="285"
     x="48"
     height="18"
     width="18"
     id="inactive"
     style="opacity:0.1;fill:#ffffff;fill-opacity:1;stroke:none" />
  <g
     transform="translate(-73.337119,138.05681)"
     id="selected">
    <rect
       transform="translate(-484.66288,-12.38055)"
       y="207.32373"
       x="687"
       height="21"
       width="21"
       id="rect3824"
       style="opacity:0;fill:#ffffff;fill-opacity:1;stroke:none" />
    <path
       sodipodi:nodetypes="cccccccccc"
       inkscape:connector-curvature="0"
       inkscape:label="#selected"
       style="fill:#404040;fill-opacity:1;stroke:none"
       d="m 203.33712,195.94318 0,19 19,0 0,-19 z m 1,1 17,0 0,17 -17,0 z"
       id="path3830" />
  </g>
  <rect
     y="287"
     x="139.03217"
     height="18"
     width="18"
     id="hoverHighlight"
     style="opacity:0.4;fill:#ffffff;fill-opacity:1;stroke:none"
     inkscape:transform-center-x="1.9678268" />
</svg>
