/* XPM */
static char *gbrainy[] = {
/* columns rows colors chars-per-pixel */
"24 24 45 1 ",
"  c #0000282A3305",
". c #00002B4B36FC",
"X c #00002CAE38AD",
"o c #00002E3D3AAF",
"O c #0000317C3EE5",
"+ c #000035A54430",
"@ c #0000363644FE",
"# c #0000393048B2",
"$ c #00003AC44AAC",
"% c #00003C914CFB",
"& c #00003DB94E6F",
"* c #00003EE54FFB",
"= c #00003FB95106",
"- c #000041A15360",
"; c #0000438A55D7",
": c #000044D95781",
"> c #000045485812",
", c #000046ED5A2D",
"< c #000048DE5C9A",
"1 c #000049695D4E",
"2 c #00004A895EB6",
"3 c #00004B445FA1",
"4 c #00004C3060C8",
"5 c #00004CE361A6",
"6 c #00004D706275",
"7 c #00004F20648A",
"8 c #0000506D6634",
"9 c #000051746784",
"0 c #000052B36917",
"q c #0000535F69EF",
"w c #0000554F6C69",
"e c #000057D36F98",
"r c #000059E4722C",
"t c #00005AB3735B",
"y c #00005BB974AD",
"u c #00005DBE772D",
"i c #00005E3277CB",
"p c #00005FF479EE",
"a c #000060967AB5",
"s c #000062687D0D",
"d c #0000650F8069",
"f c #000067248314",
"g c #0000690E85E5",
"h c #00006AFE883B",
"j c None",
/* pixels */
"jjjjjjjjjjjjjjjjjjjjjjjj",
"jjhhhhhhhhhhhhhhhhhhhhjj",
"jfggggggghgghgggggggggfj",
"jsffffffspsueudfffdfffdj",
"jpddddu4# $6$j+1udddddsj",
"jussaqjjjjjjujjj.,pssssj",
"jyapwjjjjjjjyjjjjj#raapj",
"jrpejjjjjjjejjjjjjj#yiuj",
"jeyjjjjjjjwjjjjtrerjquyj",
"jwrjjjjjjjjjjq174jj7*wrj",
"jqejjjjjj7076jjj9jjjj9ej",
"j9wjjjjjj>jjjjjjj7jjj7wj",
"j7qqjjj71jjjjjjjj6jjj79j",
"j6999781jjjjjjjjj444679j",
"j467777jjjjjjjjj1*jj476j",
"j<564646jjjjjj11jjjj>44j",
"j>3131413122==jjjjjj<41j",
"j>1,,11,,<<,&O:jjjj,,,,j",
"j-,>>>>,>>,>>jj->>>:>>>j",
"j-::::::;:::::j@:::::::j",
"j*------------=&------=j",
"j@*==================*%j",
"jj XXXXXXXXXXXXXXXXXXojj",
"jjjjjjjjjjjjjjjjjjjjjjjj"
};
