/* XPM */
static char *geany[] = {
/* columns rows colors chars-per-pixel */
"24 24 34 1 ",
"  c #00001AA821D7",
". c #0000297534B2",
"X c #000030FC3E26",
"o c #000032163FAE",
"O c #000032EA4091",
"+ c #000037BD46D3",
"@ c #000038DE4835",
"# c #000039F04995",
"$ c #00003C5E4CC1",
"% c #00003D8F4E31",
"& c #00003FDF5129",
"* c #000041665309",
"= c #0000420D53DC",
"- c #0000431D5568",
"; c #000044F05794",
": c #000045EC58D7",
"> c #000048435BFD",
", c #000049BF5DB2",
"< c #00004C716124",
"1 c #00004DD162E7",
"2 c #00004F8A6514",
"3 c #0000526768B5",
"4 c #000053F66A98",
"5 c #000056436D95",
"6 c #000056A06E0A",
"7 c #000058557062",
"8 c #00005A2B7285",
"9 c #00005B817440",
"0 c #00005CDC75EE",
"q c #000060857A9C",
"w c #0000631D7DDC",
"e c #0000653E80A4",
"r c #0000671F82F7",
"t c None",
/* pixels */
"tttttttttttttttttttttttt",
"tttttttttttttttttttttttt",
"tttttttttttttttttreetttt",
"tttttttttttttrw944tttttt",
"ttttttttttttw5=ttttttttt",
"tttttttttttq4ttttttttttt",
"tttttttttt07ttt0tttttttt",
"ttttttttt85ttt93tttttttt",
"ttttttt85ttt961ttttttttt",
"ttttttt1tt73>ttttttttttt",
"ttttt331<;%ttttttttttttt",
"tt3,,ttttttttttttttttttt",
"t2:ttttttttttttttttttttt",
"t,tttttttttttttttttttttt",
"tttttttttttttttttttttttt",
"tttttttttt>,,tttttt>,ttt",
"tt:>tttttt#;=tttt>;XX=tt",
"ttt$:tttt:;:::;::=ttt#tt",
"tttt@;tt;=-;;;=;=tt==%tt",
"tttttO*===&*&==&$ttttttt",
"tttttt.#%&&&&&%+tttttttt",
"ttttttt .XoXOOXttttttttt",
"tttttttttttttttttttttttt",
"tttttttttttttttttttttttt"
};
