/* XPM */
static char *kommander[] = {
/* columns rows colors chars-per-pixel */
"24 24 43 1 ",
"  c #000012CF17EA",
". c #000018521EE9",
"X c #000020A6296F",
"o c #000021A62ABA",
"O c #000024FD2EFD",
"+ c #0000294C34BD",
"@ c #00002BCF37AA",
"# c #00002E013A5B",
"$ c #00003370414B",
"% c #0000357E43F0",
"& c #0000368E4551",
"* c #0000384247B0",
"= c #00003C224C73",
"- c #00003E694F52",
"; c #0000413A52EC",
": c #0000429A5493",
"> c #0000436F55B4",
", c #0000446456EF",
"< c #000046895999",
"1 c #000046D65A0F",
"2 c #000048FD5CA6",
"3 c #000049D55DD6",
"4 c #00004AED5F3E",
"5 c #00004C0E60A1",
"6 c #00004D176204",
"7 c #000050936662",
"8 c #0000525768A0",
"9 c #0000538F6A30",
"0 c #000054A76B9E",
"q c #0000567A6DED",
"w c #000056CD6E4F",
"e c #000058C270BE",
"r c #00005B1C73E5",
"t c #00005BE274C7",
"y c #00005D8076C7",
"u c #00005E6577EF",
"i c #000060D27B12",
"p c #0000622E7CCC",
"a c #0000634F7E36",
"s c #000065AC8125",
"d c #000065FD818E",
"f c #000069988631",
"g c None",
/* pixels */
"gggggggggggggggggggggggg",
"gggggggggggggggggggggggg",
"ggggggggggggfggggggggggg",
"gggggggggggfffgggggggggg",
"ggggggggggsdsdgggggggggg",
"gggggppppaappppsppsggggg",
"gggggriipiiiiiiiiiuggggg",
"ggggg5yuuuuyyuuuuyrggggg",
"gggggwrrtr3$#-wrrtrggggg",
"gggggweee6gggg%qeweggggg",
"gggqqqqq0gggggg5qqqqqggg",
"ggg899998gggggg699999ggg",
"ggg,58778gggggg677865ggg",
"ggggo<6766ggggg6765&gggg",
"ggggg=45553gg355352ggggg",
"gggggg232232322222<ggggg",
"ggggg,<<2<<<<<<<1<<ggggg",
"ggggg=:;=:,>:,,==::ggggg",
"gggggg@O o%:;-#. +gggggg",
"ggggggggggX=-*gggggggggg",
"ggggggggggg+#ggggggggggg",
"gggggggggggggggggggggggg",
"gggggggggggggggggggggggg",
"gggggggggggggggggggggggg"
};
