/* XPM */
static char *xfce4_mcs_manager[] = {
/* columns rows colors chars-per-pixel */
"24 24 39 1 ",
"  c #000018B61F67",
". c #00001A602183",
"X c #00001C722424",
"o c #00002EB53B53",
"O c #000032D8409B",
"+ c #0000342A4253",
"@ c #000035C44462",
"# c #00003772467C",
"$ c #000038CE4840",
"% c #0000398A4920",
"& c #00003C324C7F",
"* c #00003DC84E90",
"= c #0000410352A5",
"- c #000041FE53D3",
"; c #000044905710",
": c #000046C459E4",
"> c #000047A95B15",
", c #000048DE5C96",
"< c #00004ABA5EED",
"1 c #00004B005F37",
"2 c #00004C1360B3",
"3 c #00004CB1617F",
"4 c #00004E3D635B",
"5 c #00004F5464D4",
"6 c #000050FE66FA",
"7 c #00005251689C",
"8 c #0000536C6A07",
"9 c #000055146C12",
"0 c #000056EF6E7D",
"q c #000058096FE2",
"w c #00005A107264",
"e c #00005B0B73B9",
"r c #00005DFE77AD",
"t c #00005ECE7889",
"y c #00005FF17A58",
"u c #000061317BA6",
"i c #000062E77D8C",
"p c #000064BA7FE5",
"a c None",
/* pixels */
"aaaaaaaaaaaaaaaaaaaaaaaa",
"aaaaaaaaaaaaaaaaaaaaaaaa",
"aaaaaaaaaaaaaaaaaaaaaaaa",
"aaaaaaaaaaaaaaaaaaaaaaaa",
"aaaapppaaaappaaaapppaaaa",
"aaaaipiaaaaipuaaaiiiaaaa",
"aaaayuuaautuuuuaauuuaaaa",
"aaaarttaar<&&:rrarttaaaa",
"aaaaeeraawaaaoqwaereaaaa",
"aaaawwwaaweeewwqawwwaaaa",
"aaaaqqwaa+=qw1%aaqqwaaaa",
"aaa8909aaa*994aaa999aaaa",
"aa83=*=58aa886aaa888aaaa",
"aa6=aaa:6aa665aa56765aaa",
"aa4555555aa452a22*%&>5aa",
"aa##<4,%aaa222a>;aaa@4aa",
"aaaa:2:aaa=<2>a;<22<>2aa",
"aaaa>>>aaa*>>:aaO->>$%aa",
"aaaa;::aaa&::;aaa%>:aaaa",
"aaaa*==aaaa*==aaa&*=aaaa",
"aaaaa.aaaaa Xaaaaa.aaaaa",
"aaaaaaaaaaaaaaaaaaaaaaaa",
"aaaaaaaaaaaaaaaaaaaaaaaa",
"aaaaaaaaaaaaaaaaaaaaaaaa"
};
